<svg xmlns="http://www.w3.org/2000/svg" xmlns:xlink="http://www.w3.org/1999/xlink" width="400" height="447" viewBox="0 0 400 447">
  <defs>
    <clipPath id="clip-path">
      <rect id="Rectángulo_415921" data-name="Rectángulo 415921" width="400" height="447" transform="translate(179 7724)" fill="#103d47" stroke="#707070" stroke-width="1" opacity="0.38"/>
    </clipPath>
    <clipPath id="clip-path-2">
      <rect id="Rectángulo_416117" data-name="Rectángulo 416117" width="247.393" height="202.567" fill="none"/>
    </clipPath>
    <clipPath id="clip-path-3">
      <rect id="Rectángulo_416058" data-name="Rectángulo 416058" width="231.725" height="617.911" fill="none"/>
    </clipPath>
    <clipPath id="clip-path-4">
      <path id="Trazado_1036790" data-name="Trazado 1036790" d="M72.455,597.99l-18.018,9.918a5.2,5.2,0,0,0-2.473,5.74c.468,1.8,2.006,3.18,6.015,3.26,8.907.177,48.322-6.391,48.322-6.391v5.293l18.159-.229s1.634-26.094-3.937-29.508Z" fill="none"/>
    </clipPath>
    <clipPath id="clip-path-6">
      <path id="Trazado_1036795" data-name="Trazado 1036795" d="M149.678,615.581l18.159.229v-5.293s39.414,6.568,48.322,6.391c4.009-.08,5.546-1.458,6.015-3.26a5.2,5.2,0,0,0-2.474-5.74l-18.017-9.918-48.069-11.917c-5.57,3.414-3.936,29.508-3.936,29.508" fill="none"/>
    </clipPath>
    <clipPath id="clip-path-8">
      <path id="Trazado_1036806" data-name="Trazado 1036806" d="M110.676,39.415c0,21.706,12.338,39.524,29.911,39.524,17.685,0,29.911-17.818,29.911-39.524S163.014,8.471,140.587,8.471s-29.911,9.238-29.911,30.944" fill="none"/>
    </clipPath>
    <clipPath id="clip-path-10">
      <path id="Trazado_1036834" data-name="Trazado 1036834" d="M134.615,60.282a.762.762,0,0,0-.762.761,4.363,4.363,0,1,0,8.725,0,.761.761,0,0,0-.761-.761Z" fill="none"/>
    </clipPath>
    <clipPath id="clip-path-12">
      <rect id="Rectángulo_416064" data-name="Rectángulo 416064" width="255.695" height="124.414" fill="none"/>
    </clipPath>
    <clipPath id="clip-path-13">
      <path id="Trazado_1036849" data-name="Trazado 1036849" d="M61.3,19.811A15.054,15.054,0,1,0,76.357,4.756,15.055,15.055,0,0,0,61.3,19.811" transform="translate(-61.303 -4.756)" fill="none"/>
    </clipPath>
    <clipPath id="clip-path-15">
      <path id="Trazado_1036852" data-name="Trazado 1036852" d="M241.737,102.431a3.834,3.834,0,1,0,0,7.667h42.7a3.834,3.834,0,1,0,0-7.667Z" transform="translate(-237.903 -102.431)" fill="none"/>
    </clipPath>
    <clipPath id="clip-path-17">
      <path id="Trazado_1036855" data-name="Trazado 1036855" d="M247.652,91.863a3.834,3.834,0,1,0,0,7.668h42.7a3.834,3.834,0,1,0,0-7.668Z" transform="translate(-243.818 -91.863)" fill="none"/>
    </clipPath>
    <clipPath id="clip-path-19">
      <path id="Trazado_1036858" data-name="Trazado 1036858" d="M246.549,81.295a3.834,3.834,0,1,0,0,7.668h42.7a3.834,3.834,0,1,0,0-7.668Z" transform="translate(-242.715 -81.295)" fill="none"/>
    </clipPath>
    <clipPath id="clip-path-21">
      <path id="Trazado_1036861" data-name="Trazado 1036861" d="M250.609,70.726a3.834,3.834,0,0,0,0,7.668h42.7a3.834,3.834,0,0,0,0-7.668Z" transform="translate(-246.775 -70.726)" fill="none"/>
    </clipPath>
    <clipPath id="clip-path-23">
      <rect id="Rectángulo_416103" data-name="Rectángulo 416103" width="86.732" height="26.221" fill="none"/>
    </clipPath>
    <clipPath id="clip-path-27">
      <path id="Trazado_1036873" data-name="Trazado 1036873" d="M4.848,88.089A15.346,15.346,0,1,0,20.194,72.743,15.346,15.346,0,0,0,4.848,88.089" transform="translate(-4.848 -72.743)" fill="none"/>
    </clipPath>
    <clipPath id="clip-path-29">
      <rect id="Rectángulo_416115" data-name="Rectángulo 416115" width="80.104" height="66.139" fill="none"/>
    </clipPath>
    <clipPath id="clip-path-30">
      <path id="Trazado_1036884" data-name="Trazado 1036884" d="M23.889,4.16A18.915,18.915,0,0,0,9.051,1.489,2.812,2.812,0,0,0,6.908,4.26C6.955,8.822,11.1,14.935,11.1,14.935c-9.354,14.741.415,29.957.415,29.957,4.322,6.69,15.866,11.722,15.866,11.722,26.818,8.643,39.666-8.288,39.666-8.288,12.73-10.6,6.216-28.417,6.216-28.417C64.229,4.009,52.029,0,42.015,0A43.033,43.033,0,0,0,23.889,4.16" transform="translate(-6.908 0)" fill="none"/>
    </clipPath>
    <clipPath id="clip-path-32">
      <rect id="Rectángulo_416118" data-name="Rectángulo 416118" width="24.83" height="22.174" transform="translate(0 0)" fill="none"/>
    </clipPath>
    <clipPath id="clip-path-34">
      <rect id="Rectángulo_416119" data-name="Rectángulo 416119" width="56.165" height="44.368" transform="translate(0 0)" fill="none"/>
    </clipPath>
  </defs>
  <g id="Enmascarar_grupo_1098804" data-name="Enmascarar grupo 1098804" transform="translate(-179 -7724)" clip-path="url(#clip-path)">
    <g id="Grupo_1176729" data-name="Grupo 1176729" transform="translate(198.999 7755.933)">
      <g id="Grupo_1176729-2" data-name="Grupo 1176729" clip-path="url(#clip-path-2)">
        <path id="Trazado_1036886" data-name="Trazado 1036886" d="M28.161,193.447H63.682v-56.4a8.4,8.4,0,0,0-8.4-8.4H36.561a8.4,8.4,0,0,0-8.4,8.4Z" transform="translate(155.55 0)" fill="#acaceb"/>
        <path id="Trazado_1036887" data-name="Trazado 1036887" d="M82.184,193.447h35.521V76.563a8.4,8.4,0,0,0-8.4-8.4H90.584a8.4,8.4,0,0,0-8.4,8.4Z" transform="translate(47.504 0)" fill="#1c1588"/>
        <path id="Trazado_1036888" data-name="Trazado 1036888" d="M138.1,193.447h35.521V40.187a9.079,9.079,0,0,0-9.079-9.079H147.181a9.079,9.079,0,0,0-9.079,9.079Z" transform="translate(-64.332 0)" fill="#acaceb"/>
        <path id="Trazado_1036889" data-name="Trazado 1036889" d="M191.847,193.447h35.521V8.4a8.4,8.4,0,0,0-8.4-8.4H200.247a8.4,8.4,0,0,0-8.4,8.4Z" transform="translate(-171.822)" fill="#1c1588"/>
        <path id="Trazado_1036890" data-name="Trazado 1036890" d="M4.073,202.567H243.32a4.589,4.589,0,0,0,0-9.12H4.073a4.589,4.589,0,0,0,0,9.12" transform="translate(0 0)" fill="#0a0a44"/>
        <path id="Trazado_1036891" data-name="Trazado 1036891" d="M211.032,170.042c-7.243-13.193-17.974-24.753-31.508-31.334-16.5-8.026-35.8-8.19-52.86-14.964-19.57-7.772-34.716-23.6-48.209-39.768-10.2-12.225-21.044-25.7-36.536-29.386" transform="translate(-5.558 0)" fill="none" stroke="#e278b7" stroke-linecap="round" stroke-linejoin="round" stroke-width="4.149"/>
        <path id="Trazado_1036892" data-name="Trazado 1036892" d="M36.266,171.334a5.062,5.062,0,1,0,5.061-5.061,5.061,5.061,0,0,0-5.061,5.061" transform="translate(164.738 0)" fill="#e278b7"/>
        <path id="Trazado_1036893" data-name="Trazado 1036893" d="M207.241,53.221A5.062,5.062,0,1,0,212.3,48.16a5.061,5.061,0,0,0-5.061,5.061" transform="translate(-177.212 0)" fill="#e278b7"/>
      </g>
    </g>
    <g id="Grupo_1176684" data-name="Grupo 1176684" transform="translate(337.262 7771.227)">
      <g id="Grupo_1176667" data-name="Grupo 1176667">
        <g id="Grupo_1176666" data-name="Grupo 1176666" clip-path="url(#clip-path-3)">
          <path id="Trazado_1036785" data-name="Trazado 1036785" d="M188.628,62.787a9.019,9.019,0,0,1,9.016,9.168A10.241,10.241,0,0,1,205.8,88.476c2.822,2.2,3.172,6.592,1.562,9.791s-4.724,5.375-7.941,6.948a25.321,25.321,0,0,1-11.684,2.861,15.461,15.461,0,0,1-10.9-4.587c-3.439,1.22-7.382,1.721-10.65.1-3.064-1.522-5.039-4.7-5.91-8.008a36.207,36.207,0,0,1-.694-10.2c-5.316-2.395-7.836-8.563-8.662-14.335a20.252,20.252,0,0,1,.125-7.71c1.9-7.668,9.546-17.452,18.22-19.467,19.622-4.558,21.979,18.8,19.362,18.92" fill="#0a0a44"/>
          <path id="Trazado_1036786" data-name="Trazado 1036786" d="M177.412,40.831c0,22.552-16.309,40.833-36.426,40.833s-36.427-18.281-36.427-40.833S120.868,0,140.986,0s36.426,18.281,36.426,40.831" fill="#0a0a44"/>
          <path id="Trazado_1036787" data-name="Trazado 1036787" d="M135.769,280.265,119.018,605.751l-25.962,1.914L96.49,281.1Z" fill="#ef9eae"/>
          <path id="Trazado_1036788" data-name="Trazado 1036788" d="M72.455,597.989l-18.017,9.919a5.2,5.2,0,0,0-2.474,5.739c.468,1.8,2.006,3.181,6.015,3.26,8.907.178,48.322-6.391,48.322-6.391v5.294l18.159-.229s1.634-26.094-3.936-29.509Z" fill="#0a0a44"/>
        </g>
      </g>
      <g id="Grupo_1176669" data-name="Grupo 1176669">
        <g id="Grupo_1176668" data-name="Grupo 1176668" clip-path="url(#clip-path-4)">
          <path id="Trazado_1036789" data-name="Trazado 1036789" d="M125,617.911H106.3v-7.4l19.252-3.609Z" fill="#fff"/>
        </g>
      </g>
      <g id="Grupo_1176671" data-name="Grupo 1176671">
        <g id="Grupo_1176670" data-name="Grupo 1176670" clip-path="url(#clip-path-3)">
          <path id="Trazado_1036791" data-name="Trazado 1036791" d="M92.805,584.576l-20.35,13.413s3.106,8.91,16.861,2.97,31.207-14.886,31.207-14.886l-1.645-5.769Z" fill="#ef9eae"/>
          <path id="Trazado_1036792" data-name="Trazado 1036792" d="M140.8,280.316l14.32,325.435,25.962,1.914L177.648,281.1Z" fill="#ef9eae"/>
          <path id="Trazado_1036793" data-name="Trazado 1036793" d="M201.683,597.989l18.017,9.919a5.2,5.2,0,0,1,2.474,5.739c-.468,1.8-2.006,3.181-6.015,3.26-8.907.178-48.322-6.391-48.322-6.391v5.294l-18.159-.229s-1.634-26.094,3.936-29.509Z" fill="#0a0a44"/>
        </g>
      </g>
      <g id="Grupo_1176673" data-name="Grupo 1176673">
        <g id="Grupo_1176672" data-name="Grupo 1176672" clip-path="url(#clip-path-6)">
          <path id="Trazado_1036794" data-name="Trazado 1036794" d="M149.142,617.911h18.695v-7.4l-19.252-3.609Z" fill="#fff"/>
        </g>
      </g>
      <g id="Grupo_1176675" data-name="Grupo 1176675">
        <g id="Grupo_1176674" data-name="Grupo 1176674" clip-path="url(#clip-path-3)">
          <path id="Trazado_1036796" data-name="Trazado 1036796" d="M181.333,584.576l20.349,13.413s-3.106,8.91-16.86,2.97-31.207-14.886-31.207-14.886l1.644-5.769Z" fill="#ef9eae"/>
          <path id="Trazado_1036797" data-name="Trazado 1036797" d="M204.668,118.325l26.537,62.139a7.665,7.665,0,0,1-6.325,9.2s-13.167,1.388-14.606-.771c-4.81-7.22-38.071-59.586-38.071-59.586l10.276-35.32c9.992,2.98,18.483,14.816,22.189,24.342" fill="#ef9eae"/>
          <path id="Trazado_1036798" data-name="Trazado 1036798" d="M182.508,93.988s11.992,2.562,21.867,21.184L222,153.539l-24.422,18.526L172.2,129.3Z" fill="#e5e5fd"/>
          <path id="Trazado_1036799" data-name="Trazado 1036799" d="M72.183,116.3,40.539,177.187a7.665,7.665,0,0,0,5.836,9.514s13.207,2.3,14.756.225c5.181-6.959,41-57.751,41-57.751L93.713,93.368c-10.782,3.308-17.586,14.951-21.53,22.935" fill="#ef9eae"/>
          <path id="Trazado_1036800" data-name="Trazado 1036800" d="M93.713,93.368S81.605,96.222,71.2,114.147L49.7,154.094l25.357,16.413L98.33,136.924Z" fill="#e5e5fd"/>
          <path id="Trazado_1036801" data-name="Trazado 1036801" d="M127.416,67.323,125.131,108l29.232-.468-2.082-33.56Z" fill="#ef9eae"/>
          <path id="Trazado_1036802" data-name="Trazado 1036802" d="M152.9,83.906c-15.2,3.986-25.834-9.884-25.834-9.884l24.864-6.653Z" fill="#e37481"/>
          <path id="Trazado_1036803" data-name="Trazado 1036803" d="M170.5,39.415c0,21.706-12.226,39.524-29.911,39.524-17.573,0-29.911-17.818-29.911-39.524S118.16,8.471,140.587,8.471,170.5,17.709,170.5,39.415" fill="#ef9eae"/>
        </g>
      </g>
      <g id="Grupo_1176677" data-name="Grupo 1176677">
        <g id="Grupo_1176676" data-name="Grupo 1176676" clip-path="url(#clip-path-8)">
          <path id="Trazado_1036804" data-name="Trazado 1036804" d="M123.672,58.909c0,3.934-3.533,7.123-7.892,7.123s-7.892-3.189-7.892-7.123,3.533-7.123,7.892-7.123,7.892,3.189,7.892,7.123" fill="#e37481"/>
          <path id="Trazado_1036805" data-name="Trazado 1036805" d="M172.994,58.554c0,3.934-3.533,7.123-7.892,7.123s-7.892-3.189-7.892-7.123,3.533-7.122,7.892-7.122,7.892,3.188,7.892,7.122" fill="#e37481"/>
        </g>
      </g>
      <g id="Grupo_1176679" data-name="Grupo 1176679">
        <g id="Grupo_1176678" data-name="Grupo 1176678" clip-path="url(#clip-path-3)">
          <path id="Trazado_1036807" data-name="Trazado 1036807" d="M170.368,43.227s-6.549-12.931-7.983-25.868c0,0-1.365-5.979-.168-5.37,5.624,2.86,13.444,17.655,8.151,31.238" fill="#0a0a44"/>
          <path id="Trazado_1036808" data-name="Trazado 1036808" d="M105.013,179.694h0a23.379,23.379,0,0,1-2.874,10.813c-7.362,13.547-18.587,42.6-20.1,81.131,0,0,6.509,263.536,7.27,274.651h35.622l15.653-250.16,8.191,250.16h36.37s10.141-206.687,9.525-220.636c-.765-17.3-.8-94.26-24.819-134.781a15.45,15.45,0,0,1-1.909-11.178Z" fill="#0a0a44"/>
          <path id="Trazado_1036809" data-name="Trazado 1036809" d="M151.252,88.474c-6.706,0-13.141.388-23.624-.3L93.713,93.368c0,9.06,9.211,86.46,9.211,86.46H169.15l13.358-85.84Z" fill="#ef9eae"/>
          <path id="Trazado_1036810" data-name="Trazado 1036810" d="M165.29,90.951c-.851,11.92-5.2,34.558-27.376,33-22.208-1.562-25.557-22.311-26.043-33.361L93.713,93.368c0,9.061,9.211,86.46,9.211,86.46H169.15l13.359-85.84Z" fill="#e5e5fd"/>
          <path id="Trazado_1036811" data-name="Trazado 1036811" d="M134.342,101.908l4.482,10.18a1.247,1.247,0,0,0,2.257.056l4.783-9.558,9.959-13.305,9.467,1.669-.482,17.5-15.333,20.432L121.545,128l-12.4-25.8V91l14.64-2.24Z" fill="#e5e5fd"/>
          <path id="Trazado_1036812" data-name="Trazado 1036812" d="M136.386,100.821l2.438,11.268-5.958-9.889Z" fill="#a8a8dd"/>
          <path id="Trazado_1036813" data-name="Trazado 1036813" d="M143.424,101.04l-2.438,11.268,5.958-9.889Z" fill="#a8a8dd"/>
          <path id="Trazado_1036814" data-name="Trazado 1036814" d="M126.233,88.391l10.425,10.687a1.1,1.1,0,0,1-.272,1.742l-6.065,3.227a1.1,1.1,0,0,1-1.532-.54l-6.214-14.556Z" fill="#c5c5ef"/>
          <path id="Trazado_1036815" data-name="Trazado 1036815" d="M152.769,89.264l-9.844,9.918a1.2,1.2,0,0,0,.257,1.88l5.838,3.319a1.2,1.2,0,0,0,1.688-.567l5.564-12.963a1.2,1.2,0,0,0-.89-1.648l-1.558-.274a1.192,1.192,0,0,0-1.055.335" fill="#c5c5ef"/>
          <path id="Trazado_1036816" data-name="Trazado 1036816" d="M39.2,111.187l-18.14-.348,15.632,66.022c1.811,10.65,7.422,16.107,16.284,14.608A13.977,13.977,0,0,0,64.52,175.983Z" fill="#ef9eae"/>
          <path id="Trazado_1036817" data-name="Trazado 1036817" d="M11.337,108.424S22.264,120.195,28.5,121.432c9.127,1.81,8.408-13.98,7.05-16.244s-9.514-12.435-9.514-12.435-13.686,5.8-14.7,15.671" fill="#ef9eae"/>
          <path id="Trazado_1036818" data-name="Trazado 1036818" d="M27.471,94.721,14.335,77.108a2.383,2.383,0,0,0-3.521-.332,2.137,2.137,0,0,0-.175,2.908L22.11,97.3Z" fill="#ef9eae"/>
          <path id="Trazado_1036819" data-name="Trazado 1036819" d="M9.574,82.344l13.693,16-4.695,4.3L6.044,85.109a2.137,2.137,0,0,1,.361-3.158,2.37,2.37,0,0,1,3.169.393" fill="#ef9eae"/>
          <path id="Trazado_1036820" data-name="Trazado 1036820" d="M17.724,101.161,5.336,87.9A1.881,1.881,0,0,0,2.5,90.369l11.467,14.176Z" fill="#ef9eae"/>
          <path id="Trazado_1036821" data-name="Trazado 1036821" d="M14.163,104.49,3.186,94.512A1.905,1.905,0,0,0,.535,97.246l10.8,11.177Z" fill="#ef9eae"/>
          <path id="Trazado_1036822" data-name="Trazado 1036822" d="M38.07,88.487a1.469,1.469,0,0,1,.023.529,26.559,26.559,0,0,0-1.108,4.166,35.81,35.81,0,0,0,.625,14.61l1.655,3.657c-2.306,3.222-6.994,3.461-9.135,4.387,0,0-.211-.1-.55-.308a14.5,14.5,0,0,1-3.861-3.338,8.479,8.479,0,0,1-1.771-7.434A12.169,12.169,0,0,1,29.44,97.05a11.007,11.007,0,0,1,1.607-.8,10.914,10.914,0,0,1,4.958-8.555,1.354,1.354,0,0,1,2.065.8" fill="#ef9eae"/>
          <path id="Trazado_1036823" data-name="Trazado 1036823" d="M38.07,88.487a1.469,1.469,0,0,1,.023.529,26.559,26.559,0,0,0-1.108,4.166,1.775,1.775,0,0,1-.533-.561,2.807,2.807,0,0,1-.068-2.63,3.135,3.135,0,0,1,1.19-1.381.955.955,0,0,1,.5-.123" fill="#fcc3d1"/>
          <path id="Trazado_1036824" data-name="Trazado 1036824" d="M114.064,47.785c.641,4.266.523,10.294-5.186,10.7-3.982.283-6.912-5.734-7.553-10s1.314-7.275,5.29-7.627,6.808,2.66,7.449,6.926" fill="#ef9eae"/>
          <path id="Trazado_1036825" data-name="Trazado 1036825" d="M105.488,46.588s3.676.635,3.454,5.826" fill="none" stroke="#0a0a44" stroke-linecap="round" stroke-linejoin="round" stroke-width="0.827"/>
          <path id="Trazado_1036826" data-name="Trazado 1036826" d="M166.61,46.584c-.641,4.266-.523,10.294,5.186,10.7,3.981.283,6.912-5.734,7.553-10s-1.314-7.275-5.29-7.627-6.808,2.66-7.449,6.926" fill="#ef9eae"/>
          <path id="Trazado_1036827" data-name="Trazado 1036827" d="M175.186,45.387s-3.676.634-3.454,5.826" fill="none" stroke="#0a0a44" stroke-linecap="round" stroke-linejoin="round" stroke-width="0.827"/>
          <path id="Trazado_1036828" data-name="Trazado 1036828" d="M108.951,32.763s25.209.578,39.945-12.91c0,0,8.706,10.042,18.031,11.19l-1.864-16.785L153.011,4.932H129.762l-12.9,7.317Z" fill="#0a0a44"/>
          <path id="Trazado_1036829" data-name="Trazado 1036829" d="M138.99,53.512s-2.345.861-2.34-.492a19.263,19.263,0,0,1,.3-3.357" fill="none" stroke="#0a0a44" stroke-linecap="round" stroke-miterlimit="10" stroke-width="0.989"/>
          <path id="Trazado_1036830" data-name="Trazado 1036830" d="M128.985,46.3c0,1.7-1.045,3.074-2.334,3.074S124.317,48,124.317,46.3s1.045-3.074,2.334-3.074,2.334,1.376,2.334,3.074" fill="#0a0a44"/>
          <path id="Trazado_1036831" data-name="Trazado 1036831" d="M152.9,46.3c0,1.7-1.046,3.074-2.335,3.074S148.229,48,148.229,46.3s1.046-3.074,2.334-3.074S152.9,44.6,152.9,46.3" fill="#0a0a44"/>
          <path id="Trazado_1036832" data-name="Trazado 1036832" d="M138.216,65.4h0a4.362,4.362,0,0,1-4.362-4.362.761.761,0,0,1,.761-.761h7.2a.761.761,0,0,1,.761.761,4.362,4.362,0,0,1-4.362,4.362" fill="#fff"/>
        </g>
      </g>
      <g id="Grupo_1176681" data-name="Grupo 1176681">
        <g id="Grupo_1176680" data-name="Grupo 1176680" clip-path="url(#clip-path-10)">
          <path id="Trazado_1036833" data-name="Trazado 1036833" d="M141.774,65.752a3.558,3.558,0,1,1-3.558-3.558,3.558,3.558,0,0,1,3.558,3.558" fill="#df4d5d"/>
        </g>
      </g>
      <g id="Grupo_1176683" data-name="Grupo 1176683">
        <g id="Grupo_1176682" data-name="Grupo 1176682" clip-path="url(#clip-path-3)">
          <path id="Trazado_1036835" data-name="Trazado 1036835" d="M126.434,35.346A16.055,16.055,0,0,0,118.2,38.2a.2.2,0,0,0,.162.367,31.965,31.965,0,0,1,7.005-.788A25.185,25.185,0,0,1,131,38.4a.2.2,0,0,0,.24-.269c-.876-2.231-2.449-2.778-4.808-2.78" fill="#0a0a44"/>
          <path id="Trazado_1036836" data-name="Trazado 1036836" d="M149.445,35.372a16.048,16.048,0,0,1,8.232,2.858.2.2,0,0,1-.162.366,32.016,32.016,0,0,0-7.005-.789,25.3,25.3,0,0,0-5.633.613.2.2,0,0,1-.241-.268c.877-2.231,2.449-2.778,4.809-2.78" fill="#0a0a44"/>
          <path id="Trazado_1036837" data-name="Trazado 1036837" d="M114.328,141h0a9.221,9.221,0,0,1-9.221-9.221V118.593h18.442v13.186A9.221,9.221,0,0,1,114.328,141" fill="#c5c5ef"/>
          <path id="Trazado_1036838" data-name="Trazado 1036838" d="M147.96,139.679s12.789,9.717,19.143,9.863c9.3.214,5.878-15.218,4.151-17.215s-11.51-10.613-11.51-10.613-12.485,8.069-11.784,17.965" fill="#ef9eae"/>
          <path id="Trazado_1036839" data-name="Trazado 1036839" d="M161.5,123.406l-15.97-15.092a2.383,2.383,0,0,0-3.525.279,2.136,2.136,0,0,0,.328,2.894l14.33,15.383Z" fill="#ef9eae"/>
          <path id="Trazado_1036840" data-name="Trazado 1036840" d="M141.738,114.292,157.979,127.7l-3.885,5.047-15.358-15.123a2.138,2.138,0,0,1-.187-3.174,2.371,2.371,0,0,1,3.189-.156" fill="#ef9eae"/>
          <path id="Trazado_1036841" data-name="Trazado 1036841" d="M153,131.426,138.519,120.5a1.881,1.881,0,0,0-2.37,2.918L149.882,135.4Z" fill="#ef9eae"/>
          <path id="Trazado_1036842" data-name="Trazado 1036842" d="M150.068,135.318l-12.529-7.941a1.905,1.905,0,0,0-2.142,3.149l12.563,9.153Z" fill="#ef9eae"/>
          <path id="Trazado_1036843" data-name="Trazado 1036843" d="M170.867,115.441a1.483,1.483,0,0,1,.112.517,26.645,26.645,0,0,0-.374,4.295,35.819,35.819,0,0,0,3.128,14.284l2.259,3.319c-1.717,3.57-6.294,4.612-8.245,5.892,0,0-.224-.065-.594-.209a14.482,14.482,0,0,1-4.377-2.624,8.48,8.48,0,0,1-3.024-7.019,12.171,12.171,0,0,1,4.085-8.535,10.914,10.914,0,0,1,1.445-1.069,10.912,10.912,0,0,1,3.413-9.28,1.354,1.354,0,0,1,2.172.429" fill="#ef9eae"/>
          <path id="Trazado_1036844" data-name="Trazado 1036844" d="M170.867,115.441a1.483,1.483,0,0,1,.112.517,26.645,26.645,0,0,0-.374,4.295,1.783,1.783,0,0,1-.622-.461,2.808,2.808,0,0,1-.519-2.58,3.144,3.144,0,0,1,.935-1.565.957.957,0,0,1,.468-.206" fill="#fcc3d1"/>
          <path id="Trazado_1036845" data-name="Trazado 1036845" d="M171.306,134.43l-15.426,9.551,48.955,46.975c7.458,8.3,14.975,9.5,21.6,3.434,5.513-5.046,7.88-12.669,1.293-19.271Z" fill="#ef9eae"/>
        </g>
      </g>
    </g>
    <rect id="Rectángulo_416063" data-name="Rectángulo 416063" width="400" height="99.864" transform="translate(180 8071.136)" fill="#c5c5ef"/>
    <g id="Grupo_1176719" data-name="Grupo 1176719" transform="translate(205.414 7999.744)">
      <g id="Grupo_1176686" data-name="Grupo 1176686">
        <g id="Grupo_1176685" data-name="Grupo 1176685" clip-path="url(#clip-path-12)">
          <path id="Trazado_1036846" data-name="Trazado 1036846" d="M94.57,19.012A19.012,19.012,0,1,1,75.558,0,19.012,19.012,0,0,1,94.57,19.012" transform="translate(-9.498)" fill="#f4d739"/>
          <path id="Trazado_1036847" data-name="Trazado 1036847" d="M91.412,19.811A15.054,15.054,0,1,1,76.357,4.756,15.055,15.055,0,0,1,91.412,19.811" transform="translate(-10.297 -0.799)" fill="#ffbe4a"/>
        </g>
      </g>
      <g id="Grupo_1176688" data-name="Grupo 1176688" transform="translate(51.006 3.957)">
        <g id="Grupo_1176687" data-name="Grupo 1176687" clip-path="url(#clip-path-13)">
          <path id="Trazado_1036848" data-name="Trazado 1036848" d="M76.066,31.855a18.8,18.8,0,0,0,12-8.38c1.865-3.136,2.619-6.788,3.345-10.363a28.8,28.8,0,0,1,2.258,15.909,13.888,13.888,0,0,1-1.326,4.526,12.157,12.157,0,0,1-2.833,3.433,18.306,18.306,0,0,1-15.3,4.1,17.968,17.968,0,0,1-6.472-2.685c-1.6-1.064-4.344-3.006-4.9-4.956-.88-3.07,3.03-1.508,4.5-1.3a24.021,24.021,0,0,0,8.725-.285" transform="translate(-61.54 -6.16)" fill="#f2ae40"/>
        </g>
      </g>
      <g id="Grupo_1176690" data-name="Grupo 1176690">
        <g id="Grupo_1176689" data-name="Grupo 1176689" clip-path="url(#clip-path-12)">
          <path id="Trazado_1036850" data-name="Trazado 1036850" d="M94.725,11.243H93.589a3.82,3.82,0,0,1-3.82-3.82V6.288A.848.848,0,0,0,89,5.427a.816.816,0,0,0-.859.815V7.424a3.82,3.82,0,0,1-3.82,3.82H83.182a.846.846,0,0,0-.86.771.816.816,0,0,0,.815.859h1.181a3.82,3.82,0,0,1,3.82,3.82V17.83a.848.848,0,0,0,.772.861.816.816,0,0,0,.859-.815V16.694a3.82,3.82,0,0,1,3.82-3.82h1.181a.815.815,0,0,0,.815-.859.846.846,0,0,0-.86-.771" transform="translate(-13.827 -0.911)" fill="#fff"/>
          <path id="Trazado_1036851" data-name="Trazado 1036851" d="M284.439,110.1h-42.7a3.834,3.834,0,0,1,0-7.668h42.7a3.834,3.834,0,0,1,0,7.668" transform="translate(-39.961 -17.205)" fill="#ffbe4a"/>
        </g>
      </g>
      <g id="Grupo_1176692" data-name="Grupo 1176692" transform="translate(197.942 85.226)">
        <g id="Grupo_1176691" data-name="Grupo 1176691" clip-path="url(#clip-path-15)">
          <rect id="Rectángulo_416066" data-name="Rectángulo 416066" width="3.371" height="11.171" transform="translate(9.751 -1.256)" fill="#f4d739"/>
          <rect id="Rectángulo_416067" data-name="Rectángulo 416067" width="3.371" height="11.172" transform="translate(2.831 -1.477)" fill="#f4d739"/>
          <rect id="Rectángulo_416068" data-name="Rectángulo 416068" width="3.371" height="11.171" transform="translate(23.456 -1.146)" fill="#f4d739"/>
          <rect id="Rectángulo_416069" data-name="Rectángulo 416069" width="3.371" height="11.171" transform="translate(16.537 -1.365)" fill="#f4d739"/>
          <rect id="Rectángulo_416070" data-name="Rectángulo 416070" width="3.371" height="11.171" transform="translate(37.381 -1.09)" fill="#f4d739"/>
          <rect id="Rectángulo_416071" data-name="Rectángulo 416071" width="3.371" height="11.171" transform="translate(30.462 -1.31)" fill="#f4d739"/>
          <rect id="Rectángulo_416072" data-name="Rectángulo 416072" width="3.371" height="11.171" transform="translate(44.167 -1.201)" fill="#f4d739"/>
        </g>
      </g>
      <g id="Grupo_1176694" data-name="Grupo 1176694">
        <g id="Grupo_1176693" data-name="Grupo 1176693" clip-path="url(#clip-path-12)">
          <path id="Trazado_1036853" data-name="Trazado 1036853" d="M284.082,102.2h-40.15a.562.562,0,0,1,0-1.125h40.15a.562.562,0,0,1,0,1.125" transform="translate(-40.879 -16.978)" fill="#ffbe4a"/>
          <path id="Trazado_1036854" data-name="Trazado 1036854" d="M290.353,99.531h-42.7a3.834,3.834,0,1,1,0-7.668h42.7a3.834,3.834,0,0,1,0,7.668" transform="translate(-40.954 -15.43)" fill="#ffbe4a"/>
        </g>
      </g>
      <g id="Grupo_1176696" data-name="Grupo 1176696" transform="translate(202.864 76.433)">
        <g id="Grupo_1176695" data-name="Grupo 1176695" clip-path="url(#clip-path-17)">
          <rect id="Rectángulo_416074" data-name="Rectángulo 416074" width="3.371" height="11.171" transform="translate(9.75 -1.256)" fill="#f4d739"/>
          <rect id="Rectángulo_416075" data-name="Rectángulo 416075" width="3.371" height="11.171" transform="translate(2.831 -1.476)" fill="#f4d739"/>
          <rect id="Rectángulo_416076" data-name="Rectángulo 416076" width="3.371" height="11.171" transform="translate(23.455 -1.146)" fill="#f4d739"/>
          <rect id="Rectángulo_416077" data-name="Rectángulo 416077" width="3.371" height="11.171" transform="translate(16.537 -1.366)" fill="#f4d739"/>
          <rect id="Rectángulo_416078" data-name="Rectángulo 416078" width="3.371" height="11.171" transform="translate(37.381 -1.091)" fill="#f4d739"/>
          <rect id="Rectángulo_416079" data-name="Rectángulo 416079" width="3.371" height="11.171" transform="translate(30.461 -1.31)" fill="#f4d739"/>
          <rect id="Rectángulo_416080" data-name="Rectángulo 416080" width="3.371" height="11.171" transform="translate(44.167 -1.201)" fill="#f4d739"/>
        </g>
      </g>
      <g id="Grupo_1176698" data-name="Grupo 1176698">
        <g id="Grupo_1176697" data-name="Grupo 1176697" clip-path="url(#clip-path-12)">
          <path id="Trazado_1036856" data-name="Trazado 1036856" d="M290,91.636h-40.15a.562.562,0,1,1,0-1.125H290a.562.562,0,0,1,0,1.125" transform="translate(-41.872 -15.203)" fill="#ffbe4a"/>
          <path id="Trazado_1036857" data-name="Trazado 1036857" d="M289.25,88.962h-42.7a3.834,3.834,0,1,1,0-7.668h42.7a3.834,3.834,0,1,1,0,7.668" transform="translate(-40.769 -13.655)" fill="#ffbe4a"/>
        </g>
      </g>
      <g id="Grupo_1176700" data-name="Grupo 1176700" transform="translate(201.946 67.64)">
        <g id="Grupo_1176699" data-name="Grupo 1176699" clip-path="url(#clip-path-19)">
          <rect id="Rectángulo_416082" data-name="Rectángulo 416082" width="3.371" height="11.171" transform="translate(9.75 -1.256)" fill="#f4d739"/>
          <rect id="Rectángulo_416083" data-name="Rectángulo 416083" width="3.371" height="11.171" transform="translate(2.831 -1.476)" fill="#f4d739"/>
          <rect id="Rectángulo_416084" data-name="Rectángulo 416084" width="3.371" height="11.171" transform="translate(23.455 -1.146)" fill="#f4d739"/>
          <rect id="Rectángulo_416085" data-name="Rectángulo 416085" width="3.371" height="11.171" transform="translate(16.536 -1.366)" fill="#f4d739"/>
          <rect id="Rectángulo_416086" data-name="Rectángulo 416086" width="3.371" height="11.171" transform="translate(37.381 -1.091)" fill="#f4d739"/>
          <rect id="Rectángulo_416087" data-name="Rectángulo 416087" width="3.371" height="11.171" transform="translate(30.461 -1.311)" fill="#f4d739"/>
          <rect id="Rectángulo_416088" data-name="Rectángulo 416088" width="3.371" height="11.171" transform="translate(44.167 -1.201)" fill="#f4d739"/>
        </g>
      </g>
      <g id="Grupo_1176702" data-name="Grupo 1176702">
        <g id="Grupo_1176701" data-name="Grupo 1176701" clip-path="url(#clip-path-12)">
          <path id="Trazado_1036859" data-name="Trazado 1036859" d="M288.893,81.068h-40.15a.562.562,0,1,1,0-1.125h40.15a.562.562,0,1,1,0,1.125" transform="translate(-41.687 -13.428)" fill="#ffbe4a"/>
          <path id="Trazado_1036860" data-name="Trazado 1036860" d="M293.311,78.394h-42.7a3.834,3.834,0,0,1,0-7.668h42.7a3.834,3.834,0,0,1,0,7.668" transform="translate(-41.451 -11.88)" fill="#ffbe4a"/>
        </g>
      </g>
      <g id="Grupo_1176704" data-name="Grupo 1176704" transform="translate(205.324 58.846)">
        <g id="Grupo_1176703" data-name="Grupo 1176703" clip-path="url(#clip-path-21)">
          <rect id="Rectángulo_416090" data-name="Rectángulo 416090" width="3.371" height="11.171" transform="translate(9.75 -1.255)" fill="#f4d739"/>
          <rect id="Rectángulo_416091" data-name="Rectángulo 416091" width="3.371" height="11.172" transform="translate(2.831 -1.476)" fill="#f4d739"/>
          <rect id="Rectángulo_416092" data-name="Rectángulo 416092" width="3.371" height="11.171" transform="translate(23.455 -1.145)" fill="#f4d739"/>
          <rect id="Rectángulo_416093" data-name="Rectángulo 416093" width="3.371" height="11.172" transform="translate(16.537 -1.366)" fill="#f4d739"/>
          <rect id="Rectángulo_416094" data-name="Rectángulo 416094" width="3.371" height="11.171" transform="translate(37.381 -1.09)" fill="#f4d739"/>
          <rect id="Rectángulo_416095" data-name="Rectángulo 416095" width="3.371" height="11.171" transform="translate(30.462 -1.31)" fill="#f4d739"/>
          <rect id="Rectángulo_416096" data-name="Rectángulo 416096" width="3.371" height="11.171" transform="translate(44.167 -1.2)" fill="#f4d739"/>
        </g>
      </g>
      <g id="Grupo_1176706" data-name="Grupo 1176706">
        <g id="Grupo_1176705" data-name="Grupo 1176705" clip-path="url(#clip-path-12)">
          <path id="Trazado_1036862" data-name="Trazado 1036862" d="M292.953,70.5H252.8a.562.562,0,1,1,0-1.125h40.15a.562.562,0,1,1,0,1.125" transform="translate(-42.369 -11.653)" fill="#ffbe4a"/>
          <path id="Trazado_1036863" data-name="Trazado 1036863" d="M250.975,100.3h-.949a3.191,3.191,0,0,1-3.192-3.192v-.949a.709.709,0,0,0-.645-.719.681.681,0,0,0-.718.681v.988a3.192,3.192,0,0,1-3.192,3.192h-.949a.707.707,0,0,0-.719.645.682.682,0,0,0,.681.718h.988a3.192,3.192,0,0,1,3.192,3.192v.949a.707.707,0,0,0,.645.719.681.681,0,0,0,.718-.68v-.988a3.191,3.191,0,0,1,3.192-3.192h.987a.682.682,0,0,0,.681-.718.707.707,0,0,0-.719-.645" transform="translate(-40.415 -16.031)" fill="#fff"/>
          <path id="Trazado_1036864" data-name="Trazado 1036864" d="M294.312,76.958h-.769a2.587,2.587,0,0,1-2.587-2.586V73.6a.573.573,0,0,0-.523-.582.553.553,0,0,0-.582.552v.8a2.586,2.586,0,0,1-2.586,2.586H286.5a.574.574,0,0,0-.583.523.552.552,0,0,0,.552.582h.8a2.586,2.586,0,0,1,2.586,2.587v.769a.573.573,0,0,0,.523.582.552.552,0,0,0,.582-.552v-.8a2.587,2.587,0,0,1,2.587-2.587h.8a.552.552,0,0,0,.551-.582.573.573,0,0,0-.582-.523" transform="translate(-48.025 -12.265)" fill="#fff"/>
          <path id="Trazado_1036865" data-name="Trazado 1036865" d="M175.324,104.345H91.359a1.383,1.383,0,0,1-1.383-1.383V79.508a1.383,1.383,0,0,1,1.383-1.384h83.965a1.383,1.383,0,0,1,1.383,1.384v23.455a1.383,1.383,0,0,1-1.383,1.383" transform="translate(-15.113 -13.122)" fill="#70b54a"/>
        </g>
      </g>
      <g id="Grupo_1176708" data-name="Grupo 1176708" transform="translate(74.863 65.002)">
        <g id="Grupo_1176707" data-name="Grupo 1176707" clip-path="url(#clip-path-23)">
          <rect id="Rectángulo_416098" data-name="Rectángulo 416098" width="90.876" height="2.017" transform="translate(-2.073 2.143)" fill="#519327"/>
          <rect id="Rectángulo_416099" data-name="Rectángulo 416099" width="90.876" height="2.017" transform="translate(-2.073 6.965)" fill="#519327"/>
          <rect id="Rectángulo_416100" data-name="Rectángulo 416100" width="90.876" height="2.017" transform="translate(-2.073 11.787)" fill="#519327"/>
          <rect id="Rectángulo_416101" data-name="Rectángulo 416101" width="90.876" height="2.017" transform="translate(-2.073 16.609)" fill="#519327"/>
          <rect id="Rectángulo_416102" data-name="Rectángulo 416102" width="90.876" height="2.017" transform="translate(-2.073 22.093)" fill="#519327"/>
        </g>
      </g>
      <g id="Grupo_1176710" data-name="Grupo 1176710">
        <g id="Grupo_1176709" data-name="Grupo 1176709" clip-path="url(#clip-path-12)">
          <rect id="Rectángulo_416104" data-name="Rectángulo 416104" width="12.985" height="27.734" transform="translate(111.736 64.245)" fill="#e5e5fd"/>
          <path id="Trazado_1036866" data-name="Trazado 1036866" d="M132.357,71.921H48.392a1.383,1.383,0,0,1-1.383-1.383V47.084A1.383,1.383,0,0,1,48.392,45.7h83.965a1.383,1.383,0,0,1,1.383,1.384V70.539a1.383,1.383,0,0,1-1.383,1.383" transform="translate(-7.896 -7.676)" fill="#70b54a"/>
        </g>
      </g>
      <g id="Grupo_1176712" data-name="Grupo 1176712" transform="translate(39.113 38.025)">
        <g id="Grupo_1176711" data-name="Grupo 1176711" clip-path="url(#clip-path-23)">
          <rect id="Rectángulo_416106" data-name="Rectángulo 416106" width="90.876" height="2.017" transform="translate(-2.073 2.142)" fill="#519327"/>
          <rect id="Rectángulo_416107" data-name="Rectángulo 416107" width="90.876" height="2.017" transform="translate(-2.073 6.965)" fill="#519327"/>
          <rect id="Rectángulo_416108" data-name="Rectángulo 416108" width="90.876" height="2.017" transform="translate(-2.073 11.787)" fill="#519327"/>
          <rect id="Rectángulo_416109" data-name="Rectángulo 416109" width="90.876" height="2.017" transform="translate(-2.073 16.608)" fill="#519327"/>
          <rect id="Rectángulo_416110" data-name="Rectángulo 416110" width="90.876" height="2.017" transform="translate(-2.073 22.092)" fill="#519327"/>
        </g>
      </g>
      <g id="Grupo_1176714" data-name="Grupo 1176714">
        <g id="Grupo_1176713" data-name="Grupo 1176713" clip-path="url(#clip-path-12)">
          <rect id="Rectángulo_416112" data-name="Rectángulo 416112" width="12.985" height="27.734" transform="translate(75.986 37.267)" fill="#e5e5fd"/>
          <path id="Trazado_1036867" data-name="Trazado 1036867" d="M191.387,140.345c-7.448-1.81-40.18-10.068-51.208-18.02a1.734,1.734,0,0,1-.53-2.182c3.145-6.333,6.952-18.717,8.449-23.764a1.739,1.739,0,0,1,2.524-1.016c10.038,5.632,42.342,15.269,50.271,17.593a1.737,1.737,0,0,1,1.147,2.254l-8.607,24.032a1.738,1.738,0,0,1-2.046,1.1" transform="translate(-23.426 -15.98)" fill="#519327"/>
          <path id="Trazado_1036868" data-name="Trazado 1036868" d="M186.278,136.381a4.839,4.839,0,0,1,5.668-3.078.614.614,0,0,0,.716-.394l4.118-11.5a.609.609,0,0,0-.3-.756,4.843,4.843,0,0,1-2.669-5.01.625.625,0,0,0-.444-.677c-8.751-2.661-26.428-8.2-35.492-12.214a.611.611,0,0,0-.785.26,4.843,4.843,0,0,1-4.906,2.465.611.611,0,0,0-.66.431c-1.094,3.534-2.591,8.077-4.072,11.648a.618.618,0,0,0,.229.756,4.84,4.84,0,0,1,2.107,5.164.623.623,0,0,0,.312.7c9.722,5,27.656,10.024,36.157,12.257.007-.018.012-.037.019-.057" transform="translate(-24.76 -17.251)" fill="#70b54a"/>
          <path id="Trazado_1036869" data-name="Trazado 1036869" d="M182.062,124.27a7.175,7.175,0,1,1-4.336-9.175,7.175,7.175,0,0,1,4.336,9.175" transform="translate(-28.241 -19.262)" fill="#519327"/>
          <path id="Trazado_1036870" data-name="Trazado 1036870" d="M38.76,87.275a19.38,19.38,0,1,1-19.38-19.38,19.379,19.379,0,0,1,19.38,19.38" transform="translate(0 -11.404)" fill="#f4d739"/>
          <path id="Trazado_1036871" data-name="Trazado 1036871" d="M35.54,88.089A15.346,15.346,0,1,1,20.194,72.743,15.346,15.346,0,0,1,35.54,88.089" transform="translate(-0.814 -12.219)" fill="#ffbe4a"/>
        </g>
      </g>
      <g id="Grupo_1176716" data-name="Grupo 1176716" transform="translate(4.034 60.524)">
        <g id="Grupo_1176715" data-name="Grupo 1176715" clip-path="url(#clip-path-27)">
          <path id="Trazado_1036872" data-name="Trazado 1036872" d="M19.9,100.365a19.164,19.164,0,0,0,12.235-8.542c1.9-3.2,2.67-6.919,3.41-10.563a29.368,29.368,0,0,1,2.3,16.217,14.173,14.173,0,0,1-1.352,4.614,12.406,12.406,0,0,1-2.888,3.5,18.658,18.658,0,0,1-15.595,4.176,18.3,18.3,0,0,1-6.6-2.737c-1.631-1.084-4.428-3.064-5-5.051-.9-3.13,3.088-1.538,4.588-1.322a24.464,24.464,0,0,0,8.894-.29" transform="translate(-5.089 -74.173)" fill="#f2ae40"/>
        </g>
      </g>
      <g id="Grupo_1176718" data-name="Grupo 1176718">
        <g id="Grupo_1176717" data-name="Grupo 1176717" clip-path="url(#clip-path-12)">
          <path id="Trazado_1036874" data-name="Trazado 1036874" d="M39.526,85.691H38.7a2.783,2.783,0,0,1-2.782-2.783V82.08a.617.617,0,0,0-.562-.627.594.594,0,0,0-.627.593v.861a2.783,2.783,0,0,1-2.783,2.783h-.827a.618.618,0,0,0-.627.562.594.594,0,0,0,.593.626h.861a2.783,2.783,0,0,1,2.783,2.783v.828a.617.617,0,0,0,.562.627.594.594,0,0,0,.627-.593v-.861A2.783,2.783,0,0,1,38.7,86.879h.861a.594.594,0,0,0,.593-.626.616.616,0,0,0-.627-.562" transform="translate(-5.121 -13.682)" fill="#fff"/>
        </g>
      </g>
    </g>
    <g id="Grupo_1176726" data-name="Grupo 1176726" transform="translate(472.77 8087.999)">
      <g id="Grupo_1176721" data-name="Grupo 1176721">
        <g id="Grupo_1176720" data-name="Grupo 1176720" clip-path="url(#clip-path-29)">
          <path id="Trazado_1036875" data-name="Trazado 1036875" d="M11.1,14.935S6.954,8.822,6.907,4.26A2.814,2.814,0,0,1,9.05,1.489,18.915,18.915,0,0,1,23.888,4.16S55.029-12.18,73.264,19.908c0,0,6.512,17.821-6.216,28.417,0,0-12.847,16.933-39.666,8.288,0,0-11.545-5.032-15.867-11.722,0,0-9.768-15.215-.414-29.957" transform="translate(-0.552 0)" fill="#e278b7"/>
          <path id="Trazado_1036876" data-name="Trazado 1036876" d="M8.477,25.883,3.661,27.175A4.94,4.94,0,0,0,.2,33.347L3.287,43.775a4.94,4.94,0,0,0,4.738,3.54h4.952Z" transform="translate(0 -2.068)" fill="#e379b3"/>
          <path id="Trazado_1036877" data-name="Trazado 1036877" d="M81.217,19.686c.864-.968,1.668-2.317,2.965-2.3a2.233,2.233,0,0,1,1.945,1.645,5.132,5.132,0,0,1-.067,2.69,15.665,15.665,0,0,1-4.121,7.4A2.95,2.95,0,0,1,80.1,30.17a2.149,2.149,0,0,1-1.848-1.187,5.7,5.7,0,0,1-.565-2.225c-.112-1.087-.752-3.9-.077-4.833.318-.44,1.264-.544,1.734-.788a6.555,6.555,0,0,0,1.877-1.451" transform="translate(-6.176 -1.389)" fill="#e278b7"/>
          <path id="Trazado_1036878" data-name="Trazado 1036878" d="M17.128,52.908l1.319,9.42a2.811,2.811,0,0,0,2.783,2.421h4.014A2.811,2.811,0,0,0,28,62.49l.731-3.662Z" transform="translate(-1.369 -4.227)" fill="#d667aa"/>
          <path id="Trazado_1036879" data-name="Trazado 1036879" d="M71.223,52.522,69.455,62.86a2.809,2.809,0,0,1-2.782,2.42H62.658A2.81,2.81,0,0,1,59.9,63.021L59.17,59.36Z" transform="translate(-4.728 -4.196)" fill="#d667aa"/>
          <path id="Trazado_1036880" data-name="Trazado 1036880" d="M32.86,7.276s11.367-3.641,20.336,0" transform="translate(-2.625 -0.452)" fill="none" stroke="#1c1588" stroke-linecap="round" stroke-linejoin="round" stroke-width="2.584"/>
          <path id="Trazado_1036881" data-name="Trazado 1036881" d="M21.923,24.871a2.4,2.4,0,1,1-2.4-2.4,2.4,2.4,0,0,1,2.4,2.4" transform="translate(-1.368 -1.796)" fill="#1c1588"/>
          <path id="Trazado_1036882" data-name="Trazado 1036882" d="M8.477,25.883,3.661,27.175A4.94,4.94,0,0,0,.2,33.347L3.287,43.775a4.94,4.94,0,0,0,4.738,3.54h4.952Z" transform="translate(0 -2.068)" fill="#e278b7"/>
        </g>
      </g>
      <g id="Grupo_1176723" data-name="Grupo 1176723" transform="translate(6.356)">
        <g id="Grupo_1176722" data-name="Grupo 1176722" clip-path="url(#clip-path-30)">
          <path id="Trazado_1036883" data-name="Trazado 1036883" d="M20.569,51.7a80.954,80.954,0,0,0,24.953-.158,49.81,49.81,0,0,0,22.692-9.976c2.519-2.052,5.67-5.485,8.416-7.316a42.117,42.117,0,0,1-4.1,25.207,15.79,15.79,0,0,1-4.162,5.22c-2.314,1.748-5.24,2.45-8.1,2.934-9.153,1.55-18.5,1.307-27.785,1.148-4.4-.075-9.211-.287-12.477-3.229a17.717,17.717,0,0,1-3.371-4.7c-1.462-2.625-3.8-6.159-3.922-9.255-.081-2.037,1.253-1.317,2.63-.9A32.9,32.9,0,0,0,20.569,51.7" transform="translate(-7.371 -2.736)" fill="#d667aa"/>
        </g>
      </g>
      <g id="Grupo_1176725" data-name="Grupo 1176725">
        <g id="Grupo_1176724" data-name="Grupo 1176724" clip-path="url(#clip-path-29)">
          <path id="Trazado_1036885" data-name="Trazado 1036885" d="M5.685,36.211c.556,2.6.3,4.867-.566,5.052S3.1,39.487,2.54,36.882s-.3-4.867.567-5.052,2.022,1.777,2.578,4.382" transform="translate(-0.179 -2.542)" fill="#d667aa"/>
        </g>
      </g>
    </g>
    <g id="Grupo_1176731" data-name="Grupo 1176731" transform="translate(388 7828)">
      <g id="Grupo_1176730" data-name="Grupo 1176730" clip-path="url(#clip-path-32)">
        <path id="Trazado_1036894" data-name="Trazado 1036894" d="M22.17,10.765,11.61.278A.959.959,0,0,0,10.239.3L.266,10.785a.958.958,0,0,0,.7,1.619H4.69a.959.959,0,0,1,.959.959v7.851a.959.959,0,0,0,.959.959h8.434A.959.959,0,0,0,16,21.214V13.363a.959.959,0,0,1,.959-.959h4.534a.959.959,0,0,0,.676-1.639" fill="#1c1588"/>
        <path id="Trazado_1036895" data-name="Trazado 1036895" d="M24.545,10.765,13.985.278A.959.959,0,0,0,12.614.3L2.641,10.785A.958.958,0,0,0,3.336,12.4H7.065a.959.959,0,0,1,.959.959v7.851a.959.959,0,0,0,.959.959h8.434a.959.959,0,0,0,.959-.959V13.363a.959.959,0,0,1,.959-.959h4.534a.959.959,0,0,0,.676-1.639" fill="#8ac6dd"/>
      </g>
    </g>
    <g id="Grupo_1176732" data-name="Grupo 1176732" transform="translate(322.696 7760.14)">
      <g id="Grupo_1176730-2" data-name="Grupo 1176730" clip-path="url(#clip-path-32)">
        <path id="Trazado_1036894-2" data-name="Trazado 1036894" d="M22.17,10.765,11.61.278A.959.959,0,0,0,10.239.3L.266,10.785a.958.958,0,0,0,.7,1.619H4.69a.959.959,0,0,1,.959.959v7.851a.959.959,0,0,0,.959.959h8.434A.959.959,0,0,0,16,21.214V13.363a.959.959,0,0,1,.959-.959h4.534a.959.959,0,0,0,.676-1.639" fill="#1c1588"/>
        <path id="Trazado_1036895-2" data-name="Trazado 1036895" d="M24.545,10.765,13.985.278A.959.959,0,0,0,12.614.3L2.641,10.785A.958.958,0,0,0,3.336,12.4H7.065a.959.959,0,0,1,.959.959v7.851a.959.959,0,0,0,.959.959h8.434a.959.959,0,0,0,.959-.959V13.363a.959.959,0,0,1,.959-.959h4.534a.959.959,0,0,0,.676-1.639" fill="#8ac6dd"/>
      </g>
    </g>
    <g id="Grupo_1176734" data-name="Grupo 1176734" transform="translate(512.822 7742)">
      <g id="Grupo_1176733" data-name="Grupo 1176733" clip-path="url(#clip-path-34)">
        <path id="Trazado_1036896" data-name="Trazado 1036896" d="M38.758,0H17.406A17.406,17.406,0,0,0,0,17.407c0,.36.014.717.036,1.072l.8,23.741a2.218,2.218,0,0,0,3.772,1.507l9.407-9.247a17.466,17.466,0,0,0,3.392.333H38.758A17.406,17.406,0,0,0,38.758,0" fill="#a8a8e2"/>
        <path id="Trazado_1036897" data-name="Trazado 1036897" d="M17.039,27.024H13.667A1.169,1.169,0,0,1,12.5,25.855V20.644a1.169,1.169,0,0,1,1.169-1.168h3.372a1.169,1.169,0,0,1,1.169,1.168v5.211a1.169,1.169,0,0,1-1.169,1.169" fill="#fff"/>
        <path id="Trazado_1036898" data-name="Trazado 1036898" d="M24.6,27.024h-3.18a1.264,1.264,0,0,1-1.265-1.264V16.446a1.265,1.265,0,0,1,1.265-1.265H24.6a1.264,1.264,0,0,1,1.264,1.265V25.76A1.264,1.264,0,0,1,24.6,27.024" fill="#1c1588"/>
        <path id="Trazado_1036899" data-name="Trazado 1036899" d="M39.486,27.024H37.062a1.643,1.643,0,0,1-1.643-1.642V8.686a1.643,1.643,0,0,1,1.643-1.642h2.424a1.643,1.643,0,0,1,1.643,1.642v16.7a1.643,1.643,0,0,1-1.643,1.642" fill="#1c1588"/>
        <path id="Trazado_1036900" data-name="Trazado 1036900" d="M32.255,27.024H29.082a1.268,1.268,0,0,1-1.268-1.268V11.678a1.269,1.269,0,0,1,1.268-1.269h3.173a1.269,1.269,0,0,1,1.268,1.269V25.756a1.268,1.268,0,0,1-1.268,1.268" fill="#fff"/>
      </g>
    </g>
  </g>
</svg>
