<svg xmlns="http://www.w3.org/2000/svg" xmlns:xlink="http://www.w3.org/1999/xlink" width="113" height="113" viewBox="0 0 113 113">
  <defs>
    <filter id="Trazado_982547" x="0" y="0" width="113" height="113" filterUnits="userSpaceOnUse">
      <feOffset dy="3" input="SourceAlpha"/>
      <feGaussianBlur stdDeviation="3" result="blur"/>
      <feFlood flood-opacity="0.161"/>
      <feComposite operator="in" in2="blur"/>
      <feComposite in="SourceGraphic"/>
    </filter>
  </defs>
  <g id="Grupo_1176482" data-name="Grupo 1176482" transform="translate(-324.381 -635.98)">
    <g id="Grupo_1176394" data-name="Grupo 1176394" transform="translate(333.381 641.98)">
      <g id="Grupo_1172014" data-name="Grupo 1172014">
        <g id="Grupo_1167343" data-name="Grupo 1167343" transform="translate(0)">
          <g id="Grupo_1166777" data-name="Grupo 1166777" transform="translate(0)">
            <g id="Grupo_1164305" data-name="Grupo 1164305">
              <g id="Grupo_1163948" data-name="Grupo 1163948">
                <g id="Grupo_1158168" data-name="Grupo 1158168">
                  <g id="Grupo_1152576" data-name="Grupo 1152576">
                    <g id="Grupo_1148633" data-name="Grupo 1148633">
                      <g id="Grupo_1148525" data-name="Grupo 1148525">
                        <g transform="matrix(1, 0, 0, 1, -9, -6)" filter="url(#Trazado_982547)">
                          <g id="Trazado_982547-2" data-name="Trazado 982547" transform="translate(9 6)" fill="#f2f7e5">
                            <path d="M 47.5 93.5 C 41.28937149047852 93.5 35.26533508300781 92.28397369384766 29.59518623352051 89.88570404052734 C 24.11771965026855 87.56893157958984 19.19813346862793 84.25196075439453 14.97309303283691 80.02691650390625 C 10.74804019927979 75.80186462402344 7.431066513061523 70.88229370117188 5.114293098449707 65.40481567382812 C 2.716026782989502 59.73468017578125 1.5 53.71062850952148 1.5 47.5 C 1.5 41.28937149047852 2.716026782989502 35.26533508300781 5.114293098449707 29.59518623352051 C 7.431066513061523 24.11771965026855 10.74804019927979 19.19813346862793 14.97309303283691 14.97309303283691 C 19.19813346862793 10.74804019927979 24.11771965026855 7.431066513061523 29.59518623352051 5.114293098449707 C 35.26533508300781 2.716026782989502 41.28937149047852 1.5 47.5 1.5 C 53.71062850952148 1.5 59.73468017578125 2.716026782989502 65.40481567382812 5.114293098449707 C 70.88229370117188 7.431066513061523 75.80186462402344 10.74804019927979 80.02691650390625 14.97309303283691 C 84.25196075439453 19.19813346862793 87.56893157958984 24.11771965026855 89.88570404052734 29.59518623352051 C 92.28397369384766 35.26533508300781 93.5 41.28937149047852 93.5 47.5 C 93.5 53.71062850952148 92.28397369384766 59.73468017578125 89.88570404052734 65.40481567382812 C 87.56893157958984 70.88229370117188 84.25196075439453 75.80186462402344 80.02691650390625 80.02691650390625 C 75.80186462402344 84.25196075439453 70.88229370117188 87.56893157958984 65.40481567382812 89.88570404052734 C 59.73468017578125 92.28397369384766 53.71062850952148 93.5 47.5 93.5 Z" stroke="none"/>
                            <path d="M 47.5 3 C 41.49121475219727 3 35.66376876831055 4.176155090332031 30.17950439453125 6.495796203613281 C 24.88084411621094 8.736953735351562 20.12152099609375 11.94598388671875 16.03375244140625 16.03375244140625 C 11.94598388671875 20.12152099609375 8.736953735351562 24.88084411621094 6.495796203613281 30.17950439453125 C 4.176155090332031 35.66376876831055 3 41.49121475219727 3 47.5 C 3 53.50878524780273 4.176155090332031 59.33624649047852 6.495796203613281 64.82049560546875 C 8.736953735351562 70.11917114257812 11.94598388671875 74.87849426269531 16.03375244140625 78.96626281738281 C 20.12152099609375 83.05403137207031 24.88084411621094 86.2630615234375 30.17950439453125 88.50419616699219 C 35.66376876831055 90.82384490966797 41.49121475219727 92 47.5 92 C 53.50878524780273 92 59.33624649047852 90.82384490966797 64.82049560546875 88.50419616699219 C 70.11917114257812 86.2630615234375 74.87849426269531 83.05403137207031 78.96626281738281 78.96626281738281 C 83.05403137207031 74.87849426269531 86.2630615234375 70.11917114257812 88.50419616699219 64.82049560546875 C 90.82384490966797 59.33624649047852 92 53.50878524780273 92 47.5 C 92 41.49121475219727 90.82384490966797 35.66376876831055 88.50419616699219 30.17950439453125 C 86.2630615234375 24.88084411621094 83.05403137207031 20.12152099609375 78.96626281738281 16.03375244140625 C 74.87849426269531 11.94598388671875 70.11917114257812 8.736953735351562 64.82049560546875 6.495796203613281 C 59.33624649047852 4.176155090332031 53.50878524780273 3 47.5 3 M 47.5 0 C 73.73353576660156 0 95 21.2664794921875 95 47.5 C 95 73.73353576660156 73.73353576660156 95 47.5 95 C 21.2664794921875 95 0 73.73353576660156 0 47.5 C 0 21.2664794921875 21.2664794921875 0 47.5 0 Z" stroke="none" fill="#86b60c"/>
                          </g>
                        </g>
                      </g>
                    </g>
                  </g>
                </g>
              </g>
            </g>
          </g>
        </g>
      </g>
    </g>
    <g id="funding_18275531_1_" data-name="funding_18275531 (1)" transform="translate(348.061 653.749)">
      <g id="Grupo_1176481" data-name="Grupo 1176481" transform="translate(2.705 14.253)">
        <g id="Grupo_1176460" data-name="Grupo 1176460" transform="translate(25.091 2.323)">
          <path id="Trazado_1036256" data-name="Trazado 1036256" d="M218.477,112.664l-1.768-.476c-.387-1.7-1.231-8.554,1.607-7.5l1.65.759a2.367,2.367,0,0,0,.83.226l1.8.165c2.985.508-1.17,6.02-2.355,7.3Z" transform="translate(-216.286 -104.577)" fill="#44a91f" fill-rule="evenodd"/>
        </g>
        <g id="Grupo_1176461" data-name="Grupo 1176461" transform="translate(15.277 2.323)">
          <path id="Trazado_1036257" data-name="Trazado 1036257" d="M143.88,112.664l1.768-.476c.386-1.7,1.231-8.554-1.607-7.5l-1.65.759a2.367,2.367,0,0,1-.83.226l-1.8.165c-2.985.508,1.17,6.02,2.355,7.3Z" transform="translate(-138.699 -104.577)" fill="#44a91f" fill-rule="evenodd"/>
        </g>
        <g id="Grupo_1176462" data-name="Grupo 1176462" transform="translate(9.057 12.396)">
          <path id="Trazado_1036258" data-name="Trazado 1036258" d="M99.617,184.208a23,23,0,0,0-8.625,12.959,9.715,9.715,0,0,0,.326,5.716l-1.428,1.965a1.8,1.8,0,0,0-.261,1.671l.032.089a1.822,1.822,0,0,0,1.757,1.271H95.38a31.508,31.508,0,0,0,17.927,0h3.962a1.823,1.823,0,0,0,1.757-1.271l.032-.089a1.8,1.8,0,0,0-.261-1.671l-1.428-1.965a9.714,9.714,0,0,0,.326-5.716,23,23,0,0,0-8.625-12.959Z" transform="translate(-89.53 -184.208)" fill="#97da7b" fill-rule="evenodd"/>
        </g>
        <g id="Grupo_1176463" data-name="Grupo 1176463" transform="translate(25.091 2.323)">
          <path id="Trazado_1036259" data-name="Trazado 1036259" d="M221.842,105.764c-.057.462-.136.916-.226,1.342a29.369,29.369,0,0,1-1.983,5.866l-1.156-.308-1.768-.476c-.387-1.7-1.231-8.554,1.607-7.5l1.65.759a2.367,2.367,0,0,0,.83.226Z" transform="translate(-216.286 -104.577)" fill="#2f8c0e" fill-rule="evenodd"/>
        </g>
        <g id="Grupo_1176464" data-name="Grupo 1176464" transform="translate(17.094 2.323)">
          <path id="Trazado_1036260" data-name="Trazado 1036260" d="M155.27,112.972a29.368,29.368,0,0,1-1.983-5.866c-.089-.426-.172-.88-.226-1.342l1.045-.093a2.364,2.364,0,0,0,.83-.226l1.65-.759c2.838-1.052,1.993,5.8,1.607,7.5l-1.768.476Z" transform="translate(-153.062 -104.577)" fill="#2f8c0e" fill-rule="evenodd"/>
        </g>
        <g id="Grupo_1176465" data-name="Grupo 1176465" transform="translate(18.668 0)">
          <path id="Trazado_1036261" data-name="Trazado 1036261" d="M170.709,97.177H168.1c-1.163-2.2-4.864-11.356-.555-10.952l2.555.44a3.534,3.534,0,0,0,1.228,0l2.555-.44c4.309-.4.608,8.747-.555,10.952Z" transform="translate(-165.509 -86.212)" fill="#68ca44" fill-rule="evenodd"/>
        </g>
        <g id="Grupo_1176466" data-name="Grupo 1176466" transform="translate(42.297 45.412)">
          <path id="Trazado_1036262" data-name="Trazado 1036262" d="M353.384,451.25h12.941a1.089,1.089,0,0,0,1.088-1.084v-3.872a1.091,1.091,0,0,0-1.088-1.084H353.384a1.091,1.091,0,0,0-1.084,1.084v3.872A1.088,1.088,0,0,0,353.384,451.25Z" transform="translate(-352.3 -445.209)" fill="#ffd039" fill-rule="evenodd"/>
        </g>
        <g id="Grupo_1176467" data-name="Grupo 1176467" transform="translate(39.09 39.37)">
          <path id="Trazado_1036263" data-name="Trazado 1036263" d="M328.034,403.491h12.941a1.086,1.086,0,0,0,1.084-1.084v-3.869a1.089,1.089,0,0,0-1.084-1.088H328.034a1.089,1.089,0,0,0-1.084,1.088v3.869A1.086,1.086,0,0,0,328.034,403.491Z" transform="translate(-326.95 -397.45)" fill="#f99608" fill-rule="evenodd"/>
        </g>
        <g id="Grupo_1176468" data-name="Grupo 1176468" transform="translate(46.334 33.329)">
          <path id="Trazado_1036264" data-name="Trazado 1036264" d="M385.3,355.733H398.24a1.086,1.086,0,0,0,1.084-1.084V350.78a1.089,1.089,0,0,0-1.084-1.088H385.3a1.089,1.089,0,0,0-1.084,1.088v3.869A1.086,1.086,0,0,0,385.3,355.733Z" transform="translate(-384.214 -349.692)" fill="#ffd039" fill-rule="evenodd"/>
        </g>
        <g id="Grupo_1176469" data-name="Grupo 1176469" transform="translate(46.334 27.292)">
          <path id="Trazado_1036265" data-name="Trazado 1036265" d="M385.3,308H398.24a1.086,1.086,0,0,0,1.084-1.084v-3.869a1.086,1.086,0,0,0-1.084-1.084H385.3a1.086,1.086,0,0,0-1.084,1.084v3.869A1.086,1.086,0,0,0,385.3,308Z" transform="translate(-384.214 -301.963)" fill="#f99608" fill-rule="evenodd"/>
        </g>
        <g id="Grupo_1176470" data-name="Grupo 1176470" transform="translate(41.323 21.25)">
          <path id="Trazado_1036266" data-name="Trazado 1036266" d="M345.688,260.245H358.63a1.092,1.092,0,0,0,1.088-1.088v-3.869a1.089,1.089,0,0,0-1.088-1.084H345.688a1.088,1.088,0,0,0-1.084,1.084v3.869A1.091,1.091,0,0,0,345.688,260.245Z" transform="translate(-344.604 -254.204)" fill="#ffd039" fill-rule="evenodd"/>
        </g>
        <g id="Grupo_1176471" data-name="Grupo 1176471" transform="translate(52.826 21.25)">
          <path id="Trazado_1036267" data-name="Trazado 1036267" d="M435.538,260.245h2.523a1.092,1.092,0,0,0,1.088-1.088v-3.869a1.089,1.089,0,0,0-1.088-1.084h-2.523a1.088,1.088,0,0,1,1.084,1.084v3.869A1.091,1.091,0,0,1,435.538,260.245Z" transform="translate(-435.538 -254.204)" fill="#f99608" fill-rule="evenodd"/>
        </g>
        <g id="Grupo_1176472" data-name="Grupo 1176472" transform="translate(57.833 27.292)">
          <path id="Trazado_1036268" data-name="Trazado 1036268" d="M475.119,308h2.527a1.086,1.086,0,0,0,1.084-1.084v-3.869a1.086,1.086,0,0,0-1.084-1.084h-2.527a1.086,1.086,0,0,1,1.084,1.084v3.869A1.086,1.086,0,0,1,475.119,308Z" transform="translate(-475.119 -301.963)" fill="#e07f00" fill-rule="evenodd"/>
        </g>
        <g id="Grupo_1176473" data-name="Grupo 1176473" transform="translate(57.833 33.329)">
          <path id="Trazado_1036269" data-name="Trazado 1036269" d="M475.119,355.733h2.527a1.086,1.086,0,0,0,1.084-1.084V350.78a1.089,1.089,0,0,0-1.084-1.088h-2.527a1.089,1.089,0,0,1,1.084,1.088v3.869A1.086,1.086,0,0,1,475.119,355.733Z" transform="translate(-475.119 -349.692)" fill="#f99608" fill-rule="evenodd"/>
        </g>
        <g id="Grupo_1176474" data-name="Grupo 1176474" transform="translate(50.589 39.37)">
          <path id="Trazado_1036270" data-name="Trazado 1036270" d="M417.855,403.491h2.527a1.086,1.086,0,0,0,1.084-1.084v-3.869a1.089,1.089,0,0,0-1.084-1.088h-2.527a1.092,1.092,0,0,1,1.088,1.088v3.869A1.089,1.089,0,0,1,417.855,403.491Z" transform="translate(-417.855 -397.45)" fill="#e07f00" fill-rule="evenodd"/>
        </g>
        <g id="Grupo_1176475" data-name="Grupo 1176475" transform="translate(53.796 45.412)">
          <path id="Trazado_1036271" data-name="Trazado 1036271" d="M443.205,451.25h2.527a1.089,1.089,0,0,0,1.088-1.084v-3.872a1.091,1.091,0,0,0-1.088-1.084h-2.527a1.091,1.091,0,0,1,1.088,1.084v3.872A1.089,1.089,0,0,1,443.205,451.25Z" transform="translate(-443.205 -445.209)" fill="#f99608" fill-rule="evenodd"/>
        </g>
        <g id="Grupo_1176476" data-name="Grupo 1176476" transform="translate(22.684 12.396)">
          <path id="Trazado_1036272" data-name="Trazado 1036272" d="M197.256,209.157a31.416,31.416,0,0,0,10.15-1.278h-2.376A31.134,31.134,0,0,1,197.256,209.157Zm11.739-1.278h2.373a1.823,1.823,0,0,0,1.757-1.271l.032-.089a1.8,1.8,0,0,0-.261-1.671l-1.428-1.965a9.714,9.714,0,0,0,.326-5.716,23,23,0,0,0-8.625-12.959H200.8a23,23,0,0,1,8.625,12.959,9.745,9.745,0,0,1-.326,5.716l1.428,1.965a1.8,1.8,0,0,1,.261,1.671l-.032.089A1.823,1.823,0,0,1,208.995,207.879Z" transform="translate(-197.256 -184.208)" fill="#68ca44" fill-rule="evenodd"/>
        </g>
        <g id="Grupo_1176477" data-name="Grupo 1176477" transform="translate(4.661 28.738)">
          <path id="Trazado_1036273" data-name="Trazado 1036273" d="M81.339,327.277l9.341-8.618a3.034,3.034,0,0,0-4.116-4.459l-6.846,6.317a2.958,2.958,0,0,0,.247-1.156,3.037,3.037,0,0,0-2.988-3.074L71.19,316.2c-2.283-2.062-6.854-2.72-9.319-.744l-7.1,5.7,10.551,8.98,2.613-2.248q5.69.08,11.381.165A2.817,2.817,0,0,0,81.339,327.277Z" transform="translate(-54.773 -313.399)" fill="#ffc7ab" fill-rule="evenodd"/>
        </g>
        <g id="Grupo_1176478" data-name="Grupo 1176478" transform="translate(0 34.355)">
          <path id="Trazado_1036274" data-name="Trazado 1036274" d="M18.4,363.9l11.138,11.377a1.67,1.67,0,0,0,2.355.025l3.336-3.267a1.67,1.67,0,0,0,.025-2.355L24.117,358.3a1.67,1.67,0,0,0-2.355-.025l-3.336,3.264A1.67,1.67,0,0,0,18.4,363.9Z" transform="translate(-17.928 -357.805)" fill="#60b7ff" fill-rule="evenodd"/>
        </g>
        <g id="Grupo_1176479" data-name="Grupo 1176479" transform="translate(16.901 9.436)">
          <path id="Trazado_1036275" data-name="Trazado 1036275" d="M153.854,160.81h9.3a2.319,2.319,0,1,1,0,4.638h-9.3a2.319,2.319,0,1,1,0-4.638Z" transform="translate(-151.535 -160.81)" fill="#e6e2e6" fill-rule="evenodd"/>
        </g>
        <g id="Grupo_1176480" data-name="Grupo 1176480" transform="translate(26.084 9.436)">
          <path id="Trazado_1036276" data-name="Trazado 1036276" d="M224.134,160.81h2.437a2.319,2.319,0,0,1,0,4.638h-2.437a2.319,2.319,0,0,0,0-4.638Z" transform="translate(-224.134 -160.81)" fill="#c9bdc9" fill-rule="evenodd"/>
        </g>
      </g>
      <path id="Trazado_1036277" data-name="Trazado 1036277" d="M3.61,33.359l-2.8-2.684a1.009,1.009,0,0,1-.029-1.428l2.688-2.8a1.009,1.009,0,0,1,1.455,1.4L3.849,28.97h7.287a1.009,1.009,0,0,1,0,2.019H4.053l.953.914a1.009,1.009,0,1,1-1.4,1.457Zm44.472-6.906a1.009,1.009,0,0,0,.03,1.427l.957.918H41.982a1.009,1.009,0,1,0,0,2.019h7.284l-1.072,1.115a1.009,1.009,0,1,0,1.455,1.4l2.688-2.8a1.009,1.009,0,0,0-.029-1.428l-2.8-2.684a1.009,1.009,0,0,0-1.427.03ZM4.949,21.421a1.009,1.009,0,0,0,1.939-.563l-.37-1.274,6.135,3.546a1.009,1.009,0,0,0,1.01-1.748L7.355,17.736l1.488-.43a1.009,1.009,0,1,0-.561-1.939L4.558,16.444A1.009,1.009,0,0,0,3.869,17.7Zm34.925,1.694a1.006,1.006,0,0,0,.5-.135l6.309-3.643-.371,1.508a1.009,1.009,0,1,0,1.96.483l.927-3.765a1.009,1.009,0,0,0-.738-1.221L44.7,15.411a1.009,1.009,0,0,0-.484,1.959l1.289.319-6.136,3.543a1.009,1.009,0,0,0,.505,1.883ZM65.14,46.541a2.078,2.078,0,0,1-.307,1.085,2.083,2.083,0,0,1,.307,1.087v3.869a2.1,2.1,0,0,1-2.094,2.094H57.892c0,.026,0,.052,0,.079v3.869c0,.025,0,.05,0,.075h1.117a2.1,2.1,0,0,1,2.1,2.094v3.872a2.1,2.1,0,0,1-2.1,2.094H46.069a2.1,2.1,0,0,1-2.094-2.094V60.792c0-.025,0-.05,0-.075H42.862a2.1,2.1,0,0,1-2.094-2.094V54.755a2.1,2.1,0,0,1,2.094-2.1h5.154c0-.025,0-.05,0-.075V48.714a2.085,2.085,0,0,1,.307-1.087,2.077,2.077,0,0,1-.307-1.085V42.673c0-.025,0-.05,0-.075H45.095A2.1,2.1,0,0,1,43,40.5V36.632a2.1,2.1,0,0,1,2.094-2.094H58.036a2.1,2.1,0,0,1,2.1,2.094V40.5c0,.027,0,.052,0,.079h2.917a2.1,2.1,0,0,1,2.094,2.094ZM50.105,40.579h7.93a.083.083,0,0,0,.079-.079V36.632a.08.08,0,0,0-.079-.075H45.1a.079.079,0,0,0-.075.075V40.5a.083.083,0,0,0,.075.079ZM46.069,58.7H55.8a.077.077,0,0,0,.075-.075V54.754a.08.08,0,0,0-.075-.079H42.862a.08.08,0,0,0-.075.079v3.869a.077.077,0,0,0,.075.075ZM55.8,60.717H46.069a.083.083,0,0,0-.075.075v3.872a.079.079,0,0,0,.075.075H59.009a.08.08,0,0,0,.079-.075V60.792a.083.083,0,0,0-.079-.075Zm7.318-12a.08.08,0,0,0-.075-.079H50.105a.08.08,0,0,0-.075.079v3.869a.077.077,0,0,0,.075.075H63.046a.077.077,0,0,0,.075-.075Zm0-6.041a.077.077,0,0,0-.075-.075H50.105a.077.077,0,0,0-.075.075v3.869a.077.077,0,0,0,.075.075H63.046a.077.077,0,0,0,.075-.075V42.673Zm-36.564-2.62c-.776,0-1.27-.411-1.27-.694a1.009,1.009,0,0,0-2.019,0,2.79,2.79,0,0,0,2.28,2.587v.627a1.009,1.009,0,0,0,2.019,0v-.626a2.791,2.791,0,0,0,2.283-2.587c0-1.523-1.446-2.716-3.292-2.716-.776,0-1.27-.411-1.27-.694s.495-.694,1.27-.694,1.274.411,1.274.694a1.009,1.009,0,1,0,2.019,0,2.791,2.791,0,0,0-2.283-2.587v-.626a1.009,1.009,0,0,0-2.019,0v.627a2.789,2.789,0,0,0-2.28,2.587c0,1.521,1.445,2.713,3.289,2.713.778,0,1.274.413,1.274.7S27.335,40.053,26.557,40.053Zm17.382,8.984L34.6,57.654a3.814,3.814,0,0,1-2.72,1.044q-5.5-.083-11-.159l-.758.652.614.627A2.679,2.679,0,0,1,20.7,63.6l-3.335,3.267a2.678,2.678,0,0,1-3.782-.04L2.442,55.45h0a2.679,2.679,0,0,1,.041-3.782L5.818,48.4a2.677,2.677,0,0,1,3.316-.337l3.34-2.684a10.642,10.642,0,0,1-.238-6,24.335,24.335,0,0,1,6.8-11.661,3.317,3.317,0,0,1,.191-3.632c-1.409-1.946-2.718-4.333-2.11-5.891a2.129,2.129,0,0,1,1.742-1.316l.077-.01,1.428-.13a4.059,4.059,0,0,1,.628-2.446,2.6,2.6,0,0,1,2.5-.992c.026,0,.051.006.077.01l1.9.327V7.386l-.914.953a1.009,1.009,0,1,1-1.457-1.4l2.684-2.8A1.009,1.009,0,0,1,27.2,4.114L30,6.8a1.009,1.009,0,1,1-1.4,1.455L27.481,7.181v6.493l2.076-.358c.026,0,.051-.008.077-.01a2.6,2.6,0,0,1,2.492.987,4.051,4.051,0,0,1,.641,2.451l1.418.129.077.01A2.129,2.129,0,0,1,36.005,18.2c.608,1.558-.7,3.945-2.11,5.891a3.318,3.318,0,0,1,.191,3.632,24.336,24.336,0,0,1,6.8,11.662,9.589,9.589,0,0,1,.321,2.642c.052,0,.1,0,.156,0a4.043,4.043,0,0,1,2.579,7.009ZM31.375,22.729a3.308,3.308,0,0,1,.891.169c1.592-2.21,2.009-3.645,1.86-3.961a.506.506,0,0,0-.169-.056l-1.406-.128a24.846,24.846,0,0,1-1.176,3.977Zm-8.967-5.29c0,.026.006.051.008.077a21.388,21.388,0,0,0,1.49,5.21h1.059a6.738,6.738,0,0,1,1.368-4.14,1.009,1.009,0,0,1,1.622,1.2,4.709,4.709,0,0,0-.972,2.938H29.21c1.606-4,1.8-6.547,1.3-7.227-.05-.067-.164-.223-.649-.184l-2.513.433a4.523,4.523,0,0,1-1.566,0l-2.517-.434c-.485-.039-.6.118-.65.185a3.076,3.076,0,0,0-.2,1.941Zm-.5,7.3a1.3,1.3,0,0,0-.735.226l-.008.007-.008.005a1.307,1.307,0,0,0-.093,2.072l.017.015a1.3,1.3,0,0,0,.827.295h9.3a1.3,1.3,0,0,0,.827-.295l.017-.014a1.307,1.307,0,0,0-.093-2.072l-.008-.005-.008-.007a1.3,1.3,0,0,0-.735-.226ZM20.852,22.9a3.307,3.307,0,0,1,.89-.169,24.888,24.888,0,0,1-1.167-3.978l-1.415.129a.509.509,0,0,0-.169.056C18.842,19.253,19.26,20.688,20.852,22.9ZM14.186,44.034c2.882-1.951,7.415-1.24,9.957.8l5.425.08a4.056,4.056,0,0,1,3.81,2.866l5.078-4.685a4.061,4.061,0,0,1,.705-.52,7.807,7.807,0,0,0-.225-2.655,22.351,22.351,0,0,0-6.351-10.837,3.3,3.3,0,0,1-.767.242,5.018,5.018,0,0,1,.269,1.624,1.009,1.009,0,1,1-2.019,0,3.032,3.032,0,0,0-.44-1.567H23.489a3.024,3.024,0,0,0-.439,1.567,1.009,1.009,0,1,1-2.019,0,5.03,5.03,0,0,1,.268-1.624,3.3,3.3,0,0,1-.766-.242A22.351,22.351,0,0,0,14.181,39.92a8.368,8.368,0,0,0,0,4.115ZM19.479,61.7a.652.652,0,0,0-.186-.466L8.157,49.856a.657.657,0,0,0-.928-.01L3.894,53.11a.66.66,0,0,0-.009.928h0L15.021,65.415a.657.657,0,0,0,.928.01l3.335-3.267A.648.648,0,0,0,19.479,61.7ZM43.217,46.147a2.025,2.025,0,0,0-3.394-1.569l-6.7,6.183A4.071,4.071,0,0,1,29.508,53h-.055l-9.967-.143a1.009,1.009,0,0,1,.014-2.018h.015l9.967.143h.027a2.036,2.036,0,0,0,1.869-1.253,1.947,1.947,0,0,0,.154-.739,2.028,2.028,0,0,0-1.992-2.056l-5.789-.086a1.009,1.009,0,0,1-.661-.26c-1.894-1.71-5.89-2.406-8.012-.706l-.7.562a1.014,1.014,0,0,1-.086.069l-3.686,2.962,8.1,8.273,1.147-.986a1.025,1.025,0,0,1,.672-.244l.379.005q5.5.078,11,.159a1.8,1.8,0,0,0,1.322-.508l9.341-8.619a2,2,0,0,0,.647-1.405Z" transform="translate(0 0)"/>
    </g>
  </g>
</svg>
