<svg xmlns="http://www.w3.org/2000/svg" xmlns:xlink="http://www.w3.org/1999/xlink" width="400" height="260" viewBox="0 0 400 260">
  <defs>
    <clipPath id="clip-path">
      <rect id="Rectángulo_416328" data-name="Rectángulo 416328" width="400" height="260" transform="translate(179 10198)" fill="#103d47" stroke="#707070" stroke-width="1" opacity="0.38"/>
    </clipPath>
    <clipPath id="clip-path-2">
      <path id="Trazado_1037615" data-name="Trazado 1037615" d="M1699.093,1652.588l14.374,7.913a4.136,4.136,0,0,1,1.97,4.578c-.375,1.436-1.6,2.537-4.794,2.6-7.107.144-38.542-5.1-38.542-5.1v4.22l-14.485-.184s-1.3-20.81,3.143-23.538l38.343,9.508Z" transform="translate(-1657.438 -1643.08)" fill="none"/>
    </clipPath>
    <clipPath id="clip-path-3">
      <path id="Trazado_1037620" data-name="Trazado 1037620" d="M1576.252,1652.588l-14.374,7.913a4.135,4.135,0,0,0-1.97,4.578c.375,1.436,1.6,2.537,4.794,2.6,7.107.144,38.542-5.1,38.542-5.1v4.22l14.485-.184s1.3-20.81-3.143-23.538l-38.343,9.508Z" transform="translate(-1559.781 -1643.08)" fill="none"/>
    </clipPath>
    <clipPath id="clip-path-4">
      <path id="Trazado_1037629" data-name="Trazado 1037629" d="M1611.61,1090.169c0,17.317,9.755,31.523,23.858,31.523s23.858-14.214,23.858-31.523-5.966-24.679-23.858-24.679S1611.61,1072.86,1611.61,1090.169Z" transform="translate(-1611.61 -1065.49)" fill="none"/>
    </clipPath>
    <clipPath id="clip-path-5">
      <path id="Trazado_1037649" data-name="Trazado 1037649" d="M1643.018,1121.384h0a3.476,3.476,0,0,0,3.478-3.478h0a.606.606,0,0,0-.606-.606h-5.743a.606.606,0,0,0-.606.606h0A3.476,3.476,0,0,0,1643.018,1121.384Z" transform="translate(-1639.54 -1117.3)" fill="none"/>
    </clipPath>
    <clipPath id="clip-path-6">
      <path id="Trazado_1037672" data-name="Trazado 1037672" d="M1651.562,1255.143l31.9,11.8a6.041,6.041,0,0,0,7.881-3.725,4.861,4.861,0,0,0,.167-.582l12.547-52.413a3.377,3.377,0,0,0-2.074-3.932l-23.945-9.2a3.372,3.372,0,0,0-4.172,1.532l-26.011,47.651a6.609,6.609,0,0,0,3.7,8.87Z" transform="translate(-1647.271 -1196.858)" fill="none"/>
    </clipPath>
    <clipPath id="clip-path-7">
      <path id="Trazado_1037233" data-name="Trazado 1037233" d="M1824.787,1218.45a6.968,6.968,0,1,1-7.188-6.741A6.968,6.968,0,0,1,1824.787,1218.45Z" transform="translate(-1810.855 -1211.706)" fill="none"/>
    </clipPath>
    <clipPath id="clip-path-8">
      <path id="Trazado_1037238" data-name="Trazado 1037238" d="M1816.317,1286.28a6.968,6.968,0,1,1-7.188-6.741A6.968,6.968,0,0,1,1816.317,1286.28Z" transform="translate(-1802.385 -1279.536)" fill="none"/>
    </clipPath>
    <clipPath id="clip-path-9">
      <path id="Trazado_1037243" data-name="Trazado 1037243" d="M1802.5,1246.68a6.968,6.968,0,1,1-7.188-6.74A6.968,6.968,0,0,1,1802.5,1246.68Z" transform="translate(-1788.566 -1239.936)" fill="none"/>
    </clipPath>
    <clipPath id="clip-path-10">
      <path id="Trazado_1037247" data-name="Trazado 1037247" d="M1812.928,1343.381h-19.584a6.243,6.243,0,0,1-6.244-6.244l4.679-25.828h22.466l4.927,25.828a6.243,6.243,0,0,1-6.244,6.244Z" transform="translate(-1787.1 -1311.31)" fill="none"/>
    </clipPath>
    <clipPath id="clip-path-11">
      <circle id="Elipse_12342" data-name="Elipse 12342" cx="10.775" cy="10.775" r="10.775" transform="translate(0 15.238) rotate(-45)" fill="none"/>
    </clipPath>
    <clipPath id="clip-path-12">
      <path id="Trazado_1037266" data-name="Trazado 1037266" d="M1603.026,1341.773h-44.57a4.009,4.009,0,0,1-4.006-4.006h0a4.009,4.009,0,0,1,4.006-4.006h44.57a4.009,4.009,0,0,1,4.006,4.006h0A4.009,4.009,0,0,1,1603.026,1341.773Z" transform="translate(-1554.45 -1333.76)" fill="none"/>
    </clipPath>
    <clipPath id="clip-path-13">
      <path id="Trazado_1037269" data-name="Trazado 1037269" d="M1608.476,1332.033h-44.57a4.009,4.009,0,0,1-4.006-4.006h0a4.009,4.009,0,0,1,4.006-4.006h44.57a4.009,4.009,0,0,1,4.006,4.006h0A4.009,4.009,0,0,1,1608.476,1332.033Z" transform="translate(-1559.9 -1324.02)" fill="none"/>
    </clipPath>
    <clipPath id="clip-path-14">
      <path id="Trazado_1037272" data-name="Trazado 1037272" d="M1607.456,1322.3h-44.57a4.009,4.009,0,0,1-4.006-4.006h0a4.009,4.009,0,0,1,4.006-4.006h44.57a4.009,4.009,0,0,1,4.006,4.006h0A4.009,4.009,0,0,1,1607.456,1322.3Z" transform="translate(-1558.88 -1314.29)" fill="none"/>
    </clipPath>
    <clipPath id="clip-path-15">
      <path id="Trazado_1037275" data-name="Trazado 1037275" d="M1611.206,1312.563h-44.57a4.009,4.009,0,0,1-4.006-4.006h0a4.009,4.009,0,0,1,4.006-4.006h44.57a4.009,4.009,0,0,1,4.006,4.006h0A4.009,4.009,0,0,1,1611.206,1312.563Z" transform="translate(-1562.63 -1304.55)" fill="none"/>
    </clipPath>
  </defs>
  <g id="Enmascarar_grupo_1098805" data-name="Enmascarar grupo 1098805" transform="translate(-179 -10198)" clip-path="url(#clip-path)">
    <rect id="Rectángulo_416161" data-name="Rectángulo 416161" width="400" height="47.864" transform="translate(180 10413.136)" fill="#c5c5ef"/>
    <g id="Grupo_1177156" data-name="Grupo 1177156" transform="translate(1475.66 -2083.437)">
      <g id="Grupo_1177147" data-name="Grupo 1177147" transform="translate(-1168.442 12302.652)">
        <path id="Trazado_1037611" data-name="Trazado 1037611" d="M1590.405,1120.464c-1.611,2.026-3.669,4.188-3.334,6.756.3,2.193,2.265,3.741,4.188,4.842,7.538,4.331,16.4,5.631,25.062,6.349a222.591,222.591,0,0,0,44.987-.845c2.257-.271,4.69-.662,6.277-2.289a7.862,7.862,0,0,0,1.779-3.382,16.308,16.308,0,0,0,.606-5.687,32.75,32.75,0,0,0-1.364-6.573c-3.3-11.837-6.74-22.533-10.042-34.37-.6-2.146-1.077-5.48-2.313-7.33-2.385-3.573-6.692-5.336-10.864-6.365a50.644,50.644,0,0,0-13.233-1.452c-6.182.144-12.06,1.587-18.083,2.832-3.254.67-6.509-1.165-8.383,1.747-5.041,7.841-6.573,21.393-8.543,30.071-1.268,5.591-3.127,11.159-6.748,15.7Z" transform="translate(-1563.404 -1059.667)" fill="#0a0a44"/>
        <ellipse id="Elipse_12385" data-name="Elipse 12385" cx="29.058" cy="32.568" rx="29.058" ry="32.568" transform="translate(37.722 0)" fill="#0a0a44"/>
        <g id="Grupo_1177127" data-name="Grupo 1177127" transform="translate(70.935 223.547)">
          <path id="Trazado_1037612" data-name="Trazado 1037612" d="M1646.34,1337.28,1659.7,1596.9l20.715,1.532-2.744-260.486Z" transform="translate(-1646.34 -1337.28)" fill="#ef9eae"/>
          <g id="Grupo_1177126" data-name="Grupo 1177126" transform="translate(8.852 239.316)">
            <path id="Trazado_1037613" data-name="Trazado 1037613" d="M1699.093,1652.588l14.374,7.913a4.136,4.136,0,0,1,1.97,4.578c-.375,1.436-1.6,2.537-4.794,2.6-7.107.144-38.542-5.1-38.542-5.1v4.22l-14.485-.184s-1.3-20.81,3.143-23.538l38.343,9.508Z" transform="translate(-1657.438 -1638.478)" fill="#0a0a44"/>
            <g id="Grupo_1177125" data-name="Grupo 1177125" transform="translate(0 4.603)" clip-path="url(#clip-path-2)">
              <path id="Trazado_1037614" data-name="Trazado 1037614" d="M1657,1672.694h14.916V1666.8l-15.355-2.879Z" transform="translate(-1657.26 -1647.297)" fill="#fff"/>
            </g>
            <path id="Trazado_1037616" data-name="Trazado 1037616" d="M1683.7,1640.724l16.232,10.7s-2.481,7.107-13.448,2.369-24.894-11.877-24.894-11.877l1.308-4.6,20.795,3.406Z" transform="translate(-1658.278 -1637.31)" fill="#ef9eae"/>
          </g>
        </g>
        <g id="Grupo_1177130" data-name="Grupo 1177130" transform="translate(1.892 223.587)">
          <path id="Trazado_1037617" data-name="Trazado 1037617" d="M1633.159,1337.33l-11.422,259.577-20.707,1.531,2.736-260.486Z" transform="translate(-1568.128 -1337.33)" fill="#ef9eae"/>
          <g id="Grupo_1177129" data-name="Grupo 1177129" transform="translate(0 239.277)">
            <path id="Trazado_1037618" data-name="Trazado 1037618" d="M1576.252,1652.588l-14.374,7.913a4.135,4.135,0,0,0-1.97,4.578c.375,1.436,1.6,2.537,4.794,2.6,7.107.144,38.542-5.1,38.542-5.1v4.22l14.485-.184s1.3-20.81-3.143-23.538l-38.343,9.508Z" transform="translate(-1559.781 -1638.478)" fill="#0a0a44"/>
            <g id="Grupo_1177128" data-name="Grupo 1177128" transform="translate(0 4.603)" clip-path="url(#clip-path-3)">
              <path id="Trazado_1037619" data-name="Trazado 1037619" d="M1629.186,1672.694H1614.27V1666.8l15.363-2.879Z" transform="translate(-1570.807 -1647.297)" fill="#fff"/>
            </g>
            <path id="Trazado_1037621" data-name="Trazado 1037621" d="M1596.662,1640.724l-16.232,10.7s2.481,7.107,13.448,2.369,24.894-11.877,24.894-11.877l-1.308-4.6-20.795,3.406Z" transform="translate(-1563.96 -1637.31)" fill="#ef9eae"/>
          </g>
        </g>
        <path id="Trazado_1037622" data-name="Trazado 1037622" d="M1694.251,1173.281l12.044,53.3a6.112,6.112,0,0,1-6.62,5.95s-10.624-1.236-11.334-3.175c-2.385-6.5-18.25-53.458-18.25-53.458l14.557-25.477c7.5,4.977,8.4,15.857,9.612,22.861Z" transform="translate(-1580.211 -1075.92)" fill="#ef9eae"/>
        <path id="Trazado_1037623" data-name="Trazado 1037623" d="M1694.251,1173.281l4.043,17.891,8,35.407a6.112,6.112,0,0,1-6.62,5.95s-10.624-1.236-11.334-3.175c-2.385-6.5-18.25-53.458-18.25-53.458l14.557-25.477c7.5,4.977,8.4,15.857,9.612,22.861Z" transform="translate(-1580.211 -1075.92)" fill="#c5c5ef"/>
        <g id="Grupo_1177131" data-name="Grupo 1177131" transform="translate(56.107 53.697)">
          <path id="Trazado_1037624" data-name="Trazado 1037624" d="M1649.238,1124.34l1.827,32.448-23.315-.375,1.659-26.769Z" transform="translate(-1627.75 -1124.34)" fill="#ef9eae"/>
          <path id="Trazado_1037625" data-name="Trazado 1037625" d="M1629.208,1137.575c12.124,3.182,20.6-7.881,20.6-7.881l-19.837-5.3-.774,13.193Z" transform="translate(-1628.043 -1124.35)" fill="#e37481"/>
        </g>
        <path id="Trazado_1037626" data-name="Trazado 1037626" d="M1611.61,1090.169c0,17.317,9.755,31.523,23.858,31.523s23.858-14.214,23.858-31.523-5.966-24.679-23.858-24.679S1611.61,1072.86,1611.61,1090.169Z" transform="translate(-1568.377 -1058.734)" fill="#ef9eae"/>
        <g id="Grupo_1177132" data-name="Grupo 1177132" transform="translate(43.233 6.756)" clip-path="url(#clip-path-4)">
          <path id="Trazado_1037627" data-name="Trazado 1037627" d="M1658.44,1114.479c0,3.135,2.816,5.679,6.293,5.679s6.293-2.544,6.293-5.679-2.816-5.679-6.293-5.679S1658.44,1111.344,1658.44,1114.479Z" transform="translate(-1621.086 -1074.254)" fill="#e37481"/>
          <path id="Trazado_1037628" data-name="Trazado 1037628" d="M1609.12,1114.129c0,3.135,2.816,5.679,6.293,5.679s6.293-2.545,6.293-5.679-2.816-5.679-6.293-5.679S1609.12,1110.994,1609.12,1114.129Z" transform="translate(-1611.106 -1074.183)" fill="#e37481"/>
        </g>
        <path id="Trazado_1037630" data-name="Trazado 1037630" d="M1611.385,1093.91s5.225-10.314,6.365-20.635c0,0,1.093-4.77.136-4.283C1613.4,1071.272,1607.165,1083.07,1611.385,1093.91Z" transform="translate(-1568.048 -1059.436)" fill="#0a0a44"/>
        <path id="Trazado_1037631" data-name="Trazado 1037631" d="M1658.953,1236.708h0a18.747,18.747,0,0,0,2.289,8.623c5.871,10.808,14.828,33.98,16.032,64.713,0,0-5.193,210.211-5.8,219.072h-28.412l-12.483-199.538-6.533,199.538h-29.01s-8.088-164.865-7.594-175.992c.606-13.8.638-75.186,19.8-107.506a12.319,12.319,0,0,0,1.524-8.918h50.2Z" transform="translate(-1563.482 -1093.38)" fill="#0a0a44"/>
        <g id="Grupo_1177133" data-name="Grupo 1177133" transform="translate(33.654 70.328)">
          <path id="Trazado_1037632" data-name="Trazado 1037632" d="M1624.534,1145.429c5.352,0,10.481.311,18.84-.239l27.056,4.14c0,7.227-7.346,68.964-7.346,68.964h-52.828l-10.656-68.469,24.934-4.4Z" transform="translate(-1599.6 -1145.19)" fill="#ef9eae"/>
          <path id="Trazado_1037633" data-name="Trazado 1037633" d="M1613.335,1147.887c.678,9.508,4.148,27.567,21.839,26.322,17.716-1.244,20.388-17.8,20.771-26.609l14.485,2.218c0,7.227-7.346,68.964-7.346,68.964h-52.828l-10.656-68.47,13.735-2.425Z" transform="translate(-1599.6 -1145.678)" fill="#e5e5fd"/>
          <path id="Trazado_1037634" data-name="Trazado 1037634" d="M1641.507,1156.259l-3.573,8.12a1,1,0,0,1-1.8.048l-3.813-7.625-7.945-10.617-7.554,1.332.383,13.959,12.228,16.3,22.278-.71,9.891-20.579v-8.926l-11.677-1.787-8.415,10.481Z" transform="translate(-1603.085 -1145.307)" fill="#e5e5fd"/>
          <path id="Trazado_1037635" data-name="Trazado 1037635" d="M1645.236,1157.83l-1.946,8.99,4.754-7.889Z" transform="translate(-1608.441 -1147.748)" fill="#a8a8dd"/>
          <path id="Trazado_1037636" data-name="Trazado 1037636" d="M1637.978,1158.05l1.946,8.989-4.754-7.889Z" transform="translate(-1606.798 -1147.792)" fill="#a8a8dd"/>
          <path id="Trazado_1037637" data-name="Trazado 1037637" d="M1653.708,1145.41l-8.311,8.527a.877.877,0,0,0,.215,1.388l4.842,2.576a.881.881,0,0,0,1.22-.431l4.953-11.614-2.919-.447Z" transform="translate(-1608.817 -1145.234)" fill="#c5c5ef"/>
          <path id="Trazado_1037638" data-name="Trazado 1037638" d="M1628.157,1145.83l8.2,8.264a.952.952,0,0,1-.207,1.5l-4.658,2.648a.953.953,0,0,1-1.348-.455l-4.914-11.446,2.919-.511Z" transform="translate(-1604.787 -1145.319)" fill="#c5c5ef"/>
        </g>
        <g id="Grupo_1177134" data-name="Grupo 1177134" transform="translate(88.043 32.562)">
          <path id="Trazado_1037639" data-name="Trazado 1037639" d="M1668,1103.392c-.51,3.406-.415,8.208,4.14,8.535,3.175.223,5.512-4.571,6.022-7.976s-1.045-5.807-4.219-6.086S1668.507,1099.986,1668,1103.392Z" transform="translate(-1667.787 -1097.842)" fill="#ef9eae"/>
          <path id="Trazado_1037640" data-name="Trazado 1037640" d="M1675.92,1103.6s-2.935.5-2.752,4.65" transform="translate(-1668.875 -1099.007)" fill="none" stroke="#0a0a44" stroke-linecap="round" stroke-linejoin="round" stroke-width="0.83"/>
        </g>
        <g id="Grupo_1177135" data-name="Grupo 1177135" transform="translate(36.079 31.604)">
          <path id="Trazado_1037641" data-name="Trazado 1037641" d="M1612.9,1102.192c.51,3.406.415,8.208-4.14,8.535-3.175.223-5.512-4.57-6.022-7.976s1.045-5.807,4.22-6.086S1612.387,1098.786,1612.9,1102.192Z" transform="translate(-1602.64 -1096.642)" fill="#ef9eae"/>
          <path id="Trazado_1037642" data-name="Trazado 1037642" d="M1606.93,1102.4s2.935.5,2.752,4.65" transform="translate(-1603.509 -1097.807)" fill="none" stroke="#0a0a44" stroke-linecap="round" stroke-linejoin="round" stroke-width="0.83"/>
        </g>
        <path id="Trazado_1037643" data-name="Trazado 1037643" d="M1661.429,1084.148s-20.109.463-31.858-10.3c0,0-6.948,8.008-14.382,8.926l1.484-13.384,9.612-7.442h18.545l10.29,5.839,6.309,16.36Z" transform="translate(-1569.101 -1058.018)" fill="#0a0a44"/>
        <g id="Grupo_1177140" data-name="Grupo 1177140" transform="translate(53.397 28.189)">
          <path id="Trazado_1037644" data-name="Trazado 1037644" d="M1643.12,1109.751s1.874.686,1.866-.391a14.663,14.663,0,0,0-.239-2.68" transform="translate(-1628.15 -1095.258)" fill="none" stroke="#0a0a44" stroke-linecap="round" stroke-miterlimit="10" stroke-width="0.99"/>
          <g id="Grupo_1177136" data-name="Grupo 1177136" transform="translate(3.874 5.751)">
            <path id="Trazado_1037645" data-name="Trazado 1037645" d="M1633.741,1102.553c0-1.643-1.013-2.983-2.265-2.983s-2.265,1.332-2.265,2.983" transform="translate(-1629.21 -1099.57)" fill="none" stroke="#0a0a44" stroke-linecap="round" stroke-miterlimit="10" stroke-width="1.2"/>
            <path id="Trazado_1037646" data-name="Trazado 1037646" d="M1657.151,1102.553c0-1.643-1.013-2.983-2.265-2.983s-2.265,1.332-2.265,2.983" transform="translate(-1633.947 -1099.57)" fill="none" stroke="#0a0a44" stroke-linecap="round" stroke-miterlimit="10" stroke-width="1.2"/>
          </g>
          <g id="Grupo_1177138" data-name="Grupo 1177138" transform="translate(12.114 19.893)">
            <path id="Trazado_1037647" data-name="Trazado 1037647" d="M1643.018,1121.384h0a3.476,3.476,0,0,0,3.478-3.478h0a.606.606,0,0,0-.606-.606h-5.743a.606.606,0,0,0-.606.606h0A3.476,3.476,0,0,0,1643.018,1121.384Z" transform="translate(-1639.54 -1117.3)" fill="#fff"/>
            <g id="Grupo_1177137" data-name="Grupo 1177137" clip-path="url(#clip-path-5)">
              <path id="Trazado_1037648" data-name="Trazado 1037648" d="M1640.34,1122.05a2.84,2.84,0,1,0,2.84-2.84A2.836,2.836,0,0,0,1640.34,1122.05Z" transform="translate(-1639.702 -1117.687)" fill="#df4d5d"/>
            </g>
          </g>
          <g id="Grupo_1177139" data-name="Grupo 1177139">
            <path id="Trazado_1037650" data-name="Trazado 1037650" d="M1654.7,1092.36a12.771,12.771,0,0,1,6.565,2.281.164.164,0,0,1-.128.3,25.509,25.509,0,0,0-5.591-.63,20.046,20.046,0,0,0-4.491.487.163.163,0,0,1-.191-.215c.7-1.779,1.954-2.218,3.837-2.218Z" transform="translate(-1629.716 -1092.36)" fill="#0a0a44"/>
            <path id="Trazado_1037651" data-name="Trazado 1037651" d="M1630.987,1092.39a12.77,12.77,0,0,0-6.565,2.281.164.164,0,0,0,.128.3,25.49,25.49,0,0,1,5.583-.63,20.045,20.045,0,0,1,4.491.487.163.163,0,0,0,.191-.215c-.7-1.779-1.954-2.218-3.837-2.218Z" transform="translate(-1624.353 -1092.366)" fill="#0a0a44"/>
          </g>
        </g>
        <g id="Grupo_1177141" data-name="Grupo 1177141" transform="translate(0 127.87)">
          <path id="Trazado_1037652" data-name="Trazado 1037652" d="M1616.755,1217.338l8.941,11.382-49.542,21.776c-7.865,4.172-13.823,3.015-17.125-3.35h0c-2.744-5.288-2.433-11.645,4.307-14.788l53.418-15.028Z" transform="translate(-1557.409 -1217.33)" fill="#ef9eae"/>
          <path id="Trazado_1037653" data-name="Trazado 1037653" d="M1608.084,1217.78l7.49,18.753-39.292,14.788c-9.173,3.39-13.951,2.289-17.253-4.076h0c-2.744-5.288-2.433-11.646,4.307-14.788l44.74-14.677Z" transform="translate(-1557.409 -1217.421)" fill="#c5c5ef"/>
        </g>
        <g id="Grupo_1177143" data-name="Grupo 1177143" transform="translate(133.574 70.847)">
          <path id="Trazado_1037654" data-name="Trazado 1037654" d="M1750.033,1174.792s-6.708,10.912-11.39,12.858c-6.86,2.84-8.758-9.62-8.048-11.606s5.5-11.215,5.5-11.215,11.614,2.4,13.943,9.963Z" transform="translate(-1726 -1149.683)" fill="#ef9eae"/>
          <path id="Trazado_1037655" data-name="Trazado 1037655" d="M1736.49,1162.75l7.522-15.825a1.9,1.9,0,0,1,2.7-.806h0a1.7,1.7,0,0,1,.59,2.249l-6.222,15.57-4.594-1.181Z" transform="translate(-1727.221 -1145.84)" fill="#ef9eae"/>
          <path id="Trazado_1037656" data-name="Trazado 1037656" d="M1749.536,1151.154l-8.216,14.653,4.347,2.632,7.059-15.674a1.708,1.708,0,0,0-.774-2.417h0a1.887,1.887,0,0,0-2.417.806Z" transform="translate(-1728.199 -1146.719)" fill="#ef9eae"/>
          <path id="Trazado_1037657" data-name="Trazado 1037657" d="M1747.31,1168.148l7.618-12.308a1.5,1.5,0,0,1,2.2-.391h0a1.5,1.5,0,0,1,.407,1.882l-6.756,12.882-3.47-2.058Z" transform="translate(-1729.411 -1147.72)" fill="#ef9eae"/>
          <path id="Trazado_1037658" data-name="Trazado 1037658" d="M1751.45,1171.45l7.027-9.516a1.517,1.517,0,0,1,2.305-.16h0a1.519,1.519,0,0,1,.191,1.882l-6.7,10.433-2.824-2.632Z" transform="translate(-1730.249 -1148.972)" fill="#ef9eae"/>
          <g id="Grupo_1177142" data-name="Grupo 1177142" transform="translate(0 12.669)">
            <path id="Trazado_1037659" data-name="Trazado 1037659" d="M1724.88,1162.75a1.288,1.288,0,0,0,.064.415,20.5,20.5,0,0,1,1.516,3.087,28.653,28.653,0,0,1,1.795,11.526l-.726,3.119c2.305,2.161,6.014,1.611,7.833,2a4.861,4.861,0,0,0,.383-.327,11.525,11.525,0,0,0,2.5-3.215,6.78,6.78,0,0,0,.223-6.094,9.685,9.685,0,0,0-5.5-5.169,8.28,8.28,0,0,1-6.6-6.293,1.082,1.082,0,0,0-1.491.949Z" transform="translate(-1724.872 -1161.724)" fill="#ef9eae"/>
            <path id="Trazado_1037660" data-name="Trazado 1037660" d="M1724.878,1163.006a1.282,1.282,0,0,0,.064.415,20.531,20.531,0,0,1,1.516,3.087,1.37,1.37,0,0,0,.327-.519,2.221,2.221,0,0,0-.359-2.066,2.486,2.486,0,0,0-1.148-.893.719.719,0,0,0-.407-.016Z" transform="translate(-1724.87 -1161.98)" fill="#fcc3d1"/>
          </g>
        </g>
        <g id="Grupo_1177144" data-name="Grupo 1177144" transform="translate(107.466 98.788)">
          <path id="Trazado_1037661" data-name="Trazado 1037661" d="M1723.4,1180.87l14.23,2.656-22.86,49.055c-3.151,8.327-8.4,11.382-15.075,8.782h0c-5.552-2.161-9.516-7.147-6.517-13.959l30.231-46.534Z" transform="translate(-1692.14 -1180.87)" fill="#ef9eae"/>
          <path id="Trazado_1037662" data-name="Trazado 1037662" d="M1717.114,1188.37l17.995,9.149-19.774,37.035c-4.658,8.6-8.974,10.92-15.65,8.319h0c-5.552-2.162-9.516-7.147-6.517-13.959l23.945-40.544Z" transform="translate(-1692.138 -1182.388)" fill="#c5c5ef"/>
        </g>
        <g id="Grupo_1177145" data-name="Grupo 1177145" transform="translate(0.467 75.441)">
          <path id="Trazado_1037663" data-name="Trazado 1037663" d="M1575.3,1174.867l-17.3,50.642c-.136,3.518,2.72,8.543,6.246,8.463,0,0,10.537-.726,11.366-2.624,2.784-6.333,20.547-49.087,20.547-49.087l-4.9-30.661c-7.442,3.725-12.571,14.126-15.961,23.259Z" transform="translate(-1557.994 -1151.6)" fill="#ef9eae"/>
          <path id="Trazado_1037664" data-name="Trazado 1037664" d="M1575.3,1174.867l-17.3,50.642c-.136,3.518,2.72,8.543,6.246,8.463,0,0,10.537-.726,11.366-2.624,2.784-6.333,20.547-49.087,20.547-49.087l-4.9-30.661c-7.442,3.725-12.571,14.126-15.961,23.259Z" transform="translate(-1557.994 -1151.6)" fill="#c5c5ef"/>
        </g>
        <path id="Trazado_1037665" data-name="Trazado 1037665" d="M1655.949,1246.537a20.148,20.148,0,1,1,20.148-20.148A20.17,20.17,0,0,1,1655.949,1246.537Zm0-35.487A15.347,15.347,0,1,0,1671.3,1226.4,15.363,15.363,0,0,0,1655.949,1211.05Z" transform="translate(-1573.272 -1087.216)" fill="#f4d739"/>
        <path id="Trazado_1037666" data-name="Trazado 1037666" d="M1630.738,1214.895c2.05-3.222,5.049-10.154,9.452-11.558,3.773-1.2,7.769.151,10.976,2.656a7.63,7.63,0,0,0-1.906,2.481c2.648,1.181,5.384,2.417,7.322,4.5a4.077,4.077,0,0,1,1.276,2.489,2.969,2.969,0,0,1-3.246,2.736,3.264,3.264,0,0,1-.9,2.832,4.89,4.89,0,0,1-3.151,1.22,3.433,3.433,0,0,1-1.316,3.031,6.393,6.393,0,0,1-3.916.981,2.667,2.667,0,0,1-.7,3.382,4.83,4.83,0,0,1-3.709.869,13.514,13.514,0,0,1-3.741-1.212,18.048,18.048,0,0,0-3.932-1.348c-1.149-5.831-2.034-6.7-2.513-13.049Z" transform="translate(-1572.246 -1086.538)" fill="#ef9eae"/>
        <path id="Trazado_1037667" data-name="Trazado 1037667" d="M1694.852,1246.525l46.606-6.445,1.173,6.285-50.491,13.911Z" transform="translate(-1584.673 -1094.064)" fill="#f4d739"/>
        <path id="Trazado_1037668" data-name="Trazado 1037668" d="M1757.432,1232.037l-3.462,6.309,1.172,6.293,6.1,5.113a1.02,1.02,0,0,0,1.651-1l-3.573-16.439a1.02,1.02,0,0,0-1.891-.271Z" transform="translate(-1597.184 -1092.331)" fill="#ffbe4a"/>
        <path id="Trazado_1037669" data-name="Trazado 1037669" d="M1651.562,1255.143l31.9,11.8a6.041,6.041,0,0,0,7.881-3.725,4.861,4.861,0,0,0,.167-.582l12.547-52.413a3.377,3.377,0,0,0-2.074-3.932l-23.945-9.2a3.372,3.372,0,0,0-4.172,1.532l-26.011,47.651a6.609,6.609,0,0,0,3.7,8.87Z" transform="translate(-1575.593 -1085.317)" fill="#ffbe4a"/>
        <g id="Grupo_1177146" data-name="Grupo 1177146" transform="translate(71.678 111.54)" clip-path="url(#clip-path-6)">
          <path id="Trazado_1037670" data-name="Trazado 1037670" d="M1701.491,1245.32c1.364,2.736,2.76,5.576,2.88,8.631s-1.388,6.4-4.267,7.426a7.946,7.946,0,0,1-4.778-.064,14.4,14.4,0,0,1-8.351-6.389,5.168,5.168,0,0,1-.917-3.159,2.328,2.328,0,0,1,2.162-2.146c1.476.056,2.217,1.763,2.608,3.182.861,3.095,1.54,6.916-.829,9.085a7.035,7.035,0,0,1-3,1.46c-6.3,1.691-13.145-.3-18.609-3.877-3.924-2.56-7.57-6.525-7.394-11.207a2.994,2.994,0,0,1,.861-2.249,2.688,2.688,0,0,1,2.186-.4c2.273.415,4,2.257,5.288,4.18a12.657,12.657,0,0,1,2.21,5.257c.558,4.188-2.146,8.279-5.7,10.553s-7.825,3.095-12,3.733" transform="translate(-1648.6 -1206.664)" fill="none" stroke="#fff" stroke-linecap="round" stroke-linejoin="round" stroke-width="2.67"/>
          <path id="Trazado_1037671" data-name="Trazado 1037671" d="M1636.939,1233.083c-1.508-3.023-3.055-6.174-3.191-9.548s1.539-7.083,4.722-8.216a8.8,8.8,0,0,1,5.288.064,15.931,15.931,0,0,1,9.245,7.075,5.68,5.68,0,0,1,1.013,3.494,2.583,2.583,0,0,1-2.393,2.377c-1.627-.056-2.449-1.954-2.887-3.526-.957-3.422-1.707-7.657.917-10.058a7.878,7.878,0,0,1,3.318-1.619c6.979-1.867,14.549.343,20.587,4.291,4.339,2.84,8.375,7.227,8.184,12.4a3.287,3.287,0,0,1-.957,2.489,2.98,2.98,0,0,1-2.417.439c-2.513-.455-4.435-2.5-5.855-4.626a13.969,13.969,0,0,1-2.441-5.823c-.614-4.634,2.369-9.157,6.3-11.678s8.662-3.422,13.281-4.132" transform="translate(-1644.533 -1198.807)" fill="none" stroke="#fff" stroke-linecap="round" stroke-linejoin="round" stroke-width="2.67"/>
        </g>
        <path id="Trazado_1037673" data-name="Trazado 1037673" d="M1679.564,1198.829l-.487-5.416a1.977,1.977,0,0,1,2.664-2.026l31.491,11.9a1.97,1.97,0,0,1,.471,3.43l-3.43,3.294-30.7-11.191Z" transform="translate(-1582.028 -1084.184)" fill="#f4d739"/>
      </g>
      <g id="Grupo_1177149" data-name="Grupo 1177149" transform="translate(-994.213 12372.975)">
        <g id="Grupo_1176871" data-name="Grupo 1176871" transform="translate(0 0)">
          <g id="Grupo_1176869" data-name="Grupo 1176869">
            <path id="Trazado_1037212" data-name="Trazado 1037212" d="M1826.611,1194.809a2.754,2.754,0,0,1-4.472-2.252c.306-6.84,2.045-14.218,5.722-19.642a41.941,41.941,0,0,1,14.939-13.282,2.757,2.757,0,0,1,3.95,3.114,60.328,60.328,0,0,1-20.147,32.071Z" transform="translate(-1775.147 -1159.305)" fill="#86c65d"/>
            <path id="Trazado_1037213" data-name="Trazado 1037213" d="M1816.031,1216.809a45.518,45.518,0,0,1,33.926-19.41,2.246,2.246,0,0,1,1.913,3.6,49.55,49.55,0,0,1-33.719,19.278,2.243,2.243,0,0,1-2.111-3.478Z" transform="translate(-1774.032 -1165.853)" fill="#70b54a"/>
            <path id="Trazado_1037214" data-name="Trazado 1037214" d="M1814.065,1214.221a42.643,42.643,0,0,0-11.113-35.011,1.7,1.7,0,0,0-2.923,1.292c.257,3.561.166,7.155.182,10.724.025,5.1.273,10.284,2,15.071,1.549,4.347,4.488,8.364,9.829,9.349a1.716,1.716,0,0,0,2.012-1.433Z" transform="translate(-1771.346 -1162.636)" fill="#70b54a"/>
            <path id="Trazado_1037215" data-name="Trazado 1037215" d="M1804.515,1231.117a1.53,1.53,0,0,0,1.5-2.1c-2.542-6.277-5.225-12.537-9.026-18.06-3.66-5.325-8.5-9.995-14.268-12.487a1.527,1.527,0,0,0-2.078,1.755c1.54,6.625,3.3,13.249,6.608,19.112,3.461,6.12,8.91,11.378,17.265,11.775Z" transform="translate(-1768.006 -1166.018)" fill="#86c65d"/>
            <path id="Trazado_1037216" data-name="Trazado 1037216" d="M1809.63,1245.55a1.545,1.545,0,0,1-1.035-2.534c4.414-5.308,10.823-8.893,17.53-11.005a91,91,0,0,1,19.269-3.362,1.55,1.55,0,0,1,1.184,2.683c-10.334,9.457-23.824,15.295-36.941,14.227Z" transform="translate(-1772.757 -1171.226)" fill="#86c65d"/>
            <path id="Trazado_1037217" data-name="Trazado 1037217" d="M1798.761,1256.833c-4.919-13.133-13.936-23.443-24.3-27.956a1.859,1.859,0,0,0-2.55,2.194,164.176,164.176,0,0,0,6.219,18.011,18.149,18.149,0,0,0,8.587,9.216,13.868,13.868,0,0,0,10.782.994A1.87,1.87,0,0,0,1798.761,1256.833Z" transform="translate(-1766.501 -1171.238)" fill="#70b54a"/>
            <path id="Trazado_1037218" data-name="Trazado 1037218" d="M1802.15,1273.664c7.428-17.928,20.9-23.087,39.209-21.936C1832.168,1263.47,1818.182,1275.668,1802.15,1273.664Z" transform="translate(-1771.711 -1175.168)" fill="#86c65d"/>
            <path id="Trazado_1037219" data-name="Trazado 1037219" d="M1803.875,1302.172a1.6,1.6,0,0,1-1.888-2.012c1.987-6.939,6.757-12.968,12.587-17.265a57.231,57.231,0,0,1,18.847-8.637,1.585,1.585,0,0,1,1.847,2.252c-7.966,14.98-18.781,22.631-31.392,25.654Z" transform="translate(-1771.672 -1179.057)" fill="#70b54a"/>
            <path id="Trazado_1037220" data-name="Trazado 1037220" d="M1795.391,1286.952c-5.556-11.543-16.04-20.271-27.848-23.2a1.742,1.742,0,0,0-2.078,2.178,36.3,36.3,0,0,0,10.6,16.686c4.985,4.389,11.179,7.171,17.8,6.848a1.761,1.761,0,0,0,1.524-2.509Z" transform="translate(-1765.392 -1177.252)" fill="#86c65d"/>
          </g>
          <g id="Grupo_1176870" data-name="Grupo 1176870" transform="translate(6.648 10.297)">
            <path id="Trazado_1037221" data-name="Trazado 1037221" d="M1833.576,1171.74c-11.792,17.149-19.791,39.532-25.4,58.611s-8.43,39.259-5.44,58.918" transform="translate(-1778.253 -1171.74)" fill="none" stroke="#56932f" stroke-linecap="round" stroke-linejoin="round" stroke-width="0.97"/>
            <path id="Trazado_1037222" data-name="Trazado 1037222" d="M1803.58,1186.31q5.093,15.116,10.16,30.241" transform="translate(-1778.605 -1174.245)" fill="none" stroke="#56932f" stroke-linecap="round" stroke-linejoin="round" stroke-width="0.97"/>
            <path id="Trazado_1037223" data-name="Trazado 1037223" d="M1841.787,1203.86A191.534,191.534,0,0,0,1815.67,1220" transform="translate(-1780.684 -1177.262)" fill="none" stroke="#56932f" stroke-linecap="round" stroke-linejoin="round" stroke-width="0.97"/>
            <path id="Trazado_1037224" data-name="Trazado 1037224" d="M1838.518,1232.89c-12.106,6.856-30.258,12.5-30.258,12.5" transform="translate(-1779.41 -1182.253)" fill="none" stroke="#56932f" stroke-linecap="round" stroke-linejoin="round" stroke-width="0.97"/>
            <path id="Trazado_1037225" data-name="Trazado 1037225" d="M1830.309,1258.89c-12.016,8.985-27.459,15.137-27.459,15.137" transform="translate(-1778.48 -1186.723)" fill="none" stroke="#56932f" stroke-linecap="round" stroke-linejoin="round" stroke-width="0.97"/>
            <path id="Trazado_1037226" data-name="Trazado 1037226" d="M1788.25,1210.33a60.559,60.559,0,0,0,18.491,21.613" transform="translate(-1775.97 -1178.375)" fill="none" stroke="#56932f" stroke-linecap="round" stroke-linejoin="round" stroke-width="0.97"/>
            <path id="Trazado_1037227" data-name="Trazado 1037227" d="M1779.69,1238.88a66.468,66.468,0,0,0,20.313,21.3" transform="translate(-1774.498 -1183.283)" fill="none" stroke="#56932f" stroke-linecap="round" stroke-linejoin="round" stroke-width="0.97"/>
            <path id="Trazado_1037228" data-name="Trazado 1037228" d="M1773.42,1271.28a110.677,110.677,0,0,0,22.838,18.4" transform="translate(-1773.42 -1188.853)" fill="none" stroke="#56932f" stroke-linecap="round" stroke-linejoin="round" stroke-width="0.97"/>
            <path id="Trazado_1037229" data-name="Trazado 1037229" d="M1827.646,1281.46a114.582,114.582,0,0,1-25.356,21.124" transform="translate(-1778.384 -1190.603)" fill="none" stroke="#56932f" stroke-linecap="round" stroke-linejoin="round" stroke-width="0.97"/>
          </g>
        </g>
        <g id="Grupo_1176874" data-name="Grupo 1176874" transform="translate(35.817 41.561)">
          <g id="Grupo_1176873" data-name="Grupo 1176873">
            <path id="Trazado_1037230" data-name="Trazado 1037230" d="M1826.237,1218.012a197.336,197.336,0,1,0,.008.008Z" transform="translate(-1808.644 -1209.494)" fill="#f4d739"/>
            <path id="Trazado_1037231" data-name="Trazado 1037231" d="M1824.787,1218.45a6.968,6.968,0,1,1-7.188-6.741A6.968,6.968,0,0,1,1824.787,1218.45Z" transform="translate(-1809.025 -1209.875)" fill="#ffbe4a"/>
            <g id="Grupo_1176872" data-name="Grupo 1176872" transform="translate(1.831 1.831)" clip-path="url(#clip-path-7)">
              <path id="Trazado_1037232" data-name="Trazado 1037232" d="M1817.88,1224.222a8.717,8.717,0,0,0,5.432-4.058,15.028,15.028,0,0,0,1.391-4.844,13.4,13.4,0,0,1,1.284,7.328,6.356,6.356,0,0,1-.547,2.112,5.744,5.744,0,0,1-1.259,1.631,8.481,8.481,0,0,1-7.022,2.12,8.131,8.131,0,0,1-3.031-1.151c-.754-.472-2.054-1.325-2.344-2.219-.455-1.408,1.383-.745,2.062-.662a11.193,11.193,0,0,0,4.033-.257Z" transform="translate(-1811.003 -1212.327)" fill="#f2ae40"/>
            </g>
          </g>
          <path id="Trazado_1037234" data-name="Trazado 1037234" d="M1826.21,1214.458l-.522.017a1.763,1.763,0,0,1-1.822-1.714l-.017-.522a.381.381,0,1,0-.762,0l.017.547a1.763,1.763,0,0,1-1.714,1.822l-.522.016a.381.381,0,1,0,0,.762l.547-.017a1.762,1.762,0,0,1,1.822,1.714l.017.522a.381.381,0,1,0,.762,0l-.016-.547a1.762,1.762,0,0,1,1.714-1.822l.547-.017a.373.373,0,0,0,.364-.406.4.4,0,0,0-.406-.348Z" transform="translate(-1810.679 -1209.899)" fill="#fff"/>
        </g>
        <g id="Grupo_1176877" data-name="Grupo 1176877" transform="translate(28.803 97.729)">
          <g id="Grupo_1176876" data-name="Grupo 1176876">
            <path id="Trazado_1037235" data-name="Trazado 1037235" d="M1817.767,1285.842a9.09,9.09,0,1,1,.008,0Z" transform="translate(-1800.174 -1277.324)" fill="#f4d739"/>
            <path id="Trazado_1037236" data-name="Trazado 1037236" d="M1816.317,1286.28a6.968,6.968,0,1,1-7.188-6.741A6.968,6.968,0,0,1,1816.317,1286.28Z" transform="translate(-1800.555 -1277.704)" fill="#ffbe4a"/>
            <g id="Grupo_1176875" data-name="Grupo 1176875" transform="translate(1.831 1.831)" clip-path="url(#clip-path-8)">
              <path id="Trazado_1037237" data-name="Trazado 1037237" d="M1809.41,1292.062a8.716,8.716,0,0,0,5.432-4.057,15.028,15.028,0,0,0,1.391-4.844,13.394,13.394,0,0,1,1.283,7.328,6.363,6.363,0,0,1-.546,2.112,5.742,5.742,0,0,1-1.259,1.631,8.48,8.48,0,0,1-7.022,2.12,8.129,8.129,0,0,1-3.031-1.151c-.754-.472-2.054-1.325-2.344-2.219-.456-1.408,1.383-.745,2.062-.663A11.194,11.194,0,0,0,1809.41,1292.062Z" transform="translate(-1802.533 -1280.159)" fill="#f2ae40"/>
            </g>
          </g>
          <path id="Trazado_1037239" data-name="Trazado 1037239" d="M1817.74,1282.3l-.522.016a1.762,1.762,0,0,1-1.822-1.714l-.016-.522a.381.381,0,1,0-.762,0l.016.547a1.762,1.762,0,0,1-1.714,1.822l-.521.017a.381.381,0,1,0,0,.762l.546-.017a1.762,1.762,0,0,1,1.822,1.714l.016.522a.381.381,0,1,0,.762,0l-.016-.547a1.762,1.762,0,0,1,1.714-1.822l.546-.017a.373.373,0,0,0,.364-.406.4.4,0,0,0-.406-.348Z" transform="translate(-1802.209 -1277.731)" fill="#fff"/>
        </g>
        <g id="Grupo_1176880" data-name="Grupo 1176880" transform="translate(17.351 64.929)">
          <g id="Grupo_1176879" data-name="Grupo 1176879">
            <path id="Trazado_1037240" data-name="Trazado 1037240" d="M1803.946,1246.24a8.8,8.8,0,1,1-9.076-8.521A8.8,8.8,0,0,1,1803.946,1246.24Z" transform="translate(-1786.345 -1237.715)" fill="#f4d739"/>
            <path id="Trazado_1037241" data-name="Trazado 1037241" d="M1802.5,1246.68a6.968,6.968,0,1,1-7.188-6.74A6.968,6.968,0,0,1,1802.5,1246.68Z" transform="translate(-1786.727 -1238.097)" fill="#ffbe4a"/>
            <g id="Grupo_1176878" data-name="Grupo 1176878" transform="translate(1.839 1.839)" clip-path="url(#clip-path-9)">
              <path id="Trazado_1037242" data-name="Trazado 1037242" d="M1795.59,1252.462a8.717,8.717,0,0,0,5.432-4.058,15.024,15.024,0,0,0,1.391-4.844,13.4,13.4,0,0,1,1.284,7.328,6.363,6.363,0,0,1-.547,2.112,5.739,5.739,0,0,1-1.259,1.631,8.481,8.481,0,0,1-7.022,2.12,8.135,8.135,0,0,1-3.031-1.151c-.754-.472-2.053-1.325-2.343-2.219-.455-1.408,1.383-.745,2.062-.662A11.2,11.2,0,0,0,1795.59,1252.462Z" transform="translate(-1788.713 -1240.558)" fill="#f2ae40"/>
            </g>
          </g>
          <path id="Trazado_1037244" data-name="Trazado 1037244" d="M1803.92,1242.7l-.522.017a1.763,1.763,0,0,1-1.822-1.714l-.016-.522a.381.381,0,1,0-.762,0l.017.547a1.762,1.762,0,0,1-1.714,1.822l-.522.017a.381.381,0,1,0,0,.762l.547-.016a1.762,1.762,0,0,1,1.822,1.714l.017.522a.381.381,0,1,0,.762,0l-.017-.547a1.762,1.762,0,0,1,1.714-1.822l.546-.017a.373.373,0,0,0,.365-.406.4.4,0,0,0-.406-.348Z" transform="translate(-1788.381 -1238.123)" fill="#fff"/>
        </g>
        <g id="Grupo_1176883" data-name="Grupo 1176883" transform="translate(17.976 124.53)">
          <g id="Grupo_1176882" data-name="Grupo 1176882" transform="translate(0 1.342)">
            <path id="Trazado_1037245" data-name="Trazado 1037245" d="M1812.928,1343.381h-19.584a6.243,6.243,0,0,1-6.244-6.244l4.679-25.828h22.466l4.927,25.828a6.243,6.243,0,0,1-6.244,6.244Z" transform="translate(-1787.1 -1311.31)" fill="#1c1588"/>
            <g id="Grupo_1176881" data-name="Grupo 1176881" clip-path="url(#clip-path-10)">
              <path id="Trazado_1037246" data-name="Trazado 1037246" d="M1824.383,1321.248c1.093,2.434,2.2,4.96,2.2,7.626s-1.441,5.523-3.983,6.318a6.875,6.875,0,0,1-4.157-.224,12.615,12.615,0,0,1-7.055-5.871,4.527,4.527,0,0,1-.687-2.782,2.03,2.03,0,0,1,1.954-1.8c1.283.1,1.871,1.615,2.161,2.865.646,2.724,1.093,6.086-1.043,7.892a6.151,6.151,0,0,1-2.666,1.168c-5.556,1.25-11.444-.737-16.081-4.041-3.329-2.377-6.368-5.962-6.045-10.036a2.605,2.605,0,0,1,.836-1.929,2.382,2.382,0,0,1,1.921-.273c1.971.439,3.412,2.112,4.463,3.834a11.125,11.125,0,0,1,1.739,4.662c.34,3.668-2.161,7.138-5.341,9s-6.931,2.418-10.591,2.824" transform="translate(-1786.225 -1312.818)" fill="none" stroke="#fff" stroke-linecap="round" stroke-linejoin="round" stroke-width="2.24"/>
            </g>
          </g>
          <path id="Trazado_1037248" data-name="Trazado 1037248" d="M1815.529,1314.244h-24.072a2.276,2.276,0,0,1-2.277-2.277h0a2.276,2.276,0,0,1,2.277-2.277h24.072a2.276,2.276,0,0,1,2.277,2.277h0A2.276,2.276,0,0,1,1815.529,1314.244Z" transform="translate(-1787.458 -1309.69)" fill="#0a0a44"/>
        </g>
      </g>
      <g id="Grupo_1177150" data-name="Grupo 1177150" transform="translate(-996.792 12295.978)">
        <g id="Grupo_1176885" data-name="Grupo 1176885" transform="translate(0 0.004)">
          <circle id="Elipse_12336" data-name="Elipse 12336" cx="36.382" cy="36.382" r="36.382" fill="#1c1588"/>
          <circle id="Elipse_12337" data-name="Elipse 12337" cx="27.802" cy="27.802" r="27.802" transform="translate(8.58 8.58)" fill="#fff"/>
          <circle id="Elipse_12338" data-name="Elipse 12338" cx="19.897" cy="19.897" r="19.897" transform="translate(16.485 16.485)" fill="#1c1588"/>
          <circle id="Elipse_12339" data-name="Elipse 12339" cx="11.114" cy="11.114" r="11.114" transform="translate(25.268 25.268)" fill="#fff"/>
        </g>
        <g id="Grupo_1176886" data-name="Grupo 1176886" transform="translate(36.572 0)">
          <path id="Trazado_1037249" data-name="Trazado 1037249" d="M1836.91,1073.907v-9.585a1.341,1.341,0,0,1,.422-.98l12.617-12.052a1.355,1.355,0,0,1,2.289.98v10.168a1.357,1.357,0,0,1-.448,1l-12.617,11.469a1.352,1.352,0,0,1-2.263-1Z" transform="translate(-1826.138 -1050.915)" fill="#e278b7"/>
          <path id="Trazado_1037250" data-name="Trazado 1037250" d="M1841.56,1081.472l9.518,1.157a1.35,1.35,0,0,0,1.022-.3l13.479-11.08a1.352,1.352,0,0,0-.7-2.39l-10.092-1.224a1.348,1.348,0,0,0-1.047.321l-12.9,11.148a1.357,1.357,0,0,0,.726,2.373Z" transform="translate(-1826.675 -1053.514)" fill="#e278b7"/>
          <path id="Trazado_1037251" data-name="Trazado 1037251" d="M1824.6,1086.4l26.442-23.5a1.336,1.336,0,0,1,1.942.177l1.461,1.875a1.334,1.334,0,0,1-.236,1.875l-27.9,21.628a1.33,1.33,0,0,1-1.9-.279h0a1.329,1.329,0,0,1,.2-1.773Z" transform="translate(-1824.155 -1052.726)" fill="#0a0a44"/>
        </g>
      </g>
      <g id="Grupo_1177151" data-name="Grupo 1177151" transform="translate(-1275.594 12405.371)">
        <g id="Grupo_1176888" data-name="Grupo 1176888" transform="translate(0 0)">
          <path id="Trazado_1037252" data-name="Trazado 1037252" d="M1516.922,1280.383c-3.855-7.051-20.541-38.254-22.153-52.413a1.817,1.817,0,0,1,1.32-1.951c7.127-2.027,19.419-7.815,24.387-10.209a1.818,1.818,0,0,1,2.564,1.244c2.715,11.755,18.033,43.6,21.823,51.386a1.819,1.819,0,0,1-.943,2.479l-24.7,10.275a1.825,1.825,0,0,1-2.3-.811Z" transform="translate(-1494.757 -1215.627)" fill="#519327"/>
          <path id="Trazado_1037253" data-name="Trazado 1037253" d="M1516.772,1272.161a5.08,5.08,0,0,1,6.382,2.225.639.639,0,0,0,.811.273l11.821-4.921a.634.634,0,0,0,.377-.764,5.065,5.065,0,0,1,2-5.6.648.648,0,0,0,.207-.82c-4.11-8.663-12.283-26.272-15.564-36.133a.646.646,0,0,0-.754-.424,5.073,5.073,0,0,1-5.373-2.064.646.646,0,0,0-.8-.207c-3.507,1.64-8.088,3.686-11.906,5.062a.64.64,0,0,0-.424.707,5.076,5.076,0,0,1-2.517,5.279.64.64,0,0,0-.32.735c2.979,11.067,11.736,28.507,16,36.68.019,0,.038-.019.057-.028Z" transform="translate(-1495.097 -1216.088)" fill="#70b54a"/>
          <path id="Trazado_1037254" data-name="Trazado 1037254" d="M1522.977,1257.33a7.52,7.52,0,1,1,4.054-9.832A7.519,7.519,0,0,1,1522.977,1257.33Z" transform="translate(-1495.778 -1217.188)" fill="#519327"/>
        </g>
        <g id="Grupo_1176889" data-name="Grupo 1176889" transform="translate(16.703 6.607)">
          <path id="Trazado_1037255" data-name="Trazado 1037255" d="M1525.46,1285.743c-2.6-7.6-13.754-41.176-12.943-55.411a1.817,1.817,0,0,1,1.631-1.7c7.372-.792,20.456-4.4,25.763-5.93a1.823,1.823,0,0,1,2.319,1.659c.679,12.047,7.07,34.323,9.483,42.637.292,1.009-8.937,7.409-9.955,7.645l-14.169,12.274a1.822,1.822,0,0,1-2.13-1.188Z" transform="translate(-1512.475 -1222.635)" fill="#519327"/>
          <path id="Trazado_1037256" data-name="Trazado 1037256" d="M1526.726,1277.5a5.07,5.07,0,0,1,5.911,3.271.635.635,0,0,0,.754.405l12.481-2.838a.637.637,0,0,0,.5-.688,5.08,5.08,0,0,1,2.922-5.185.653.653,0,0,0,.349-.773c-2.583-9.229-7.645-27.979-9.21-38.245a.639.639,0,0,0-.669-.547,5.073,5.073,0,0,1-4.94-2.941.639.639,0,0,0-.754-.339c-3.742,1.027-8.6,2.262-12.585,2.969a.655.655,0,0,0-.537.632,5.065,5.065,0,0,1-3.375,4.77.651.651,0,0,0-.443.669c1.056,11.406,6.731,30.09,9.549,38.857a.135.135,0,0,0,.057-.019Z" transform="translate(-1512.742 -1223.034)" fill="#70b54a"/>
          <path id="Trazado_1037257" data-name="Trazado 1037257" d="M1535.381,1263.847a7.522,7.522,0,1,1,5.666-9A7.517,7.517,0,0,1,1535.381,1263.847Z" transform="translate(-1513.261 -1224.146)" fill="#519327"/>
        </g>
        <g id="Grupo_1176894" data-name="Grupo 1176894" transform="translate(2.909 43.202)">
          <path id="Trazado_1037258" data-name="Trazado 1037258" d="M1507.088,1293.779c-4.2,6.42-7.881,13.414-8.955,21.012s.8,15.941,6.354,21.239a26.7,26.7,0,0,0,11.34,6c8.013,2.253,16.516,2.149,24.793,1.263,6.684-.716,14.112-2.442,17.666-8.145a18.634,18.634,0,0,0,2.309-6.938c2.451-15.4-4.506-30.958-14.253-43.128a7.4,7.4,0,0,0-2.526-2.281,7.861,7.861,0,0,0-3.073-.5c-7.2-.179-14.395-.386-21.6-.537-3.516-.075-3.893.858-6,3.563q-3.2,4.1-6.052,8.456Z" transform="translate(-1497.843 -1262.619)" fill="#f3f3ff"/>
          <path id="Trazado_1037259" data-name="Trazado 1037259" d="M1507.986,1269.784c-1.056-2.432-1.508-5.713.584-7.334a5.513,5.513,0,0,1,3.026-.962c6.674-.462,12.688,4.12,19.334,4.921,5.4.65,10.747-1.244,16.063-2.4a6.133,6.133,0,0,1,2.828-.151,4.148,4.148,0,0,1,2.8,3.007,7.971,7.971,0,0,1-.217,4.252c-1.244,4.327-4.374,7.881-7.881,10.7a16.237,16.237,0,0,1-7.6,3.808,18.7,18.7,0,0,1-5.515-.264c-2.866-.443-5.7-.98-8.541-1.565-2.244-.462-4.761-.566-6.467-2.064a36.211,36.211,0,0,1-8.409-11.934Z" transform="translate(-1498.373 -1261.455)" fill="#f3f3ff"/>
          <path id="Trazado_1037260" data-name="Trazado 1037260" d="M1515.57,1282.4c6.325,2.319,23.614,1.7,30.741.575" transform="translate(-1498.859 -1262.656)" fill="none" stroke="#1c1588" stroke-linecap="round" stroke-linejoin="round" stroke-width="2.05"/>
          <g id="Grupo_1176890" data-name="Grupo 1176890" transform="translate(18.465 21.466)">
            <path id="Trazado_1037261" data-name="Trazado 1037261" d="M1520.3,1288.8a8.134,8.134,0,0,0-2.545,3.167,3.54,3.54,0,0,0,3.846,5.091,8,8,0,0,0,3.45-1.433,14.247,14.247,0,0,0,3.79-3.61,12.07,12.07,0,0,0,1.829-4.006c.321-1.282.33-2.724-.924-3.5-.971-.6-1.734-.132-2.668.3a31.76,31.76,0,0,0-6.778,3.988Z" transform="translate(-1517.431 -1284.226)" fill="none" stroke="#1c1588" stroke-linecap="round" stroke-linejoin="round" stroke-width="2.05"/>
            <path id="Trazado_1037262" data-name="Trazado 1037262" d="M1542.629,1289.3a8.134,8.134,0,0,1,2.545,3.167,3.54,3.54,0,0,1-3.846,5.091,7.956,7.956,0,0,1-3.45-1.433,14.249,14.249,0,0,1-3.79-3.61,12.071,12.071,0,0,1-1.829-4.006c-.321-1.282-.33-2.724.924-3.5.971-.6,1.734-.132,2.668.3a31.765,31.765,0,0,1,6.778,3.988Z" transform="translate(-1518.27 -1284.255)" fill="none" stroke="#1c1588" stroke-linecap="round" stroke-linejoin="round" stroke-width="2.05"/>
          </g>
          <g id="Grupo_1176893" data-name="Grupo 1176893" transform="translate(17.807 38.697)">
            <g id="Grupo_1176892" data-name="Grupo 1176892">
              <circle id="Elipse_12340" data-name="Elipse 12340" cx="13.612" cy="13.612" r="13.612" transform="translate(0 26.873) rotate(-80.78)" fill="#f4d739"/>
              <circle id="Elipse_12341" data-name="Elipse 12341" cx="10.775" cy="10.775" r="10.775" transform="translate(0.33 15.548) rotate(-45)" fill="#ffbe4a"/>
              <g id="Grupo_1176891" data-name="Grupo 1176891" transform="translate(0.33 0.31)" clip-path="url(#clip-path-11)">
                <path id="Trazado_1037263" data-name="Trazado 1037263" d="M1532.26,1326.264a13.479,13.479,0,0,0,8.6-6,23.29,23.29,0,0,0,2.394-7.419,20.641,20.641,0,0,1,1.621,11.387,9.9,9.9,0,0,1-.952,3.243,8.923,8.923,0,0,1-2.027,2.46,13.092,13.092,0,0,1-10.954,2.932,12.744,12.744,0,0,1-4.629-1.923c-1.141-.764-3.111-2.149-3.507-3.544-.632-2.2,2.168-1.084,3.224-.924a17,17,0,0,0,6.25-.207Z" transform="translate(-1517.406 -1303.408)" fill="none"/>
              </g>
            </g>
            <path id="Trazado_1037264" data-name="Trazado 1037264" d="M1543.971,1312.157h-.811a2.736,2.736,0,0,1-2.734-2.734v-.811a.6.6,0,0,0-.556-.613.582.582,0,0,0-.613.584v.848a2.736,2.736,0,0,1-2.734,2.734h-.811a.6.6,0,0,0-.613.556.582.582,0,0,0,.584.613h.848a2.736,2.736,0,0,1,2.734,2.734v.811a.6.6,0,0,0,.556.613.583.583,0,0,0,.613-.584v-.849a2.736,2.736,0,0,1,2.734-2.734h.849a.588.588,0,0,0,.584-.613.615.615,0,0,0-.613-.556Z" transform="translate(-1517.785 -1302.82)" fill="#fff"/>
          </g>
        </g>
      </g>
      <g id="Grupo_1177152" data-name="Grupo 1177152" transform="translate(-1214.323 12493.123)">
        <g id="Grupo_1176912" data-name="Grupo 1176912" transform="translate(0 0)">
          <g id="Grupo_1176899" data-name="Grupo 1176899" transform="translate(0 27.536)">
            <g id="Grupo_1176898" data-name="Grupo 1176898" transform="translate(0 1.159)">
              <path id="Trazado_1037265" data-name="Trazado 1037265" d="M1603.026,1341.773h-44.57a4.009,4.009,0,0,1-4.006-4.006h0a4.009,4.009,0,0,1,4.006-4.006h44.57a4.009,4.009,0,0,1,4.006,4.006h0A4.009,4.009,0,0,1,1603.026,1341.773Z" transform="translate(-1554.45 -1333.76)" fill="#ffbe4a"/>
              <g id="Grupo_1176897" data-name="Grupo 1176897" clip-path="url(#clip-path-12)">
                <g id="Grupo_1176896" data-name="Grupo 1176896" transform="translate(2.96 -1.537)">
                  <rect id="Rectángulo_416177" data-name="Rectángulo 416177" width="3.516" height="11.661" transform="translate(7.221 0.236)" fill="#f4d739"/>
                  <rect id="Rectángulo_416178" data-name="Rectángulo 416178" width="3.516" height="11.661" fill="#f4d739"/>
                  <rect id="Rectángulo_416179" data-name="Rectángulo 416179" width="3.516" height="11.661" transform="translate(21.531 0.349)" fill="#f4d739"/>
                  <rect id="Rectángulo_416180" data-name="Rectángulo 416180" width="3.516" height="11.661" transform="translate(14.31 0.123)" fill="#f4d739"/>
                  <rect id="Rectángulo_416181" data-name="Rectángulo 416181" width="3.516" height="11.661" transform="translate(36.067 0.405)" fill="#f4d739"/>
                  <rect id="Rectángulo_416182" data-name="Rectángulo 416182" width="3.516" height="11.661" transform="translate(28.837 0.179)" fill="#f4d739"/>
                  <rect id="Rectángulo_416183" data-name="Rectángulo 416183" width="3.516" height="11.661" transform="translate(43.147 0.292)" fill="#f4d739"/>
                </g>
              </g>
            </g>
            <path id="Trazado_1037267" data-name="Trazado 1037267" d="M1601.986,1333.7h-41.912a.588.588,0,0,1-.584-.584h0a.587.587,0,0,1,.584-.584h41.912a.587.587,0,0,1,.584.584h0A.587.587,0,0,1,1601.986,1333.7Z" transform="translate(-1554.739 -1332.53)" fill="#ffbe4a"/>
          </g>
          <g id="Grupo_1176903" data-name="Grupo 1176903" transform="translate(5.138 18.354)">
            <g id="Grupo_1176902" data-name="Grupo 1176902" transform="translate(0 1.159)">
              <path id="Trazado_1037268" data-name="Trazado 1037268" d="M1608.476,1332.033h-44.57a4.009,4.009,0,0,1-4.006-4.006h0a4.009,4.009,0,0,1,4.006-4.006h44.57a4.009,4.009,0,0,1,4.006,4.006h0A4.009,4.009,0,0,1,1608.476,1332.033Z" transform="translate(-1559.9 -1324.02)" fill="#ffbe4a"/>
              <g id="Grupo_1176901" data-name="Grupo 1176901" clip-path="url(#clip-path-13)">
                <g id="Grupo_1176900" data-name="Grupo 1176900" transform="translate(2.96 -1.527)">
                  <rect id="Rectángulo_416184" data-name="Rectángulo 416184" width="3.516" height="11.661" transform="translate(7.221 0.226)" fill="#f4d739"/>
                  <rect id="Rectángulo_416185" data-name="Rectángulo 416185" width="3.516" height="11.661" fill="#f4d739"/>
                  <rect id="Rectángulo_416186" data-name="Rectángulo 416186" width="3.516" height="11.661" transform="translate(21.521 0.339)" fill="#f4d739"/>
                  <rect id="Rectángulo_416187" data-name="Rectángulo 416187" width="3.516" height="11.661" transform="translate(14.3 0.113)" fill="#f4d739"/>
                  <rect id="Rectángulo_416188" data-name="Rectángulo 416188" width="3.516" height="11.661" transform="translate(36.058 0.396)" fill="#f4d739"/>
                  <rect id="Rectángulo_416189" data-name="Rectángulo 416189" width="3.516" height="11.661" transform="translate(28.837 0.17)" fill="#f4d739"/>
                  <rect id="Rectángulo_416190" data-name="Rectángulo 416190" width="3.516" height="11.661" transform="translate(43.147 0.283)" fill="#f4d739"/>
                </g>
              </g>
            </g>
            <path id="Trazado_1037270" data-name="Trazado 1037270" d="M1607.436,1323.959h-41.912a.588.588,0,0,1-.584-.584h0a.588.588,0,0,1,.584-.584h41.912a.587.587,0,0,1,.584.584h0A.587.587,0,0,1,1607.436,1323.959Z" transform="translate(-1560.189 -1322.79)" fill="#ffbe4a"/>
          </g>
          <g id="Grupo_1176907" data-name="Grupo 1176907" transform="translate(4.176 9.182)">
            <g id="Grupo_1176906" data-name="Grupo 1176906" transform="translate(0 1.159)">
              <path id="Trazado_1037271" data-name="Trazado 1037271" d="M1607.456,1322.3h-44.57a4.009,4.009,0,0,1-4.006-4.006h0a4.009,4.009,0,0,1,4.006-4.006h44.57a4.009,4.009,0,0,1,4.006,4.006h0A4.009,4.009,0,0,1,1607.456,1322.3Z" transform="translate(-1558.88 -1314.29)" fill="#ffbe4a"/>
              <g id="Grupo_1176905" data-name="Grupo 1176905" clip-path="url(#clip-path-14)">
                <g id="Grupo_1176904" data-name="Grupo 1176904" transform="translate(2.96 -1.537)">
                  <rect id="Rectángulo_416191" data-name="Rectángulo 416191" width="3.516" height="11.661" transform="translate(7.221 0.236)" fill="#f4d739"/>
                  <rect id="Rectángulo_416192" data-name="Rectángulo 416192" width="3.516" height="11.661" fill="#f4d739"/>
                  <rect id="Rectángulo_416193" data-name="Rectángulo 416193" width="3.516" height="11.661" transform="translate(21.531 0.349)" fill="#f4d739"/>
                  <rect id="Rectángulo_416194" data-name="Rectángulo 416194" width="3.516" height="11.661" transform="translate(14.31 0.113)" fill="#f4d739"/>
                  <rect id="Rectángulo_416195" data-name="Rectángulo 416195" width="3.516" height="11.661" transform="translate(36.067 0.405)" fill="#f4d739"/>
                  <rect id="Rectángulo_416196" data-name="Rectángulo 416196" width="3.516" height="11.661" transform="translate(28.846 0.17)" fill="#f4d739"/>
                  <rect id="Rectángulo_416197" data-name="Rectángulo 416197" width="3.516" height="11.661" transform="translate(43.147 0.292)" fill="#f4d739"/>
                </g>
              </g>
            </g>
            <path id="Trazado_1037273" data-name="Trazado 1037273" d="M1606.416,1314.229H1564.5a.588.588,0,0,1-.584-.584h0a.587.587,0,0,1,.584-.584h41.912a.587.587,0,0,1,.584.584h0A.588.588,0,0,1,1606.416,1314.229Z" transform="translate(-1559.169 -1313.06)" fill="#ffbe4a"/>
          </g>
          <g id="Grupo_1176911" data-name="Grupo 1176911" transform="translate(7.711)">
            <g id="Grupo_1176910" data-name="Grupo 1176910" transform="translate(0 1.159)">
              <path id="Trazado_1037274" data-name="Trazado 1037274" d="M1611.206,1312.563h-44.57a4.009,4.009,0,0,1-4.006-4.006h0a4.009,4.009,0,0,1,4.006-4.006h44.57a4.009,4.009,0,0,1,4.006,4.006h0A4.009,4.009,0,0,1,1611.206,1312.563Z" transform="translate(-1562.63 -1304.55)" fill="#ffbe4a"/>
              <g id="Grupo_1176909" data-name="Grupo 1176909" clip-path="url(#clip-path-15)">
                <g id="Grupo_1176908" data-name="Grupo 1176908" transform="translate(2.951 -1.527)">
                  <rect id="Rectángulo_416198" data-name="Rectángulo 416198" width="3.516" height="11.661" transform="translate(7.221 0.226)" fill="#f4d739"/>
                  <rect id="Rectángulo_416199" data-name="Rectángulo 416199" width="3.516" height="11.661" fill="#f4d739"/>
                  <rect id="Rectángulo_416200" data-name="Rectángulo 416200" width="3.516" height="11.661" transform="translate(21.531 0.339)" fill="#f4d739"/>
                  <rect id="Rectángulo_416201" data-name="Rectángulo 416201" width="3.516" height="11.661" transform="translate(14.31 0.113)" fill="#f4d739"/>
                  <rect id="Rectángulo_416202" data-name="Rectángulo 416202" width="3.516" height="11.661" transform="translate(36.067 0.396)" fill="#f4d739"/>
                  <rect id="Rectángulo_416203" data-name="Rectángulo 416203" width="3.516" height="11.661" transform="translate(28.846 0.17)" fill="#f4d739"/>
                  <rect id="Rectángulo_416204" data-name="Rectángulo 416204" width="3.516" height="11.661" transform="translate(43.147 0.283)" fill="#f4d739"/>
                </g>
              </g>
            </g>
            <path id="Trazado_1037276" data-name="Trazado 1037276" d="M1610.156,1304.489h-41.912a.587.587,0,0,1-.584-.584h0a.587.587,0,0,1,.584-.584h41.912a.587.587,0,0,1,.584.584h0A.587.587,0,0,1,1610.156,1304.489Z" transform="translate(-1562.918 -1303.32)" fill="#ffbe4a"/>
          </g>
        </g>
        <g id="Grupo_1176913" data-name="Grupo 1176913" transform="translate(2.365 3.166)">
          <path id="Trazado_1037277" data-name="Trazado 1037277" d="M1567.763,1332.4h-.99a3.327,3.327,0,0,1-3.328-3.328v-.99a.749.749,0,0,0-.669-.754.7.7,0,0,0-.745.707v1.028a3.327,3.327,0,0,1-3.328,3.328h-.99a.749.749,0,0,0-.754.669.7.7,0,0,0,.707.745h1.028a3.327,3.327,0,0,1,3.328,3.328v.99a.749.749,0,0,0,.669.754.709.709,0,0,0,.745-.707v-1.028a3.327,3.327,0,0,1,3.328-3.328h1.027a.7.7,0,0,0,.707-.745.736.736,0,0,0-.754-.669Z" transform="translate(-1556.959 -1307.863)" fill="#fff"/>
          <path id="Trazado_1037278" data-name="Trazado 1037278" d="M1607.447,1310.781h-.8a2.7,2.7,0,0,1-2.7-2.7v-.8a.591.591,0,0,0-.547-.6.572.572,0,0,0-.6.575v.839a2.7,2.7,0,0,1-2.7,2.7h-.8a.607.607,0,0,0-.613.547.572.572,0,0,0,.575.6h.839a2.7,2.7,0,0,1,2.7,2.7v.8a.607.607,0,0,0,.547.613.572.572,0,0,0,.6-.575v-.839a2.7,2.7,0,0,1,2.7-2.7h.839a.572.572,0,0,0,.575-.6.6.6,0,0,0-.6-.547Z" transform="translate(-1559.351 -1306.679)" fill="#fff"/>
        </g>
      </g>
      <g id="Grupo_1177153" data-name="Grupo 1177153" transform="translate(-1249.214 12344.4)">
        <g id="Grupo_1176915" data-name="Grupo 1176915" transform="translate(48 46.795)">
          <path id="Trazado_1037279" data-name="Trazado 1037279" d="M1524.589,1170.8l-9.955-9.889a.9.9,0,0,0-1.292.019l-9.4,9.889a.9.9,0,0,0,.65,1.527h3.516a.905.905,0,0,1,.905.9v7.4a.905.905,0,0,0,.9.905h7.947a.905.905,0,0,0,.905-.905v-7.4a.905.905,0,0,1,.9-.9h4.27a.907.907,0,0,0,.641-1.546Z" transform="translate(-1503.694 -1160.651)" fill="#1c1588"/>
          <path id="Trazado_1037280" data-name="Trazado 1037280" d="M1526.969,1170.8l-9.955-9.889a.9.9,0,0,0-1.291.019l-9.4,9.889a.9.9,0,0,0,.65,1.527h3.516a.905.905,0,0,1,.9.9v7.4a.905.905,0,0,0,.9.905h7.947a.905.905,0,0,0,.9-.905v-7.4a.905.905,0,0,1,.9-.9h4.27a.906.906,0,0,0,.641-1.546Z" transform="translate(-1503.83 -1160.651)" fill="#8ac6dd"/>
        </g>
        <g id="Grupo_1176916" data-name="Grupo 1176916" transform="translate(213.758 -32)">
          <path id="Trazado_1037281" data-name="Trazado 1037281" d="M1744.979,1095.7l-9.955-9.889a.9.9,0,0,0-1.292.019l-9.4,9.889a.9.9,0,0,0,.65,1.527h3.516a.905.905,0,0,1,.9.9v7.4a.905.905,0,0,0,.9.9h7.947a.905.905,0,0,0,.9-.9v-7.4a.905.905,0,0,1,.905-.9h4.27a.907.907,0,0,0,.641-1.546Z" transform="translate(-1724.084 -1085.551)" fill="#1c1588"/>
          <path id="Trazado_1037282" data-name="Trazado 1037282" d="M1747.349,1095.7l-9.955-9.889a.9.9,0,0,0-1.292.019l-9.4,9.889a.9.9,0,0,0,.65,1.527h3.516a.905.905,0,0,1,.9.9v7.4a.905.905,0,0,0,.905.9h7.947a.905.905,0,0,0,.9-.9v-7.4a.905.905,0,0,1,.905-.9h4.27a.906.906,0,0,0,.641-1.546Z" transform="translate(-1724.22 -1085.551)" fill="#8ac6dd"/>
        </g>
      </g>
      <g id="Grupo_1177154" data-name="Grupo 1177154" transform="translate(-1275.594 12279.825)">
        <path id="Trazado_1037283" data-name="Trazado 1037283" d="M1725.516,1138.568a1.838,1.838,0,1,1-1.838-1.838A1.841,1.841,0,0,1,1725.516,1138.568Z" transform="translate(-1489.818 -1023.91)" fill="#c5c5ef"/>
        <path id="Trazado_1037284" data-name="Trazado 1037284" d="M1546.886,1018.888a1.838,1.838,0,1,1-1.838-1.838A1.841,1.841,0,0,1,1546.886,1018.888Z" transform="translate(-1479.579 -1017.05)" fill="#c5c5ef"/>
        <path id="Trazado_1037285" data-name="Trazado 1037285" d="M1765.427,1056.9a1.838,1.838,0,1,1-1.838-1.838A1.841,1.841,0,0,1,1765.427,1056.9Z" transform="translate(-1492.105 -1019.229)" fill="#c5c5ef"/>
        <path id="Trazado_1037286" data-name="Trazado 1037286" d="M1917.3,1119.748a1.838,1.838,0,1,1-1.838-1.838A1.841,1.841,0,0,1,1917.3,1119.748Z" transform="translate(-1500.81 -1022.831)" fill="#c5c5ef"/>
        <path id="Trazado_1037287" data-name="Trazado 1037287" d="M1737.026,1281.348a1.838,1.838,0,1,1-1.838-1.838A1.841,1.841,0,0,1,1737.026,1281.348Z" transform="translate(-1490.478 -1032.094)" fill="#c5c5ef"/>
        <path id="Trazado_1037288" data-name="Trazado 1037288" d="M1786.986,1167.268a1.838,1.838,0,1,1-1.838-1.838A1.841,1.841,0,0,1,1786.986,1167.268Z" transform="translate(-1493.341 -1025.555)" fill="#c5c5ef"/>
        <path id="Trazado_1037289" data-name="Trazado 1037289" d="M1561.216,1155.3a1.838,1.838,0,1,1-1.838-1.838A1.841,1.841,0,0,1,1561.216,1155.3Z" transform="translate(-1480.4 -1024.869)" fill="#c5c5ef"/>
        <path id="Trazado_1037290" data-name="Trazado 1037290" d="M1479.386,1203.738a1.838,1.838,0,1,1-1.838-1.838A1.841,1.841,0,0,1,1479.386,1203.738Z" transform="translate(-1475.71 -1027.645)" fill="#c5c5ef"/>
      </g>
      <g id="Grupo_1177155" data-name="Grupo 1177155" transform="translate(-1247.078 12315.912)">
        <path id="Trazado_1037291" data-name="Trazado 1037291" d="M1508.582,1067.009h20.126a16.413,16.413,0,0,1,16.412,16.412h0c0,.339-.009.679-.038,1.009l-.754,22.379a2.091,2.091,0,0,1-3.554,1.423l-8.871-8.72a16.255,16.255,0,0,1-3.2.311h-20.126a16.412,16.412,0,0,1-16.412-16.412h0A16.413,16.413,0,0,1,1508.582,1067Z" transform="translate(-1492.17 -1067)" fill="#a8a8e2"/>
        <path id="Trazado_1037292" data-name="Trazado 1037292" d="M1518.193,1092.177a14.7,14.7,0,0,1-4.148-.575,9.7,9.7,0,0,1-3.2-1.508l1.414-3.139a10.337,10.337,0,0,0,2.743,1.348,10.151,10.151,0,0,0,3.205.528,6.82,6.82,0,0,0,2-.245,2.325,2.325,0,0,0,1.122-.679,1.5,1.5,0,0,0,.358-1.009,1.365,1.365,0,0,0-.566-1.15,4.657,4.657,0,0,0-1.489-.7c-.622-.179-1.3-.349-2.046-.519s-1.489-.368-2.244-.6a9.187,9.187,0,0,1-2.046-.924,4.557,4.557,0,0,1-1.508-1.489,4.4,4.4,0,0,1-.575-2.366,5.045,5.045,0,0,1,.839-2.819,5.716,5.716,0,0,1,2.526-2.036,10.269,10.269,0,0,1,4.233-.764,14.255,14.255,0,0,1,3.347.4,9.753,9.753,0,0,1,2.913,1.2l-1.292,3.167a10.721,10.721,0,0,0-2.526-1.065,9.13,9.13,0,0,0-2.47-.349,5.832,5.832,0,0,0-1.98.283,2.344,2.344,0,0,0-1.112.735,1.689,1.689,0,0,0-.33,1.046,1.338,1.338,0,0,0,.566,1.122,4.457,4.457,0,0,0,1.489.679c.622.17,1.3.339,2.046.519s1.489.368,2.244.594a8.751,8.751,0,0,1,2.046.905,4.557,4.557,0,0,1,1.508,1.489,4.354,4.354,0,0,1,.575,2.347,4.883,4.883,0,0,1-.849,2.781,5.989,5.989,0,0,1-2.536,2.036,10.187,10.187,0,0,1-4.261.773Zm-.933,2.781V1070.75h2.573v24.208Z" transform="translate(-1493.24 -1067.215)" fill="#fff"/>
      </g>
    </g>
  </g>
</svg>
