<svg xmlns="http://www.w3.org/2000/svg" width="531" height="42.799" viewBox="0 0 531 42.799">
  <g id="Grupo_1177213" data-name="Grupo 1177213" transform="translate(-322.573 -5061.586)">
    <path id="Trazado_1037795" data-name="Trazado 1037795" d="M-187.437-10.459a5.95,5.95,0,0,0-.664-.378,6.078,6.078,0,0,0-.822-.33,6.837,6.837,0,0,0-.971-.233A6.708,6.708,0,0,0-191-11.487a5.608,5.608,0,0,0-2.338.466,5.1,5.1,0,0,0-1.74,1.27,5.58,5.58,0,0,0-1.09,1.894,7.06,7.06,0,0,0-.378,2.329,5.574,5.574,0,0,0,.286,1.846,3.859,3.859,0,0,0,.822,1.389,3.561,3.561,0,0,0,1.3.875,4.606,4.606,0,0,0,1.718.3,5.907,5.907,0,0,0,1.191-.11,6.307,6.307,0,0,0,.989-.286l.756-3.674h-2.918l.29-1.31h4.43l-1.239,5.81a8.755,8.755,0,0,1-1.652.659A7.22,7.22,0,0,1-192.6.237a5.891,5.891,0,0,1-2.312-.431,5.02,5.02,0,0,1-1.727-1.182,5.112,5.112,0,0,1-1.081-1.775,6.4,6.4,0,0,1-.374-2.21,9.05,9.05,0,0,1,.211-1.969,7.76,7.76,0,0,1,.624-1.78,6.685,6.685,0,0,1,1.028-1.512,6.269,6.269,0,0,1,1.424-1.169A6.985,6.985,0,0,1-193-12.546a8.4,8.4,0,0,1,2.184-.268,8.631,8.631,0,0,1,1.208.079,8.718,8.718,0,0,1,1.02.2,7.14,7.14,0,0,1,.822.268q.36.145.615.277Zm8.474,7.576q-.07.334-.136.751t-.114.826q-.048.409-.079.76t-.031.545h-1.494q.009-.176.026-.422t.048-.51q.031-.264.062-.519t.066-.439h-.035q-.272.431-.554.813a3.913,3.913,0,0,1-.624.672,2.732,2.732,0,0,1-.765.457,2.691,2.691,0,0,1-.993.167,2.684,2.684,0,0,1-1.077-.211A2.256,2.256,0,0,1-185.5-.62a2.9,2.9,0,0,1-.541-1.046,5.1,5.1,0,0,1-.189-1.463,7.333,7.333,0,0,1,.105-1.16,7.1,7.1,0,0,1,.356-1.327,6.757,6.757,0,0,1,.668-1.323,5.023,5.023,0,0,1,1.037-1.156,4.947,4.947,0,0,1,1.463-.817,5.683,5.683,0,0,1,1.951-.308,10.373,10.373,0,0,1,1.45.105q.747.105,1.485.255Zm-.413-4.931q-.308-.07-.721-.123a6.128,6.128,0,0,0-.773-.053,3.508,3.508,0,0,0-1.349.242,3.462,3.462,0,0,0-1.015.633,3.727,3.727,0,0,0-.725.9,5.586,5.586,0,0,0-.47,1.042,6.13,6.13,0,0,0-.25,1.05,6.649,6.649,0,0,0-.075.94,4.212,4.212,0,0,0,.088.9,1.967,1.967,0,0,0,.277.681,1.3,1.3,0,0,0,.483.435,1.49,1.49,0,0,0,.7.154,1.9,1.9,0,0,0,.822-.18,2.849,2.849,0,0,0,.716-.488,4,4,0,0,0,.606-.712,7,7,0,0,0,.492-.857,7.329,7.329,0,0,0,.374-.923q.154-.47.25-.91Zm11.41,1.063a2.864,2.864,0,0,1-.031.36q-.031.229-.079.492t-.1.523q-.048.259-.092.444L-169.31,0h-1.459l1.1-5.273q.035-.141.07-.325t.062-.369q.026-.185.044-.338a2.261,2.261,0,0,0,.018-.242A1.6,1.6,0,0,0-169.8-7.6a1.168,1.168,0,0,0-.954-.387,2.218,2.218,0,0,0-1.151.343,4.737,4.737,0,0,0-1.055.87,5.934,5.934,0,0,0-.831,1.16,4.445,4.445,0,0,0-.47,1.222L-175.2,0h-1.459l1.389-6.425q.07-.343.141-.716t.132-.721q.062-.347.105-.646t.07-.492h1.406q-.044.343-.105.716t-.105.69q-.053.369-.114.721h.035a7.433,7.433,0,0,1,.681-.91,5.1,5.1,0,0,1,.809-.747,3.84,3.84,0,0,1,.923-.505,2.869,2.869,0,0,1,1.024-.185,2.657,2.657,0,0,1,1.028.18,1.926,1.926,0,0,1,.716.505,2.058,2.058,0,0,1,.422.782A3.5,3.5,0,0,1-167.965-6.75Zm8.879,3.867q-.07.334-.136.751t-.114.826q-.048.409-.079.76t-.031.545h-1.494q.009-.176.026-.422t.048-.51q.031-.264.062-.519t.066-.439h-.035q-.272.431-.554.813a3.913,3.913,0,0,1-.624.672,2.732,2.732,0,0,1-.765.457,2.691,2.691,0,0,1-.993.167,2.684,2.684,0,0,1-1.077-.211,2.256,2.256,0,0,1-.839-.628,2.9,2.9,0,0,1-.541-1.046,5.1,5.1,0,0,1-.189-1.463,7.333,7.333,0,0,1,.105-1.16,7.1,7.1,0,0,1,.356-1.327,6.757,6.757,0,0,1,.668-1.323,5.023,5.023,0,0,1,1.037-1.156,4.947,4.947,0,0,1,1.463-.817,5.683,5.683,0,0,1,1.951-.308,10.373,10.373,0,0,1,1.45.105q.747.105,1.485.255Zm-.413-4.931q-.308-.07-.721-.123a6.128,6.128,0,0,0-.773-.053,3.508,3.508,0,0,0-1.349.242,3.462,3.462,0,0,0-1.015.633,3.727,3.727,0,0,0-.725.9,5.586,5.586,0,0,0-.47,1.042,6.13,6.13,0,0,0-.25,1.05,6.649,6.649,0,0,0-.075.94,4.212,4.212,0,0,0,.088.9,1.967,1.967,0,0,0,.277.681,1.3,1.3,0,0,0,.483.435,1.49,1.49,0,0,0,.7.154,1.9,1.9,0,0,0,.822-.18,2.849,2.849,0,0,0,.716-.488,4,4,0,0,0,.606-.712,7,7,0,0,0,.492-.857,7.329,7.329,0,0,0,.374-.923q.154-.47.25-.91Zm11.41,1.063a2.864,2.864,0,0,1-.031.36q-.031.229-.079.492t-.1.523q-.048.259-.092.444L-149.434,0h-1.459l1.1-5.273q.035-.141.07-.325t.062-.369q.026-.185.044-.338a2.261,2.261,0,0,0,.018-.242,1.6,1.6,0,0,0-.321-1.055,1.168,1.168,0,0,0-.954-.387,2.218,2.218,0,0,0-1.151.343,4.737,4.737,0,0,0-1.055.87,5.934,5.934,0,0,0-.831,1.16,4.445,4.445,0,0,0-.47,1.222L-155.323,0h-1.459l1.389-6.425q.07-.343.141-.716t.132-.721q.062-.347.105-.646t.07-.492h1.406q-.044.343-.105.716t-.105.69q-.053.369-.114.721h.035a7.433,7.433,0,0,1,.681-.91,5.1,5.1,0,0,1,.809-.747,3.84,3.84,0,0,1,.923-.505,2.869,2.869,0,0,1,1.024-.185,2.657,2.657,0,0,1,1.028.18,1.926,1.926,0,0,1,.716.505,2.058,2.058,0,0,1,.422.782A3.5,3.5,0,0,1-148.09-6.75Zm8.518-.466a3.308,3.308,0,0,0-.892-.549,2.9,2.9,0,0,0-1.156-.224,2.73,2.73,0,0,0-1.094.211,3.02,3.02,0,0,0-.866.563,3.649,3.649,0,0,0-.65.809,5.391,5.391,0,0,0-.448.949,5.842,5.842,0,0,0-.259.98,5.411,5.411,0,0,0-.083.91,2.871,2.871,0,0,0,.554,1.907,1.881,1.881,0,0,0,1.512.65,3.327,3.327,0,0,0,1.2-.242,5.8,5.8,0,0,0,1.178-.62l-.308,1.441a6.168,6.168,0,0,1-1.138.479,4.124,4.124,0,0,1-1.2.171,3.408,3.408,0,0,1-1.437-.281,2.816,2.816,0,0,1-1.015-.773A3.314,3.314,0,0,1-146.277-2a5.031,5.031,0,0,1-.2-1.455,7.1,7.1,0,0,1,.149-1.455,6.265,6.265,0,0,1,.444-1.354,5.87,5.87,0,0,1,.725-1.182,4.675,4.675,0,0,1,.989-.936A4.693,4.693,0,0,1-142.929-9a4.754,4.754,0,0,1,1.485-.224,4.738,4.738,0,0,1,.721.053,4.277,4.277,0,0,1,.624.141,4.2,4.2,0,0,1,.5.189,2.057,2.057,0,0,1,.352.2Zm3.913,7.181a3.368,3.368,0,0,1-.5.114,3.5,3.5,0,0,1-.549.044,1.793,1.793,0,0,1-1.327-.444,1.618,1.618,0,0,1-.439-1.191,3.631,3.631,0,0,1,.044-.519q.044-.3.141-.738L-136.977-9h1.459l-1.318,6.267q-.079.369-.11.571a2.338,2.338,0,0,0-.031.343.724.724,0,0,0,.2.549.886.886,0,0,0,.628.189,2.662,2.662,0,0,0,.4-.026,1.772,1.772,0,0,0,.321-.079Zm1.028-12.173a.946.946,0,0,1-.268.677.88.88,0,0,1-.664.281.934.934,0,0,1-.672-.277.911.911,0,0,1-.286-.681.843.843,0,0,1,.286-.659.977.977,0,0,1,.672-.255.921.921,0,0,1,.659.259A.865.865,0,0,1-134.63-12.208Zm7.93,9.325q-.07.334-.136.751t-.114.826q-.048.409-.079.76t-.031.545h-1.494q.009-.176.026-.422t.048-.51q.031-.264.062-.519t.066-.439h-.035q-.272.431-.554.813a3.913,3.913,0,0,1-.624.672,2.732,2.732,0,0,1-.765.457,2.691,2.691,0,0,1-.993.167A2.684,2.684,0,0,1-132.4.009a2.256,2.256,0,0,1-.839-.628,2.9,2.9,0,0,1-.541-1.046,5.1,5.1,0,0,1-.189-1.463,7.333,7.333,0,0,1,.105-1.16,7.1,7.1,0,0,1,.356-1.327,6.757,6.757,0,0,1,.668-1.323A5.023,5.023,0,0,1-131.8-8.095a4.947,4.947,0,0,1,1.463-.817,5.683,5.683,0,0,1,1.951-.308,10.373,10.373,0,0,1,1.45.105q.747.105,1.485.255Zm-.413-4.931q-.308-.07-.721-.123a6.128,6.128,0,0,0-.773-.053,3.508,3.508,0,0,0-1.349.242,3.462,3.462,0,0,0-1.015.633,3.727,3.727,0,0,0-.725.9,5.586,5.586,0,0,0-.47,1.042,6.13,6.13,0,0,0-.25,1.05,6.649,6.649,0,0,0-.075.94,4.212,4.212,0,0,0,.088.9,1.967,1.967,0,0,0,.277.681,1.3,1.3,0,0,0,.483.435,1.49,1.49,0,0,0,.7.154,1.9,1.9,0,0,0,.822-.18,2.849,2.849,0,0,0,.716-.488,4,4,0,0,0,.606-.712,7,7,0,0,0,.492-.857,7.329,7.329,0,0,0,.374-.923q.154-.47.25-.91Zm16.36,1.063a2.864,2.864,0,0,1-.031.36q-.031.229-.079.492t-.1.523q-.048.259-.092.444L-112.1,0h-1.459l1.1-5.273q.035-.141.07-.325t.062-.369q.026-.185.044-.338a2.261,2.261,0,0,0,.018-.242,1.6,1.6,0,0,0-.321-1.055,1.168,1.168,0,0,0-.954-.387,2.218,2.218,0,0,0-1.151.343,4.737,4.737,0,0,0-1.055.87,5.934,5.934,0,0,0-.831,1.16,4.445,4.445,0,0,0-.47,1.222L-117.987,0h-1.459l1.389-6.425q.07-.343.141-.716t.132-.721q.062-.347.105-.646t.07-.492h1.406q-.044.343-.105.716t-.105.69q-.053.369-.114.721h.035a7.433,7.433,0,0,1,.681-.91A5.1,5.1,0,0,1-115-8.53a3.84,3.84,0,0,1,.923-.505,2.869,2.869,0,0,1,1.024-.185,2.657,2.657,0,0,1,1.028.18,1.926,1.926,0,0,1,.716.505,2.058,2.058,0,0,1,.422.782A3.5,3.5,0,0,1-110.753-6.75Zm9.345-.141a2.679,2.679,0,0,1-.316,1.3,2.622,2.622,0,0,1-1.046,1,6.282,6.282,0,0,1-1.925.646,16.513,16.513,0,0,1-2.953.237,1.129,1.129,0,0,0-.018.2v.176a2.989,2.989,0,0,0,.132.9,2.023,2.023,0,0,0,.409.738,1.928,1.928,0,0,0,.712.5,2.633,2.633,0,0,0,1.033.185,4.383,4.383,0,0,0,1.332-.233,5.723,5.723,0,0,0,1.384-.664l-.272,1.424a5.713,5.713,0,0,1-1.151.492,4.949,4.949,0,0,1-1.494.211,4.06,4.06,0,0,1-1.674-.308,2.948,2.948,0,0,1-1.1-.822,3.2,3.2,0,0,1-.6-1.187,5.306,5.306,0,0,1-.185-1.411,6.525,6.525,0,0,1,.176-1.525,6.209,6.209,0,0,1,.5-1.367,5.792,5.792,0,0,1,.769-1.156,5,5,0,0,1,.993-.892,4.6,4.6,0,0,1,1.169-.571,4.166,4.166,0,0,1,1.292-.2,3.734,3.734,0,0,1,1.226.185,2.562,2.562,0,0,1,.888.505,2.155,2.155,0,0,1,.541.743A2.212,2.212,0,0,1-101.409-6.891Zm-1.468.07a1.016,1.016,0,0,0-.409-.861,1.761,1.761,0,0,0-1.085-.308,2.434,2.434,0,0,0-1.037.233,3.356,3.356,0,0,0-.923.642,4,4,0,0,0-.729.976,4.543,4.543,0,0,0-.448,1.226,15.192,15.192,0,0,0,2.136-.127,5.541,5.541,0,0,0,1.433-.374,1.926,1.926,0,0,0,.809-.6A1.348,1.348,0,0,0-102.877-6.82ZM-95-7.778h-2.268l-1.011,4.772q-.053.272-.105.589a3.254,3.254,0,0,0-.053.51.888.888,0,0,0,.2.646.86.86,0,0,0,.628.2,1.382,1.382,0,0,0,.272-.035q.167-.035.343-.088t.347-.119l.3-.119-.272,1.266a4.261,4.261,0,0,1-.7.224,3.237,3.237,0,0,1-.743.092,2.513,2.513,0,0,1-.853-.127,1.461,1.461,0,0,1-.576-.365,1.413,1.413,0,0,1-.325-.576,2.653,2.653,0,0,1-.1-.76,4.261,4.261,0,0,1,.048-.593,6.15,6.15,0,0,1,.119-.62l1.037-4.9H-100.2L-99.93-9h1.477l.466-2.2a2.709,2.709,0,0,1,.268-.083q.233-.066.51-.149l.51-.154.259-.079L-96.995-9h2.268Zm7.71,4.9q-.07.334-.136.751t-.114.826q-.048.409-.079.76T-87.65,0h-1.494q.009-.176.026-.422t.048-.51q.031-.264.062-.519t.066-.439h-.035q-.272.431-.554.813a3.913,3.913,0,0,1-.624.672,2.732,2.732,0,0,1-.765.457,2.691,2.691,0,0,1-.993.167A2.684,2.684,0,0,1-92.99.009a2.256,2.256,0,0,1-.839-.628,2.9,2.9,0,0,1-.541-1.046,5.1,5.1,0,0,1-.189-1.463,7.333,7.333,0,0,1,.105-1.16A7.1,7.1,0,0,1-94.1-5.616a6.757,6.757,0,0,1,.668-1.323,5.023,5.023,0,0,1,1.037-1.156,4.947,4.947,0,0,1,1.463-.817,5.683,5.683,0,0,1,1.951-.308,10.373,10.373,0,0,1,1.45.105q.747.105,1.485.255ZM-87.7-7.813q-.308-.07-.721-.123a6.128,6.128,0,0,0-.773-.053,3.508,3.508,0,0,0-1.349.242,3.462,3.462,0,0,0-1.015.633,3.727,3.727,0,0,0-.725.9,5.586,5.586,0,0,0-.47,1.042,6.13,6.13,0,0,0-.25,1.05,6.649,6.649,0,0,0-.075.94,4.212,4.212,0,0,0,.088.9,1.967,1.967,0,0,0,.277.681,1.3,1.3,0,0,0,.483.435,1.49,1.49,0,0,0,.7.154,1.9,1.9,0,0,0,.822-.18A2.849,2.849,0,0,0-90-1.679a4,4,0,0,0,.606-.712,7,7,0,0,0,.492-.857,7.329,7.329,0,0,0,.374-.923q.154-.47.25-.91Zm15.086,5.045q-.062.281-.119.677t-.1.8q-.044.4-.075.751T-72.943,0h-1.494q0-.149.022-.4t.053-.523q.031-.272.066-.523t.062-.409h-.035a8.877,8.877,0,0,1-.633.9,3.663,3.663,0,0,1-.668.65,2.684,2.684,0,0,1-.747.391,2.738,2.738,0,0,1-.87.132A2.688,2.688,0,0,1-78.3,0a2.256,2.256,0,0,1-.839-.646A2.977,2.977,0,0,1-79.666-1.7a5.141,5.141,0,0,1-.185-1.446A7.115,7.115,0,0,1-79.715-4.5a6.931,6.931,0,0,1,.422-1.38,6.467,6.467,0,0,1,.725-1.283,5,5,0,0,1,1.046-1.063,4.96,4.96,0,0,1,1.389-.725,5.372,5.372,0,0,1,1.749-.268,5.932,5.932,0,0,1,.914.066q.422.066.729.136l.914-4.307H-70.4ZM-73-7.778a5.662,5.662,0,0,0-.7-.154,5.029,5.029,0,0,0-.778-.057,3.566,3.566,0,0,0-1.349.237,3.4,3.4,0,0,0-1.02.633,3.788,3.788,0,0,0-.729.9,5.676,5.676,0,0,0-.475,1.037A5.9,5.9,0,0,0-78.3-4.135a6.508,6.508,0,0,0-.075.927,4.443,4.443,0,0,0,.083.9,2,2,0,0,0,.272.694,1.3,1.3,0,0,0,.488.448,1.522,1.522,0,0,0,.721.158,1.865,1.865,0,0,0,.822-.185,2.83,2.83,0,0,0,.716-.5,4.136,4.136,0,0,0,.606-.729,7.077,7.077,0,0,0,.492-.879A7.81,7.81,0,0,0-73.8-4.25q.154-.479.25-.918Zm10.637.888a2.679,2.679,0,0,1-.316,1.3,2.622,2.622,0,0,1-1.046,1,6.282,6.282,0,0,1-1.925.646,16.513,16.513,0,0,1-2.953.237,1.129,1.129,0,0,0-.018.2v.176a2.989,2.989,0,0,0,.132.9,2.023,2.023,0,0,0,.409.738,1.928,1.928,0,0,0,.712.5,2.633,2.633,0,0,0,1.033.185A4.383,4.383,0,0,0-65-1.244a5.723,5.723,0,0,0,1.384-.664l-.272,1.424a5.713,5.713,0,0,1-1.151.492A4.949,4.949,0,0,1-66.534.22a4.06,4.06,0,0,1-1.674-.308,2.948,2.948,0,0,1-1.1-.822,3.2,3.2,0,0,1-.6-1.187,5.306,5.306,0,0,1-.185-1.411,6.525,6.525,0,0,1,.176-1.525,6.209,6.209,0,0,1,.5-1.367,5.792,5.792,0,0,1,.769-1.156,5,5,0,0,1,.993-.892,4.6,4.6,0,0,1,1.169-.571,4.166,4.166,0,0,1,1.292-.2,3.734,3.734,0,0,1,1.226.185,2.562,2.562,0,0,1,.888.505,2.155,2.155,0,0,1,.541.743A2.212,2.212,0,0,1-62.359-6.891Zm-1.468.07a1.016,1.016,0,0,0-.409-.861,1.761,1.761,0,0,0-1.085-.308,2.434,2.434,0,0,0-1.037.233,3.356,3.356,0,0,0-.923.642,4,4,0,0,0-.729.976,4.543,4.543,0,0,0-.448,1.226,15.192,15.192,0,0,0,2.136-.127,5.541,5.541,0,0,0,1.433-.374,1.926,1.926,0,0,0,.809-.6A1.348,1.348,0,0,0-63.827-6.82ZM-53.408-.035a3.368,3.368,0,0,1-.5.114,3.5,3.5,0,0,1-.549.044,1.793,1.793,0,0,1-1.327-.444,1.618,1.618,0,0,1-.439-1.191,3.631,3.631,0,0,1,.044-.519q.044-.3.141-.738l2.25-10.564h1.459l-2.259,10.6q-.079.369-.11.571a2.338,2.338,0,0,0-.031.343.724.724,0,0,0,.2.549.886.886,0,0,0,.628.189,2.662,2.662,0,0,0,.4-.026,1.772,1.772,0,0,0,.321-.079Zm8.958-2.848q-.07.334-.136.751t-.114.826q-.048.409-.079.76T-44.81,0H-46.3q.009-.176.026-.422t.048-.51q.031-.264.062-.519t.066-.439h-.035q-.272.431-.554.813a3.913,3.913,0,0,1-.624.672,2.732,2.732,0,0,1-.765.457,2.691,2.691,0,0,1-.993.167A2.684,2.684,0,0,1-50.15.009a2.256,2.256,0,0,1-.839-.628,2.9,2.9,0,0,1-.541-1.046,5.1,5.1,0,0,1-.189-1.463,7.333,7.333,0,0,1,.105-1.16,7.1,7.1,0,0,1,.356-1.327,6.757,6.757,0,0,1,.668-1.323,5.023,5.023,0,0,1,1.037-1.156,4.947,4.947,0,0,1,1.463-.817,5.683,5.683,0,0,1,1.951-.308,10.373,10.373,0,0,1,1.45.105q.747.105,1.485.255Zm-.413-4.931q-.308-.07-.721-.123a6.128,6.128,0,0,0-.773-.053,3.508,3.508,0,0,0-1.349.242,3.462,3.462,0,0,0-1.015.633,3.727,3.727,0,0,0-.725.9,5.586,5.586,0,0,0-.47,1.042,6.13,6.13,0,0,0-.25,1.05,6.649,6.649,0,0,0-.075.94,4.212,4.212,0,0,0,.088.9,1.967,1.967,0,0,0,.277.681,1.3,1.3,0,0,0,.483.435,1.49,1.49,0,0,0,.7.154,1.9,1.9,0,0,0,.822-.18,2.849,2.849,0,0,0,.716-.488,4,4,0,0,0,.606-.712,7,7,0,0,0,.492-.857,7.329,7.329,0,0,0,.374-.923q.154-.47.25-.91ZM-34.04-.035a3.368,3.368,0,0,1-.5.114,3.5,3.5,0,0,1-.549.044,1.793,1.793,0,0,1-1.327-.444,1.618,1.618,0,0,1-.439-1.191,3.631,3.631,0,0,1,.044-.519q.044-.3.141-.738L-35.359-9H-33.9l-1.318,6.267q-.079.369-.11.571a2.338,2.338,0,0,0-.031.343.724.724,0,0,0,.2.549.886.886,0,0,0,.628.189,2.662,2.662,0,0,0,.4-.026,1.772,1.772,0,0,0,.321-.079Zm1.028-12.173a.946.946,0,0,1-.268.677.88.88,0,0,1-.664.281.934.934,0,0,1-.672-.277.911.911,0,0,1-.286-.681.843.843,0,0,1,.286-.659.977.977,0,0,1,.672-.255.921.921,0,0,1,.659.259A.865.865,0,0,1-33.012-12.208Zm9.169,5.458a2.864,2.864,0,0,1-.031.36q-.031.229-.079.492t-.1.523q-.048.259-.092.444L-25.188,0h-1.459l1.1-5.273q.035-.141.07-.325t.062-.369q.026-.185.044-.338a2.261,2.261,0,0,0,.018-.242A1.6,1.6,0,0,0-25.676-7.6a1.168,1.168,0,0,0-.954-.387,2.218,2.218,0,0,0-1.151.343,4.737,4.737,0,0,0-1.055.87,5.934,5.934,0,0,0-.831,1.16,4.445,4.445,0,0,0-.47,1.222L-31.077,0h-1.459l1.389-6.425q.07-.343.141-.716t.132-.721q.062-.347.105-.646T-30.7-9h1.406q-.044.343-.105.716t-.105.69q-.053.369-.114.721h.035a7.433,7.433,0,0,1,.681-.91,5.1,5.1,0,0,1,.809-.747,3.84,3.84,0,0,1,.923-.505,2.869,2.869,0,0,1,1.024-.185,2.657,2.657,0,0,1,1.028.18,1.926,1.926,0,0,1,.716.505,2.058,2.058,0,0,1,.422.782A3.5,3.5,0,0,1-23.843-6.75ZM-19.069,0h-1.222l-1.424-9h1.459l.791,5.669q.026.167.048.378t.044.431q.022.22.031.431t.009.378h.035q.07-.158.163-.36t.207-.417q.114-.215.233-.435t.224-.4L-15.254-9h1.644ZM-5.98-6.891a2.679,2.679,0,0,1-.316,1.3,2.622,2.622,0,0,1-1.046,1,6.282,6.282,0,0,1-1.925.646,16.513,16.513,0,0,1-2.953.237,1.129,1.129,0,0,0-.018.2v.176a2.989,2.989,0,0,0,.132.9A2.023,2.023,0,0,0-11.7-1.7a1.928,1.928,0,0,0,.712.5,2.633,2.633,0,0,0,1.033.185,4.383,4.383,0,0,0,1.332-.233,5.723,5.723,0,0,0,1.384-.664L-7.509-.483A5.713,5.713,0,0,1-8.661.009,4.949,4.949,0,0,1-10.155.22a4.06,4.06,0,0,1-1.674-.308,2.948,2.948,0,0,1-1.1-.822,3.2,3.2,0,0,1-.6-1.187,5.306,5.306,0,0,1-.185-1.411,6.525,6.525,0,0,1,.176-1.525,6.209,6.209,0,0,1,.5-1.367,5.792,5.792,0,0,1,.769-1.156,5,5,0,0,1,.993-.892,4.6,4.6,0,0,1,1.169-.571,4.166,4.166,0,0,1,1.292-.2,3.734,3.734,0,0,1,1.226.185,2.562,2.562,0,0,1,.888.505,2.155,2.155,0,0,1,.541.743A2.212,2.212,0,0,1-5.98-6.891Zm-1.468.07a1.016,1.016,0,0,0-.409-.861,1.761,1.761,0,0,0-1.085-.308,2.434,2.434,0,0,0-1.037.233,3.356,3.356,0,0,0-.923.642,4,4,0,0,0-.729.976,4.543,4.543,0,0,0-.448,1.226,15.192,15.192,0,0,0,2.136-.127,5.541,5.541,0,0,0,1.433-.374,1.926,1.926,0,0,0,.809-.6A1.348,1.348,0,0,0-7.448-6.82ZM1.1-7.471H1.062A2.6,2.6,0,0,0,.6-7.677a1.691,1.691,0,0,0-.567-.1,1.664,1.664,0,0,0-.976.33,3.587,3.587,0,0,0-.848.87,6.243,6.243,0,0,0-.668,1.235A8.434,8.434,0,0,0-2.9-3.92L-3.746,0H-5.187l1.266-5.977q.079-.369.158-.773t.145-.809q.066-.4.119-.773T-3.421-9H-2q-.026.264-.062.558t-.07.571q-.035.277-.07.5t-.053.347h.035a9.7,9.7,0,0,1,.571-.905,4.182,4.182,0,0,1,.611-.69,2.589,2.589,0,0,1,.681-.444A1.924,1.924,0,0,1,.429-9.22a2.481,2.481,0,0,1,.488.048q.242.048.435.1Zm6.031.053a3.746,3.746,0,0,0-.888-.413,3.2,3.2,0,0,0-.984-.158,1.941,1.941,0,0,0-1.279.378,1.24,1.24,0,0,0-.453,1,1.255,1.255,0,0,0,.083.466,1.407,1.407,0,0,0,.246.4,2.234,2.234,0,0,0,.413.365q.25.176.576.378A4.531,4.531,0,0,1,6.262-3.828,2.262,2.262,0,0,1,6.7-2.47a2.74,2.74,0,0,1-.189,1,2.247,2.247,0,0,1-.6.861,3.088,3.088,0,0,1-1.068.6,4.873,4.873,0,0,1-1.6.229,5.285,5.285,0,0,1-.58-.035A6.145,6.145,0,0,1,2.026.079a5.559,5.559,0,0,1-.615-.171A2.708,2.708,0,0,1,.9-.325L1.187-1.7a3.028,3.028,0,0,0,.435.246,4.5,4.5,0,0,0,.563.22,5.257,5.257,0,0,0,.633.158,3.562,3.562,0,0,0,.655.062,2.063,2.063,0,0,0,1.314-.352,1.185,1.185,0,0,0,.435-.976,1.3,1.3,0,0,0-.066-.422,1.184,1.184,0,0,0-.233-.387,2.585,2.585,0,0,0-.439-.391q-.272-.2-.686-.444A4.44,4.44,0,0,1,2.474-5.12a2.241,2.241,0,0,1-.426-1.34A2.736,2.736,0,0,1,2.25-7.5a2.52,2.52,0,0,1,.6-.879,2.929,2.929,0,0,1,1.006-.611A4,4,0,0,1,5.273-9.22a5.645,5.645,0,0,1,1.2.123,4.26,4.26,0,0,1,.962.316Zm4.4,7.383a3.368,3.368,0,0,1-.5.114,3.5,3.5,0,0,1-.549.044A1.793,1.793,0,0,1,9.151-.321a1.618,1.618,0,0,1-.439-1.191,3.631,3.631,0,0,1,.044-.519q.044-.3.141-.738L10.206-9h1.459L10.347-2.733q-.079.369-.11.571a2.338,2.338,0,0,0-.031.343.724.724,0,0,0,.2.549.886.886,0,0,0,.628.189,2.662,2.662,0,0,0,.4-.026,1.772,1.772,0,0,0,.321-.079Zm1.028-12.173a.946.946,0,0,1-.268.677.88.88,0,0,1-.664.281.934.934,0,0,1-.672-.277.911.911,0,0,1-.286-.681.843.843,0,0,1,.286-.659.977.977,0,0,1,.672-.255.921.921,0,0,1,.659.259A.865.865,0,0,1,12.553-12.208Zm8.923,6.539A7.491,7.491,0,0,1,21.137-3.4a5.8,5.8,0,0,1-.976,1.876A4.714,4.714,0,0,1,18.614-.25a4.4,4.4,0,0,1-2.052.47,3.747,3.747,0,0,1-1.393-.246,2.9,2.9,0,0,1-1.055-.708,3.134,3.134,0,0,1-.668-1.116,4.4,4.4,0,0,1-.233-1.481,7.334,7.334,0,0,1,.356-2.316,5.848,5.848,0,0,1,1-1.872,4.681,4.681,0,0,1,1.547-1.248,4.371,4.371,0,0,1,1.991-.453,3.721,3.721,0,0,1,1.384.246,2.94,2.94,0,0,1,1.059.708,3.2,3.2,0,0,1,.681,1.116A4.255,4.255,0,0,1,21.475-5.669ZM20-5.6a3.36,3.36,0,0,0-.141-1.015,2.159,2.159,0,0,0-.4-.747,1.716,1.716,0,0,0-.615-.466,1.945,1.945,0,0,0-.809-.163,2.556,2.556,0,0,0-1.4.4,3.536,3.536,0,0,0-1.055,1.042,5.164,5.164,0,0,0-.664,1.468A6.143,6.143,0,0,0,14.69-3.4a3.362,3.362,0,0,0,.136.989,2.245,2.245,0,0,0,.387.756,1.67,1.67,0,0,0,.615.479,1.952,1.952,0,0,0,.822.167A2.593,2.593,0,0,0,18.056-1.4a3.487,3.487,0,0,0,1.055-1.037,5.069,5.069,0,0,0,.659-1.472A6.3,6.3,0,0,0,20-5.6Zm-1.854-5.115H17.063l2.54-2.874h1.415ZM31.356-6.75a2.864,2.864,0,0,1-.031.36q-.031.229-.079.492t-.1.523q-.048.259-.092.444L30.011,0H28.552l1.1-5.273q.035-.141.07-.325t.062-.369q.026-.185.044-.338a2.261,2.261,0,0,0,.018-.242A1.6,1.6,0,0,0,29.523-7.6a1.168,1.168,0,0,0-.954-.387,2.218,2.218,0,0,0-1.151.343,4.737,4.737,0,0,0-1.055.87,5.934,5.934,0,0,0-.831,1.16,4.445,4.445,0,0,0-.47,1.222L24.123,0H22.664l1.389-6.425q.07-.343.141-.716t.132-.721q.062-.347.105-.646T24.5-9h1.406q-.044.343-.105.716t-.105.69q-.053.369-.114.721h.035a7.433,7.433,0,0,1,.681-.91,5.1,5.1,0,0,1,.809-.747,3.84,3.84,0,0,1,.923-.505,2.869,2.869,0,0,1,1.024-.185,2.657,2.657,0,0,1,1.028.18,1.926,1.926,0,0,1,.716.505,2.058,2.058,0,0,1,.422.782A3.5,3.5,0,0,1,31.356-6.75Zm6.884,2.3H33.432l.255-1.134h4.808Zm12.887-6.064q-.255-.167-.584-.343a5.345,5.345,0,0,0-.725-.316,5.725,5.725,0,0,0-.866-.229,5.476,5.476,0,0,0-1.006-.088,5.845,5.845,0,0,0-2.377.466,5.219,5.219,0,0,0-1.8,1.283,5.758,5.758,0,0,0-1.138,1.92,6.95,6.95,0,0,0-.4,2.386,5.439,5.439,0,0,0,.29,1.85,3.707,3.707,0,0,0,.826,1.354,3.482,3.482,0,0,0,1.283.831,4.657,4.657,0,0,0,1.652.281,7.707,7.707,0,0,0,1.055-.066,6.107,6.107,0,0,0,.879-.185,5.671,5.671,0,0,0,.76-.281q.356-.163.69-.347L49.324-.448a7.264,7.264,0,0,1-1.525.5A8.872,8.872,0,0,1,45.976.22a5.763,5.763,0,0,1-2.175-.4A4.7,4.7,0,0,1,42.131-1.3a5.033,5.033,0,0,1-1.068-1.745,6.483,6.483,0,0,1-.378-2.268,8.492,8.492,0,0,1,.523-3.032,6.854,6.854,0,0,1,1.485-2.373A6.737,6.737,0,0,1,45-12.261,7.812,7.812,0,0,1,48-12.814a7.425,7.425,0,0,1,1.991.242,7.813,7.813,0,0,1,1.463.549Zm8.808,4.843A7.491,7.491,0,0,1,59.6-3.4a5.8,5.8,0,0,1-.976,1.876A4.714,4.714,0,0,1,57.074-.25a4.4,4.4,0,0,1-2.052.47,3.747,3.747,0,0,1-1.393-.246,2.9,2.9,0,0,1-1.055-.708,3.134,3.134,0,0,1-.668-1.116,4.4,4.4,0,0,1-.233-1.481,7.334,7.334,0,0,1,.356-2.316,5.848,5.848,0,0,1,1-1.872,4.681,4.681,0,0,1,1.547-1.248,4.371,4.371,0,0,1,1.991-.453,3.721,3.721,0,0,1,1.384.246,2.94,2.94,0,0,1,1.059.708,3.2,3.2,0,0,1,.681,1.116A4.255,4.255,0,0,1,59.935-5.669Zm-1.477.07a3.36,3.36,0,0,0-.141-1.015,2.159,2.159,0,0,0-.4-.747,1.716,1.716,0,0,0-.615-.466,1.945,1.945,0,0,0-.809-.163,2.556,2.556,0,0,0-1.4.4,3.536,3.536,0,0,0-1.055,1.042,5.164,5.164,0,0,0-.664,1.468A6.143,6.143,0,0,0,53.149-3.4a3.362,3.362,0,0,0,.136.989,2.245,2.245,0,0,0,.387.756,1.67,1.67,0,0,0,.615.479,1.952,1.952,0,0,0,.822.167A2.593,2.593,0,0,0,56.516-1.4,3.487,3.487,0,0,0,57.57-2.439a5.069,5.069,0,0,0,.659-1.472A6.3,6.3,0,0,0,58.458-5.6Zm8.536-1.819a3.746,3.746,0,0,0-.888-.413,3.2,3.2,0,0,0-.984-.158,1.941,1.941,0,0,0-1.279.378,1.24,1.24,0,0,0-.453,1,1.255,1.255,0,0,0,.083.466,1.407,1.407,0,0,0,.246.4,2.234,2.234,0,0,0,.413.365q.25.176.576.378a4.531,4.531,0,0,1,1.419,1.173,2.262,2.262,0,0,1,.435,1.358,2.74,2.74,0,0,1-.189,1,2.247,2.247,0,0,1-.6.861,3.088,3.088,0,0,1-1.068.6,4.873,4.873,0,0,1-1.6.229,5.285,5.285,0,0,1-.58-.035,6.145,6.145,0,0,1-.637-.105,5.559,5.559,0,0,1-.615-.171,2.708,2.708,0,0,1-.514-.233l.29-1.371a3.028,3.028,0,0,0,.435.246,4.5,4.5,0,0,0,.563.22,5.257,5.257,0,0,0,.633.158,3.562,3.562,0,0,0,.655.062,2.063,2.063,0,0,0,1.314-.352,1.185,1.185,0,0,0,.435-.976,1.3,1.3,0,0,0-.066-.422,1.184,1.184,0,0,0-.233-.387,2.585,2.585,0,0,0-.439-.391q-.272-.2-.686-.444A4.44,4.44,0,0,1,62.34-5.12a2.241,2.241,0,0,1-.426-1.34,2.736,2.736,0,0,1,.2-1.042,2.52,2.52,0,0,1,.6-.879,2.929,2.929,0,0,1,1.006-.611A4,4,0,0,1,65.14-9.22a5.645,5.645,0,0,1,1.2.123,4.26,4.26,0,0,1,.962.316Zm6.8-.36H71.531L70.52-3.006q-.053.272-.105.589a3.254,3.254,0,0,0-.053.51.888.888,0,0,0,.2.646.86.86,0,0,0,.628.2,1.382,1.382,0,0,0,.272-.035q.167-.035.343-.088t.347-.119l.3-.119L72.181-.158a4.261,4.261,0,0,1-.7.224,3.237,3.237,0,0,1-.743.092,2.513,2.513,0,0,1-.853-.127,1.461,1.461,0,0,1-.576-.365,1.413,1.413,0,0,1-.325-.576,2.653,2.653,0,0,1-.1-.76,4.261,4.261,0,0,1,.048-.593,6.15,6.15,0,0,1,.119-.62l1.037-4.9H68.6L68.868-9h1.477l.466-2.2a2.709,2.709,0,0,1,.268-.083q.233-.066.51-.149l.51-.154.259-.079L71.8-9h2.268Zm8.7,2.109A7.491,7.491,0,0,1,82.163-3.4a5.8,5.8,0,0,1-.976,1.876A4.714,4.714,0,0,1,79.641-.25a4.4,4.4,0,0,1-2.052.47A3.747,3.747,0,0,1,76.2-.026a2.9,2.9,0,0,1-1.055-.708,3.134,3.134,0,0,1-.668-1.116,4.4,4.4,0,0,1-.233-1.481A7.334,7.334,0,0,1,74.6-5.647a5.848,5.848,0,0,1,1-1.872,4.681,4.681,0,0,1,1.547-1.248,4.371,4.371,0,0,1,1.991-.453,3.721,3.721,0,0,1,1.384.246,2.94,2.94,0,0,1,1.059.708A3.2,3.2,0,0,1,82.26-7.15,4.255,4.255,0,0,1,82.5-5.669Zm-1.477.07a3.36,3.36,0,0,0-.141-1.015,2.159,2.159,0,0,0-.4-.747,1.716,1.716,0,0,0-.615-.466,1.945,1.945,0,0,0-.809-.163,2.556,2.556,0,0,0-1.4.4,3.536,3.536,0,0,0-1.055,1.042,5.164,5.164,0,0,0-.664,1.468A6.143,6.143,0,0,0,75.716-3.4a3.362,3.362,0,0,0,.136.989,2.245,2.245,0,0,0,.387.756,1.67,1.67,0,0,0,.615.479,1.952,1.952,0,0,0,.822.167A2.593,2.593,0,0,0,79.083-1.4a3.487,3.487,0,0,0,1.055-1.037A5.069,5.069,0,0,0,80.8-3.911,6.3,6.3,0,0,0,81.025-5.6Zm8.536-1.819a3.746,3.746,0,0,0-.888-.413,3.2,3.2,0,0,0-.984-.158,1.941,1.941,0,0,0-1.279.378,1.24,1.24,0,0,0-.453,1,1.255,1.255,0,0,0,.083.466,1.407,1.407,0,0,0,.246.4,2.234,2.234,0,0,0,.413.365q.25.176.576.378A4.531,4.531,0,0,1,88.7-3.828,2.262,2.262,0,0,1,89.13-2.47a2.74,2.74,0,0,1-.189,1,2.247,2.247,0,0,1-.6.861,3.088,3.088,0,0,1-1.068.6,4.873,4.873,0,0,1-1.6.229A5.285,5.285,0,0,1,85.1.185a6.145,6.145,0,0,1-.637-.105,5.559,5.559,0,0,1-.615-.171,2.708,2.708,0,0,1-.514-.233L83.62-1.7a3.028,3.028,0,0,0,.435.246,4.5,4.5,0,0,0,.563.22,5.257,5.257,0,0,0,.633.158,3.562,3.562,0,0,0,.655.062,2.063,2.063,0,0,0,1.314-.352,1.185,1.185,0,0,0,.435-.976,1.3,1.3,0,0,0-.066-.422,1.184,1.184,0,0,0-.233-.387,2.585,2.585,0,0,0-.439-.391q-.272-.2-.686-.444A4.44,4.44,0,0,1,84.907-5.12a2.241,2.241,0,0,1-.426-1.34,2.736,2.736,0,0,1,.2-1.042,2.52,2.52,0,0,1,.6-.879,2.929,2.929,0,0,1,1.006-.611,4,4,0,0,1,1.415-.229,5.645,5.645,0,0,1,1.2.123,4.26,4.26,0,0,1,.962.316ZM103.17-2.769q-.062.281-.119.677t-.1.8q-.044.4-.075.751T102.845,0h-1.494q0-.149.022-.4t.053-.523q.031-.272.066-.523t.062-.409h-.035a8.877,8.877,0,0,1-.633.9,3.663,3.663,0,0,1-.668.65,2.684,2.684,0,0,1-.747.391A2.738,2.738,0,0,1,98.6.22,2.688,2.688,0,0,1,97.492,0a2.256,2.256,0,0,1-.839-.646A2.977,2.977,0,0,1,96.121-1.7a5.141,5.141,0,0,1-.185-1.446A7.115,7.115,0,0,1,96.073-4.5a6.931,6.931,0,0,1,.422-1.38,6.467,6.467,0,0,1,.725-1.283,5,5,0,0,1,1.046-1.063,4.96,4.96,0,0,1,1.389-.725A5.372,5.372,0,0,1,101.4-9.22a5.932,5.932,0,0,1,.914.066q.422.066.729.136l.914-4.307h1.424Zm-.378-5.01a5.662,5.662,0,0,0-.7-.154,5.029,5.029,0,0,0-.778-.057,3.566,3.566,0,0,0-1.349.237,3.4,3.4,0,0,0-1.02.633,3.788,3.788,0,0,0-.729.9,5.676,5.676,0,0,0-.475,1.037,5.9,5.9,0,0,0-.255,1.046,6.508,6.508,0,0,0-.075.927,4.443,4.443,0,0,0,.083.9,2,2,0,0,0,.272.694,1.3,1.3,0,0,0,.488.448,1.522,1.522,0,0,0,.721.158A1.865,1.865,0,0,0,99.8-1.2a2.83,2.83,0,0,0,.716-.5,4.136,4.136,0,0,0,.606-.729,7.077,7.077,0,0,0,.492-.879,7.81,7.81,0,0,0,.374-.945q.154-.479.25-.918ZM113.615-.035a3.368,3.368,0,0,1-.5.114,3.5,3.5,0,0,1-.549.044,1.793,1.793,0,0,1-1.327-.444,1.618,1.618,0,0,1-.439-1.191,3.631,3.631,0,0,1,.044-.519q.044-.3.141-.738l2.25-10.564H114.7l-2.259,10.6q-.079.369-.11.571a2.338,2.338,0,0,0-.031.343.724.724,0,0,0,.2.549.886.886,0,0,0,.628.189,2.662,2.662,0,0,0,.4-.026,1.772,1.772,0,0,0,.321-.079Zm8.958-2.848q-.07.334-.136.751t-.114.826q-.048.409-.079.76T122.213,0h-1.494q.009-.176.026-.422t.048-.51q.031-.264.062-.519t.066-.439h-.035q-.272.431-.554.813a3.913,3.913,0,0,1-.624.672,2.732,2.732,0,0,1-.765.457,2.691,2.691,0,0,1-.993.167,2.684,2.684,0,0,1-1.077-.211,2.256,2.256,0,0,1-.839-.628,2.9,2.9,0,0,1-.541-1.046,5.1,5.1,0,0,1-.189-1.463,7.333,7.333,0,0,1,.105-1.16,7.1,7.1,0,0,1,.356-1.327,6.757,6.757,0,0,1,.668-1.323,5.023,5.023,0,0,1,1.037-1.156,4.947,4.947,0,0,1,1.463-.817,5.683,5.683,0,0,1,1.951-.308,10.373,10.373,0,0,1,1.45.105q.747.105,1.485.255Zm-.413-4.931q-.308-.07-.721-.123a6.128,6.128,0,0,0-.773-.053,3.508,3.508,0,0,0-1.349.242,3.462,3.462,0,0,0-1.015.633,3.727,3.727,0,0,0-.725.9,5.586,5.586,0,0,0-.47,1.042,6.13,6.13,0,0,0-.25,1.05,6.649,6.649,0,0,0-.075.94,4.212,4.212,0,0,0,.088.9,1.967,1.967,0,0,0,.277.681,1.3,1.3,0,0,0,.483.435,1.49,1.49,0,0,0,.7.154,1.9,1.9,0,0,0,.822-.18,2.849,2.849,0,0,0,.716-.488,4,4,0,0,0,.606-.712,7,7,0,0,0,.492-.857,7.329,7.329,0,0,0,.374-.923q.154-.47.25-.91ZM132.983-.035a3.368,3.368,0,0,1-.5.114,3.5,3.5,0,0,1-.549.044,1.793,1.793,0,0,1-1.327-.444,1.618,1.618,0,0,1-.439-1.191,3.631,3.631,0,0,1,.044-.519q.044-.3.141-.738L131.664-9h1.459l-1.318,6.267q-.079.369-.11.571a2.338,2.338,0,0,0-.031.343.724.724,0,0,0,.2.549.886.886,0,0,0,.628.189,2.662,2.662,0,0,0,.4-.026,1.772,1.772,0,0,0,.321-.079Zm1.028-12.173a.946.946,0,0,1-.268.677.88.88,0,0,1-.664.281.934.934,0,0,1-.672-.277.911.911,0,0,1-.286-.681.843.843,0,0,1,.286-.659.977.977,0,0,1,.672-.255.921.921,0,0,1,.659.259A.865.865,0,0,1,134.011-12.208ZM143.18-6.75a2.864,2.864,0,0,1-.031.36q-.031.229-.079.492t-.1.523q-.048.259-.092.444L141.835,0h-1.459l1.1-5.273q.035-.141.07-.325t.062-.369q.026-.185.044-.338a2.261,2.261,0,0,0,.018-.242,1.6,1.6,0,0,0-.321-1.055,1.168,1.168,0,0,0-.954-.387,2.218,2.218,0,0,0-1.151.343,4.737,4.737,0,0,0-1.055.87,5.934,5.934,0,0,0-.831,1.16,4.445,4.445,0,0,0-.47,1.222L135.946,0h-1.459l1.389-6.425q.07-.343.141-.716t.132-.721q.062-.347.105-.646t.07-.492h1.406q-.044.343-.105.716t-.105.69q-.053.369-.114.721h.035a7.433,7.433,0,0,1,.681-.91,5.1,5.1,0,0,1,.809-.747,3.84,3.84,0,0,1,.923-.505,2.869,2.869,0,0,1,1.024-.185,2.657,2.657,0,0,1,1.028.18,1.926,1.926,0,0,1,.716.505,2.058,2.058,0,0,1,.422.782A3.5,3.5,0,0,1,143.18-6.75ZM147.954,0h-1.222l-1.424-9h1.459l.791,5.669q.026.167.048.378t.044.431q.022.22.031.431t.009.378h.035q.07-.158.163-.36t.207-.417q.114-.215.233-.435t.224-.4L151.769-9h1.644Zm13.089-6.891a2.679,2.679,0,0,1-.316,1.3,2.622,2.622,0,0,1-1.046,1,6.282,6.282,0,0,1-1.925.646,16.513,16.513,0,0,1-2.953.237,1.129,1.129,0,0,0-.018.2v.176a2.989,2.989,0,0,0,.132.9,2.023,2.023,0,0,0,.409.738,1.928,1.928,0,0,0,.712.5,2.633,2.633,0,0,0,1.033.185,4.383,4.383,0,0,0,1.332-.233,5.723,5.723,0,0,0,1.384-.664l-.272,1.424a5.713,5.713,0,0,1-1.151.492,4.949,4.949,0,0,1-1.494.211,4.06,4.06,0,0,1-1.674-.308,2.948,2.948,0,0,1-1.1-.822,3.2,3.2,0,0,1-.6-1.187,5.306,5.306,0,0,1-.185-1.411,6.525,6.525,0,0,1,.176-1.525,6.209,6.209,0,0,1,.5-1.367,5.792,5.792,0,0,1,.769-1.156,5,5,0,0,1,.993-.892,4.6,4.6,0,0,1,1.169-.571,4.166,4.166,0,0,1,1.292-.2,3.734,3.734,0,0,1,1.226.185,2.562,2.562,0,0,1,.888.505,2.155,2.155,0,0,1,.541.743A2.212,2.212,0,0,1,161.043-6.891Zm-1.468.07a1.016,1.016,0,0,0-.409-.861,1.761,1.761,0,0,0-1.085-.308,2.434,2.434,0,0,0-1.037.233,3.356,3.356,0,0,0-.923.642,4,4,0,0,0-.729.976,4.543,4.543,0,0,0-.448,1.226,15.192,15.192,0,0,0,2.136-.127,5.541,5.541,0,0,0,1.433-.374,1.926,1.926,0,0,0,.809-.6A1.348,1.348,0,0,0,159.575-6.82Zm8.545-.65h-.035a2.6,2.6,0,0,0-.461-.207,1.691,1.691,0,0,0-.567-.1,1.664,1.664,0,0,0-.976.33,3.587,3.587,0,0,0-.848.87,6.243,6.243,0,0,0-.668,1.235,8.434,8.434,0,0,0-.444,1.424L163.277,0h-1.441L163.1-5.977q.079-.369.158-.773t.145-.809q.066-.4.119-.773T163.6-9h1.424q-.026.264-.062.558t-.07.571q-.035.277-.07.5t-.053.347h.035a9.7,9.7,0,0,1,.571-.905,4.182,4.182,0,0,1,.611-.69,2.589,2.589,0,0,1,.681-.444,1.924,1.924,0,0,1,.782-.158,2.481,2.481,0,0,1,.488.048q.242.048.435.1Zm6.031.053a3.746,3.746,0,0,0-.888-.413,3.2,3.2,0,0,0-.984-.158A1.941,1.941,0,0,0,171-7.611a1.24,1.24,0,0,0-.453,1,1.255,1.255,0,0,0,.083.466,1.407,1.407,0,0,0,.246.4,2.234,2.234,0,0,0,.413.365q.25.176.576.378a4.531,4.531,0,0,1,1.419,1.173,2.262,2.262,0,0,1,.435,1.358,2.74,2.74,0,0,1-.189,1,2.247,2.247,0,0,1-.6.861,3.088,3.088,0,0,1-1.068.6,4.873,4.873,0,0,1-1.6.229,5.285,5.285,0,0,1-.58-.035,6.145,6.145,0,0,1-.637-.105,5.559,5.559,0,0,1-.615-.171,2.708,2.708,0,0,1-.514-.233l.29-1.371a3.028,3.028,0,0,0,.435.246,4.5,4.5,0,0,0,.563.22,5.257,5.257,0,0,0,.633.158,3.562,3.562,0,0,0,.655.062,2.063,2.063,0,0,0,1.314-.352,1.185,1.185,0,0,0,.435-.976,1.3,1.3,0,0,0-.066-.422,1.184,1.184,0,0,0-.233-.387,2.585,2.585,0,0,0-.439-.391q-.272-.2-.686-.444A4.44,4.44,0,0,1,169.5-5.12a2.241,2.241,0,0,1-.426-1.34,2.736,2.736,0,0,1,.2-1.042,2.52,2.52,0,0,1,.6-.879,2.929,2.929,0,0,1,1.006-.611A4,4,0,0,1,172.3-9.22a5.645,5.645,0,0,1,1.2.123,4.26,4.26,0,0,1,.962.316Zm4.4,7.383a3.368,3.368,0,0,1-.5.114,3.5,3.5,0,0,1-.549.044,1.793,1.793,0,0,1-1.327-.444,1.618,1.618,0,0,1-.439-1.191,3.631,3.631,0,0,1,.044-.519q.044-.3.141-.738L177.229-9h1.459L177.37-2.733q-.079.369-.11.571a2.338,2.338,0,0,0-.031.343.724.724,0,0,0,.2.549.886.886,0,0,0,.628.189,2.662,2.662,0,0,0,.4-.026,1.772,1.772,0,0,0,.321-.079Zm1.028-12.173a.946.946,0,0,1-.268.677.88.88,0,0,1-.664.281.934.934,0,0,1-.672-.277.911.911,0,0,1-.286-.681.843.843,0,0,1,.286-.659.977.977,0,0,1,.672-.255.921.921,0,0,1,.659.259A.865.865,0,0,1,179.576-12.208ZM188.5-5.669A7.491,7.491,0,0,1,188.16-3.4a5.8,5.8,0,0,1-.976,1.876A4.714,4.714,0,0,1,185.637-.25a4.4,4.4,0,0,1-2.052.47,3.747,3.747,0,0,1-1.393-.246,2.9,2.9,0,0,1-1.055-.708,3.134,3.134,0,0,1-.668-1.116,4.4,4.4,0,0,1-.233-1.481,7.334,7.334,0,0,1,.356-2.316,5.848,5.848,0,0,1,1-1.872,4.681,4.681,0,0,1,1.547-1.248,4.371,4.371,0,0,1,1.991-.453,3.721,3.721,0,0,1,1.384.246,2.94,2.94,0,0,1,1.059.708,3.2,3.2,0,0,1,.681,1.116A4.255,4.255,0,0,1,188.5-5.669Zm-1.477.07a3.36,3.36,0,0,0-.141-1.015,2.159,2.159,0,0,0-.4-.747,1.716,1.716,0,0,0-.615-.466,1.945,1.945,0,0,0-.809-.163,2.556,2.556,0,0,0-1.4.4,3.536,3.536,0,0,0-1.055,1.042,5.164,5.164,0,0,0-.664,1.468,6.143,6.143,0,0,0-.233,1.683,3.362,3.362,0,0,0,.136.989,2.245,2.245,0,0,0,.387.756,1.67,1.67,0,0,0,.615.479,1.952,1.952,0,0,0,.822.167,2.593,2.593,0,0,0,1.406-.391,3.487,3.487,0,0,0,1.055-1.037,5.069,5.069,0,0,0,.659-1.472A6.3,6.3,0,0,0,187.022-5.6Zm-1.854-5.115h-1.081l2.54-2.874h1.415ZM198.379-6.75a2.864,2.864,0,0,1-.031.36q-.031.229-.079.492t-.1.523q-.048.259-.092.444L197.034,0h-1.459l1.1-5.273q.035-.141.07-.325t.062-.369q.026-.185.044-.338a2.261,2.261,0,0,0,.018-.242,1.6,1.6,0,0,0-.321-1.055,1.168,1.168,0,0,0-.954-.387,2.218,2.218,0,0,0-1.151.343,4.737,4.737,0,0,0-1.055.87,5.934,5.934,0,0,0-.831,1.16,4.445,4.445,0,0,0-.47,1.222L191.146,0h-1.459l1.389-6.425q.07-.343.141-.716t.132-.721q.062-.347.105-.646t.07-.492h1.406q-.044.343-.105.716t-.105.69q-.053.369-.114.721h.035a7.433,7.433,0,0,1,.681-.91,5.1,5.1,0,0,1,.809-.747,3.84,3.84,0,0,1,.923-.505,2.869,2.869,0,0,1,1.024-.185,2.657,2.657,0,0,1,1.028.18,1.926,1.926,0,0,1,.716.505,2.058,2.058,0,0,1,.422.782A3.5,3.5,0,0,1,198.379-6.75Z" transform="translate(590 5075.174)" fill="#212429"/>
    <path id="Trazado_1037796" data-name="Trazado 1037796" d="M-72.721-.527A7.392,7.392,0,0,1-76.2.211a5.613,5.613,0,0,1-4.307-1.731,6.389,6.389,0,0,1-1.617-4.544,6.7,6.7,0,0,1,1.819-4.887,6.175,6.175,0,0,1,4.614-1.863,7.4,7.4,0,0,1,2.971.519v1.573a6.024,6.024,0,0,0-2.988-.756,4.585,4.585,0,0,0-3.52,1.45,5.463,5.463,0,0,0-1.349,3.876,5.2,5.2,0,0,0,1.261,3.669,4.292,4.292,0,0,0,3.309,1.367,6.208,6.208,0,0,0,3.287-.844Zm6.137.738A4.175,4.175,0,0,1-69.771-1.05a4.672,4.672,0,0,1-1.191-3.344,4.867,4.867,0,0,1,1.239-3.542,4.455,4.455,0,0,1,3.349-1.274,4.037,4.037,0,0,1,3.142,1.239A4.914,4.914,0,0,1-62.1-4.535a4.835,4.835,0,0,1-1.217,3.45A4.265,4.265,0,0,1-66.585.211ZM-66.479-8a2.742,2.742,0,0,0-2.2.945,3.88,3.88,0,0,0-.809,2.606,3.67,3.67,0,0,0,.817,2.522A2.778,2.778,0,0,0-66.479-1a2.635,2.635,0,0,0,2.149-.905,3.928,3.928,0,0,0,.751-2.575,4,4,0,0,0-.751-2.6A2.623,2.623,0,0,0-66.479-8Zm6.137,7.673V-1.872A4.266,4.266,0,0,0-57.75-1q1.9,0,1.9-1.266a1.1,1.1,0,0,0-.163-.611,1.62,1.62,0,0,0-.439-.444,3.383,3.383,0,0,0-.65-.347q-.374-.154-.8-.321a10.357,10.357,0,0,1-1.05-.479,3.173,3.173,0,0,1-.756-.545,2.028,2.028,0,0,1-.457-.69,2.441,2.441,0,0,1-.154-.905,2.15,2.15,0,0,1,.29-1.121,2.572,2.572,0,0,1,.773-.817,3.607,3.607,0,0,1,1.1-.5,4.893,4.893,0,0,1,1.279-.167,5.164,5.164,0,0,1,2.092.4v1.459A4.077,4.077,0,0,0-57.073-8a2.671,2.671,0,0,0-.729.092,1.786,1.786,0,0,0-.558.259,1.2,1.2,0,0,0-.36.4,1.053,1.053,0,0,0-.127.514,1.233,1.233,0,0,0,.127.589,1.3,1.3,0,0,0,.374.422,2.855,2.855,0,0,0,.6.334q.352.149.8.325a11.131,11.131,0,0,1,1.072.47,3.678,3.678,0,0,1,.809.545,2.129,2.129,0,0,1,.514.7,2.254,2.254,0,0,1,.18.94,2.217,2.217,0,0,1-.294,1.16,2.523,2.523,0,0,1-.787.817A3.6,3.6,0,0,1-56.59.053a5.6,5.6,0,0,1-1.345.158A5.106,5.106,0,0,1-60.343-.325Zm12.359.237a2.779,2.779,0,0,1-1.345.281q-2.364,0-2.364-2.637V-7.77h-1.547V-9h1.547v-2.2l1.441-.466V-9h2.268v1.23h-2.268V-2.7a2.1,2.1,0,0,0,.308,1.292,1.228,1.228,0,0,0,1.02.387,1.515,1.515,0,0,0,.94-.3Zm5.688.3A4.175,4.175,0,0,1-45.481-1.05a4.672,4.672,0,0,1-1.191-3.344,4.867,4.867,0,0,1,1.239-3.542,4.455,4.455,0,0,1,3.349-1.274,4.037,4.037,0,0,1,3.142,1.239,4.914,4.914,0,0,1,1.129,3.437,4.835,4.835,0,0,1-1.217,3.45A4.265,4.265,0,0,1-42.295.211ZM-42.19-8a2.742,2.742,0,0,0-2.2.945A3.88,3.88,0,0,0-45.2-4.447a3.67,3.67,0,0,0,.817,2.522A2.778,2.778,0,0,0-42.19-1a2.635,2.635,0,0,0,2.149-.905,3.928,3.928,0,0,0,.751-2.575,4,4,0,0,0-.751-2.6A2.623,2.623,0,0,0-42.19-8Zm19.3,8h-1.441V-1.529h-.035A3.327,3.327,0,0,1-27.464.211,3.362,3.362,0,0,1-30.176-1a4.958,4.958,0,0,1-1.015-3.292,5.394,5.394,0,0,1,1.125-3.577,3.71,3.71,0,0,1,3-1.345,2.885,2.885,0,0,1,2.7,1.459h.035v-5.572h1.441Zm-1.441-4.069V-5.4a2.575,2.575,0,0,0-.721-1.846A2.417,2.417,0,0,0-26.884-8a2.489,2.489,0,0,0-2.074.967,4.237,4.237,0,0,0-.756,2.672A3.81,3.81,0,0,0-28.989-1.9a2.37,2.37,0,0,0,1.947.9,2.462,2.462,0,0,0,1.956-.87A3.242,3.242,0,0,0-24.335-4.069Zm11.595-.07H-19.1a3.366,3.366,0,0,0,.809,2.32A2.788,2.788,0,0,0-16.16-1a4.422,4.422,0,0,0,2.795-1V-.65A5.224,5.224,0,0,1-16.5.211a3.8,3.8,0,0,1-3-1.226,5.018,5.018,0,0,1-1.09-3.45A4.921,4.921,0,0,1-19.4-7.888a3.819,3.819,0,0,1,2.958-1.323,3.384,3.384,0,0,1,2.733,1.143A4.764,4.764,0,0,1-12.741-4.9Zm-1.477-1.222a2.933,2.933,0,0,0-.6-1.942A2.051,2.051,0,0,0-16.467-8a2.328,2.328,0,0,0-1.731.729,3.311,3.311,0,0,0-.879,1.907ZM-4.185,0H-5.627V-13.324h1.441ZM5.177,0H3.735V-1.406H3.7A3.018,3.018,0,0,1,.932.211,2.959,2.959,0,0,1-1.173-.5a2.466,2.466,0,0,1-.76-1.89q0-2.522,2.971-2.936l2.7-.378Q3.735-8,1.881-8A4.431,4.431,0,0,0-1.055-6.891V-8.367A5.577,5.577,0,0,1,2-9.211q3.173,0,3.173,3.357ZM3.735-4.553l-2.171.3a3.525,3.525,0,0,0-1.512.5A1.432,1.432,0,0,0-.457-2.5a1.374,1.374,0,0,0,.47,1.077A1.817,1.817,0,0,0,1.266-1a2.314,2.314,0,0,0,1.771-.751,2.685,2.685,0,0,0,.7-1.9Zm9.83-6.732a.913.913,0,0,1-.659-.264.89.89,0,0,1-.272-.668.9.9,0,0,1,.272-.672.905.905,0,0,1,.659-.268.931.931,0,0,1,.672.268.9.9,0,0,1,.277.672.891.891,0,0,1-.277.659A.923.923,0,0,1,13.565-11.285ZM14.268,0H12.827V-9h1.441Zm10.39,0H23.217V-5.133Q23.217-8,21.126-8a2.269,2.269,0,0,0-1.789.813,3.013,3.013,0,0,0-.708,2.052V0H17.188V-9h1.441v1.494h.035a3.248,3.248,0,0,1,2.953-1.705,2.753,2.753,0,0,1,2.259.954A4.248,4.248,0,0,1,24.659-5.5Zm9.793-9L30.866,0H29.451L26.04-9h1.582l2.285,6.539A5.869,5.869,0,0,1,30.224-1.2h.035a5.943,5.943,0,0,1,.281-1.222L32.931-9Zm8.782,4.86H36.879a3.366,3.366,0,0,0,.809,2.32A2.788,2.788,0,0,0,39.815-1,4.422,4.422,0,0,0,42.61-2V-.65a5.224,5.224,0,0,1-3.138.861,3.8,3.8,0,0,1-3-1.226,5.018,5.018,0,0,1-1.09-3.45,4.921,4.921,0,0,1,1.191-3.423,3.819,3.819,0,0,1,2.958-1.323,3.384,3.384,0,0,1,2.733,1.143A4.764,4.764,0,0,1,43.234-4.9ZM41.757-5.361a2.933,2.933,0,0,0-.6-1.942A2.051,2.051,0,0,0,39.507-8a2.328,2.328,0,0,0-1.731.729A3.311,3.311,0,0,0,36.9-5.361Zm8.351-2.18a1.763,1.763,0,0,0-1.09-.29,1.839,1.839,0,0,0-1.542.87,4.023,4.023,0,0,0-.62,2.373V0H45.415V-9h1.441v1.854h.035a3.143,3.143,0,0,1,.94-1.481,2.144,2.144,0,0,1,1.415-.532,2.353,2.353,0,0,1,.861.123ZM51.13-.325V-1.872A4.266,4.266,0,0,0,53.723-1q1.9,0,1.9-1.266a1.1,1.1,0,0,0-.163-.611,1.62,1.62,0,0,0-.439-.444,3.383,3.383,0,0,0-.65-.347q-.374-.154-.8-.321a10.357,10.357,0,0,1-1.05-.479,3.173,3.173,0,0,1-.756-.545A2.028,2.028,0,0,1,51.3-5.7a2.441,2.441,0,0,1-.154-.905,2.15,2.15,0,0,1,.29-1.121,2.572,2.572,0,0,1,.773-.817,3.607,3.607,0,0,1,1.1-.5,4.893,4.893,0,0,1,1.279-.167,5.164,5.164,0,0,1,2.092.4v1.459A4.077,4.077,0,0,0,54.4-8a2.671,2.671,0,0,0-.729.092,1.786,1.786,0,0,0-.558.259,1.2,1.2,0,0,0-.36.4,1.053,1.053,0,0,0-.127.514,1.233,1.233,0,0,0,.127.589,1.3,1.3,0,0,0,.374.422,2.855,2.855,0,0,0,.6.334q.352.149.8.325a11.131,11.131,0,0,1,1.072.47,3.678,3.678,0,0,1,.809.545,2.129,2.129,0,0,1,.514.7,2.254,2.254,0,0,1,.18.94,2.217,2.217,0,0,1-.294,1.16,2.523,2.523,0,0,1-.787.817,3.6,3.6,0,0,1-1.134.483,5.6,5.6,0,0,1-1.345.158A5.106,5.106,0,0,1,51.13-.325Zm8.923-10.96a.913.913,0,0,1-.659-.264.89.89,0,0,1-.272-.668.9.9,0,0,1,.272-.672.905.905,0,0,1,.659-.268.931.931,0,0,1,.672.268.9.9,0,0,1,.277.672.891.891,0,0,1-.277.659A.923.923,0,0,1,60.052-11.285ZM60.756,0H59.314V-9h1.441Zm6.681.211A4.175,4.175,0,0,1,64.251-1.05,4.672,4.672,0,0,1,63.06-4.395,4.867,4.867,0,0,1,64.3-7.937a4.455,4.455,0,0,1,3.349-1.274A4.037,4.037,0,0,1,70.79-7.972,4.914,4.914,0,0,1,71.92-4.535,4.835,4.835,0,0,1,70.7-1.085,4.265,4.265,0,0,1,67.437.211ZM67.543-8a2.742,2.742,0,0,0-2.2.945,3.88,3.88,0,0,0-.809,2.606,3.67,3.67,0,0,0,.817,2.522A2.778,2.778,0,0,0,67.543-1a2.635,2.635,0,0,0,2.149-.905,3.928,3.928,0,0,0,.751-2.575,4,4,0,0,0-.751-2.6A2.623,2.623,0,0,0,67.543-8Zm2.109-5.59-2.3,2.883H66.233l1.96-2.883ZM81.695,0H80.253V-5.133Q80.253-8,78.162-8a2.269,2.269,0,0,0-1.789.813,3.013,3.013,0,0,0-.708,2.052V0H74.224V-9h1.441v1.494H75.7a3.248,3.248,0,0,1,2.953-1.705,2.753,2.753,0,0,1,2.259.954A4.248,4.248,0,0,1,81.695-5.5Z" transform="translate(602.998 5104.174)" fill="#212429"/>
    <path id="Trazado_1037797" data-name="Trazado 1037797" d="M-10.3-9.483a3.677,3.677,0,0,1-.286,1.477,3.41,3.41,0,0,1-.787,1.134,3.843,3.843,0,0,1-1.2.76,5.1,5.1,0,0,1-1.512.356v.035a1.459,1.459,0,0,1,.725.554,3.405,3.405,0,0,1,.505,1.134L-11.8,0h-1.617l-.932-3.762a2.28,2.28,0,0,0-.646-1.213,1.722,1.722,0,0,0-1.173-.387h-1.1L-18.416,0h-1.512l2.663-12.6h3.472a4.532,4.532,0,0,1,1.582.246,2.941,2.941,0,0,1,1.081.672,2.67,2.67,0,0,1,.624.993A3.571,3.571,0,0,1-10.3-9.483Zm-1.547.158a2.223,2.223,0,0,0-.132-.778,1.61,1.61,0,0,0-.4-.615,1.874,1.874,0,0,0-.694-.4,3.091,3.091,0,0,0-1-.145h-1.942l-.967,4.57h1.74a4.9,4.9,0,0,0,1.569-.22,3.069,3.069,0,0,0,1.055-.58,2.131,2.131,0,0,0,.593-.839A2.727,2.727,0,0,0-11.85-9.325ZM2.97-7.488A8.859,8.859,0,0,1,2.82-5.867,9.124,9.124,0,0,1,2.39-4.315,8.323,8.323,0,0,1,1.7-2.9,6.915,6.915,0,0,1,.773-1.7a6.74,6.74,0,0,1-.914.8A5.867,5.867,0,0,1-1.2-.294,5.84,5.84,0,0,1-2.4.088,6.853,6.853,0,0,1-3.78.22,5.35,5.35,0,0,1-5.916-.189,4.7,4.7,0,0,1-7.529-1.314a4.888,4.888,0,0,1-1.015-1.7A6.306,6.306,0,0,1-8.9-5.15,8.592,8.592,0,0,1-8.3-8.429a7.56,7.56,0,0,1,1.657-2.514,6.6,6.6,0,0,1,1.991-1.367,6.21,6.21,0,0,1,2.562-.505,5.336,5.336,0,0,1,2.1.4,4.565,4.565,0,0,1,1.6,1.107A4.948,4.948,0,0,1,2.614-9.624,6.188,6.188,0,0,1,2.97-7.488Zm-1.564.053A5.209,5.209,0,0,0,1.15-9.123,3.63,3.63,0,0,0,.421-10.4a3.173,3.173,0,0,0-1.143-.809,3.815,3.815,0,0,0-1.494-.281,4.289,4.289,0,0,0-1.863.422A5.081,5.081,0,0,0-5.652-9.9a5.378,5.378,0,0,0-.7.967,7.486,7.486,0,0,0-.536,1.16A7.65,7.65,0,0,0-7.23-6.486a7.724,7.724,0,0,0-.119,1.354,5.173,5.173,0,0,0,.242,1.617,3.639,3.639,0,0,0,.7,1.27,3.189,3.189,0,0,0,1.138.831,3.818,3.818,0,0,0,1.556.3,4.6,4.6,0,0,0,1.868-.391A4.484,4.484,0,0,0-.273-2.663,5.449,5.449,0,0,0,.461-3.722,7.928,7.928,0,0,0,.983-4.935,8.13,8.13,0,0,0,1.3-6.205,7.59,7.59,0,0,0,1.405-7.436ZM5.635,0H4.123L6.786-12.6H8.315ZM18.565-6.539H10.3V-7.7h8.262Zm0,3.744H10.3v-1.16h8.262Z" transform="translate(342.5 5088.674)" fill="#212429"/>
    <path id="Trazado_1037798" data-name="Trazado 1037798" d="M-11.455-9.7l-2.408.492,1.67,2.136-.967.668-1.371-2.329L-15.92-6.407l-.967-.668,1.67-2.136L-17.642-9.7l.4-1.1,2.3.87-.2-2.672h1.213l-.2,2.672,2.312-.87ZM-4.439,0H-5.881V-10.89a3.336,3.336,0,0,1-.488.382,7.951,7.951,0,0,1-.721.426q-.4.211-.844.4A6.132,6.132,0,0,1-8.8-9.4v-1.459a8.379,8.379,0,0,0,1.006-.356q.532-.224,1.046-.5t.971-.58a7.71,7.71,0,0,0,.791-.593h.545ZM7.867-6.354a12.381,12.381,0,0,1-.286,2.8A6.533,6.533,0,0,1,6.755-1.49,3.718,3.718,0,0,1,5.428-.215,3.633,3.633,0,0,1,3.64.22,3.393,3.393,0,0,1,1.948-.2,3.546,3.546,0,0,1,.7-1.415,6.17,6.17,0,0,1-.078-3.379,12.146,12.146,0,0,1-.342-6.047,13.749,13.749,0,0,1-.065-8.965a6.674,6.674,0,0,1,.813-2.123A3.619,3.619,0,0,1,2.08-12.379,3.739,3.739,0,0,1,3.9-12.814Q7.867-12.814,7.867-6.354Zm-1.477.141q0-5.379-2.558-5.379-2.7,0-2.7,5.476,0,5.106,2.646,5.106Q6.391-1.011,6.391-6.214Zm11.181-.141a12.381,12.381,0,0,1-.286,2.8A6.533,6.533,0,0,1,16.46-1.49,3.718,3.718,0,0,1,15.133-.215,3.633,3.633,0,0,1,13.344.22,3.393,3.393,0,0,1,11.653-.2,3.546,3.546,0,0,1,10.4-1.415a6.17,6.17,0,0,1-.773-1.964,12.146,12.146,0,0,1-.264-2.667A13.749,13.749,0,0,1,9.64-8.965a6.674,6.674,0,0,1,.813-2.123,3.619,3.619,0,0,1,1.332-1.292,3.739,3.739,0,0,1,1.824-.435Q17.572-12.814,17.572-6.354ZM16.1-6.214q0-5.379-2.558-5.379-2.7,0-2.7,5.476,0,5.106,2.646,5.106Q16.1-1.011,16.1-6.214Z" transform="translate(836 5088.674)" fill="#212429"/>
    <path id="Trazado_1031595" data-name="Trazado 1031595" d="M-92.025,871.275H341.492" transform="translate(465.563 4212.674)" fill="none" stroke="#212429" stroke-width="1"/>
  </g>
</svg>
