<svg xmlns="http://www.w3.org/2000/svg" xmlns:xlink="http://www.w3.org/1999/xlink" width="113" height="113" viewBox="0 0 113 113">
  <defs>
    <filter id="Trazado_982547" x="0" y="0" width="113" height="113" filterUnits="userSpaceOnUse">
      <feOffset dy="3" input="SourceAlpha"/>
      <feGaussianBlur stdDeviation="3" result="blur"/>
      <feFlood flood-opacity="0.161"/>
      <feComposite operator="in" in2="blur"/>
      <feComposite in="SourceGraphic"/>
    </filter>
  </defs>
  <g id="Grupo_1176432" data-name="Grupo 1176432" transform="translate(-272 -5222.553)">
    <g id="Grupo_1172014" data-name="Grupo 1172014" transform="translate(281 5228.553)">
      <g id="Grupo_1167343" data-name="Grupo 1167343" transform="translate(0)">
        <g id="Grupo_1166777" data-name="Grupo 1166777" transform="translate(0)">
          <g id="Grupo_1164305" data-name="Grupo 1164305">
            <g id="Grupo_1163948" data-name="Grupo 1163948">
              <g id="Grupo_1158168" data-name="Grupo 1158168">
                <g id="Grupo_1152576" data-name="Grupo 1152576">
                  <g id="Grupo_1148633" data-name="Grupo 1148633">
                    <g id="Grupo_1148525" data-name="Grupo 1148525">
                      <g transform="matrix(1, 0, 0, 1, -9, -6)" filter="url(#Trazado_982547)">
                        <g id="Trazado_982547-2" data-name="Trazado 982547" transform="translate(9 6)" fill="#f2f7e5">
                          <path d="M 47.5 93.5 C 41.28937149047852 93.5 35.26533508300781 92.28397369384766 29.59518623352051 89.88570404052734 C 24.11771965026855 87.56893157958984 19.19813346862793 84.25196075439453 14.97309303283691 80.02691650390625 C 10.74804019927979 75.80186462402344 7.431066513061523 70.88229370117188 5.114293098449707 65.40481567382812 C 2.716026782989502 59.73468017578125 1.5 53.71062850952148 1.5 47.5 C 1.5 41.28937149047852 2.716026782989502 35.26533508300781 5.114293098449707 29.59518623352051 C 7.431066513061523 24.11771965026855 10.74804019927979 19.19813346862793 14.97309303283691 14.97309303283691 C 19.19813346862793 10.74804019927979 24.11771965026855 7.431066513061523 29.59518623352051 5.114293098449707 C 35.26533508300781 2.716026782989502 41.28937149047852 1.5 47.5 1.5 C 53.71062850952148 1.5 59.73468017578125 2.716026782989502 65.40481567382812 5.114293098449707 C 70.88229370117188 7.431066513061523 75.80186462402344 10.74804019927979 80.02691650390625 14.97309303283691 C 84.25196075439453 19.19813346862793 87.56893157958984 24.11771965026855 89.88570404052734 29.59518623352051 C 92.28397369384766 35.26533508300781 93.5 41.28937149047852 93.5 47.5 C 93.5 53.71062850952148 92.28397369384766 59.73468017578125 89.88570404052734 65.40481567382812 C 87.56893157958984 70.88229370117188 84.25196075439453 75.80186462402344 80.02691650390625 80.02691650390625 C 75.80186462402344 84.25196075439453 70.88229370117188 87.56893157958984 65.40481567382812 89.88570404052734 C 59.73468017578125 92.28397369384766 53.71062850952148 93.5 47.5 93.5 Z" stroke="none"/>
                          <path d="M 47.5 3 C 41.49121475219727 3 35.66376876831055 4.176155090332031 30.17950439453125 6.495796203613281 C 24.88084411621094 8.736953735351562 20.12152099609375 11.94598388671875 16.03375244140625 16.03375244140625 C 11.94598388671875 20.12152099609375 8.736953735351562 24.88084411621094 6.495796203613281 30.17950439453125 C 4.176155090332031 35.66376876831055 3 41.49121475219727 3 47.5 C 3 53.50878524780273 4.176155090332031 59.33624649047852 6.495796203613281 64.82049560546875 C 8.736953735351562 70.11917114257812 11.94598388671875 74.87849426269531 16.03375244140625 78.96626281738281 C 20.12152099609375 83.05403137207031 24.88084411621094 86.2630615234375 30.17950439453125 88.50419616699219 C 35.66376876831055 90.82384490966797 41.49121475219727 92 47.5 92 C 53.50878524780273 92 59.33624649047852 90.82384490966797 64.82049560546875 88.50419616699219 C 70.11917114257812 86.2630615234375 74.87849426269531 83.05403137207031 78.96626281738281 78.96626281738281 C 83.05403137207031 74.87849426269531 86.2630615234375 70.11917114257812 88.50419616699219 64.82049560546875 C 90.82384490966797 59.33624649047852 92 53.50878524780273 92 47.5 C 92 41.49121475219727 90.82384490966797 35.66376876831055 88.50419616699219 30.17950439453125 C 86.2630615234375 24.88084411621094 83.05403137207031 20.12152099609375 78.96626281738281 16.03375244140625 C 74.87849426269531 11.94598388671875 70.11917114257812 8.736953735351562 64.82049560546875 6.495796203613281 C 59.33624649047852 4.176155090332031 53.50878524780273 3 47.5 3 M 47.5 0 C 73.73353576660156 0 95 21.2664794921875 95 47.5 C 95 73.73353576660156 73.73353576660156 95 47.5 95 C 21.2664794921875 95 0 73.73353576660156 0 47.5 C 0 21.2664794921875 21.2664794921875 0 47.5 0 Z" stroke="none" fill="#86b60c"/>
                        </g>
                      </g>
                    </g>
                  </g>
                </g>
              </g>
            </g>
          </g>
        </g>
      </g>
    </g>
    <g id="Page-1" transform="translate(298 5246.054)">
      <g id="_094---Risky-Investments" data-name="094---Risky-Investments" transform="translate(0 -1)">
        <g id="Icons" transform="translate(1 1)">
          <path id="Shape" d="M58,33a18.978,18.978,0,0,1-8.89,16.08L40.74,36.92a2.1,2.1,0,0,0-3.48,0L28.89,49.08A19,19,0,1,1,58,33Z" fill="#9e9e9e"/>
          <path id="Shape-2" data-name="Shape" d="M34.26,36.92,26.9,47.62a18.958,18.958,0,0,0,2,1.46l8.37-12.16a2.1,2.1,0,0,1,.24-.272,2.092,2.092,0,0,0-3.25.272Z" fill="#707070"/>
          <path id="Shape-3" data-name="Shape" d="M39,14c-.5,0-1,.038-1.489.076a18.98,18.98,0,0,1,10.6,33.552l1,1.452A19,19,0,0,0,39,14Z" fill="#707070"/>
          <path id="Shape-4" data-name="Shape" d="M29.13,41.22a1.97,1.97,0,0,1-1.28.47,2.016,2.016,0,0,1-1.74-1A15.03,15.03,0,0,1,24,33h4a10.967,10.967,0,0,0,1.58,5.68,1.976,1.976,0,0,1-.45,2.54Z" fill="#60a917"/>
          <path id="Shape-5" data-name="Shape" d="M31.22,25.22A10.965,10.965,0,0,0,28,33H24a14.934,14.934,0,0,1,4.4-10.6Z" fill="#a4c400"/>
          <path id="Shape-6" data-name="Shape" d="M39,18v4a10.965,10.965,0,0,0-7.78,3.22L28.4,22.4A14.951,14.951,0,0,1,39,18Z" fill="#ffdc00"/>
          <path id="Shape-7" data-name="Shape" d="M49.6,22.4l-2.83,2.83a10.92,10.92,0,0,0-6.51-3.16A10.761,10.761,0,0,0,39,22V18a14.406,14.406,0,0,1,1.6.08,15,15,0,0,1,9,4.32Z" fill="#ff9801"/>
          <path id="Shape-8" data-name="Shape" d="M54,33H50a11.56,11.56,0,0,0-.09-1.43,10.837,10.837,0,0,0-3.14-6.34L49.6,22.4a14.838,14.838,0,0,1,4.28,8.65A16.2,16.2,0,0,1,54,33Z" fill="#ff5722"/>
          <path id="Shape-9" data-name="Shape" d="M54,33a15.013,15.013,0,0,1-2.13,7.73,2,2,0,0,1-3,.49,2.058,2.058,0,0,1-.74-1.56,1.861,1.861,0,0,1,.27-.96A10.906,10.906,0,0,0,50,33Z" fill="#f44335"/>
          <circle id="Oval" cx="3" cy="3" r="3" transform="translate(36 30)" fill="#cfd8dc"/>
          <path id="Shape-10" data-name="Shape" d="M51.88,59H26.12a2.142,2.142,0,0,1-1.74-3.36l4.51-6.56,8.37-12.16a2.1,2.1,0,0,1,3.48,0l8.37,12.16,4.51,6.56A2.142,2.142,0,0,1,51.88,59Z" fill="#ffdc00"/>
          <path id="Shape-11" data-name="Shape" d="M53.62,55.64l-4.51-6.56L40.74,36.92a2.092,2.092,0,0,0-3.24-.272,2.1,2.1,0,0,1,.24.272l8.37,12.16,4.51,6.56A2.142,2.142,0,0,1,48.88,59h3a2.142,2.142,0,0,0,1.74-3.36Z" fill="#fec108"/>
          <path id="Shape-12" data-name="Shape" d="M20,33a19.009,19.009,0,0,0,1.34,7.01A14.425,14.425,0,0,1,14,42C6.27,42,0,35.98,0,28.56,0,22.43,4.27,15.12,10.11,13l.11-.03.01.03h7.54l.01-.03.11.03a15.332,15.332,0,0,1,7.53,6.73A18.9,18.9,0,0,0,20,33Z" fill="#ffdc00"/>
          <path id="Shape-13" data-name="Shape" d="M25.42,19.73A15.332,15.332,0,0,0,17.89,13l-.11-.03-.01.03H14.89a15.332,15.332,0,0,1,7.53,6.73,18.971,18.971,0,0,0-4.08,20.28,14.372,14.372,0,0,1-5.861,1.907A14.69,14.69,0,0,0,14,42a14.425,14.425,0,0,0,7.34-1.99,18.971,18.971,0,0,1,4.08-20.28Z" fill="#fec108"/>
          <path id="Shape-14" data-name="Shape" d="M10.22,12.97l-.11.03h.12Z" fill="#fec108"/>
          <path id="Shape-15" data-name="Shape" d="M20.14,5.07l-2.36,7.9-.01.03H10.23l-.01-.03L7.86,5.07A1.607,1.607,0,0,1,9.4,3H11a3.023,3.023,0,0,1,3-2,3.023,3.023,0,0,1,3,2h1.6a1.607,1.607,0,0,1,1.54,2.07Z" fill="#ffdc00"/>
          <path id="Shape-16" data-name="Shape" d="M18.6,3H17a3.023,3.023,0,0,0-3-2,3.408,3.408,0,0,0-1.5.321A2.993,2.993,0,0,1,14,3h1.6a1.607,1.607,0,0,1,1.54,2.07l-2.36,7.9-.01.03h3l.01-.03,2.36-7.9A1.607,1.607,0,0,0,18.6,3Z" fill="#fec108"/>
        </g>
        <g id="Icons_copy">
          <path id="Shape-17" data-name="Shape" d="M60,34A19.966,19.966,0,0,0,26.612,19.185,17.753,17.753,0,0,0,22.716,15H23a1,1,0,0,0,0-2H20.115l1.976-6.635A2.6,2.6,0,0,0,19.6,3h-.966A4.088,4.088,0,0,0,15,1a4.088,4.088,0,0,0-3.637,2H10.4A2.6,2.6,0,0,0,7.906,6.355L9.885,13H7a1,1,0,1,0,0,2h.3A19.26,19.26,0,0,0,0,29.56C0,37.522,6.729,44,15,44a15.5,15.5,0,0,0,6.845-1.592A19.929,19.929,0,0,0,28.5,50.347l-3.939,5.724a3.151,3.151,0,0,0-.193,3.259A3.107,3.107,0,0,0,27.12,61H52.88a3.107,3.107,0,0,0,2.754-1.67,3.15,3.15,0,0,0-.193-3.258L51.5,50.347A19.88,19.88,0,0,0,60,34ZM9.82,5.775A.6.6,0,0,1,10.4,5h.926l.949,2.371a1,1,0,1,0,1.856-.742l-1.044-2.61A2.066,2.066,0,0,1,15,3a2.067,2.067,0,0,1,1.916,1.017L15.872,6.629a1,1,0,1,0,1.856.742L18.677,5H19.6a.6.6,0,0,1,.487.245.592.592,0,0,1,.087.54L18.028,13H11.972ZM15,42C7.832,42,2,36.419,2,29.56,2,24.2,5.737,17.119,11.312,15h7.377a13.993,13.993,0,0,1,6.479,5.631A19.929,19.929,0,0,0,21.1,40.547,13.488,13.488,0,0,1,15,42ZM53.863,58.4a1.09,1.09,0,0,1-.983.6H27.12a1.09,1.09,0,0,1-.983-.6,1.138,1.138,0,0,1,.07-1.194L39.086,38.484a1.105,1.105,0,0,1,1.828,0L53.793,57.206A1.136,1.136,0,0,1,53.863,58.4ZM38,34a2,2,0,0,1,2-2,1.973,1.973,0,0,1,.667.123l.011.007H40.7A2,2,0,1,1,38,34ZM50.369,48.7,42.561,37.352c-.045-.066-.106-.115-.156-.177a3.975,3.975,0,0,0-.144-6.47l2.08-5.716a10.113,10.113,0,0,1,2.71,1.93c0,.006.007.013.012.019l.013.008a9.971,9.971,0,0,1,1.474,12.24,2.98,2.98,0,0,0,.677,3.8,3.006,3.006,0,0,0,4.495-.741,15.844,15.844,0,0,0,2.266-8.191c0-.02.012-.037.012-.058s-.011-.039-.012-.06a16.719,16.719,0,0,0-.119-2.016,15.862,15.862,0,0,0-4.532-9.185c-.012-.014-.017-.032-.03-.046l-.034-.022A15.95,15.95,0,0,0,29.3,22.114c-.184.166-.346.35-.522.523-.026.022-.059.031-.084.056a.969.969,0,0,0-.057.085A15.969,15.969,0,0,0,26.248,42.2a3.04,3.04,0,0,0,2.1,1.445,3,3,0,0,0,3.087-4.482,10,10,0,0,1,9.718-15.1,9.725,9.725,0,0,1,1.3.246l-2.084,5.728C40.25,30.026,40.128,30,40,30a3.986,3.986,0,0,0-2.4,7.175c-.05.062-.111.111-.156.177L29.631,48.7a18,18,0,1,1,20.738,0ZM28.068,35a11.943,11.943,0,0,0,1.656,5.2.988.988,0,0,1-.232,1.259.975.975,0,0,1-.806.218,1.046,1.046,0,0,1-.72-.5A13.956,13.956,0,0,1,26.037,35Zm-.015-2h-2a14.012,14.012,0,0,1,3.379-8.154l1.414,1.414A12.011,12.011,0,0,0,28.053,33Zm4.2-8.157-1.411-1.411A13.8,13.8,0,0,1,39,20.048v2a12.018,12.018,0,0,0-6.743,2.8ZM41,20.052c.166.012.33.01.5.027a13.9,13.9,0,0,1,7.658,3.352L47.74,24.846a12.13,12.13,0,0,0-2.762-1.757.977.977,0,0,0-1.781-.655,11.627,11.627,0,0,0-1.822-.358c-.125-.014-.25-.011-.375-.021ZM53.885,32.174c.035.276.051.551.07.826H51.949c-.015-.184-.024-.368-.047-.553a11.869,11.869,0,0,0-2.748-6.186l1.423-1.423a13.819,13.819,0,0,1,3.308,7.336Zm-3.626,8.051A11.867,11.867,0,0,0,51.95,35h2.006a13.832,13.832,0,0,1-1.948,6.218.966.966,0,0,1-.678.458,1.011,1.011,0,0,1-.822-.221A.968.968,0,0,1,50.259,40.225Z"/>
          <path id="Shape-18" data-name="Shape" d="M40,43a1,1,0,0,0-1,1v7a1,1,0,0,0,2,0V44A1,1,0,0,0,40,43Z"/>
          <circle id="Oval-2" data-name="Oval" cx="1" cy="1" r="1" transform="translate(39 54)"/>
          <path id="Shape-19" data-name="Shape" d="M15,23.95a1.332,1.332,0,0,1,1.333,1.328,1,1,0,0,0,2,0A3.321,3.321,0,0,0,16,22.12V21.4a1,1,0,0,0-2,0v.722a3.318,3.318,0,0,0,1,6.486,1.328,1.328,0,1,1-1.333,1.328,1,1,0,0,0-2,0A3.322,3.322,0,0,0,14,33.092v.721a1,1,0,0,0,2,0v-.721a3.318,3.318,0,0,0-1-6.486,1.328,1.328,0,1,1,0-2.656Z"/>
        </g>
      </g>
    </g>
  </g>
</svg>
