<svg xmlns="http://www.w3.org/2000/svg" width="31.731" height="31.709" viewBox="0 0 31.731 31.709">
  <g id="layer1" transform="translate(-0.523 -280.596)">
    <path id="path7325" d="M7.4,280.6a6.87,6.87,0,0,0-3.921,1.229.529.529,0,1,0,.6.868,5.809,5.809,0,1,1-1.454,1.453.529.529,0,1,0-.868-.6A6.87,6.87,0,1,0,7.4,280.6Zm0,2.108a.508.508,0,0,0-.528.528v.608a2.11,2.11,0,0,0,.526,4.153A1.057,1.057,0,1,1,6.35,289.05a.529.529,0,1,0-1.057,0,2.117,2.117,0,0,0,1.583,2.039v.6a.528.528,0,1,0,1.057,0v-.6a2.109,2.109,0,0,0-.531-4.152A1.057,1.057,0,1,1,8.46,285.88a.529.529,0,1,0,1.058,0,2.12,2.12,0,0,0-1.584-2.038v-.609A.508.508,0,0,0,7.4,282.7Zm17.967,1.061h3.023c-1.275,1.615-11.707,14.271-25.747,14.271a.529.529,0,1,0,0,1.057c14.052,0,24.424-11.988,26.426-14.476v2.851a.529.529,0,0,0,1.057,0v-4.229a.529.529,0,0,0-.531-.526H25.346a.527.527,0,0,0,.025,1.053ZM1.063,312.3H31.714a.529.529,0,1,0,0-1.057H30.131V298.035a.528.528,0,1,0-1.057,0v13.213H25.9V294.337h3.172v1.583a.528.528,0,1,0,1.057,0v-2.114a.528.528,0,0,0-.531-.526H25.371a.529.529,0,0,0-.527.526v17.441H22.73V298.035a.528.528,0,0,0-.526-.526H17.948a.532.532,0,0,0-.5.526v13.213H15.33v-8.984a.529.529,0,0,0-.526-.531H10.575a.528.528,0,0,0-.526.531v8.984H7.933v-4.755a.529.529,0,0,0-.531-.531H3.178a.529.529,0,0,0-.531.531v4.755H1.036a.529.529,0,0,0,.027,1.057ZM18.5,298.566h3.172v12.682H18.5Zm-7.4,4.225h3.172v8.457H11.105Zm-7.4,4.229H6.876v4.229H3.7Z" transform="translate(0)"/>
  </g>
</svg>
