<svg xmlns="http://www.w3.org/2000/svg" width="294.5" height="112.81" viewBox="0 0 294.5 112.81">
  <g id="Grupo_1177161" data-name="Grupo 1177161" transform="translate(-1125.5 -272.25)">
    <rect id="Rectángulo_415938" data-name="Rectángulo 415938" width="294.5" height="50.937" transform="translate(1125.5 324.063)" fill="#103d47"/>
    <g id="Grupo_1177160" data-name="Grupo 1177160">
      <rect id="Rectángulo_415940" data-name="Rectángulo 415940" width="192.5" height="68.937" transform="translate(1176.5 315.063)" fill="#1d7083"/>
      <g id="accountant_14177816_1_" data-name="accountant_14177816 (1)" transform="translate(1209.312 263.554)">
        <g id="Grupo_1177158" data-name="Grupo 1177158" transform="translate(7.5 9.446)">
          <path id="Trazado_1037674" data-name="Trazado 1037674" d="M143.076,13.112h0a9.9,9.9,0,0,0-6.2,2.178l-.844.677h0a11.171,11.171,0,0,0-9.093-6.522H110.276A10.708,10.708,0,0,0,99.568,20.154V43.029h53.413V23.017A9.9,9.9,0,0,0,143.076,13.112Z" transform="translate(-78.843 -9.446)" fill="#7e929b"/>
          <path id="Trazado_1037675" data-name="Trazado 1037675" d="M191.927,268.648,181.166,276.5,170.4,268.648V248.542h21.522Z" transform="translate(-133.735 -194.721)" fill="#ffcebf"/>
          <path id="Trazado_1037676" data-name="Trazado 1037676" d="M128.72,102.906c-.541,0-2.476.008-2.476.008a8.948,8.948,0,0,1-8.948-8.948V91.4a4.674,4.674,0,0,0-5.806-4.535h0a45.567,45.567,0,0,1-22.07,0h0A4.674,4.674,0,0,0,83.613,91.4v2.562a8.948,8.948,0,0,1-8.948,8.948s-1.936-.008-2.476-.008a5.941,5.941,0,1,0,1.7,11.633,26.71,26.71,0,0,0,26.57,23.987h0a26.71,26.71,0,0,0,26.57-23.987,5.94,5.94,0,1,0,1.7-11.633Z" transform="translate(-53.023 -69.331)" fill="#ffdfcf"/>
          <path id="Trazado_1037677" data-name="Trazado 1037677" d="M254.583,372.916l10.593,4.809a14.8,14.8,0,0,1,7.8,13.041V398.5a3.6,3.6,0,0,1-3.6,3.6h-41.1l16.39-10.79,5.305-17.82Z" transform="translate(-178.579 -291.098)" fill="#50be9d"/>
          <path id="Trazado_1037678" data-name="Trazado 1037678" d="M326.209,398.5v-7.732a14.8,14.8,0,0,0-7.8-13.041l-10.593-4.809-4.611.572-5.305,17.82-.927.61v3.426a6.753,6.753,0,0,0,6.753,6.753h18.883A3.6,3.6,0,0,0,326.209,398.5Z" transform="translate(-231.811 -291.098)" fill="#4bb390"/>
          <path id="Trazado_1037679" data-name="Trazado 1037679" d="M190.934,431.01h-7.873l-5.13,16.1h18.133Z" transform="translate(-139.566 -336.115)" fill="#c4417a"/>
          <path id="Trazado_1037680" data-name="Trazado 1037680" d="M25.893,372.916,15.3,377.725a14.8,14.8,0,0,0-7.8,13.041V398.5a3.6,3.6,0,0,0,3.6,3.6H52.2l-16.39-10.79L30.5,373.488Z" transform="translate(-7.5 -291.098)" fill="#50be9d"/>
          <path id="Trazado_1037681" data-name="Trazado 1037681" d="M198.589,386.211h-.367a5.569,5.569,0,0,1-5.569-5.569v-9.4h11.506v9.4A5.569,5.569,0,0,1,198.589,386.211Z" transform="translate(-150.974 -289.801)" fill="#da4084"/>
          <path id="Trazado_1037682" data-name="Trazado 1037682" d="M161.077,344.559l-4.74,8.561a2.712,2.712,0,0,1-4.534.324l-7.323-9.664,5.6-6.954Z" transform="translate(-113.645 -263.131)" fill="#eef7ff"/>
          <path id="Trazado_1037683" data-name="Trazado 1037683" d="M218.209,371.182l4.74,8.561a2.712,2.712,0,0,0,4.534.324l3.925-5.18" transform="translate(-170.778 -289.754)" fill="#eef7ff"/>
          <path id="Trazado_1037684" data-name="Trazado 1037684" d="M231.408,348.265l3.4-4.484-5.6-6.954-10.993,7.734" transform="translate(-170.778 -263.132)" fill="#eef7ff"/>
          <path id="Trazado_1037685" data-name="Trazado 1037685" d="M106.957,336.734s-9.432,19.651,8.556,37.311c0,0-15.614-2.615-22.975-14.126a3.5,3.5,0,0,1,.267-4.082h0a3.507,3.507,0,0,0,.217-4.156l-3.237-4.821a3.475,3.475,0,0,1,.54-4.483A23.67,23.67,0,0,1,106.957,336.734Z" transform="translate(-70.813 -263.045)" fill="#b1eba0"/>
          <path id="Trazado_1037686" data-name="Trazado 1037686" d="M236.833,336.734s9.432,19.651-8.556,37.311c0,0,15.614-2.615,22.975-14.126a3.5,3.5,0,0,0-.267-4.082h0a3.507,3.507,0,0,1-.217-4.156L254,346.86a3.475,3.475,0,0,0-.54-4.483A23.67,23.67,0,0,0,236.833,336.734Z" transform="translate(-178.579 -263.045)" fill="#b1eba0"/>
          <path id="Trazado_1037687" data-name="Trazado 1037687" d="M306.694,344.741a23.26,23.26,0,0,0-9.724-4.977v29.891c0,.092,0,.183.007.274a27.517,27.517,0,0,0,7.5-7.647,3.5,3.5,0,0,0-.267-4.082,3.507,3.507,0,0,1-.217-4.156l3.237-4.821A3.474,3.474,0,0,0,306.694,344.741Z" transform="translate(-231.809 -265.408)" fill="#8ddea9"/>
          <path id="Trazado_1037688" data-name="Trazado 1037688" d="M358.3,326.342h-27a6.753,6.753,0,0,1-6.753-6.753V281.906a6.753,6.753,0,0,1,6.753-6.753h27a6.753,6.753,0,0,1,6.753,6.753v37.682A6.753,6.753,0,0,1,358.3,326.342Z" transform="translate(-253.173 -215.342)" fill="#2d6ed2"/>
          <path id="Trazado_1037689" data-name="Trazado 1037689" d="M381.961,321.618h-21.48a1.838,1.838,0,0,1-1.838-1.838v-8.592a1.838,1.838,0,0,1,1.838-1.838h21.48a1.838,1.838,0,0,1,1.838,1.838v8.592A1.838,1.838,0,0,1,381.961,321.618Z" transform="translate(-279.6 -241.841)" fill="#eef7ff"/>
          <path id="Trazado_1037690" data-name="Trazado 1037690" d="M438.3,411.772h4.411a1.586,1.586,0,0,0,1.586-1.586v-12.65a1.586,1.586,0,0,0-1.586-1.586H438.3a1.586,1.586,0,0,0-1.586,1.586v12.65A1.586,1.586,0,0,0,438.3,411.772Z" transform="translate(-340.094 -308.947)" fill="#e162ac"/>
        </g>
        <g id="Grupo_1177159" data-name="Grupo 1177159" transform="translate(7.5 9.446)">
          <line id="Línea_850" data-name="Línea 850" x2="10.797" transform="translate(42.033 111)" fill="none" stroke="#000" stroke-linecap="round" stroke-linejoin="round" stroke-miterlimit="10" stroke-width="1.5"/>
          <line id="Línea_851" data-name="Línea 851" x1="3.196" y1="10.032" transform="translate(51.368 94.895)" fill="none" stroke="#000" stroke-linecap="round" stroke-linejoin="round" stroke-miterlimit="10" stroke-width="1.5"/>
          <line id="Línea_852" data-name="Línea 852" x1="3.299" y2="10.356" transform="translate(40.196 94.895)" fill="none" stroke="#000" stroke-linecap="round" stroke-linejoin="round" stroke-miterlimit="10" stroke-width="1.5"/>
          <path id="Trazado_1037691" data-name="Trazado 1037691" d="M25.893,372.916,15.3,377.725a14.8,14.8,0,0,0-7.8,13.041V398.5a3.6,3.6,0,0,0,3.6,3.6H52.2" transform="translate(-7.5 -291.098)" fill="none" stroke="#000" stroke-linecap="round" stroke-linejoin="round" stroke-miterlimit="10" stroke-width="1.5"/>
          <line id="Línea_853" data-name="Línea 853" x1="31.941" transform="translate(49.697 111)" fill="none" stroke="#000" stroke-linecap="round" stroke-linejoin="round" stroke-miterlimit="10" stroke-width="1.5"/>
          <path id="Trazado_1037692" data-name="Trazado 1037692" d="M204.355,417.553a5.571,5.571,0,0,1-5.458,4.454h-.367a5.571,5.571,0,0,1-5.48-4.569" transform="translate(-151.282 -325.599)" fill="none" stroke="#000" stroke-linecap="round" stroke-linejoin="round" stroke-miterlimit="10" stroke-width="1.5"/>
          <path id="Trazado_1037693" data-name="Trazado 1037693" d="M191.927,309.643v6.125l-10.761,7.856L170.4,315.768v-6.417" transform="translate(-133.735 -241.842)" fill="none" stroke="#000" stroke-linecap="round" stroke-linejoin="round" stroke-miterlimit="10" stroke-width="1.5"/>
          <line id="Línea_854" data-name="Línea 854" y2="4.022" transform="translate(20.725 29.561)" fill="none" stroke="#000" stroke-linecap="round" stroke-linejoin="round" stroke-miterlimit="10" stroke-width="1.5"/>
          <path id="Trazado_1037694" data-name="Trazado 1037694" d="M152.981,43.03V23.018a9.9,9.9,0,0,0-9.9-9.9h0a9.9,9.9,0,0,0-6.2,2.178l-.844.677h0a11.171,11.171,0,0,0-9.093-6.522H110.276A10.708,10.708,0,0,0,99.568,20.155V31.129" transform="translate(-78.843 -9.447)" fill="none" stroke="#000" stroke-linecap="round" stroke-linejoin="round" stroke-miterlimit="10" stroke-width="1.5"/>
          <path id="Trazado_1037695" data-name="Trazado 1037695" d="M128.72,102.906c-.541,0-2.476.008-2.476.008a8.948,8.948,0,0,1-8.948-8.948V91.4a4.674,4.674,0,0,0-5.806-4.535h0a45.567,45.567,0,0,1-22.07,0h0A4.674,4.674,0,0,0,83.613,91.4v2.562a8.948,8.948,0,0,1-8.948,8.948s-1.936-.008-2.476-.008a5.941,5.941,0,1,0,1.7,11.633,26.71,26.71,0,0,0,26.57,23.987h0a26.71,26.71,0,0,0,26.57-23.987,5.94,5.94,0,1,0,1.7-11.633Z" transform="translate(-53.023 -69.331)" fill="none" stroke="#000" stroke-linecap="round" stroke-linejoin="round" stroke-miterlimit="10" stroke-width="1.5"/>
          <line id="Línea_855" data-name="Línea 855" y1="1.678" transform="translate(20.862 43.53)" fill="none" stroke="#000" stroke-linecap="round" stroke-linejoin="round" stroke-miterlimit="10" stroke-width="1.5"/>
          <line id="Línea_856" data-name="Línea 856" y1="1.678" transform="translate(74.001 43.53)" fill="none" stroke="#000" stroke-linecap="round" stroke-linejoin="round" stroke-miterlimit="10" stroke-width="1.5"/>
          <path id="Trazado_1037696" data-name="Trazado 1037696" d="M171.011,371.182l-4.74,8.561a2.712,2.712,0,0,1-4.534.324l-4.437-5.856" transform="translate(-123.58 -289.754)" fill="none" stroke="#000" stroke-linecap="round" stroke-linejoin="round" stroke-miterlimit="10" stroke-width="1.5"/>
          <path id="Trazado_1037697" data-name="Trazado 1037697" d="M218.209,371.182l4.74,8.561a2.712,2.712,0,0,0,4.534.324l3.925-5.18" transform="translate(-170.778 -289.754)" fill="none" stroke="#000" stroke-linecap="round" stroke-linejoin="round" stroke-miterlimit="10" stroke-width="1.5"/>
          <path id="Trazado_1037698" data-name="Trazado 1037698" d="M106.957,336.734s-9.432,19.651,8.556,37.311c0,0-15.614-2.615-22.975-14.126a3.5,3.5,0,0,1,.267-4.082h0a3.507,3.507,0,0,0,.217-4.156l-3.237-4.821a3.475,3.475,0,0,1,.54-4.483A23.67,23.67,0,0,1,106.957,336.734Z" transform="translate(-70.813 -263.045)" fill="none" stroke="#000" stroke-linecap="round" stroke-linejoin="round" stroke-miterlimit="10" stroke-width="1.5"/>
          <path id="Trazado_1037699" data-name="Trazado 1037699" d="M228.276,460.274s13.921-2.331,21.671-12.282" transform="translate(-178.579 -349.274)" fill="none" stroke="#000" stroke-linecap="round" stroke-linejoin="round" stroke-miterlimit="10" stroke-width="1.5"/>
          <path id="Trazado_1037700" data-name="Trazado 1037700" d="M249.324,339.532a24.084,24.084,0,0,0-12.491-2.8s9.432,19.651-8.556,37.311" transform="translate(-178.579 -263.044)" fill="none" stroke="#000" stroke-linecap="round" stroke-linejoin="round" stroke-miterlimit="10" stroke-width="1.5"/>
          <line id="Línea_857" data-name="Línea 857" y2="1.617" transform="translate(37.976 37.268)" fill="none" stroke="#000" stroke-linecap="round" stroke-linejoin="round" stroke-miterlimit="10" stroke-width="1.5"/>
          <line id="Línea_858" data-name="Línea 858" y2="1.617" transform="translate(56.421 37.268)" fill="none" stroke="#000" stroke-linecap="round" stroke-linejoin="round" stroke-miterlimit="10" stroke-width="1.5"/>
          <path id="Trazado_1037701" data-name="Trazado 1037701" d="M201.557,236.2a8.807,8.807,0,0,1-13.756,0" transform="translate(-147.215 -185.158)" fill="none" stroke="#000" stroke-linecap="round" stroke-linejoin="round" stroke-miterlimit="10" stroke-width="1.5"/>
          <path id="Trazado_1037702" data-name="Trazado 1037702" d="M210.854,210.056a3.314,3.314,0,0,1-5.177,0" transform="translate(-161.067 -164.898)" fill="none" stroke="#000" stroke-linecap="round" stroke-linejoin="round" stroke-miterlimit="10" stroke-width="1.5"/>
          <path id="Trazado_1037703" data-name="Trazado 1037703" d="M438.3,411.772h4.411a1.586,1.586,0,0,0,1.586-1.586v-12.65a1.586,1.586,0,0,0-1.586-1.586H438.3a1.586,1.586,0,0,0-1.586,1.586v12.65A1.586,1.586,0,0,0,438.3,411.772Z" transform="translate(-340.094 -308.947)" fill="none" stroke="#000" stroke-linecap="round" stroke-linejoin="round" stroke-miterlimit="10" stroke-width="1.5"/>
          <path id="Trazado_1037704" data-name="Trazado 1037704" d="M365.049,306.863v12.725a6.753,6.753,0,0,1-6.753,6.753h-27a6.753,6.753,0,0,1-6.753-6.753V281.906a6.753,6.753,0,0,1,6.753-6.753h27a6.753,6.753,0,0,1,6.753,6.753v17.079" transform="translate(-253.173 -215.342)" fill="none" stroke="#000" stroke-linecap="round" stroke-linejoin="round" stroke-miterlimit="10" stroke-width="1.5"/>
          <path id="Trazado_1037705" data-name="Trazado 1037705" d="M381.961,321.618h-21.48a1.838,1.838,0,0,1-1.838-1.838v-8.592a1.838,1.838,0,0,1,1.838-1.838h21.48a1.838,1.838,0,0,1,1.838,1.838v8.592A1.838,1.838,0,0,1,381.961,321.618Z" transform="translate(-279.6 -241.841)" fill="none" stroke="#000" stroke-linecap="round" stroke-linejoin="round" stroke-miterlimit="10" stroke-width="1.5"/>
          <line id="Línea_859" data-name="Línea 859" x2="2.266" transform="translate(79.043 87.498)" fill="none" stroke="#000" stroke-linecap="round" stroke-linejoin="round" stroke-miterlimit="10" stroke-width="1.5"/>
          <line id="Línea_860" data-name="Línea 860" x2="2.266" transform="translate(87.712 87.498)" fill="none" stroke="#000" stroke-linecap="round" stroke-linejoin="round" stroke-miterlimit="10" stroke-width="1.5"/>
          <line id="Línea_861" data-name="Línea 861" x2="2.266" transform="translate(79.043 95.266)" fill="none" stroke="#000" stroke-linecap="round" stroke-linejoin="round" stroke-miterlimit="10" stroke-width="1.5"/>
          <line id="Línea_862" data-name="Línea 862" x2="2.266" transform="translate(87.712 95.266)" fill="none" stroke="#000" stroke-linecap="round" stroke-linejoin="round" stroke-miterlimit="10" stroke-width="1.5"/>
          <line id="Línea_863" data-name="Línea 863" x2="2.266" transform="translate(79.043 103.033)" fill="none" stroke="#000" stroke-linecap="round" stroke-linejoin="round" stroke-miterlimit="10" stroke-width="1.5"/>
          <line id="Línea_864" data-name="Línea 864" x2="2.266" transform="translate(87.712 103.033)" fill="none" stroke="#000" stroke-linecap="round" stroke-linejoin="round" stroke-miterlimit="10" stroke-width="1.5"/>
        </g>
      </g>
    </g>
  </g>
</svg>
