<svg xmlns="http://www.w3.org/2000/svg" xmlns:xlink="http://www.w3.org/1999/xlink" width="113" height="113" viewBox="0 0 113 113">
  <defs>
    <filter id="Trazado_982547" x="0" y="0" width="113" height="113" filterUnits="userSpaceOnUse">
      <feOffset dy="3" input="SourceAlpha"/>
      <feGaussianBlur stdDeviation="3" result="blur"/>
      <feFlood flood-opacity="0.161"/>
      <feComposite operator="in" in2="blur"/>
      <feComposite in="SourceGraphic"/>
    </filter>
  </defs>
  <g id="Grupo_1176655" data-name="Grupo 1176655" transform="translate(-324.381 -4789.98)">
    <g id="Grupo_1176420" data-name="Grupo 1176420" transform="translate(333.381 4795.98)">
      <g id="Grupo_1172014" data-name="Grupo 1172014">
        <g id="Grupo_1167343" data-name="Grupo 1167343" transform="translate(0)">
          <g id="Grupo_1166777" data-name="Grupo 1166777" transform="translate(0)">
            <g id="Grupo_1164305" data-name="Grupo 1164305">
              <g id="Grupo_1163948" data-name="Grupo 1163948">
                <g id="Grupo_1158168" data-name="Grupo 1158168">
                  <g id="Grupo_1152576" data-name="Grupo 1152576">
                    <g id="Grupo_1148633" data-name="Grupo 1148633">
                      <g id="Grupo_1148525" data-name="Grupo 1148525">
                        <g transform="matrix(1, 0, 0, 1, -9, -6)" filter="url(#Trazado_982547)">
                          <g id="Trazado_982547-2" data-name="Trazado 982547" transform="translate(9 6)" fill="#f2f7e5">
                            <path d="M 47.5 93.5 C 41.28937149047852 93.5 35.26533508300781 92.28397369384766 29.59518623352051 89.88570404052734 C 24.11771965026855 87.56893157958984 19.19813346862793 84.25196075439453 14.97309303283691 80.02691650390625 C 10.74804019927979 75.80186462402344 7.431066513061523 70.88229370117188 5.114293098449707 65.40481567382812 C 2.716026782989502 59.73468017578125 1.5 53.71062850952148 1.5 47.5 C 1.5 41.28937149047852 2.716026782989502 35.26533508300781 5.114293098449707 29.59518623352051 C 7.431066513061523 24.11771965026855 10.74804019927979 19.19813346862793 14.97309303283691 14.97309303283691 C 19.19813346862793 10.74804019927979 24.11771965026855 7.431066513061523 29.59518623352051 5.114293098449707 C 35.26533508300781 2.716026782989502 41.28937149047852 1.5 47.5 1.5 C 53.71062850952148 1.5 59.73468017578125 2.716026782989502 65.40481567382812 5.114293098449707 C 70.88229370117188 7.431066513061523 75.80186462402344 10.74804019927979 80.02691650390625 14.97309303283691 C 84.25196075439453 19.19813346862793 87.56893157958984 24.11771965026855 89.88570404052734 29.59518623352051 C 92.28397369384766 35.26533508300781 93.5 41.28937149047852 93.5 47.5 C 93.5 53.71062850952148 92.28397369384766 59.73468017578125 89.88570404052734 65.40481567382812 C 87.56893157958984 70.88229370117188 84.25196075439453 75.80186462402344 80.02691650390625 80.02691650390625 C 75.80186462402344 84.25196075439453 70.88229370117188 87.56893157958984 65.40481567382812 89.88570404052734 C 59.73468017578125 92.28397369384766 53.71062850952148 93.5 47.5 93.5 Z" stroke="none"/>
                            <path d="M 47.5 3 C 41.49121475219727 3 35.66376876831055 4.176155090332031 30.17950439453125 6.495796203613281 C 24.88084411621094 8.736953735351562 20.12152099609375 11.94598388671875 16.03375244140625 16.03375244140625 C 11.94598388671875 20.12152099609375 8.736953735351562 24.88084411621094 6.495796203613281 30.17950439453125 C 4.176155090332031 35.66376876831055 3 41.49121475219727 3 47.5 C 3 53.50878524780273 4.176155090332031 59.33624649047852 6.495796203613281 64.82049560546875 C 8.736953735351562 70.11917114257812 11.94598388671875 74.87849426269531 16.03375244140625 78.96626281738281 C 20.12152099609375 83.05403137207031 24.88084411621094 86.2630615234375 30.17950439453125 88.50419616699219 C 35.66376876831055 90.82384490966797 41.49121475219727 92 47.5 92 C 53.50878524780273 92 59.33624649047852 90.82384490966797 64.82049560546875 88.50419616699219 C 70.11917114257812 86.2630615234375 74.87849426269531 83.05403137207031 78.96626281738281 78.96626281738281 C 83.05403137207031 74.87849426269531 86.2630615234375 70.11917114257812 88.50419616699219 64.82049560546875 C 90.82384490966797 59.33624649047852 92 53.50878524780273 92 47.5 C 92 41.49121475219727 90.82384490966797 35.66376876831055 88.50419616699219 30.17950439453125 C 86.2630615234375 24.88084411621094 83.05403137207031 20.12152099609375 78.96626281738281 16.03375244140625 C 74.87849426269531 11.94598388671875 70.11917114257812 8.736953735351562 64.82049560546875 6.495796203613281 C 59.33624649047852 4.176155090332031 53.50878524780273 3 47.5 3 M 47.5 0 C 73.73353576660156 0 95 21.2664794921875 95 47.5 C 95 73.73353576660156 73.73353576660156 95 47.5 95 C 21.2664794921875 95 0 73.73353576660156 0 47.5 C 0 21.2664794921875 21.2664794921875 0 47.5 0 Z" stroke="none" fill="#86b60c"/>
                          </g>
                        </g>
                      </g>
                    </g>
                  </g>
                </g>
              </g>
            </g>
          </g>
        </g>
      </g>
    </g>
    <g id="comparative_3201442" transform="translate(352.311 4814.408)">
      <g id="Grupo_1176653" data-name="Grupo 1176653" transform="translate(1.893 1.797)">
        <g id="Grupo_1176642" data-name="Grupo 1176642" transform="translate(0 21.436)">
          <path id="Trazado_1036728" data-name="Trazado 1036728" d="M2,56.272V25.9H27.009V56.272a1.792,1.792,0,0,1-1.786,1.786H3.786A1.792,1.792,0,0,1,2,56.272Z" transform="translate(-2 -25.904)" fill="#e6e9ed"/>
        </g>
        <g id="Grupo_1176643" data-name="Grupo 1176643" transform="translate(28.582 21.436)">
          <path id="Trazado_1036729" data-name="Trazado 1036729" d="M59.009,25.9V56.272a1.792,1.792,0,0,1-1.786,1.786H35.786A1.792,1.792,0,0,1,34,56.272V25.9Z" transform="translate(-34 -25.904)" fill="#e6e9ed"/>
        </g>
        <g id="Grupo_1176644" data-name="Grupo 1176644" transform="translate(28.582 14.291)">
          <path id="Trazado_1036730" data-name="Trazado 1036730" d="M34,21.3A8.9,8.9,0,0,0,39.35,17.9H57.223a1.792,1.792,0,0,1,1.786,1.786v5.359H34Z" transform="translate(-34 -17.904)" fill="#5cd6b3"/>
        </g>
        <g id="Grupo_1176645" data-name="Grupo 1176645" transform="translate(0 14.291)">
          <path id="Trazado_1036731" data-name="Trazado 1036731" d="M2,25.049V19.69A1.792,1.792,0,0,1,3.786,17.9H21.659a8.9,8.9,0,0,0,5.35,3.394v3.751Z" transform="translate(-2 -17.904)" fill="#5cd6b3"/>
        </g>
        <g id="Grupo_1176646" data-name="Grupo 1176646" transform="translate(46.446 25.009)">
          <path id="Trazado_1036732" data-name="Trazado 1036732" d="M54,29.9h3.573V44.195H54Z" transform="translate(-54 -29.904)" fill="#ffeaa7"/>
        </g>
        <g id="Grupo_1176647" data-name="Grupo 1176647" transform="translate(39.3 28.582)">
          <path id="Trazado_1036733" data-name="Trazado 1036733" d="M46,33.9h3.573V44.622H46Z" transform="translate(-46 -33.904)" fill="#ffeaa7"/>
        </g>
        <g id="Grupo_1176648" data-name="Grupo 1176648" transform="translate(32.155 32.155)">
          <path id="Trazado_1036734" data-name="Trazado 1036734" d="M38,37.9h3.573v7.145H38Z" transform="translate(-38 -37.904)" fill="#ffeaa7"/>
        </g>
        <g id="Grupo_1176649" data-name="Grupo 1176649" transform="translate(17.864 32.155)">
          <path id="Trazado_1036735" data-name="Trazado 1036735" d="M22,37.9h3.573v7.145H22Z" transform="translate(-22 -37.904)" fill="#ffeaa7"/>
        </g>
        <g id="Grupo_1176650" data-name="Grupo 1176650" transform="translate(10.718 25.009)">
          <path id="Trazado_1036736" data-name="Trazado 1036736" d="M14,29.9h3.573V44.195H14Z" transform="translate(-14 -29.904)" fill="#ffeaa7"/>
        </g>
        <g id="Grupo_1176651" data-name="Grupo 1176651" transform="translate(3.573 30.368)">
          <path id="Trazado_1036737" data-name="Trazado 1036737" d="M6,35.9H9.573v8.932H6Z" transform="translate(-6 -35.904)" fill="#ffeaa7"/>
        </g>
        <g id="Grupo_1176652" data-name="Grupo 1176652" transform="translate(17.864)">
          <path id="Trazado_1036738" data-name="Trazado 1036738" d="M39.864,10.836a8.96,8.96,0,0,1-7.145,8.753A8.911,8.911,0,0,1,23.8,16.195a8.929,8.929,0,1,1,16.068-5.359Z" transform="translate(-22 -1.904)" fill="#fcd770"/>
        </g>
      </g>
      <g id="Grupo_1176654" data-name="Grupo 1176654" transform="translate(1 0.904)">
        <path id="Trazado_1036739" data-name="Trazado 1036739" d="M30.68,8.477h1.786a.894.894,0,0,1,.893.893h1.786a2.683,2.683,0,0,0-2.68-2.68V4.9H30.68V6.69a2.68,2.68,0,1,0,0,5.359h1.786a.893.893,0,1,1,0,1.786H30.68a.894.894,0,0,1-.893-.893H28a2.683,2.683,0,0,0,2.68,2.68v1.786h1.786V15.622a2.68,2.68,0,1,0,0-5.359H30.68a.893.893,0,1,1,0-1.786Z" transform="translate(-3.884 -1.331)"/>
        <path id="Trazado_1036740" data-name="Trazado 1036740" d="M41,20.9h1.786V22.69H41Z" transform="translate(-5.273 -3.04)"/>
        <path id="Trazado_1036741" data-name="Trazado 1036741" d="M45,20.9h1.786V22.69H45Z" transform="translate(-5.7 -3.04)"/>
        <path id="Trazado_1036742" data-name="Trazado 1036742" d="M51.291,43.195H49.5V32.477H44.145V43.195H42.359V36.049H37v8.932H56.65V28.9H51.291Zm-10.718,0H38.786V37.836h1.786Zm5.359-8.932h1.786v8.932H45.932Zm7.145-3.573h1.786v12.5H53.077Z" transform="translate(-4.845 -3.895)"/>
        <path id="Trazado_1036743" data-name="Trazado 1036743" d="M19.291,43.195H17.5V28.9H12.145V43.195H10.359V34.263H5V44.981H24.65V36.049H19.291Zm-10.718,0H6.786V36.049H8.573Zm5.359-12.5h1.786v12.5H13.932Zm7.145,7.145h1.786v5.359H21.077Z" transform="translate(-1.427 -3.895)"/>
        <path id="Trazado_1036744" data-name="Trazado 1036744" d="M37,48.9h1.786V50.69H37Z" transform="translate(-4.845 -6.031)"/>
        <path id="Trazado_1036745" data-name="Trazado 1036745" d="M37,52.9h1.786V54.69H37Z" transform="translate(-4.845 -6.458)"/>
        <path id="Trazado_1036746" data-name="Trazado 1036746" d="M37,56.9h1.786V58.69H37Z" transform="translate(-4.845 -6.886)"/>
        <path id="Trazado_1036747" data-name="Trazado 1036747" d="M41,48.9H57.077V50.69H41Z" transform="translate(-5.273 -6.031)"/>
        <path id="Trazado_1036748" data-name="Trazado 1036748" d="M41,52.9H57.077V54.69H41Z" transform="translate(-5.273 -6.458)"/>
        <path id="Trazado_1036749" data-name="Trazado 1036749" d="M41,56.9H57.077V58.69H41Z" transform="translate(-5.273 -6.886)"/>
        <path id="Trazado_1036750" data-name="Trazado 1036750" d="M53.7,15.195H43.873v-2.68a2.683,2.683,0,0,0-2.68-2.68H38.468a9.82,9.82,0,0,0-19.559,0H16.184a2.683,2.683,0,0,0-2.68,2.68v2.68H3.68A2.683,2.683,0,0,0,1,17.875V53.6a2.683,2.683,0,0,0,2.68,2.68H25.116A2.683,2.683,0,0,0,27.8,53.6V20.509c.295.027.591.046.893.046s.6-.019.893-.046V53.6a2.683,2.683,0,0,0,2.68,2.68H53.7a2.683,2.683,0,0,0,2.68-2.68V17.875A2.683,2.683,0,0,0,53.7,15.195Zm-11.611-2.68v2.68H37.429a9.753,9.753,0,0,0,1.04-3.573h2.724A.894.894,0,0,1,42.086,12.515Zm-26.8,0a.894.894,0,0,1,.893-.893h2.725a9.736,9.736,0,0,0,1.04,3.573H15.291ZM25.116,54.5H3.68a.894.894,0,0,1-.893-.893V24.127H26.009V53.6A.894.894,0,0,1,25.116,54.5Zm.893-32.155H2.786V17.875a.894.894,0,0,1,.893-.893H21.115a9.851,9.851,0,0,0,4.894,3.192ZM20.65,10.729a8.039,8.039,0,1,1,8.039,8.039A8.047,8.047,0,0,1,20.65,10.729Zm12.5,8.741v1.084h1.786V18.768H34.32a9.916,9.916,0,0,0,1.942-1.786H53.7a.894.894,0,0,1,.893.893V22.34H31.368V20.174A9.738,9.738,0,0,0,33.155,19.47ZM53.7,54.5H32.261a.894.894,0,0,1-.893-.893V24.127H54.591V53.6A.894.894,0,0,1,53.7,54.5Z" transform="translate(-1 -0.904)"/>
        <path id="Trazado_1036751" data-name="Trazado 1036751" d="M13,20.9h1.786V22.69H13Z" transform="translate(-2.282 -3.04)"/>
        <path id="Trazado_1036752" data-name="Trazado 1036752" d="M5,20.9H6.786V22.69H5Z" transform="translate(-1.427 -3.04)"/>
        <path id="Trazado_1036753" data-name="Trazado 1036753" d="M9,20.9h1.786V22.69H9Z" transform="translate(-1.855 -3.04)"/>
        <path id="Trazado_1036754" data-name="Trazado 1036754" d="M5,48.9H6.786V50.69H5Z" transform="translate(-1.427 -6.031)"/>
        <path id="Trazado_1036755" data-name="Trazado 1036755" d="M5,52.9H6.786V54.69H5Z" transform="translate(-1.427 -6.458)"/>
        <path id="Trazado_1036756" data-name="Trazado 1036756" d="M5,56.9H6.786V58.69H5Z" transform="translate(-1.427 -6.886)"/>
        <path id="Trazado_1036757" data-name="Trazado 1036757" d="M9,48.9H25.077V50.69H9Z" transform="translate(-1.855 -6.031)"/>
        <path id="Trazado_1036758" data-name="Trazado 1036758" d="M9,52.9H25.077V54.69H9Z" transform="translate(-1.855 -6.458)"/>
        <path id="Trazado_1036759" data-name="Trazado 1036759" d="M9,56.9H25.077V58.69H9Z" transform="translate(-1.855 -6.886)"/>
      </g>
    </g>
  </g>
</svg>
