<svg xmlns="http://www.w3.org/2000/svg" xmlns:xlink="http://www.w3.org/1999/xlink" width="113" height="113" viewBox="0 0 113 113">
  <defs>
    <filter id="Trazado_982547" x="0" y="0" width="113" height="113" filterUnits="userSpaceOnUse">
      <feOffset dy="3" input="SourceAlpha"/>
      <feGaussianBlur stdDeviation="3" result="blur"/>
      <feFlood flood-opacity="0.161"/>
      <feComposite operator="in" in2="blur"/>
      <feComposite in="SourceGraphic"/>
    </filter>
  </defs>
  <g id="Grupo_1176431" data-name="Grupo 1176431" transform="translate(-272 -5222.553)">
    <g id="Grupo_1172014" data-name="Grupo 1172014" transform="translate(281 5228.553)">
      <g id="Grupo_1167343" data-name="Grupo 1167343" transform="translate(0)">
        <g id="Grupo_1166777" data-name="Grupo 1166777" transform="translate(0)">
          <g id="Grupo_1164305" data-name="Grupo 1164305">
            <g id="Grupo_1163948" data-name="Grupo 1163948">
              <g id="Grupo_1158168" data-name="Grupo 1158168">
                <g id="Grupo_1152576" data-name="Grupo 1152576">
                  <g id="Grupo_1148633" data-name="Grupo 1148633">
                    <g id="Grupo_1148525" data-name="Grupo 1148525">
                      <g transform="matrix(1, 0, 0, 1, -9, -6)" filter="url(#Trazado_982547)">
                        <g id="Trazado_982547-2" data-name="Trazado 982547" transform="translate(9 6)" fill="#f2f7e5">
                          <path d="M 47.5 93.5 C 41.28937149047852 93.5 35.26533508300781 92.28397369384766 29.59518623352051 89.88570404052734 C 24.11771965026855 87.56893157958984 19.19813346862793 84.25196075439453 14.97309303283691 80.02691650390625 C 10.74804019927979 75.80186462402344 7.431066513061523 70.88229370117188 5.114293098449707 65.40481567382812 C 2.716026782989502 59.73468017578125 1.5 53.71062850952148 1.5 47.5 C 1.5 41.28937149047852 2.716026782989502 35.26533508300781 5.114293098449707 29.59518623352051 C 7.431066513061523 24.11771965026855 10.74804019927979 19.19813346862793 14.97309303283691 14.97309303283691 C 19.19813346862793 10.74804019927979 24.11771965026855 7.431066513061523 29.59518623352051 5.114293098449707 C 35.26533508300781 2.716026782989502 41.28937149047852 1.5 47.5 1.5 C 53.71062850952148 1.5 59.73468017578125 2.716026782989502 65.40481567382812 5.114293098449707 C 70.88229370117188 7.431066513061523 75.80186462402344 10.74804019927979 80.02691650390625 14.97309303283691 C 84.25196075439453 19.19813346862793 87.56893157958984 24.11771965026855 89.88570404052734 29.59518623352051 C 92.28397369384766 35.26533508300781 93.5 41.28937149047852 93.5 47.5 C 93.5 53.71062850952148 92.28397369384766 59.73468017578125 89.88570404052734 65.40481567382812 C 87.56893157958984 70.88229370117188 84.25196075439453 75.80186462402344 80.02691650390625 80.02691650390625 C 75.80186462402344 84.25196075439453 70.88229370117188 87.56893157958984 65.40481567382812 89.88570404052734 C 59.73468017578125 92.28397369384766 53.71062850952148 93.5 47.5 93.5 Z" stroke="none"/>
                          <path d="M 47.5 3 C 41.49121475219727 3 35.66376876831055 4.176155090332031 30.17950439453125 6.495796203613281 C 24.88084411621094 8.736953735351562 20.12152099609375 11.94598388671875 16.03375244140625 16.03375244140625 C 11.94598388671875 20.12152099609375 8.736953735351562 24.88084411621094 6.495796203613281 30.17950439453125 C 4.176155090332031 35.66376876831055 3 41.49121475219727 3 47.5 C 3 53.50878524780273 4.176155090332031 59.33624649047852 6.495796203613281 64.82049560546875 C 8.736953735351562 70.11917114257812 11.94598388671875 74.87849426269531 16.03375244140625 78.96626281738281 C 20.12152099609375 83.05403137207031 24.88084411621094 86.2630615234375 30.17950439453125 88.50419616699219 C 35.66376876831055 90.82384490966797 41.49121475219727 92 47.5 92 C 53.50878524780273 92 59.33624649047852 90.82384490966797 64.82049560546875 88.50419616699219 C 70.11917114257812 86.2630615234375 74.87849426269531 83.05403137207031 78.96626281738281 78.96626281738281 C 83.05403137207031 74.87849426269531 86.2630615234375 70.11917114257812 88.50419616699219 64.82049560546875 C 90.82384490966797 59.33624649047852 92 53.50878524780273 92 47.5 C 92 41.49121475219727 90.82384490966797 35.66376876831055 88.50419616699219 30.17950439453125 C 86.2630615234375 24.88084411621094 83.05403137207031 20.12152099609375 78.96626281738281 16.03375244140625 C 74.87849426269531 11.94598388671875 70.11917114257812 8.736953735351562 64.82049560546875 6.495796203613281 C 59.33624649047852 4.176155090332031 53.50878524780273 3 47.5 3 M 47.5 0 C 73.73353576660156 0 95 21.2664794921875 95 47.5 C 95 73.73353576660156 73.73353576660156 95 47.5 95 C 21.2664794921875 95 0 73.73353576660156 0 47.5 C 0 21.2664794921875 21.2664794921875 0 47.5 0 Z" stroke="none" fill="#86b60c"/>
                        </g>
                      </g>
                    </g>
                  </g>
                </g>
              </g>
            </g>
          </g>
        </g>
      </g>
    </g>
    <g id="economic-indicators_18096510" transform="translate(297.737 5207.751)">
      <g id="Grupo_1177190" data-name="Grupo 1177190" transform="translate(1.279 41.601)">
        <g id="Grupo_1177162" data-name="Grupo 1177162" transform="translate(1.813 25.985)">
          <path id="Trazado_1037706" data-name="Trazado 1037706" d="M22.381,266.839h7.4v15.57h-7.4Z" transform="translate(-22.381 -266.839)" fill="#9255e3" fill-rule="evenodd"/>
        </g>
        <g id="Grupo_1177163" data-name="Grupo 1177163" transform="translate(13.922 20.4)">
          <path id="Trazado_1037707" data-name="Trazado 1037707" d="M124.618,219.687h7.394v16.285h-7.394Z" transform="translate(-124.618 -219.687)" fill="#14cfff" fill-rule="evenodd"/>
        </g>
        <g id="Grupo_1177164" data-name="Grupo 1177164" transform="translate(26.028 15.563)">
          <path id="Trazado_1037708" data-name="Trazado 1037708" d="M226.828,178.854h7.394v25.991h-7.394Z" transform="translate(-226.828 -178.854)" fill="#94e368" fill-rule="evenodd"/>
        </g>
        <g id="Grupo_1177165" data-name="Grupo 1177165" transform="translate(30.922 15.563)">
          <path id="Trazado_1037709" data-name="Trazado 1037709" d="M268.142,178.854h2.5v25.991h-2.5Z" transform="translate(-268.142 -178.854)" fill="#61ce5b" fill-rule="evenodd"/>
        </g>
        <g id="Grupo_1177166" data-name="Grupo 1177166" transform="translate(18.816 20.4)">
          <path id="Trazado_1037710" data-name="Trazado 1037710" d="M165.933,219.687h2.5v16.285h-2.5Z" transform="translate(-165.933 -219.687)" fill="#28abfa" fill-rule="evenodd"/>
        </g>
        <g id="Grupo_1177167" data-name="Grupo 1177167" transform="translate(6.709 25.985)">
          <path id="Trazado_1037711" data-name="Trazado 1037711" d="M63.723,266.839h2.5v15.57h-2.5Z" transform="translate(-63.723 -266.839)" fill="#793bcc" fill-rule="evenodd"/>
        </g>
        <g id="Grupo_1177168" data-name="Grupo 1177168" transform="translate(0 31.21)">
          <path id="Trazado_1037712" data-name="Trazado 1037712" d="M34.668,328.575a9.97,9.97,0,1,0-19.94,0H7.079a17.619,17.619,0,0,1,35.238,0Z" transform="translate(-7.079 -310.958)" fill="#e9eef2" fill-rule="evenodd"/>
        </g>
        <g id="Grupo_1177169" data-name="Grupo 1177169" transform="translate(37.554 41.524)">
          <path id="Trazado_1037713" data-name="Trazado 1037713" d="M325.749,398.036h18.181a1.622,1.622,0,0,1,1.618,1.614V404.3a1.62,1.62,0,0,1-1.618,1.614H325.749a1.617,1.617,0,0,1-1.614-1.614V399.65A1.619,1.619,0,0,1,325.749,398.036Z" transform="translate(-324.135 -398.036)" fill="#ffd039" fill-rule="evenodd"/>
        </g>
        <g id="Grupo_1177170" data-name="Grupo 1177170" transform="translate(37.554 33.644)">
          <path id="Trazado_1037714" data-name="Trazado 1037714" d="M325.749,331.5h18.181a1.623,1.623,0,0,1,1.618,1.618v4.645a1.623,1.623,0,0,1-1.618,1.618H325.749a1.62,1.62,0,0,1-1.614-1.618V333.12A1.62,1.62,0,0,1,325.749,331.5Z" transform="translate(-324.135 -331.502)" fill="#ffd039" fill-rule="evenodd"/>
        </g>
        <g id="Grupo_1177171" data-name="Grupo 1177171" transform="translate(37.554 25.767)">
          <path id="Trazado_1037715" data-name="Trazado 1037715" d="M325.749,265h18.181a1.623,1.623,0,0,1,1.618,1.618v4.645a1.62,1.62,0,0,1-1.618,1.614H325.749a1.617,1.617,0,0,1-1.614-1.614v-4.645A1.62,1.62,0,0,1,325.749,265Z" transform="translate(-324.135 -264.997)" fill="#ffd039" fill-rule="evenodd"/>
        </g>
        <g id="Grupo_1177172" data-name="Grupo 1177172" transform="translate(37.554 17.889)">
          <path id="Trazado_1037716" data-name="Trazado 1037716" d="M325.749,198.491h18.181a1.62,1.62,0,0,1,1.618,1.614v4.648a1.622,1.622,0,0,1-1.618,1.614H325.749a1.619,1.619,0,0,1-1.614-1.614v-4.648A1.617,1.617,0,0,1,325.749,198.491Z" transform="translate(-324.135 -198.491)" fill="#ffd039" fill-rule="evenodd"/>
        </g>
        <g id="Grupo_1177173" data-name="Grupo 1177173" transform="translate(37.661 0)">
          <path id="Trazado_1037717" data-name="Trazado 1037717" d="M335.641,68.653a10.6,10.6,0,1,0-10.6-10.6A10.616,10.616,0,0,0,335.641,68.653Z" transform="translate(-325.042 -47.458)" fill="#f99608" fill-rule="evenodd"/>
        </g>
        <g id="Grupo_1177174" data-name="Grupo 1177174" transform="translate(40.806 3.142)">
          <path id="Trazado_1037718" data-name="Trazado 1037718" d="M359.047,88.89a7.454,7.454,0,1,0-7.454-7.454A7.468,7.468,0,0,0,359.047,88.89Z" transform="translate(-351.593 -73.981)" fill="#ffd039" fill-rule="evenodd"/>
        </g>
        <g id="Grupo_1177175" data-name="Grupo 1177175" transform="translate(0 36.369)">
          <path id="Trazado_1037719" data-name="Trazado 1037719" d="M12.24,354.512a17.557,17.557,0,0,0-5.162,12.459h7.649a9.935,9.935,0,0,1,2.92-7.052l-1.359-1.359Z" transform="translate(-7.078 -354.512)" fill="#3183e8" fill-rule="evenodd"/>
        </g>
        <g id="Grupo_1177176" data-name="Grupo 1177176" transform="translate(5.162 31.21)">
          <path id="Trazado_1037720" data-name="Trazado 1037720" d="M50.66,316.117l4.048,4.048,1.359,1.359a9.927,9.927,0,0,1,7.048-2.92v-7.646a17.871,17.871,0,0,0-3.7.386,17.593,17.593,0,0,0-8.76,4.773Z" transform="translate(-50.66 -310.958)" fill="#06996f" fill-rule="evenodd"/>
        </g>
        <g id="Grupo_1177177" data-name="Grupo 1177177" transform="translate(17.617 31.21)">
          <path id="Trazado_1037721" data-name="Trazado 1037721" d="M155.817,310.958V318.6a9.929,9.929,0,0,1,7.052,2.92l1.359-1.359,4.048-4.048a17.593,17.593,0,0,0-8.76-4.773A17.892,17.892,0,0,0,155.817,310.958Z" transform="translate(-155.817 -310.958)" fill="#e6ae35" fill-rule="evenodd"/>
        </g>
        <g id="Grupo_1177178" data-name="Grupo 1177178" transform="translate(24.669 36.369)">
          <path id="Trazado_1037722" data-name="Trazado 1037722" d="M216.711,358.559l-1.359,1.359a9.935,9.935,0,0,1,2.92,7.052h7.649a17.594,17.594,0,0,0-5.162-12.459Z" transform="translate(-215.352 -354.511)" fill="#cc2f44" fill-rule="evenodd"/>
        </g>
        <g id="Grupo_1177179" data-name="Grupo 1177179" transform="translate(37.554 22.058)">
          <path id="Trazado_1037723" data-name="Trazado 1037723" d="M345.548,233.685v2.094a1.622,1.622,0,0,1-1.618,1.614H325.749a1.619,1.619,0,0,1-1.614-1.614v-2.094a1.62,1.62,0,0,0,1.614,1.618h18.181A1.623,1.623,0,0,0,345.548,233.685Z" transform="translate(-324.135 -233.685)" fill="#f99608" fill-rule="evenodd"/>
        </g>
        <g id="Grupo_1177180" data-name="Grupo 1177180" transform="translate(37.554 29.938)">
          <path id="Trazado_1037724" data-name="Trazado 1037724" d="M345.548,300.219v2.091a1.62,1.62,0,0,1-1.618,1.614H325.749a1.617,1.617,0,0,1-1.614-1.614v-2.091a1.617,1.617,0,0,0,1.614,1.614h18.181A1.62,1.62,0,0,0,345.548,300.219Z" transform="translate(-324.135 -300.219)" fill="#f99608" fill-rule="evenodd"/>
        </g>
        <g id="Grupo_1177181" data-name="Grupo 1177181" transform="translate(37.554 37.816)">
          <path id="Trazado_1037725" data-name="Trazado 1037725" d="M345.548,366.724v2.091a1.623,1.623,0,0,1-1.618,1.618H325.749a1.62,1.62,0,0,1-1.614-1.618v-2.091a1.62,1.62,0,0,0,1.614,1.618h18.181A1.623,1.623,0,0,0,345.548,366.724Z" transform="translate(-324.135 -366.724)" fill="#f99608" fill-rule="evenodd"/>
        </g>
        <g id="Grupo_1177182" data-name="Grupo 1177182" transform="translate(37.554 45.696)">
          <path id="Trazado_1037726" data-name="Trazado 1037726" d="M345.548,433.258v2.091a1.62,1.62,0,0,1-1.618,1.614H325.749a1.617,1.617,0,0,1-1.614-1.614v-2.091a1.617,1.617,0,0,0,1.614,1.614h18.181A1.62,1.62,0,0,0,345.548,433.258Z" transform="translate(-324.135 -433.258)" fill="#f99608" fill-rule="evenodd"/>
        </g>
        <g id="Grupo_1177183" data-name="Grupo 1177183" transform="translate(24.669 37.534)">
          <path id="Trazado_1037727" data-name="Trazado 1037727" d="M216.378,369.791l.332-.332,4.048-4.048q-.559-.559-1.165-1.067l-2.883,2.883-1.359,1.359A9.788,9.788,0,0,1,216.378,369.791Z" transform="translate(-215.351 -364.344)" fill="#ec5a6e" fill-rule="evenodd"/>
        </g>
        <g id="Grupo_1177184" data-name="Grupo 1177184" transform="translate(25.696 38.601)">
          <path id="Trazado_1037728" data-name="Trazado 1037728" d="M224.355,377.4l-.332.332a9.917,9.917,0,0,1,1.893,5.847h7.508a17.595,17.595,0,0,0-5.021-10.227Z" transform="translate(-224.023 -373.355)" fill="#ec5a6e" fill-rule="evenodd"/>
        </g>
        <g id="Grupo_1177185" data-name="Grupo 1177185" transform="translate(17.617 33.439)">
          <path id="Trazado_1037729" data-name="Trazado 1037729" d="M155.817,329.774v5.417a9.929,9.929,0,0,1,7.052,2.92l1.359-1.359,2.883-2.883a17.605,17.605,0,0,0-7.6-3.705A17.659,17.659,0,0,0,155.817,329.774Z" transform="translate(-155.817 -329.774)" fill="#feca57" fill-rule="evenodd"/>
        </g>
        <g id="Grupo_1177186" data-name="Grupo 1177186" transform="translate(6.327 33.439)">
          <path id="Trazado_1037730" data-name="Trazado 1037730" d="M71.785,335.191v-5.417a17.649,17.649,0,0,0-3.7.389,17.605,17.605,0,0,0-7.6,3.705l2.883,2.883,1.359,1.359A9.927,9.927,0,0,1,71.785,335.191Z" transform="translate(-60.494 -329.774)" fill="#15ba8b" fill-rule="evenodd"/>
        </g>
        <g id="Grupo_1177187" data-name="Grupo 1177187" transform="translate(0.141 38.601)">
          <path id="Trazado_1037731" data-name="Trazado 1037731" d="M13.29,373.355a17.541,17.541,0,0,0-5.021,10.227h7.508a9.917,9.917,0,0,1,1.893-5.847l-.332-.332Z" transform="translate(-8.269 -373.355)" fill="#54a0ff" fill-rule="evenodd"/>
        </g>
        <g id="Grupo_1177188" data-name="Grupo 1177188" transform="translate(5.162 37.534)">
          <path id="Trazado_1037732" data-name="Trazado 1037732" d="M50.66,365.411l4.048,4.048.332.332a9.785,9.785,0,0,1,1.027-1.2l-1.359-1.359-2.883-2.883Q51.221,364.852,50.66,365.411Z" transform="translate(-50.66 -364.344)" fill="#54a0ff" fill-rule="evenodd"/>
        </g>
        <g id="Grupo_1177189" data-name="Grupo 1177189" transform="translate(47.297 0)">
          <path id="Trazado_1037733" data-name="Trazado 1037733" d="M407.358,47.458a10.6,10.6,0,0,1,0,21.2c-.326,0-.648-.017-.963-.044a10.6,10.6,0,0,0,0-21.108C406.711,47.472,407.033,47.458,407.358,47.458Z" transform="translate(-406.395 -47.458)" fill="#e07f00" fill-rule="evenodd"/>
        </g>
      </g>
      <path id="Trazado_1037734" data-name="Trazado 1037734" d="M2.309,77.234v-9.65a.828.828,0,0,1,.828-.828h7.385a.828.828,0,0,1,.828.828v4.048a.828.828,0,0,1-1.655,0v-3.22H3.965v8.823a.828.828,0,0,1-1.655,0ZM22.609,71a.828.828,0,0,0,.828-.828V62.008a.828.828,0,0,0-.828-.828H15.227a.828.828,0,0,0-.828.828v8.166a.828.828,0,0,0,1.655,0V62.835h5.726v7.338a.828.828,0,0,0,.828.828Zm12.086,7.057a.828.828,0,0,0,.828-.828V57.179a.828.828,0,0,0-.828-.828H27.313a.828.828,0,0,0-.828.828V71.631a.828.828,0,0,0,1.655,0V58.007h5.726V77.23a.828.828,0,0,0,.828.828Zm-2.668-.587a18.355,18.355,0,0,1,5.3,12.918.828.828,0,0,1-.828.828H28.871a.828.828,0,0,1-.828-.828,9.126,9.126,0,1,0-18.252,0,.828.828,0,0,1-.828.828H1.328A.828.828,0,0,1,.5,90.389,18.356,18.356,0,0,1,5.818,77.457a.748.748,0,0,1,.17-.17,18.382,18.382,0,0,1,25.847-.01.822.822,0,0,1,.105.088A.814.814,0,0,1,32.027,77.471Zm-1.865.5a16.7,16.7,0,0,0-10.418-4.324v5.992a10.735,10.735,0,0,1,6.185,2.565ZM18.088,79.641V73.649A16.7,16.7,0,0,0,7.672,77.971l4.234,4.234A10.73,10.73,0,0,1,18.088,79.641Zm-7.352,3.736L6.5,79.141a16.7,16.7,0,0,0-4.325,10.42H8.168A10.735,10.735,0,0,1,10.737,83.377Zm24.92,6.184a16.7,16.7,0,0,0-4.324-10.418L27.1,83.378a10.734,10.734,0,0,1,2.569,6.184h5.989ZM4.716,63.094a.824.824,0,0,0,.343-.075L34.944,49.389l-1.312,3.6a.828.828,0,1,0,1.555.566L37.175,48.1a.828.828,0,0,0-.494-1.061l-5.459-1.99a.828.828,0,1,0-.567,1.555l3.56,1.3L4.372,61.513a.828.828,0,0,0,.344,1.581Zm56.31,2.657a2.43,2.43,0,0,1-.614,1.615,2.425,2.425,0,0,1,.614,1.612v4.641a2.425,2.425,0,0,1-.614,1.612,2.43,2.43,0,0,1,.614,1.615v4.637a2.43,2.43,0,0,1-.614,1.615,2.425,2.425,0,0,1,.614,1.612V89.35a2.444,2.444,0,0,1-2.443,2.439H40.432a2.442,2.442,0,0,1-2.44-2.439V84.709a2.426,2.426,0,0,1,.614-1.612,2.432,2.432,0,0,1-.614-1.615V76.845a2.432,2.432,0,0,1,.614-1.615,2.426,2.426,0,0,1-.614-1.612V68.978a2.426,2.426,0,0,1,.614-1.612,2.432,2.432,0,0,1-.614-1.615V61.113A2.441,2.441,0,0,1,40.12,58.7a11.408,11.408,0,1,1,18.774,0,2.443,2.443,0,0,1,2.131,2.417v4.637ZM39.755,52.22a9.753,9.753,0,1,0,9.754-9.751A9.765,9.765,0,0,0,39.755,52.22Zm-.107,13.531a.787.787,0,0,0,.784.787H58.583a.788.788,0,0,0,.787-.787V61.113a.787.787,0,0,0-.787-.784H57.525a11.386,11.386,0,0,1-16.034,0H40.432a.785.785,0,0,0-.784.784v4.638Zm18.935,2.443H55.152v2.3a.828.828,0,0,1-1.655,0v-2.3H51.942v2.3a.828.828,0,0,1-1.655,0v-2.3H48.732v2.3a.828.828,0,0,1-1.655,0v-2.3H45.518v2.3a.828.828,0,0,1-1.655,0v-2.3H40.432a.785.785,0,0,0-.784.784v4.641a.785.785,0,0,0,.784.784H58.583a.787.787,0,0,0,.787-.784V68.978a.8.8,0,0,0-.787-.784Zm0,7.864H55.152v2.3a.828.828,0,1,1-1.655,0v-2.3H51.942v2.3a.828.828,0,1,1-1.655,0v-2.3H48.732v2.3a.828.828,0,1,1-1.655,0v-2.3H45.518v2.3a.828.828,0,1,1-1.655,0v-2.3H40.432a.787.787,0,0,0-.784.787v4.638a.787.787,0,0,0,.784.787H58.583a.788.788,0,0,0,.787-.787V76.845a.788.788,0,0,0-.787-.787Zm.787,8.652a.8.8,0,0,0-.787-.784H55.152v2.3a.828.828,0,0,1-1.655,0v-2.3H51.942v2.3a.828.828,0,0,1-1.655,0v-2.3H48.732v2.3a.828.828,0,0,1-1.655,0v-2.3H45.518v2.3a.828.828,0,0,1-1.655,0v-2.3H40.432a.785.785,0,0,0-.784.784V89.35a.785.785,0,0,0,.784.784H58.583a.787.787,0,0,0,.787-.784ZM41.239,52.22a8.27,8.27,0,1,1,8.27,8.27A8.279,8.279,0,0,1,41.239,52.22Zm1.655,0a6.614,6.614,0,1,0,6.614-6.614A6.622,6.622,0,0,0,42.894,52.22Zm5.787,2.473V52.961a2.475,2.475,0,0,1,0-4.94v-.79a.828.828,0,1,1,1.655,0v.79a2.673,2.673,0,0,1,2.315,2.47.828.828,0,1,1-1.655,0c0-.273-.251-.565-.66-.74v1.728a2.477,2.477,0,0,1,0,4.943v.79a.828.828,0,0,1-1.655,0v-.79a2.675,2.675,0,0,1-2.319-2.47.828.828,0,0,1,1.655,0c0,.273.252.565.663.741Zm1.655-1.484v1.478c.4-.176.66-.466.66-.735S50.746,53.386,50.337,53.21Zm-1.655-1.978V49.75c-.411.175-.663.468-.663.741S48.27,51.056,48.681,51.232Z" transform="translate(0)"/>
    </g>
  </g>
</svg>
