<svg xmlns="http://www.w3.org/2000/svg" xmlns:xlink="http://www.w3.org/1999/xlink" width="108" height="108" viewBox="0 0 108 108">
  <defs>
    <filter id="Trazado_904820" x="0" y="0" width="108" height="108" filterUnits="userSpaceOnUse">
      <feOffset dy="3" input="SourceAlpha"/>
      <feGaussianBlur stdDeviation="3" result="blur"/>
      <feFlood flood-opacity="0.161"/>
      <feComposite operator="in" in2="blur"/>
      <feComposite in="SourceGraphic"/>
    </filter>
  </defs>
  <g id="Grupo_1176393" data-name="Grupo 1176393" transform="translate(9 6)">
    <g id="Grupo_1173585" data-name="Grupo 1173585" transform="translate(0 0)">
      <g id="Grupo_1173428" data-name="Grupo 1173428">
        <g id="Grupo_1171958" data-name="Grupo 1171958">
          <g id="Grupo_1167341" data-name="Grupo 1167341">
            <g id="Grupo_1166792" data-name="Grupo 1166792">
              <g transform="matrix(1, 0, 0, 1, -9, -6)" filter="url(#Trazado_904820)">
                <g id="Trazado_904820-2" data-name="Trazado 904820" transform="translate(9 6)" fill="#e9f9fd">
                  <path d="M 44.99999618530273 88.50002288818359 C 39.12687301635742 88.50002288818359 33.43022155761719 87.35009765625 28.06829643249512 85.08218383789062 C 22.88852119445801 82.89133453369141 18.23629570007324 79.75460815429688 14.24084663391113 75.75916290283203 C 10.24540901184082 71.76371002197266 7.108683586120605 67.11148834228516 4.917821407318115 61.93171310424805 C 2.649921178817749 56.56978607177734 1.499996185302734 50.87313461303711 1.499996185302734 45.0000114440918 C 1.499996185302734 39.12688827514648 2.649921178817749 33.43023681640625 4.917821407318115 28.06829833984375 C 7.108683586120605 22.88852310180664 10.24540901184082 18.2363109588623 14.24084663391113 14.2408618927002 C 18.23629570007324 10.24541187286377 22.88852119445801 7.108686447143555 28.06829643249512 4.917823791503906 C 33.43022155761719 2.649924039840698 39.12687301635742 1.499998927116394 44.99999618530273 1.499998927116394 C 50.87311935424805 1.499998927116394 56.56977081298828 2.649924039840698 61.93169784545898 4.917823791503906 C 67.11147308349609 7.108686447143555 71.76369476318359 10.24541187286377 75.75914764404297 14.2408618927002 C 79.75458526611328 18.2363109588623 82.89131164550781 22.88852310180664 85.08216857910156 28.06829833984375 C 87.35007476806641 33.43023681640625 88.5 39.12688827514648 88.5 45.0000114440918 C 88.5 50.87313461303711 87.35007476806641 56.56978607177734 85.08216857910156 61.93171310424805 C 82.89131164550781 67.11148834228516 79.75458526611328 71.76371002197266 75.75914764404297 75.75916290283203 C 71.76369476318359 79.75460815429688 67.11147308349609 82.89133453369141 61.93169784545898 85.08218383789062 C 56.56977081298828 87.35009765625 50.87311935424805 88.50002288818359 44.99999618530273 88.50002288818359 Z" stroke="none"/>
                  <path d="M 44.99999618530273 3 C 39.32870864868164 3 33.82865142822266 4.110054016113281 28.65262603759766 6.299339294433594 C 23.65165710449219 8.414566040039062 19.15968322753906 11.44333648681641 15.301513671875 15.30152893066406 C 11.44333648681641 19.15969848632812 8.414566040039062 23.65165710449219 6.299339294433594 28.65264129638672 C 4.110054016113281 33.82866668701172 2.999992370605469 39.3287239074707 2.999992370605469 45.0000114440918 C 2.999992370605469 50.67129898071289 4.110054016113281 56.17135620117188 6.299339294433594 61.34738159179688 C 8.414566040039062 66.34836578369141 11.44333648681641 70.84032440185547 15.301513671875 74.69849395751953 C 19.15968322753906 78.55668640136719 23.65165710449219 81.58545684814453 28.65262603759766 83.70068359375 C 33.82865142822266 85.88996887207031 39.32870864868164 87.00002288818359 44.99999618530273 87.00002288818359 C 50.67128372192383 87.00002288818359 56.17134094238281 85.88996887207031 61.34736633300781 83.70068359375 C 66.34834289550781 81.58545684814453 70.84030914306641 78.55668640136719 74.69847869873047 74.69849395751953 C 78.55665588378906 70.84032440185547 81.58542633056641 66.34836578369141 83.70065307617188 61.34738159179688 C 85.88993835449219 56.17135620117188 87 50.67129898071289 87 45.0000114440918 C 87 39.3287239074707 85.88993835449219 33.82866668701172 83.70065307617188 28.65264129638672 C 81.58542633056641 23.65165710449219 78.55665588378906 19.15969848632812 74.69847869873047 15.30152893066406 C 70.84030914306641 11.44333648681641 66.34834289550781 8.414566040039062 61.34736633300781 6.299339294433594 C 56.17134094238281 4.110054016113281 50.67128372192383 3 44.99999618530273 3 M 44.99999618530273 0 C 69.85281372070312 0 90 20.14719390869141 90 45.0000114440918 C 90 69.85282897949219 69.85281372070312 90.00002288818359 44.99999618530273 90.00002288818359 C 20.14717864990234 90.00002288818359 -7.62939453125e-06 69.85282897949219 -7.62939453125e-06 45.0000114440918 C -7.62939453125e-06 20.14719390869141 20.14717864990234 0 44.99999618530273 0 Z" stroke="none" fill="#36ceef"/>
                </g>
              </g>
            </g>
          </g>
        </g>
      </g>
    </g>
    <g id="financial_17015191" transform="translate(20.668 20.269)">
      <g id="Grupo_1176339" data-name="Grupo 1176339" transform="translate(0.572 0.727)">
        <path id="Trazado_1035843" data-name="Trazado 1035843" d="M16.465,10.009c-.23,5.3-1.935,12.727-3.267,19.61a46.451,46.451,0,0,1-8.889,2.918,1.043,1.043,0,0,1-1.031-1.681c.079-.1.159-.206.238-.3a15.518,15.518,0,0,0,3.164-8.3c.174-2.553-.373-5.083-.563-7.636C5.4,4.895,9.4,2.754,12.54,2.754c3.211-.325,4.123,2.664,3.925,7.255Z" transform="translate(-3.042 -2.73)" fill="#3d68f8"/>
      </g>
      <g id="Grupo_1176340" data-name="Grupo 1176340" transform="translate(1.031 0.72)" opacity="0.1">
        <path id="Trazado_1035844" data-name="Trazado 1035844" d="M16.585,10.007a6.2,6.2,0,0,1-3.029.135,1.742,1.742,0,0,0-.111-2.22,1.63,1.63,0,0,0-2.062.1,2.978,2.978,0,0,0-.912,1.99,21.038,21.038,0,0,0,.024,2.236,3.816,3.816,0,0,1-.737,2.53A6.928,6.928,0,0,0,8.346,17.3c-.428,1.737.016,3.568-.048,5.352a9.766,9.766,0,0,1-4.678,7.89,15.518,15.518,0,0,0,3.164-8.3c.174-2.553-.373-5.083-.563-7.636C5.507,4.885,9.5,2.744,12.644,2.744,15.871,2.427,16.783,5.416,16.585,10.007Z" transform="translate(-3.62 -2.721)" fill="#1e1d26"/>
      </g>
      <g id="Grupo_1176341" data-name="Grupo 1176341" transform="translate(0.003 0.18)">
        <path id="Trazado_1035845" data-name="Trazado 1035845" d="M3.923,33a1.585,1.585,0,0,1-1.348-.753,1.623,1.623,0,0,1,.111-1.887A14.982,14.982,0,0,0,5.96,22.078a26.971,26.971,0,0,0-.293-4.988c-.1-.841-.206-1.7-.27-2.569C5.033,9.6,5.818,6.06,7.737,4A6.208,6.208,0,0,1,12.391,2.04a.571.571,0,1,1,0,1.142A5.091,5.091,0,0,0,8.577,4.776C6.888,6.6,6.2,9.843,6.539,14.434c.063.833.167,1.689.262,2.514a27.02,27.02,0,0,1,.293,5.2,16.054,16.054,0,0,1-3.521,8.929.47.47,0,0,0-.032.563.443.443,0,0,0,.492.206,44.7,44.7,0,0,0,8.778-2.886.575.575,0,1,1,.476,1.047,46.263,46.263,0,0,1-9,2.958A2.831,2.831,0,0,1,3.923,33Z" transform="translate(-2.324 -2.04)" fill="#1e1d26"/>
      </g>
      <g id="Grupo_1176342" data-name="Grupo 1176342" transform="translate(10.15 0.566)">
        <path id="Trazado_1035846" data-name="Trazado 1035846" d="M51.8,8.69a4.035,4.035,0,0,1-3.655,2.181L15.7,10.609a3.174,3.174,0,0,0,1.2-.555,4.682,4.682,0,0,0,1.578-1.982,4.067,4.067,0,0,0-.27-3.64A3.817,3.817,0,0,0,15.12,2.719c10.411-.19,19.189.008,29.6-.182a18.37,18.37,0,0,1,3.172.127l.381.071a5.3,5.3,0,0,1,3.061,1.713A4.022,4.022,0,0,1,51.8,8.69Z" transform="translate(-15.12 -2.526)" fill="#95cbfc"/>
      </g>
      <g id="Grupo_1176343" data-name="Grupo 1176343" transform="translate(10.729 0.712)" opacity="0.1">
        <path id="Trazado_1035847" data-name="Trazado 1035847" d="M51.953,8.728A4.035,4.035,0,0,1,48.3,10.909L15.85,10.647a3.174,3.174,0,0,0,1.2-.555,2.037,2.037,0,0,0,.317-.056,12.206,12.206,0,0,0,3.172-1.816A8.728,8.728,0,0,1,25.9,6.992c1.752.167,3.418.864,5.17,1.063a18.335,18.335,0,0,0,5.17-.4c2.3-.4,4.6-.8,6.9-1.205C44.721,6.167,46.458,5.8,47.4,4.5a3.555,3.555,0,0,0,.642-1.792l.381.071a5.3,5.3,0,0,1,3.061,1.713A4.007,4.007,0,0,1,51.953,8.728Z" transform="translate(-15.85 -2.71)" fill="#1e1d26"/>
      </g>
      <g id="Grupo_1176344" data-name="Grupo 1176344" transform="translate(9.579 0)">
        <path id="Trazado_1035848" data-name="Trazado 1035848" d="M48.124,11.3h-.143a.571.571,0,1,1,.032-1.142A3.455,3.455,0,0,0,51.137,8.3a3.438,3.438,0,0,0-.4-3.616,4.765,4.765,0,0,0-2.728-1.515,14.991,14.991,0,0,0-3.426-.19c-5.2.1-10.086.087-14.8.087-3.854,0-7.811-.008-11.966.048A3.794,3.794,0,0,1,18.547,4a4.649,4.649,0,0,1,.309,4.163,4.833,4.833,0,0,1-3.18,2.87.569.569,0,1,1-.254-1.11,3.75,3.75,0,0,0,2.379-2.2,3.5,3.5,0,0,0-.23-3.124,3.286,3.286,0,0,0-2.641-1.435.575.575,0,0,1-.531-.587.569.569,0,0,1,.563-.555c5.21-.1,10.086-.1,14.812-.1s9.587.008,14.789-.1a16.111,16.111,0,0,1,3.687.214,5.859,5.859,0,0,1,3.378,1.911A4.59,4.59,0,0,1,52.168,8.8a4.588,4.588,0,0,1-4.044,2.5Z" transform="translate(-14.4 -1.813)" fill="#1e1d26"/>
      </g>
      <g id="Grupo_1176345" data-name="Grupo 1176345" transform="translate(10.903 8.094)">
        <path id="Trazado_1035849" data-name="Trazado 1035849" d="M49.414,51.458c-.071-12.719-.1-25.81-.167-38.466-10.737,0-21.711-.254-32.447-.262.071,12.655.143,25.993.214,38.728A1.484,1.484,0,0,0,18.5,52.925c9.809-.063,19.633.087,29.45.024a1.477,1.477,0,0,0,1.459-1.491Z" transform="translate(-16.221 -12.167)" fill="#1e1d26"/>
        <path id="Trazado_1035850" data-name="Trazado 1035850" d="M42.428,53.388c-3.148,0-6.3-.016-9.373-.032-4.821-.024-9.809-.04-14.7-.008a2.058,2.058,0,0,1-2.07-2.038l-.214-38.72a.551.551,0,0,1,.167-.4.6.6,0,0,1,.4-.167c5.376,0,10.9.063,16.24.127s10.848.127,16.208.127a.569.569,0,0,1,.571.571c.04,6.574.063,13.274.087,19.966.024,6.193.048,12.394.079,18.5a2.058,2.058,0,0,1-2.038,2.062c-1.776.008-3.568.016-5.36.016ZM23.69,52.183c3.148,0,6.3.016,9.373.024,4.829.024,9.825.048,14.733.008a.91.91,0,0,0,.9-.912C48.668,45.2,48.644,39,48.621,32.8c-.024-6.5-.048-13-.087-19.4-5.186-.008-10.507-.071-15.653-.127s-10.467-.127-15.653-.127L17.434,51.3a.876.876,0,0,0,.27.634.971.971,0,0,0,.642.262c1.768-.008,3.56-.016,5.344-.016Z" transform="translate(-16.07 -12.02)" fill="#1e1d26"/>
      </g>
      <g id="Grupo_1176346" data-name="Grupo 1176346" transform="translate(10.808 9.164)">
        <path id="Trazado_1035851" data-name="Trazado 1035851" d="M48.564,52.09A1.484,1.484,0,0,1,47.1,53.58c-9.809.063-19.633-.087-29.45-.024A1.472,1.472,0,0,1,16.156,52.1q-.024-5.031-.056-10.166C16.045,32.385,16,22.7,15.95,13.37c9.912,0,20.022.214,29.966.254.833,0,1.657.008,2.482.008C48.469,26.279,48.5,39.371,48.564,52.09Z" transform="translate(-15.95 -13.37)" fill="#fff"/>
      </g>
      <g id="Grupo_1176347" data-name="Grupo 1176347" transform="translate(28.982 13.105)">
        <path id="Trazado_1035852" data-name="Trazado 1035852" d="M42.9,31.987V19.077a.736.736,0,0,0-.737-.737H39.607a.731.731,0,0,0-.737.737V31.987Z" transform="translate(-38.87 -18.34)" fill="#ffc94d"/>
      </g>
      <g id="Grupo_1176348" data-name="Grupo 1176348" transform="translate(33.018 18.886)">
        <path id="Trazado_1035853" data-name="Trazado 1035853" d="M47.988,32.759V26.367a.736.736,0,0,0-.737-.737H43.96V33.5h3.291A.743.743,0,0,0,47.988,32.759Z" transform="translate(-43.96 -25.63)" fill="#64c682"/>
      </g>
      <g id="Grupo_1176349" data-name="Grupo 1176349" transform="translate(10.879 8.911)" opacity="0.1">
        <path id="Trazado_1035854" data-name="Trazado 1035854" d="M48.5,51.524a1.484,1.484,0,0,1-1.467,1.491c-9.809.063-19.633-.087-29.45-.024A1.472,1.472,0,0,1,16.1,51.532q-.024-5.031-.056-10.166a18.9,18.9,0,0,0,10.7,1.6c3.124-.46,6.312-1.887,7.906-4.615,1.023-1.76,1.277-3.846,1.76-5.828s1.332-4.044,3.077-5.091c1.538-.92,3.576-.928,4.9-2.133,1.308-1.2,1.491-3.164,1.53-4.94q.1-3.652-.063-7.311c.833,0,1.657.008,2.482.008.079,12.655.111,25.747.174,38.466Z" transform="translate(-16.04 -13.05)" fill="#1e1d26"/>
      </g>
      <g id="Grupo_1176350" data-name="Grupo 1176350" transform="translate(10.15 8.094)">
        <path id="Trazado_1035855" data-name="Trazado 1035855" d="M41.478,53.388c-3.148,0-6.3-.016-9.373-.032-4.821-.024-9.809-.04-14.7-.008h-.016a2.014,2.014,0,0,1-1.443-.595,2.048,2.048,0,0,1-.611-1.443l-.214-38.72a.551.551,0,0,1,.167-.4.564.564,0,0,1,.4-.167c5.376,0,10.9.063,16.24.127s10.848.127,16.208.127a.569.569,0,0,1,.571.571c.04,6.581.063,13.282.087,19.982.024,6.185.048,12.378.079,18.484a2.052,2.052,0,0,1-2.038,2.062c-1.768.008-3.568.016-5.36.016ZM22.74,52.183c3.148,0,6.3.016,9.373.024,4.829.024,9.825.048,14.733.008a.91.91,0,0,0,.9-.912c-.032-6.106-.056-12.3-.079-18.484-.024-6.51-.048-13.012-.087-19.411-5.186-.008-10.507-.071-15.653-.127s-10.467-.127-15.653-.127L16.484,51.3a.876.876,0,0,0,.27.634.915.915,0,0,0,.634.262H17.4q2.664-.012,5.344-.016Z" transform="translate(-15.12 -12.02)" fill="#1e1d26"/>
      </g>
      <g id="Grupo_1176352" data-name="Grupo 1176352" transform="translate(0.571 40.946)">
        <g id="Grupo_1176351" data-name="Grupo 1176351">
          <path id="Trazado_1035856" data-name="Trazado 1035856" d="M35.464,53.561c-8.405-.04-22-.071-30.64-.111A1.775,1.775,0,0,0,3.04,55.226v2.482a1.777,1.777,0,0,0,1.768,1.776c8.635.04,22.242.071,30.647.111l5.527-2.974a.119.119,0,0,0,0-.206Z" transform="translate(-3.04 -53.45)" fill="#64c682"/>
        </g>
      </g>
      <g id="Grupo_1176355" data-name="Grupo 1176355" transform="translate(0.571 40.954)">
        <g id="Grupo_1176353" data-name="Grupo 1176353">
          <path id="Trazado_1035857" data-name="Trazado 1035857" d="M7.615,53.468c-.975,0-1.911-.008-2.791-.008A1.775,1.775,0,0,0,3.04,55.236v2.482a1.777,1.777,0,0,0,1.768,1.776c.888,0,1.832.008,2.807.008Z" transform="translate(-3.04 -53.46)" fill="#fff"/>
        </g>
        <g id="Grupo_1176354" data-name="Grupo 1176354" transform="translate(32.527 0.159)">
          <path id="Trazado_1035858" data-name="Trazado 1035858" d="M49.476,56.467,44.06,53.66v5.931l5.416-2.918A.119.119,0,0,0,49.476,56.467Z" transform="translate(-44.06 -53.66)" fill="#fff"/>
        </g>
      </g>
      <g id="Grupo_1176356" data-name="Grupo 1176356" transform="translate(16.874 18.878)">
        <path id="Trazado_1035859" data-name="Trazado 1035859" d="M27.628,33.494V25.62H24.337a.736.736,0,0,0-.737.737v6.391a.736.736,0,0,0,.737.737h3.291Z" transform="translate(-23.6 -25.62)" fill="#95cbfc"/>
      </g>
      <g id="Grupo_1176357" data-name="Grupo 1176357" transform="translate(20.91 13.105)">
        <path id="Trazado_1035860" data-name="Trazado 1035860" d="M32.718,31.987V19.077a.736.736,0,0,0-.737-.737H29.427a.731.731,0,0,0-.737.737V31.987Z" transform="translate(-28.69 -18.34)" fill="#64c682"/>
      </g>
      <g id="Grupo_1176358" data-name="Grupo 1176358" transform="translate(24.938 16.158)">
        <path id="Trazado_1035861" data-name="Trazado 1035861" d="M37.806,32.784V22.19H33.77V32.784Z" transform="translate(-33.77 -22.19)" fill="#95cbfc"/>
      </g>
      <g id="Grupo_1176359" data-name="Grupo 1176359" transform="translate(16.303 18.315)">
        <path id="Trazado_1035862" data-name="Trazado 1035862" d="M27.479,33.918H24.188A1.31,1.31,0,0,1,22.88,32.61V26.218a1.3,1.3,0,0,1,1.308-1.308h3.291a.569.569,0,0,1,.571.571v7.874a.583.583,0,0,1-.167.4A.576.576,0,0,1,27.479,33.918Zm-3.3-7.874a.163.163,0,0,0-.167.167V32.6a.163.163,0,0,0,.167.167H26.9V26.036H24.18Z" transform="translate(-22.88 -24.91)" fill="#1e1d26"/>
      </g>
      <g id="Grupo_1176360" data-name="Grupo 1176360" transform="translate(20.331 12.534)">
        <path id="Trazado_1035863" data-name="Trazado 1035863" d="M32.567,32.408H28.531a.569.569,0,0,1-.571-.571V18.928a1.31,1.31,0,0,1,1.308-1.308h2.553a1.31,1.31,0,0,1,1.308,1.308V31.838a.6.6,0,0,1-.167.4.533.533,0,0,1-.4.167ZM29.11,31.267H32V18.928a.163.163,0,0,0-.167-.167H29.276a.163.163,0,0,0-.167.167Z" transform="translate(-27.96 -17.62)" fill="#1e1d26"/>
      </g>
      <g id="Grupo_1176361" data-name="Grupo 1176361" transform="translate(24.367 15.587)">
        <path id="Trazado_1035864" data-name="Trazado 1035864" d="M37.657,33.206H33.621a.569.569,0,0,1-.571-.571V22.041a.569.569,0,0,1,.571-.571h4.036a.569.569,0,0,1,.571.571V32.635a.569.569,0,0,1-.571.571ZM34.2,32.064h2.886V22.612H34.2Z" transform="translate(-33.05 -21.47)" fill="#1e1d26"/>
      </g>
      <g id="Grupo_1176362" data-name="Grupo 1176362" transform="translate(28.403 12.534)">
        <path id="Trazado_1035865" data-name="Trazado 1035865" d="M42.747,32.408H38.711a.569.569,0,0,1-.571-.571V18.928a1.31,1.31,0,0,1,1.308-1.308H42a1.31,1.31,0,0,1,1.308,1.308V31.838a.6.6,0,0,1-.167.4.533.533,0,0,1-.4.167ZM39.29,31.267h2.886V18.928a.163.163,0,0,0-.167-.167H39.456a.163.163,0,0,0-.167.167Z" transform="translate(-38.14 -17.62)" fill="#1e1d26"/>
      </g>
      <g id="Grupo_1176363" data-name="Grupo 1176363" transform="translate(32.44 18.307)">
        <path id="Trazado_1035866" data-name="Trazado 1035866" d="M47.1,33.916H43.809a.569.569,0,0,1-.571-.571l-.008-7.874a.583.583,0,0,1,.167-.4.564.564,0,0,1,.4-.167h3.291A1.31,1.31,0,0,1,48.4,26.208V32.6A1.3,1.3,0,0,1,47.1,33.916Zm-2.72-1.142H47.1a.163.163,0,0,0,.167-.167V26.216a.167.167,0,0,0-.167-.167H44.38Z" transform="translate(-43.23 -24.9)" fill="#1e1d26"/>
      </g>
      <g id="Grupo_1176364" data-name="Grupo 1176364" transform="translate(16.618 31.428)">
        <path id="Trazado_1035867" data-name="Trazado 1035867" d="M38.9,43.646a7.72,7.72,0,0,1-1.649-.174,11.466,11.466,0,0,1-1.34-.4,7.689,7.689,0,0,0-1.673-.444,8.561,8.561,0,0,0-2.545.23,11.088,11.088,0,0,1-2.585.278,10.421,10.421,0,0,1-1.768-.285c-.341-.079-.666-.151-.991-.2a2.937,2.937,0,0,0-2.141.293.569.569,0,1,1-.722-.88,4.118,4.118,0,0,1,3.045-.539c.365.056.722.135,1.07.214A9.359,9.359,0,0,0,29.179,42a9.749,9.749,0,0,0,2.307-.254,9.735,9.735,0,0,1,2.894-.246A9.078,9.078,0,0,1,36.3,42a10.525,10.525,0,0,0,1.213.365c1.855.412,3.862-.119,5.931-.737a.572.572,0,1,1,.333,1.094,17.568,17.568,0,0,1-4.877.928Z" transform="translate(-23.277 -41.446)" fill="#1e1d26"/>
      </g>
      <g id="Grupo_1176365" data-name="Grupo 1176365" transform="translate(16.597 36.619)">
        <path id="Trazado_1035868" data-name="Trazado 1035868" d="M41.853,50.195a6.65,6.65,0,0,1-.944-.071c-.365-.056-.722-.135-1.07-.214a9.359,9.359,0,0,0-1.578-.262,9.814,9.814,0,0,0-2.315.254,9.735,9.735,0,0,1-2.894.246,9.077,9.077,0,0,1-1.919-.5,10.526,10.526,0,0,0-1.213-.365c-1.856-.412-3.862.119-5.931.737a.572.572,0,1,1-.333-1.094c2.22-.666,4.393-1.229,6.51-.761a11.466,11.466,0,0,1,1.34.4,7.69,7.69,0,0,0,1.673.444,8.561,8.561,0,0,0,2.545-.23,11.088,11.088,0,0,1,2.585-.278,10.421,10.421,0,0,1,1.768.285c.341.079.666.151.991.2a2.929,2.929,0,0,0,2.141-.293.575.575,0,1,1,.73.888A3.3,3.3,0,0,1,41.853,50.195Z" transform="translate(-23.251 -47.993)" fill="#1e1d26"/>
      </g>
      <g id="Grupo_1176367" data-name="Grupo 1176367" transform="translate(0 40.383)">
        <g id="Grupo_1176366" data-name="Grupo 1176366">
          <path id="Trazado_1035869" data-name="Trazado 1035869" d="M35.315,60.027c-4.306-.016-9.959-.04-15.621-.056-5.408-.016-10.816-.032-15.034-.056A2.355,2.355,0,0,1,2.32,57.569V55.087A2.342,2.342,0,0,1,4.667,52.74h.008c4.171.016,9.507.032,14.852.056,5.717.016,11.442.04,15.788.056a.606.606,0,0,1,.262.063L41.1,55.777a.687.687,0,0,1,.016,1.213l-5.527,2.974A.64.64,0,0,1,35.315,60.027ZM4.667,53.882a1.221,1.221,0,0,0-.848.349,1.2,1.2,0,0,0-.357.856v2.482a1.2,1.2,0,0,0,1.2,1.205c4.218.016,9.626.032,15.034.056,5.6.016,11.189.04,15.47.056l4.639-2.5-4.631-2.4c-4.33-.016-9.991-.04-15.645-.056-5.352-.016-10.681-.032-14.86-.048Z" transform="translate(-2.32 -52.74)" fill="#1e1d26"/>
        </g>
      </g>
      <g id="Grupo_1176368" data-name="Grupo 1176368" transform="translate(32.368 40.518)">
        <path id="Trazado_1035870" data-name="Trazado 1035870" d="M43.751,60.062a.569.569,0,0,1-.571-.571l-.04-6a.58.58,0,0,1,.571-.579h.008a.569.569,0,0,1,.571.571l.04,6A.577.577,0,0,1,43.751,60.062Z" transform="translate(-43.14 -52.91)" fill="#1e1d26"/>
      </g>
      <g id="Grupo_1176381" data-name="Grupo 1176381" transform="translate(31.058 24.334)">
        <g id="Grupo_1176371" data-name="Grupo 1176371" transform="translate(1.084 0.223)">
          <g id="Grupo_1176369" data-name="Grupo 1176369" transform="translate(0.356 0.353)">
            <path id="Trazado_1035871" data-name="Trazado 1035871" d="M53.236,49.342a8.476,8.476,0,0,0,5.844-7.406c.46-6.661-5.685-10.4-11.418-7.961-4.425,1.879-5.567,8.873-3.029,12.394A8.067,8.067,0,0,0,53.236,49.342Z" transform="translate(-43.304 -33.227)" fill="#1e1d26"/>
          </g>
          <g id="Grupo_1176370" data-name="Grupo 1176370">
            <path id="Trazado_1035872" data-name="Trazado 1035872" d="M51.074,49.908a8.517,8.517,0,0,1-6.819-3.418,9.343,9.343,0,0,1-1.007-7.715,7.716,7.716,0,0,1,4.187-5.218,8.776,8.776,0,0,1,8.58.745,8.324,8.324,0,0,1,3.338,7.573A8.876,8.876,0,0,1,53.247,49.6,7.819,7.819,0,0,1,51.074,49.908ZM51.153,33.5a8.893,8.893,0,0,0-3.441.714,7.009,7.009,0,0,0-3.774,4.75,8.654,8.654,0,0,0,.9,7.1,7.737,7.737,0,0,0,8.207,2.839,8.127,8.127,0,0,0,5.582-7.081,7.413,7.413,0,0,0-7.47-8.326Z" transform="translate(-42.855 -32.782)" fill="#1e1d26"/>
          </g>
        </g>
        <g id="Grupo_1176372" data-name="Grupo 1176372" transform="translate(0.554 0.577)">
          <path id="Trazado_1035873" data-name="Trazado 1035873" d="M57.969,41.944a8.456,8.456,0,0,1-5.844,7.4,8.067,8.067,0,0,1-8.6-2.974,9.04,9.04,0,0,1-.872-7.684,7.257,7.257,0,0,1,3.9-4.71,8.452,8.452,0,0,1,7.969.531,7.9,7.9,0,0,1,3.449,7.438Z" transform="translate(-42.186 -33.229)" fill="#ffc94d"/>
        </g>
        <g id="Grupo_1176373" data-name="Grupo 1176373" transform="translate(0)">
          <path id="Trazado_1035874" data-name="Trazado 1035874" d="M49.918,50.056a8.739,8.739,0,0,1-6.994-3.5,9.58,9.58,0,0,1-1.039-7.9,7.971,7.971,0,0,1,4.306-5.36,8.989,8.989,0,0,1,8.786.769A8.533,8.533,0,0,1,58.4,41.825a9.1,9.1,0,0,1-6.256,7.914,7.882,7.882,0,0,1-2.228.317Zm.071-16.4a8.662,8.662,0,0,0-3.362.7,6.811,6.811,0,0,0-3.655,4.615,8.442,8.442,0,0,0,.864,6.922,7.521,7.521,0,0,0,7.977,2.759,7.9,7.9,0,0,0,5.432-6.891,7.4,7.4,0,0,0-2.95-6.748A7.273,7.273,0,0,0,49.99,33.658Z" transform="translate(-41.487 -32.501)" fill="#1e1d26"/>
        </g>
        <g id="Grupo_1176374" data-name="Grupo 1176374" transform="translate(5.948 4.035)">
          <path id="Trazado_1035875" data-name="Trazado 1035875" d="M51.321,46.788c-.087,0-.182-.008-.27-.016A2.462,2.462,0,0,1,49,44.822a.569.569,0,1,1,1.118-.214,1.318,1.318,0,0,0,1.07,1.031,1.283,1.283,0,0,0,1.277-.73,1.365,1.365,0,0,0-.285-1.491,3.283,3.283,0,0,0-1.007-.547,4.353,4.353,0,0,1-1.261-.682,2.712,2.712,0,0,1-.769-2.91,2.624,2.624,0,0,1,2.4-1.689h.071a2.634,2.634,0,0,1,2.371,1.832.572.572,0,1,1-1.094.333,1.48,1.48,0,0,0-1.308-1.015h-.032a1.468,1.468,0,0,0-1.324.936,1.536,1.536,0,0,0,.428,1.641,3.469,3.469,0,0,0,.952.492,4.1,4.1,0,0,1,1.364.777,2.53,2.53,0,0,1,.539,2.8,2.43,2.43,0,0,1-2.189,1.4Z" transform="translate(-48.988 -37.59)" fill="#1e1d26"/>
        </g>
        <g id="Grupo_1176375" data-name="Grupo 1176375" transform="translate(7.884 3.179)">
          <path id="Trazado_1035876" data-name="Trazado 1035876" d="M52,38.484a.569.569,0,0,1-.571-.571v-.833a.571.571,0,1,1,1.142,0v.833A.569.569,0,0,1,52,38.484Z" transform="translate(-51.43 -36.51)" fill="#1e1d26"/>
        </g>
        <g id="Grupo_1176376" data-name="Grupo 1176376" transform="translate(7.9 12.076)">
          <path id="Trazado_1035877" data-name="Trazado 1035877" d="M52.021,50.053a.569.569,0,0,1-.571-.571V48.3a.571.571,0,1,1,1.142,0v1.181A.569.569,0,0,1,52.021,50.053Z" transform="translate(-51.45 -47.73)" fill="#1e1d26"/>
        </g>
        <g id="Grupo_1176378" data-name="Grupo 1176378" transform="translate(0.697 1.862)" opacity="0.1">
          <g id="Grupo_1176377" data-name="Grupo 1176377">
            <path id="Trazado_1035878" data-name="Trazado 1035878" d="M58.149,42.28a8.456,8.456,0,0,1-5.844,7.4A8.067,8.067,0,0,1,43.7,46.7a9.04,9.04,0,0,1-.872-7.684l.214.4A13.877,13.877,0,0,0,48.7,45.238a4.715,4.715,0,0,0,2.45.706,2.074,2.074,0,0,0,1.919-1.467c.174-.761-.214-1.618.119-2.323.238-.515.8-.793,1.221-1.174A3.778,3.778,0,0,0,55.469,38,11.155,11.155,0,0,0,54.7,34.85a7.9,7.9,0,0,1,3.449,7.43Z" transform="translate(-42.366 -34.85)" fill="#1e1d26"/>
          </g>
        </g>
        <g id="Grupo_1176379" data-name="Grupo 1176379" transform="translate(2.77 5.078)">
          <path id="Trazado_1035879" data-name="Trazado 1035879" d="M46.058,45.72a.478.478,0,0,1-.436-.278,7.445,7.445,0,0,1,.1-6.272.473.473,0,1,1,.848.42,6.554,6.554,0,0,0-.1,5.455.482.482,0,0,1-.238.634A.414.414,0,0,1,46.058,45.72Z" transform="translate(-44.98 -38.905)" fill="#fff"/>
        </g>
        <g id="Grupo_1176380" data-name="Grupo 1176380" transform="translate(4.325 3.227)">
          <path id="Trazado_1035880" data-name="Trazado 1035880" d="M47.416,37.752a.471.471,0,0,1-.3-.111.478.478,0,0,1-.063-.674l.182-.222a.479.479,0,0,1,.737.611l-.19.222A.461.461,0,0,1,47.416,37.752Z" transform="translate(-46.941 -36.571)" fill="#fff"/>
        </g>
      </g>
      <g id="Grupo_1176382" data-name="Grupo 1176382" transform="translate(4.488 37.218)">
        <path id="Trazado_1035881" data-name="Trazado 1035881" d="M8.6,59.026a.569.569,0,0,1-.571-.571L7.98,50.867a2.107,2.107,0,0,1,2.078-2.109c1.744-.016,1.951-.008,2.244.008.238.016.539.032,2.078.032a.571.571,0,0,1,0,1.142c-1.57,0-1.887-.016-2.141-.032s-.468-.024-2.173-.008a.966.966,0,0,0-.952.959l.048,7.589A.559.559,0,0,1,8.6,59.026Z" transform="translate(-7.98 -48.749)" fill="#1e1d26"/>
      </g>
      <g id="Grupo_1176383" data-name="Grupo 1176383" transform="translate(10.848 43.745)">
        <path id="Trazado_1035882" data-name="Trazado 1035882" d="M25.436,57.932h-8.96a.476.476,0,0,1,0-.952h8.96a.476.476,0,0,1,0,.952Z" transform="translate(-16 -56.98)" fill="#fff"/>
      </g>
      <g id="Grupo_1176384" data-name="Grupo 1176384" transform="translate(22.504 43.745)">
        <path id="Trazado_1035883" data-name="Trazado 1035883" d="M31.6,57.932h-.42a.476.476,0,0,1,0-.952h.412a.477.477,0,0,1,.476.476.47.47,0,0,1-.468.476Z" transform="translate(-30.7 -56.98)" fill="#fff"/>
      </g>
      <g id="Grupo_1176385" data-name="Grupo 1176385" transform="translate(25.477 4.415)">
        <path id="Trazado_1035884" data-name="Trazado 1035884" d="M45.512,8.332H34.926a.476.476,0,1,1,0-.952H45.512a.476.476,0,0,1,0,.952Z" transform="translate(-34.45 -7.38)" fill="#fff"/>
      </g>
      <g id="Grupo_1176386" data-name="Grupo 1176386" transform="translate(39.211 4.478)">
        <path id="Trazado_1035885" data-name="Trazado 1035885" d="M52.745,8.412h-.5a.476.476,0,1,1,0-.952h.5a.476.476,0,1,1,0,.952Z" transform="translate(-51.77 -7.46)" fill="#fff"/>
      </g>
    </g>
  </g>
</svg>
