<svg xmlns="http://www.w3.org/2000/svg" width="478.734" height="42.544" viewBox="0 0 478.734 42.544">
  <g id="Grupo_1177214" data-name="Grupo 1177214" transform="translate(-218.838 -6026.186)">
    <path id="Trazado_1037800" data-name="Trazado 1037800" d="M-58.783-4.948a12.614,12.614,0,0,1-.664,2.193,5.226,5.226,0,0,1-1.028,1.622A4.127,4.127,0,0,1-62.009-.127,6.068,6.068,0,0,1-64.18.22a4.631,4.631,0,0,1-1.74-.308A3.654,3.654,0,0,1-67.2-.932,3.618,3.618,0,0,1-67.994-2.2a4.486,4.486,0,0,1-.272-1.582,8.5,8.5,0,0,1,.048-.853q.048-.475.127-.9l1.529-7.075h1.521l-1.521,6.987q-.035.2-.075.439t-.07.475q-.031.237-.048.448t-.018.369a3.231,3.231,0,0,0,.211,1.222,2.35,2.35,0,0,0,.584.861,2.443,2.443,0,0,0,.879.514A3.386,3.386,0,0,0-64-1.116a3.946,3.946,0,0,0,1.336-.211,2.773,2.773,0,0,0,1.037-.659,3.922,3.922,0,0,0,.769-1.143A8.093,8.093,0,0,0-60.33-4.79l1.679-7.813h1.512Zm7.508-2.83h-2.268l-1.011,4.772q-.053.272-.105.589a3.254,3.254,0,0,0-.053.51.888.888,0,0,0,.2.646.86.86,0,0,0,.628.2,1.382,1.382,0,0,0,.272-.035q.167-.035.343-.088t.347-.119l.3-.119-.272,1.266a4.261,4.261,0,0,1-.7.224,3.237,3.237,0,0,1-.743.092,2.513,2.513,0,0,1-.853-.127,1.461,1.461,0,0,1-.576-.365,1.413,1.413,0,0,1-.325-.576,2.653,2.653,0,0,1-.1-.76,4.261,4.261,0,0,1,.048-.593,6.15,6.15,0,0,1,.119-.62l1.037-4.9h-1.494L-56.206-9h1.477l.466-2.2A2.709,2.709,0,0,1-54-11.281q.233-.066.51-.149l.51-.154.259-.079L-53.271-9H-51Zm3.412,7.743a3.368,3.368,0,0,1-.5.114,3.5,3.5,0,0,1-.549.044,1.793,1.793,0,0,1-1.327-.444,1.618,1.618,0,0,1-.439-1.191,3.631,3.631,0,0,1,.044-.519q.044-.3.141-.738L-49.182-9h1.459l-1.318,6.267q-.079.369-.11.571a2.338,2.338,0,0,0-.031.343.724.724,0,0,0,.2.549.886.886,0,0,0,.628.189,2.662,2.662,0,0,0,.4-.026,1.772,1.772,0,0,0,.321-.079Zm1.028-12.173a.946.946,0,0,1-.268.677.88.88,0,0,1-.664.281.934.934,0,0,1-.672-.277.911.911,0,0,1-.286-.681.843.843,0,0,1,.286-.659.977.977,0,0,1,.672-.255.921.921,0,0,1,.659.259A.865.865,0,0,1-46.835-12.208ZM-43.2-.035a3.368,3.368,0,0,1-.5.114,3.5,3.5,0,0,1-.549.044,1.793,1.793,0,0,1-1.327-.444,1.618,1.618,0,0,1-.439-1.191,3.631,3.631,0,0,1,.044-.519q.044-.3.141-.738l2.25-10.564h1.459l-2.259,10.6q-.079.369-.11.571a2.338,2.338,0,0,0-.031.343.724.724,0,0,0,.2.549.886.886,0,0,0,.628.189,2.662,2.662,0,0,0,.4-.026,1.772,1.772,0,0,0,.321-.079Zm4.66,0a3.368,3.368,0,0,1-.5.114,3.5,3.5,0,0,1-.549.044,1.793,1.793,0,0,1-1.327-.444,1.618,1.618,0,0,1-.439-1.191,3.631,3.631,0,0,1,.044-.519q.044-.3.141-.738L-39.862-9H-38.4l-1.318,6.267q-.079.369-.11.571a2.338,2.338,0,0,0-.031.343.724.724,0,0,0,.2.549.886.886,0,0,0,.628.189,2.662,2.662,0,0,0,.4-.026,1.772,1.772,0,0,0,.321-.079Zm1.028-12.173a.946.946,0,0,1-.268.677.88.88,0,0,1-.664.281.934.934,0,0,1-.672-.277.911.911,0,0,1-.286-.681.843.843,0,0,1,.286-.659.977.977,0,0,1,.672-.255.921.921,0,0,1,.659.259A.865.865,0,0,1-37.515-12.208Zm7.894,9.439q-.062.281-.119.677t-.1.8q-.044.4-.075.751T-29.946,0H-31.44q0-.149.022-.4t.053-.523q.031-.272.066-.523t.062-.409h-.035a8.877,8.877,0,0,1-.633.9,3.663,3.663,0,0,1-.668.65,2.684,2.684,0,0,1-.747.391,2.738,2.738,0,0,1-.87.132A2.688,2.688,0,0,1-35.3,0a2.256,2.256,0,0,1-.839-.646A2.977,2.977,0,0,1-36.67-1.7a5.141,5.141,0,0,1-.185-1.446A7.115,7.115,0,0,1-36.718-4.5,6.931,6.931,0,0,1-36.3-5.88a6.467,6.467,0,0,1,.725-1.283,5,5,0,0,1,1.046-1.063,4.96,4.96,0,0,1,1.389-.725,5.372,5.372,0,0,1,1.749-.268,5.932,5.932,0,0,1,.914.066q.422.066.729.136l.914-4.307h1.424ZM-30-7.778a5.662,5.662,0,0,0-.7-.154,5.029,5.029,0,0,0-.778-.057,3.566,3.566,0,0,0-1.349.237,3.4,3.4,0,0,0-1.02.633,3.788,3.788,0,0,0-.729.9,5.676,5.676,0,0,0-.475,1.037A5.9,5.9,0,0,0-35.3-4.135a6.508,6.508,0,0,0-.075.927,4.443,4.443,0,0,0,.083.9,2,2,0,0,0,.272.694,1.3,1.3,0,0,0,.488.448,1.522,1.522,0,0,0,.721.158,1.865,1.865,0,0,0,.822-.185,2.83,2.83,0,0,0,.716-.5,4.136,4.136,0,0,0,.606-.729,7.077,7.077,0,0,0,.492-.879A7.81,7.81,0,0,0-30.8-4.25q.154-.479.25-.918Zm10.171,4.9q-.07.334-.136.751t-.114.826q-.048.409-.079.76T-20.189,0h-1.494q.009-.176.026-.422t.048-.51q.031-.264.062-.519t.066-.439h-.035q-.272.431-.554.813a3.913,3.913,0,0,1-.624.672,2.732,2.732,0,0,1-.765.457,2.691,2.691,0,0,1-.993.167A2.684,2.684,0,0,1-25.528.009a2.256,2.256,0,0,1-.839-.628,2.9,2.9,0,0,1-.541-1.046A5.1,5.1,0,0,1-27.1-3.129a7.333,7.333,0,0,1,.105-1.16,7.1,7.1,0,0,1,.356-1.327,6.757,6.757,0,0,1,.668-1.323A5.023,5.023,0,0,1-24.93-8.095a4.947,4.947,0,0,1,1.463-.817,5.683,5.683,0,0,1,1.951-.308,10.373,10.373,0,0,1,1.45.105q.747.105,1.485.255Zm-.413-4.931q-.308-.07-.721-.123a6.128,6.128,0,0,0-.773-.053,3.508,3.508,0,0,0-1.349.242,3.462,3.462,0,0,0-1.015.633,3.727,3.727,0,0,0-.725.9,5.586,5.586,0,0,0-.47,1.042,6.13,6.13,0,0,0-.25,1.05,6.649,6.649,0,0,0-.075.94,4.212,4.212,0,0,0,.088.9,1.967,1.967,0,0,0,.277.681,1.3,1.3,0,0,0,.483.435,1.49,1.49,0,0,0,.7.154,1.9,1.9,0,0,0,.822-.18,2.849,2.849,0,0,0,.716-.488,4,4,0,0,0,.606-.712,7,7,0,0,0,.492-.857,7.329,7.329,0,0,0,.374-.923q.154-.47.25-.91Zm10.136,5.045q-.062.281-.119.677t-.1.8q-.044.4-.075.751T-10.431,0h-1.494q0-.149.022-.4t.053-.523q.031-.272.066-.523t.062-.409h-.035a8.877,8.877,0,0,1-.633.9,3.663,3.663,0,0,1-.668.65,2.684,2.684,0,0,1-.747.391,2.738,2.738,0,0,1-.87.132A2.688,2.688,0,0,1-15.783,0a2.256,2.256,0,0,1-.839-.646A2.977,2.977,0,0,1-17.155-1.7a5.141,5.141,0,0,1-.185-1.446A7.115,7.115,0,0,1-17.2-4.5a6.931,6.931,0,0,1,.422-1.38,6.467,6.467,0,0,1,.725-1.283A5,5,0,0,1-15.01-8.227a4.96,4.96,0,0,1,1.389-.725,5.372,5.372,0,0,1,1.749-.268,5.932,5.932,0,0,1,.914.066q.422.066.729.136l.914-4.307h1.424Zm-.378-5.01a5.662,5.662,0,0,0-.7-.154,5.029,5.029,0,0,0-.778-.057,3.566,3.566,0,0,0-1.349.237,3.4,3.4,0,0,0-1.02.633,3.788,3.788,0,0,0-.729.9,5.676,5.676,0,0,0-.475,1.037,5.9,5.9,0,0,0-.255,1.046,6.508,6.508,0,0,0-.075.927,4.443,4.443,0,0,0,.083.9,2,2,0,0,0,.272.694,1.3,1.3,0,0,0,.488.448,1.522,1.522,0,0,0,.721.158,1.865,1.865,0,0,0,.822-.185,2.83,2.83,0,0,0,.716-.5,4.136,4.136,0,0,0,.606-.729,7.077,7.077,0,0,0,.492-.879,7.81,7.81,0,0,0,.374-.945q.154-.479.25-.918ZM5.63-5.669A7.491,7.491,0,0,1,5.292-3.4a5.8,5.8,0,0,1-.976,1.876A4.714,4.714,0,0,1,2.769-.25,4.4,4.4,0,0,1,.717.22,3.747,3.747,0,0,1-.676-.026,2.9,2.9,0,0,1-1.731-.734,3.134,3.134,0,0,1-2.4-1.85a4.4,4.4,0,0,1-.233-1.481,7.334,7.334,0,0,1,.356-2.316,5.848,5.848,0,0,1,1-1.872A4.681,4.681,0,0,1,.273-8.767,4.371,4.371,0,0,1,2.264-9.22a3.721,3.721,0,0,1,1.384.246,2.94,2.94,0,0,1,1.059.708A3.2,3.2,0,0,1,5.389-7.15,4.255,4.255,0,0,1,5.63-5.669ZM4.154-5.6a3.36,3.36,0,0,0-.141-1.015,2.159,2.159,0,0,0-.4-.747A1.716,1.716,0,0,0,3-7.827a1.945,1.945,0,0,0-.809-.163,2.556,2.556,0,0,0-1.4.4A3.536,3.536,0,0,0-.258-6.552,5.164,5.164,0,0,0-.922-5.084,6.143,6.143,0,0,0-1.155-3.4a3.362,3.362,0,0,0,.136.989,2.245,2.245,0,0,0,.387.756,1.67,1.67,0,0,0,.615.479,1.952,1.952,0,0,0,.822.167A2.593,2.593,0,0,0,2.211-1.4,3.487,3.487,0,0,0,3.266-2.439a5.069,5.069,0,0,0,.659-1.472A6.3,6.3,0,0,0,4.154-5.6Zm11.234-.255A6.835,6.835,0,0,1,15.247-4.5a6.982,6.982,0,0,1-.431,1.375,6.773,6.773,0,0,1-.725,1.283A5.2,5.2,0,0,1,13.068-.778a4.748,4.748,0,0,1-1.336.729A4.863,4.863,0,0,1,10.079.22a5.437,5.437,0,0,1-1.024-.1,6.294,6.294,0,0,1-.883-.229l-.9,4.28H5.817l2.2-10.406q.062-.281.114-.677t.092-.8q.04-.4.066-.751T8.313-9H9.789q0,.149-.022.4t-.057.532q-.035.277-.07.536t-.062.417h.035A4.748,4.748,0,0,1,11.02-8.7a3.006,3.006,0,0,1,1.705-.523,2.785,2.785,0,0,1,1.107.211,2.192,2.192,0,0,1,.839.633A2.928,2.928,0,0,1,15.2-7.321,5.259,5.259,0,0,1,15.388-5.854Zm-1.477.062a4.347,4.347,0,0,0-.083-.879,1.95,1.95,0,0,0-.277-.694,1.4,1.4,0,0,0-.5-.457,1.521,1.521,0,0,0-.743-.167,1.981,1.981,0,0,0-.857.189,2.951,2.951,0,0,0-.743.505,4.143,4.143,0,0,0-.624.734,7.294,7.294,0,0,0-.5.866,7.607,7.607,0,0,0-.374.9,6.791,6.791,0,0,0-.233.848l-.554,2.61a2.466,2.466,0,0,0,.378.127q.22.057.457.1t.483.07a4.309,4.309,0,0,0,.457.026,3.036,3.036,0,0,0,1.121-.2,3.252,3.252,0,0,0,.923-.549,3.877,3.877,0,0,0,.721-.817,5.424,5.424,0,0,0,.523-1,5.9,5.9,0,0,0,.316-1.1A6.071,6.071,0,0,0,13.911-5.792ZM24.5-6.891a2.679,2.679,0,0,1-.316,1.3,2.622,2.622,0,0,1-1.046,1,6.282,6.282,0,0,1-1.925.646,16.513,16.513,0,0,1-2.953.237,1.129,1.129,0,0,0-.018.2v.176a2.989,2.989,0,0,0,.132.9,2.023,2.023,0,0,0,.409.738,1.928,1.928,0,0,0,.712.5,2.633,2.633,0,0,0,1.033.185,4.383,4.383,0,0,0,1.332-.233,5.723,5.723,0,0,0,1.384-.664L22.966-.483a5.713,5.713,0,0,1-1.151.492A4.949,4.949,0,0,1,20.32.22a4.06,4.06,0,0,1-1.674-.308,2.948,2.948,0,0,1-1.1-.822,3.2,3.2,0,0,1-.6-1.187,5.306,5.306,0,0,1-.185-1.411,6.525,6.525,0,0,1,.176-1.525,6.209,6.209,0,0,1,.5-1.367A5.792,5.792,0,0,1,18.2-7.554a5,5,0,0,1,.993-.892,4.6,4.6,0,0,1,1.169-.571,4.166,4.166,0,0,1,1.292-.2,3.734,3.734,0,0,1,1.226.185,2.562,2.562,0,0,1,.888.505,2.155,2.155,0,0,1,.541.743A2.212,2.212,0,0,1,24.5-6.891Zm-1.468.07a1.016,1.016,0,0,0-.409-.861,1.761,1.761,0,0,0-1.085-.308,2.434,2.434,0,0,0-1.037.233,3.356,3.356,0,0,0-.923.642,4,4,0,0,0-.729.976A4.543,4.543,0,0,0,18.4-4.913a15.192,15.192,0,0,0,2.136-.127,5.541,5.541,0,0,0,1.433-.374,1.926,1.926,0,0,0,.809-.6A1.348,1.348,0,0,0,23.027-6.82Zm8.545-.65h-.035a2.6,2.6,0,0,0-.461-.207,1.691,1.691,0,0,0-.567-.1,1.664,1.664,0,0,0-.976.33,3.587,3.587,0,0,0-.848.87,6.243,6.243,0,0,0-.668,1.235,8.434,8.434,0,0,0-.444,1.424L26.729,0H25.288l1.266-5.977q.079-.369.158-.773t.145-.809q.066-.4.119-.773T27.055-9h1.424q-.026.264-.062.558t-.07.571q-.035.277-.07.5t-.053.347h.035a9.7,9.7,0,0,1,.571-.905,4.182,4.182,0,0,1,.611-.69,2.589,2.589,0,0,1,.681-.444A1.924,1.924,0,0,1,30.9-9.22a2.481,2.481,0,0,1,.488.048q.242.048.435.1Zm7.613,4.588q-.07.334-.136.751t-.114.826q-.048.409-.079.76T38.825,0H37.331q.009-.176.026-.422t.048-.51q.031-.264.062-.519t.066-.439H37.5q-.272.431-.554.813A3.913,3.913,0,0,1,36.32-.4a2.732,2.732,0,0,1-.765.457,2.691,2.691,0,0,1-.993.167A2.684,2.684,0,0,1,33.486.009a2.256,2.256,0,0,1-.839-.628,2.9,2.9,0,0,1-.541-1.046,5.1,5.1,0,0,1-.189-1.463,7.333,7.333,0,0,1,.105-1.16,7.1,7.1,0,0,1,.356-1.327,6.757,6.757,0,0,1,.668-1.323,5.023,5.023,0,0,1,1.037-1.156,4.947,4.947,0,0,1,1.463-.817A5.683,5.683,0,0,1,37.5-9.22a10.373,10.373,0,0,1,1.45.105q.747.105,1.485.255Zm-.413-4.931q-.308-.07-.721-.123a6.128,6.128,0,0,0-.773-.053,3.508,3.508,0,0,0-1.349.242,3.462,3.462,0,0,0-1.015.633,3.727,3.727,0,0,0-.725.9,5.586,5.586,0,0,0-.47,1.042,6.13,6.13,0,0,0-.25,1.05,6.649,6.649,0,0,0-.075.94,4.212,4.212,0,0,0,.088.9,1.967,1.967,0,0,0,.277.681,1.3,1.3,0,0,0,.483.435,1.49,1.49,0,0,0,.7.154,1.9,1.9,0,0,0,.822-.18,2.849,2.849,0,0,0,.716-.488,4,4,0,0,0,.606-.712,7,7,0,0,0,.492-.857,7.329,7.329,0,0,0,.374-.923q.154-.47.25-.91Zm8.281.035H44.786L43.775-3.006q-.053.272-.105.589a3.254,3.254,0,0,0-.053.51.888.888,0,0,0,.2.646.86.86,0,0,0,.628.2,1.382,1.382,0,0,0,.272-.035q.167-.035.343-.088t.347-.119l.3-.119L45.436-.158a4.261,4.261,0,0,1-.7.224,3.237,3.237,0,0,1-.743.092,2.513,2.513,0,0,1-.853-.127,1.461,1.461,0,0,1-.576-.365,1.413,1.413,0,0,1-.325-.576,2.653,2.653,0,0,1-.1-.76,4.261,4.261,0,0,1,.048-.593,6.15,6.15,0,0,1,.119-.62l1.037-4.9H41.85L42.123-9H43.6l.466-2.2a2.709,2.709,0,0,1,.268-.083q.233-.066.51-.149l.51-.154.259-.079L45.058-9h2.268ZM50.465-.035a3.368,3.368,0,0,1-.5.114,3.5,3.5,0,0,1-.549.044,1.793,1.793,0,0,1-1.327-.444,1.618,1.618,0,0,1-.439-1.191A3.631,3.631,0,0,1,47.7-2.03q.044-.3.141-.738L49.147-9h1.459L49.288-2.733q-.079.369-.11.571a2.338,2.338,0,0,0-.031.343.724.724,0,0,0,.2.549.886.886,0,0,0,.628.189,2.662,2.662,0,0,0,.4-.026,1.772,1.772,0,0,0,.321-.079Zm1.028-12.173a.946.946,0,0,1-.268.677.88.88,0,0,1-.664.281.934.934,0,0,1-.672-.277.911.911,0,0,1-.286-.681.843.843,0,0,1,.286-.659.977.977,0,0,1,.672-.255.921.921,0,0,1,.659.259A.865.865,0,0,1,51.494-12.208ZM55.319,0H54.1L52.673-9h1.459l.791,5.669q.026.167.048.378t.044.431q.022.22.031.431t.009.378h.035q.07-.158.163-.36t.207-.417q.114-.215.233-.435t.224-.4L59.133-9h1.644ZM67.942-2.883q-.07.334-.136.751t-.114.826q-.048.409-.079.76T67.581,0H66.087q.009-.176.026-.422t.048-.51q.031-.264.062-.519t.066-.439h-.035q-.272.431-.554.813a3.913,3.913,0,0,1-.624.672,2.732,2.732,0,0,1-.765.457,2.691,2.691,0,0,1-.993.167A2.684,2.684,0,0,1,62.242.009,2.256,2.256,0,0,1,61.4-.62a2.9,2.9,0,0,1-.541-1.046,5.1,5.1,0,0,1-.189-1.463,7.333,7.333,0,0,1,.105-1.16,7.1,7.1,0,0,1,.356-1.327A6.757,6.757,0,0,1,61.8-6.939,5.023,5.023,0,0,1,62.84-8.095,4.947,4.947,0,0,1,64.3-8.912a5.683,5.683,0,0,1,1.951-.308,10.373,10.373,0,0,1,1.45.105q.747.105,1.485.255Zm-.413-4.931q-.308-.07-.721-.123a6.128,6.128,0,0,0-.773-.053,3.508,3.508,0,0,0-1.349.242,3.462,3.462,0,0,0-1.015.633,3.727,3.727,0,0,0-.725.9,5.586,5.586,0,0,0-.47,1.042,6.13,6.13,0,0,0-.25,1.05,6.649,6.649,0,0,0-.075.94,4.212,4.212,0,0,0,.088.9,1.967,1.967,0,0,0,.277.681A1.3,1.3,0,0,0,63-1.165a1.49,1.49,0,0,0,.7.154,1.9,1.9,0,0,0,.822-.18,2.849,2.849,0,0,0,.716-.488,4,4,0,0,0,.606-.712,7,7,0,0,0,.492-.857,7.329,7.329,0,0,0,.374-.923q.154-.47.25-.91Z" transform="translate(572 6039.519)" fill="#212429"/>
    <path id="Trazado_1037801" data-name="Trazado 1037801" d="M-38.967-12.6-43.634,0H-45.26l-4.57-12.6h1.644L-44.7-2.61a5.933,5.933,0,0,1,.255,1.116h.035a5.475,5.475,0,0,1,.29-1.134l3.56-9.976Zm7.71,8.464h-6.354a3.366,3.366,0,0,0,.809,2.32A2.788,2.788,0,0,0-34.677-1a4.422,4.422,0,0,0,2.795-1V-.65a5.224,5.224,0,0,1-3.138.861,3.8,3.8,0,0,1-3-1.226,5.018,5.018,0,0,1-1.09-3.45,4.921,4.921,0,0,1,1.191-3.423,3.819,3.819,0,0,1,2.958-1.323,3.384,3.384,0,0,1,2.733,1.143A4.764,4.764,0,0,1-31.258-4.9Zm-1.477-1.222a2.933,2.933,0,0,0-.6-1.942A2.051,2.051,0,0,0-34.984-8a2.328,2.328,0,0,0-1.731.729,3.311,3.311,0,0,0-.879,1.907ZM-21.605,0h-1.441V-5.133Q-23.047-8-25.139-8a2.269,2.269,0,0,0-1.789.813,3.013,3.013,0,0,0-.708,2.052V0h-1.441V-9h1.441v1.494h.035a3.248,3.248,0,0,1,2.953-1.705,2.753,2.753,0,0,1,2.259.954A4.248,4.248,0,0,1-21.605-5.5Zm6.892-.088a2.779,2.779,0,0,1-1.345.281q-2.364,0-2.364-2.637V-7.77h-1.547V-9h1.547v-2.2l1.441-.466V-9h2.268v1.23h-2.268V-2.7a2.1,2.1,0,0,0,.308,1.292,1.228,1.228,0,0,0,1.02.387,1.515,1.515,0,0,0,.94-.3ZM-6.344,0H-7.785V-1.406h-.035A3.018,3.018,0,0,1-10.589.211a2.959,2.959,0,0,1-2.1-.712,2.466,2.466,0,0,1-.76-1.89q0-2.522,2.971-2.936l2.7-.378Q-7.785-8-9.64-8a4.431,4.431,0,0,0-2.936,1.107V-8.367a5.577,5.577,0,0,1,3.059-.844q3.173,0,3.173,3.357ZM-7.785-4.553l-2.171.3a3.525,3.525,0,0,0-1.512.5,1.432,1.432,0,0,0-.51,1.261,1.374,1.374,0,0,0,.47,1.077A1.817,1.817,0,0,0-10.255-1a2.314,2.314,0,0,0,1.771-.751,2.685,2.685,0,0,0,.7-1.9ZM-4.171-.325V-1.872A4.266,4.266,0,0,0-1.579-1Q.32-1,.32-2.268a1.1,1.1,0,0,0-.163-.611,1.62,1.62,0,0,0-.439-.444,3.383,3.383,0,0,0-.65-.347q-.374-.154-.8-.321a10.357,10.357,0,0,1-1.05-.479,3.173,3.173,0,0,1-.756-.545A2.028,2.028,0,0,1-4-5.7a2.441,2.441,0,0,1-.154-.905,2.15,2.15,0,0,1,.29-1.121,2.572,2.572,0,0,1,.773-.817,3.607,3.607,0,0,1,1.1-.5A4.893,4.893,0,0,1-.708-9.211a5.164,5.164,0,0,1,2.092.4v1.459A4.077,4.077,0,0,0-.9-8a2.671,2.671,0,0,0-.729.092,1.786,1.786,0,0,0-.558.259,1.2,1.2,0,0,0-.36.4,1.053,1.053,0,0,0-.127.514,1.233,1.233,0,0,0,.127.589,1.3,1.3,0,0,0,.374.422,2.855,2.855,0,0,0,.6.334q.352.149.8.325a11.131,11.131,0,0,1,1.072.47,3.678,3.678,0,0,1,.809.545,2.129,2.129,0,0,1,.514.7,2.254,2.254,0,0,1,.18.94A2.217,2.217,0,0,1,1.5-1.248a2.523,2.523,0,0,1-.787.817A3.6,3.6,0,0,1-.418.053,5.6,5.6,0,0,1-1.763.211,5.106,5.106,0,0,1-4.171-.325ZM16.416,0H14.975V-5.133Q14.975-8,12.883-8a2.269,2.269,0,0,0-1.789.813,3.013,3.013,0,0,0-.708,2.052V0H8.946V-9h1.441v1.494h.035a3.248,3.248,0,0,1,2.953-1.705,2.753,2.753,0,0,1,2.259.954A4.248,4.248,0,0,1,16.416-5.5Zm9.951-4.14H20.013a3.366,3.366,0,0,0,.809,2.32A2.788,2.788,0,0,0,22.948-1a4.422,4.422,0,0,0,2.795-1V-.65a5.224,5.224,0,0,1-3.138.861,3.8,3.8,0,0,1-3-1.226,5.018,5.018,0,0,1-1.09-3.45A4.921,4.921,0,0,1,19.71-7.888a3.819,3.819,0,0,1,2.958-1.323A3.384,3.384,0,0,1,25.4-8.068,4.764,4.764,0,0,1,26.367-4.9ZM24.891-5.361a2.933,2.933,0,0,0-.6-1.942A2.051,2.051,0,0,0,22.641-8a2.328,2.328,0,0,0-1.731.729,3.311,3.311,0,0,0-.879,1.907ZM32.724-.088a2.779,2.779,0,0,1-1.345.281q-2.364,0-2.364-2.637V-7.77H27.468V-9h1.547v-2.2l1.441-.466V-9h2.268v1.23H30.456V-2.7a2.1,2.1,0,0,0,.308,1.292,1.228,1.228,0,0,0,1.02.387,1.515,1.515,0,0,0,.94-.3ZM41.093,0H39.651V-1.406h-.035A3.018,3.018,0,0,1,36.847.211a2.959,2.959,0,0,1-2.1-.712,2.466,2.466,0,0,1-.76-1.89q0-2.522,2.971-2.936l2.7-.378Q39.651-8,37.8-8a4.431,4.431,0,0,0-2.936,1.107V-8.367a5.577,5.577,0,0,1,3.059-.844q3.173,0,3.173,3.357ZM39.651-4.553l-2.171.3a3.525,3.525,0,0,0-1.512.5,1.432,1.432,0,0,0-.51,1.261,1.374,1.374,0,0,0,.47,1.077A1.817,1.817,0,0,0,37.181-1a2.314,2.314,0,0,0,1.771-.751,2.685,2.685,0,0,0,.7-1.9ZM43.265-.325V-1.872A4.266,4.266,0,0,0,45.858-1q1.9,0,1.9-1.266a1.1,1.1,0,0,0-.163-.611,1.62,1.62,0,0,0-.439-.444,3.383,3.383,0,0,0-.65-.347q-.374-.154-.8-.321a10.357,10.357,0,0,1-1.05-.479,3.173,3.173,0,0,1-.756-.545,2.028,2.028,0,0,1-.457-.69,2.441,2.441,0,0,1-.154-.905,2.15,2.15,0,0,1,.29-1.121,2.572,2.572,0,0,1,.773-.817,3.607,3.607,0,0,1,1.1-.5,4.893,4.893,0,0,1,1.279-.167,5.164,5.164,0,0,1,2.092.4v1.459A4.077,4.077,0,0,0,46.535-8a2.671,2.671,0,0,0-.729.092,1.786,1.786,0,0,0-.558.259,1.2,1.2,0,0,0-.36.4,1.053,1.053,0,0,0-.127.514,1.233,1.233,0,0,0,.127.589,1.3,1.3,0,0,0,.374.422,2.855,2.855,0,0,0,.6.334q.352.149.8.325a11.131,11.131,0,0,1,1.072.47,3.678,3.678,0,0,1,.809.545,2.129,2.129,0,0,1,.514.7,2.254,2.254,0,0,1,.18.94,2.217,2.217,0,0,1-.294,1.16,2.523,2.523,0,0,1-.787.817,3.6,3.6,0,0,1-1.134.483,5.6,5.6,0,0,1-1.345.158A5.106,5.106,0,0,1,43.265-.325Z" transform="translate(572 6068.519)" fill="#212429"/>
    <path id="Trazado_1037799" data-name="Trazado 1037799" d="M-112.218,0h-1.468l1.793-8.455q.105-.5.272-1.138t.387-1.367h-.035q-.105.211-.264.47t-.33.5q-.171.242-.312.435t-.2.29l-4.509,5.977h-.721l-1.969-5.959a2.182,2.182,0,0,0-.083-.3q-.066-.2-.127-.439t-.11-.5a2.557,2.557,0,0,1-.048-.475h-.035q-.053.378-.171,1.02t-.294,1.5L-122.238,0h-1.424l2.672-12.6h1.758l2,5.994a7.193,7.193,0,0,1,.207.738,4.227,4.227,0,0,1,.092.6h.053q.141-.264.343-.615a6.511,6.511,0,0,1,.519-.756L-111.5-12.6h1.951Zm10.584-2.883q-.07.334-.136.751t-.114.826q-.048.409-.079.76T-102,0h-1.494q.009-.176.026-.422t.048-.51q.031-.264.062-.519t.066-.439h-.035q-.272.431-.554.813A3.913,3.913,0,0,1-104.5-.4a2.732,2.732,0,0,1-.765.457,2.691,2.691,0,0,1-.993.167,2.684,2.684,0,0,1-1.077-.211,2.256,2.256,0,0,1-.839-.628,2.9,2.9,0,0,1-.541-1.046,5.1,5.1,0,0,1-.189-1.463,7.333,7.333,0,0,1,.105-1.16,7.1,7.1,0,0,1,.356-1.327,6.757,6.757,0,0,1,.668-1.323,5.023,5.023,0,0,1,1.037-1.156,4.947,4.947,0,0,1,1.463-.817,5.683,5.683,0,0,1,1.951-.308,10.373,10.373,0,0,1,1.45.105q.747.105,1.485.255Zm-.413-4.931q-.308-.07-.721-.123a6.128,6.128,0,0,0-.773-.053,3.508,3.508,0,0,0-1.349.242,3.462,3.462,0,0,0-1.015.633,3.727,3.727,0,0,0-.725.9,5.586,5.586,0,0,0-.47,1.042,6.13,6.13,0,0,0-.25,1.05,6.649,6.649,0,0,0-.075.94,4.212,4.212,0,0,0,.088.9,1.967,1.967,0,0,0,.277.681,1.3,1.3,0,0,0,.483.435,1.49,1.49,0,0,0,.7.154,1.9,1.9,0,0,0,.822-.18,2.849,2.849,0,0,0,.716-.488,4,4,0,0,0,.606-.712,7,7,0,0,0,.492-.857,7.329,7.329,0,0,0,.374-.923q.154-.47.25-.91Zm8.949.343h-.035a2.6,2.6,0,0,0-.461-.207,1.691,1.691,0,0,0-.567-.1,1.664,1.664,0,0,0-.976.33,3.587,3.587,0,0,0-.848.87,6.243,6.243,0,0,0-.668,1.235A8.434,8.434,0,0,0-97.1-3.92L-97.941,0h-1.441l1.266-5.977q.079-.369.158-.773t.145-.809q.066-.4.119-.773T-97.616-9h1.424q-.026.264-.062.558t-.07.571q-.035.277-.07.5t-.053.347h.035a9.7,9.7,0,0,1,.571-.905,4.182,4.182,0,0,1,.611-.69,2.589,2.589,0,0,1,.681-.444,1.924,1.924,0,0,1,.782-.158,2.481,2.481,0,0,1,.488.048q.242.048.435.1Zm7.13,6.82a11.4,11.4,0,0,1-.58,1.947A5.153,5.153,0,0,1-87.5,2.843a4.062,4.062,0,0,1-1.463,1.02,5.478,5.478,0,0,1-2.118.365,4.973,4.973,0,0,1-1.5-.2,6.911,6.911,0,0,1-1.165-.483l.272-1.345A6.8,6.8,0,0,0-92.3,2.76a3.881,3.881,0,0,0,1.345.229,3.671,3.671,0,0,0,1.358-.229,2.727,2.727,0,0,0,.993-.672A3.713,3.713,0,0,0-87.907,1a8.253,8.253,0,0,0,.461-1.468l.308-1.406h-.035a8.822,8.822,0,0,1-.655.927,3.777,3.777,0,0,1-.672.65,2.625,2.625,0,0,1-.738.387,2.711,2.711,0,0,1-.853.127A2.713,2.713,0,0,1-91.19,0a2.233,2.233,0,0,1-.839-.637,2.981,2.981,0,0,1-.536-1.055,5.109,5.109,0,0,1-.189-1.459,6.934,6.934,0,0,1,.171-1.538,6.734,6.734,0,0,1,.5-1.433,6.031,6.031,0,0,1,.8-1.244,5.29,5.29,0,0,1,1.068-.98,5.034,5.034,0,0,1,1.314-.646,4.931,4.931,0,0,1,1.534-.233,12.762,12.762,0,0,1,1.635.105q.817.105,1.5.237Zm.07-7.163a6.954,6.954,0,0,0-.725-.123,7.42,7.42,0,0,0-.91-.053,3.051,3.051,0,0,0-1.512.382A3.794,3.794,0,0,0-90.227-6.57,5.016,5.016,0,0,0-91-5.045a6.022,6.022,0,0,0-.277,1.837,4.347,4.347,0,0,0,.083.879,2.118,2.118,0,0,0,.264.694,1.337,1.337,0,0,0,.466.457,1.363,1.363,0,0,0,.7.167,1.984,1.984,0,0,0,.892-.2,2.944,2.944,0,0,0,.751-.536,4.112,4.112,0,0,0,.611-.76,7.676,7.676,0,0,0,.475-.875,7.972,7.972,0,0,0,.347-.883q.141-.435.22-.787Zm10.637.923a2.679,2.679,0,0,1-.316,1.3,2.622,2.622,0,0,1-1.046,1,6.282,6.282,0,0,1-1.925.646,16.513,16.513,0,0,1-2.953.237,1.129,1.129,0,0,0-.018.2v.176a2.989,2.989,0,0,0,.132.9,2.023,2.023,0,0,0,.409.738,1.928,1.928,0,0,0,.712.5,2.633,2.633,0,0,0,1.033.185A4.383,4.383,0,0,0-77.9-1.244a5.723,5.723,0,0,0,1.384-.664l-.272,1.424a5.713,5.713,0,0,1-1.151.492A4.949,4.949,0,0,1-79.437.22a4.06,4.06,0,0,1-1.674-.308,2.948,2.948,0,0,1-1.1-.822,3.2,3.2,0,0,1-.6-1.187A5.306,5.306,0,0,1-83-3.507a6.525,6.525,0,0,1,.176-1.525,6.209,6.209,0,0,1,.5-1.367,5.792,5.792,0,0,1,.769-1.156,5,5,0,0,1,.993-.892,4.6,4.6,0,0,1,1.169-.571,4.166,4.166,0,0,1,1.292-.2,3.734,3.734,0,0,1,1.226.185,2.562,2.562,0,0,1,.888.505,2.155,2.155,0,0,1,.541.743A2.212,2.212,0,0,1-75.262-6.891Zm-1.468.07a1.016,1.016,0,0,0-.409-.861,1.761,1.761,0,0,0-1.085-.308,2.434,2.434,0,0,0-1.037.233,3.356,3.356,0,0,0-.923.642,4,4,0,0,0-.729.976,4.543,4.543,0,0,0-.448,1.226,15.192,15.192,0,0,0,2.136-.127,5.541,5.541,0,0,0,1.433-.374,1.926,1.926,0,0,0,.809-.6A1.348,1.348,0,0,0-76.73-6.82Zm11.006.07a2.864,2.864,0,0,1-.031.36q-.031.229-.079.492t-.1.523q-.048.259-.092.444L-67.069,0h-1.459l1.1-5.273q.035-.141.07-.325t.062-.369q.026-.185.044-.338a2.261,2.261,0,0,0,.018-.242A1.6,1.6,0,0,0-67.557-7.6a1.168,1.168,0,0,0-.954-.387,2.218,2.218,0,0,0-1.151.343,4.737,4.737,0,0,0-1.055.87,5.934,5.934,0,0,0-.831,1.16,4.445,4.445,0,0,0-.47,1.222L-72.958,0h-1.459l1.389-6.425q.07-.343.141-.716t.132-.721q.062-.347.105-.646T-72.58-9h1.406q-.044.343-.105.716t-.105.69q-.053.369-.114.721h.035a7.433,7.433,0,0,1,.681-.91,5.1,5.1,0,0,1,.809-.747,3.84,3.84,0,0,1,.923-.505,2.869,2.869,0,0,1,1.024-.185A2.657,2.657,0,0,1-67-9.04a1.926,1.926,0,0,1,.716.505,2.058,2.058,0,0,1,.422.782A3.5,3.5,0,0,1-65.724-6.75ZM-51.93-2.769q-.062.281-.119.677t-.1.8q-.044.4-.075.751T-52.256,0H-53.75q0-.149.022-.4t.053-.523q.031-.272.066-.523t.062-.409h-.035a8.877,8.877,0,0,1-.633.9,3.663,3.663,0,0,1-.668.65,2.684,2.684,0,0,1-.747.391A2.738,2.738,0,0,1-56.5.22,2.688,2.688,0,0,1-57.608,0a2.256,2.256,0,0,1-.839-.646A2.977,2.977,0,0,1-58.979-1.7a5.141,5.141,0,0,1-.185-1.446A7.115,7.115,0,0,1-59.028-4.5a6.931,6.931,0,0,1,.422-1.38,6.467,6.467,0,0,1,.725-1.283,5,5,0,0,1,1.046-1.063,4.96,4.96,0,0,1,1.389-.725A5.372,5.372,0,0,1-53.7-9.22a5.932,5.932,0,0,1,.914.066q.422.066.729.136l.914-4.307h1.424Zm-.378-5.01a5.662,5.662,0,0,0-.7-.154,5.029,5.029,0,0,0-.778-.057,3.566,3.566,0,0,0-1.349.237,3.4,3.4,0,0,0-1.02.633,3.788,3.788,0,0,0-.729.9,5.676,5.676,0,0,0-.475,1.037,5.9,5.9,0,0,0-.255,1.046,6.508,6.508,0,0,0-.075.927,4.443,4.443,0,0,0,.083.9,2,2,0,0,0,.272.694,1.3,1.3,0,0,0,.488.448,1.522,1.522,0,0,0,.721.158A1.865,1.865,0,0,0-55.3-1.2a2.83,2.83,0,0,0,.716-.5,4.136,4.136,0,0,0,.606-.729,7.077,7.077,0,0,0,.492-.879,7.81,7.81,0,0,0,.374-.945q.154-.479.25-.918Zm10.637.888a2.679,2.679,0,0,1-.316,1.3,2.622,2.622,0,0,1-1.046,1,6.282,6.282,0,0,1-1.925.646,16.513,16.513,0,0,1-2.953.237,1.129,1.129,0,0,0-.018.2v.176a2.989,2.989,0,0,0,.132.9,2.023,2.023,0,0,0,.409.738,1.928,1.928,0,0,0,.712.5,2.633,2.633,0,0,0,1.033.185,4.383,4.383,0,0,0,1.332-.233,5.723,5.723,0,0,0,1.384-.664L-43.2-.483a5.713,5.713,0,0,1-1.151.492A4.949,4.949,0,0,1-45.847.22a4.06,4.06,0,0,1-1.674-.308,2.948,2.948,0,0,1-1.1-.822,3.2,3.2,0,0,1-.6-1.187,5.306,5.306,0,0,1-.185-1.411,6.525,6.525,0,0,1,.176-1.525,6.209,6.209,0,0,1,.5-1.367,5.792,5.792,0,0,1,.769-1.156,5,5,0,0,1,.993-.892A4.6,4.6,0,0,1-45.8-9.018a4.166,4.166,0,0,1,1.292-.2,3.734,3.734,0,0,1,1.226.185,2.562,2.562,0,0,1,.888.505,2.155,2.155,0,0,1,.541.743A2.212,2.212,0,0,1-41.672-6.891Zm-1.468.07a1.016,1.016,0,0,0-.409-.861,1.761,1.761,0,0,0-1.085-.308,2.434,2.434,0,0,0-1.037.233,3.356,3.356,0,0,0-.923.642,4,4,0,0,0-.729.976,4.543,4.543,0,0,0-.448,1.226,15.192,15.192,0,0,0,2.136-.127A5.541,5.541,0,0,0-44.2-5.414a1.926,1.926,0,0,0,.809-.6A1.348,1.348,0,0,0-43.14-6.82Zm17.722,1.872a12.614,12.614,0,0,1-.664,2.193,5.226,5.226,0,0,1-1.028,1.622A4.127,4.127,0,0,1-28.643-.127,6.068,6.068,0,0,1-30.814.22a4.631,4.631,0,0,1-1.74-.308,3.654,3.654,0,0,1-1.283-.844A3.618,3.618,0,0,1-34.628-2.2,4.486,4.486,0,0,1-34.9-3.779a8.5,8.5,0,0,1,.048-.853q.048-.475.127-.9L-33.2-12.6h1.521L-33.2-5.616q-.035.2-.075.439t-.07.475q-.031.237-.048.448t-.018.369A3.231,3.231,0,0,0-33.2-2.663a2.35,2.35,0,0,0,.584.861,2.443,2.443,0,0,0,.879.514,3.386,3.386,0,0,0,1.094.171A3.946,3.946,0,0,0-29.3-1.327a2.773,2.773,0,0,0,1.037-.659A3.922,3.922,0,0,0-27.5-3.129a8.093,8.093,0,0,0,.532-1.661l1.679-7.813h1.512Zm7.508-2.83h-2.268l-1.011,4.772q-.053.272-.105.589a3.254,3.254,0,0,0-.053.51.888.888,0,0,0,.2.646.86.86,0,0,0,.628.2,1.382,1.382,0,0,0,.272-.035q.167-.035.343-.088t.347-.119l.3-.119-.272,1.266a4.261,4.261,0,0,1-.7.224,3.237,3.237,0,0,1-.743.092,2.513,2.513,0,0,1-.853-.127A1.461,1.461,0,0,1-22.4-.334a1.413,1.413,0,0,1-.325-.576,2.653,2.653,0,0,1-.1-.76,4.261,4.261,0,0,1,.048-.593,6.15,6.15,0,0,1,.119-.62l1.037-4.9h-1.494L-22.84-9h1.477l.466-2.2a2.709,2.709,0,0,1,.268-.083q.233-.066.51-.149l.51-.154.259-.079L-19.9-9h2.268ZM-14.5-.035a3.368,3.368,0,0,1-.5.114,3.5,3.5,0,0,1-.549.044,1.793,1.793,0,0,1-1.327-.444,1.618,1.618,0,0,1-.439-1.191,3.631,3.631,0,0,1,.044-.519q.044-.3.141-.738L-15.816-9h1.459l-1.318,6.267q-.079.369-.11.571a2.338,2.338,0,0,0-.031.343.724.724,0,0,0,.2.549.886.886,0,0,0,.628.189,2.662,2.662,0,0,0,.4-.026,1.772,1.772,0,0,0,.321-.079Zm1.028-12.173a.946.946,0,0,1-.268.677.88.88,0,0,1-.664.281.934.934,0,0,1-.672-.277.911.911,0,0,1-.286-.681.843.843,0,0,1,.286-.659.977.977,0,0,1,.672-.255.921.921,0,0,1,.659.259A.865.865,0,0,1-13.469-12.208ZM-9.838-.035a3.368,3.368,0,0,1-.5.114,3.5,3.5,0,0,1-.549.044,1.793,1.793,0,0,1-1.327-.444,1.618,1.618,0,0,1-.439-1.191,3.631,3.631,0,0,1,.044-.519q.044-.3.141-.738l2.25-10.564h1.459l-2.259,10.6q-.079.369-.11.571a2.338,2.338,0,0,0-.031.343.724.724,0,0,0,.2.549.886.886,0,0,0,.628.189,2.662,2.662,0,0,0,.4-.026,1.772,1.772,0,0,0,.321-.079Zm4.66,0a3.368,3.368,0,0,1-.5.114,3.5,3.5,0,0,1-.549.044A1.793,1.793,0,0,1-7.551-.321,1.618,1.618,0,0,1-7.99-1.512a3.631,3.631,0,0,1,.044-.519q.044-.3.141-.738L-6.5-9h1.459L-6.355-2.733q-.079.369-.11.571a2.338,2.338,0,0,0-.031.343.724.724,0,0,0,.2.549.886.886,0,0,0,.628.189,2.662,2.662,0,0,0,.4-.026,1.772,1.772,0,0,0,.321-.079Zm1.028-12.173a.946.946,0,0,1-.268.677.88.88,0,0,1-.664.281.934.934,0,0,1-.672-.277.911.911,0,0,1-.286-.681.843.843,0,0,1,.286-.659.977.977,0,0,1,.672-.255.921.921,0,0,1,.659.259A.865.865,0,0,1-4.149-12.208ZM3.745-2.769q-.062.281-.119.677t-.1.8q-.044.4-.075.751T3.42,0H1.926q0-.149.022-.4T2-.923q.031-.272.066-.523t.062-.409H2.093a8.877,8.877,0,0,1-.633.9A3.663,3.663,0,0,1,.792-.3,2.684,2.684,0,0,1,.045.088,2.738,2.738,0,0,1-.825.22,2.688,2.688,0,0,1-1.933,0a2.256,2.256,0,0,1-.839-.646A2.977,2.977,0,0,1-3.3-1.7a5.141,5.141,0,0,1-.185-1.446A7.115,7.115,0,0,1-3.352-4.5,6.931,6.931,0,0,1-2.93-5.88a6.467,6.467,0,0,1,.725-1.283A5,5,0,0,1-1.159-8.227,4.96,4.96,0,0,1,.229-8.952,5.372,5.372,0,0,1,1.978-9.22a5.932,5.932,0,0,1,.914.066q.422.066.729.136l.914-4.307H5.96Zm-.378-5.01a5.662,5.662,0,0,0-.7-.154,5.029,5.029,0,0,0-.778-.057,3.566,3.566,0,0,0-1.349.237,3.4,3.4,0,0,0-1.02.633,3.788,3.788,0,0,0-.729.9,5.676,5.676,0,0,0-.475,1.037,5.9,5.9,0,0,0-.255,1.046,6.508,6.508,0,0,0-.075.927,4.443,4.443,0,0,0,.083.9,2,2,0,0,0,.272.694,1.3,1.3,0,0,0,.488.448,1.522,1.522,0,0,0,.721.158A1.865,1.865,0,0,0,.374-1.2a2.83,2.83,0,0,0,.716-.5A4.136,4.136,0,0,0,1.7-2.426,7.077,7.077,0,0,0,2.189-3.3a7.81,7.81,0,0,0,.374-.945q.154-.479.25-.918Zm10.171,4.9q-.07.334-.136.751t-.114.826q-.048.409-.079.76T13.177,0H11.683q.009-.176.026-.422t.048-.51q.031-.264.062-.519t.066-.439H11.85q-.272.431-.554.813a3.913,3.913,0,0,1-.624.672,2.732,2.732,0,0,1-.765.457A2.691,2.691,0,0,1,8.915.22,2.684,2.684,0,0,1,7.838.009,2.256,2.256,0,0,1,7-.62a2.9,2.9,0,0,1-.541-1.046,5.1,5.1,0,0,1-.189-1.463,7.333,7.333,0,0,1,.105-1.16,7.1,7.1,0,0,1,.356-1.327A6.757,6.757,0,0,1,7.4-6.939,5.023,5.023,0,0,1,8.436-8.095,4.947,4.947,0,0,1,9.9-8.912,5.683,5.683,0,0,1,11.85-9.22a10.373,10.373,0,0,1,1.45.105q.747.105,1.485.255Zm-.413-4.931q-.308-.07-.721-.123a6.128,6.128,0,0,0-.773-.053,3.508,3.508,0,0,0-1.349.242,3.462,3.462,0,0,0-1.015.633,3.727,3.727,0,0,0-.725.9,5.586,5.586,0,0,0-.47,1.042,6.13,6.13,0,0,0-.25,1.05,6.649,6.649,0,0,0-.075.94,4.212,4.212,0,0,0,.088.9,1.967,1.967,0,0,0,.277.681,1.3,1.3,0,0,0,.483.435,1.49,1.49,0,0,0,.7.154,1.9,1.9,0,0,0,.822-.18,2.849,2.849,0,0,0,.716-.488,4,4,0,0,0,.606-.712,7,7,0,0,0,.492-.857A7.329,7.329,0,0,0,12.3-4.17q.154-.47.25-.91ZM23.26-2.769q-.062.281-.119.677t-.1.8q-.044.4-.075.751T22.935,0H21.441q0-.149.022-.4t.053-.523q.031-.272.066-.523t.062-.409h-.035a8.877,8.877,0,0,1-.633.9,3.663,3.663,0,0,1-.668.65,2.684,2.684,0,0,1-.747.391,2.738,2.738,0,0,1-.87.132A2.688,2.688,0,0,1,17.583,0a2.256,2.256,0,0,1-.839-.646A2.977,2.977,0,0,1,16.212-1.7a5.141,5.141,0,0,1-.185-1.446A7.115,7.115,0,0,1,16.163-4.5a6.931,6.931,0,0,1,.422-1.38,6.467,6.467,0,0,1,.725-1.283,5,5,0,0,1,1.046-1.063,4.96,4.96,0,0,1,1.389-.725,5.372,5.372,0,0,1,1.749-.268,5.932,5.932,0,0,1,.914.066q.422.066.729.136l.914-4.307h1.424Zm-.378-5.01a5.662,5.662,0,0,0-.7-.154,5.029,5.029,0,0,0-.778-.057,3.566,3.566,0,0,0-1.349.237,3.4,3.4,0,0,0-1.02.633,3.788,3.788,0,0,0-.729.9,5.676,5.676,0,0,0-.475,1.037,5.9,5.9,0,0,0-.255,1.046,6.508,6.508,0,0,0-.075.927,4.443,4.443,0,0,0,.083.9,2,2,0,0,0,.272.694,1.3,1.3,0,0,0,.488.448,1.522,1.522,0,0,0,.721.158A1.865,1.865,0,0,0,19.89-1.2a2.83,2.83,0,0,0,.716-.5,4.136,4.136,0,0,0,.606-.729A7.077,7.077,0,0,0,21.7-3.3a7.81,7.81,0,0,0,.374-.945q.154-.479.25-.918Zm20.236.29a8.859,8.859,0,0,1-.149,1.622,9.124,9.124,0,0,1-.431,1.551,8.323,8.323,0,0,1-.69,1.415,6.915,6.915,0,0,1-.927,1.2,6.74,6.74,0,0,1-.914.8,5.867,5.867,0,0,1-1.055.606,5.84,5.84,0,0,1-1.2.382,6.853,6.853,0,0,1-1.38.132,5.35,5.35,0,0,1-2.136-.409A4.7,4.7,0,0,1,32.62-1.314a4.888,4.888,0,0,1-1.015-1.7,6.306,6.306,0,0,1-.352-2.136,8.592,8.592,0,0,1,.593-3.278A7.56,7.56,0,0,1,33.5-10.942a6.6,6.6,0,0,1,1.991-1.367,6.21,6.21,0,0,1,2.562-.505,5.336,5.336,0,0,1,2.1.4,4.565,4.565,0,0,1,1.6,1.107,4.948,4.948,0,0,1,1.015,1.688A6.188,6.188,0,0,1,43.118-7.488Zm-1.564.053A5.209,5.209,0,0,0,41.3-9.123,3.63,3.63,0,0,0,40.57-10.4a3.173,3.173,0,0,0-1.143-.809,3.815,3.815,0,0,0-1.494-.281,4.289,4.289,0,0,0-1.863.422A5.081,5.081,0,0,0,34.5-9.9a5.378,5.378,0,0,0-.7.967,7.486,7.486,0,0,0-.536,1.16,7.65,7.65,0,0,0-.343,1.283A7.724,7.724,0,0,0,32.8-5.133a5.173,5.173,0,0,0,.242,1.617,3.639,3.639,0,0,0,.7,1.27,3.189,3.189,0,0,0,1.138.831,3.818,3.818,0,0,0,1.556.3,4.6,4.6,0,0,0,1.868-.391,4.484,4.484,0,0,0,1.569-1.156,5.449,5.449,0,0,0,.734-1.059,7.928,7.928,0,0,0,.523-1.213,8.13,8.13,0,0,0,.316-1.27A7.59,7.59,0,0,0,41.554-7.436ZM52.692-5.854A6.835,6.835,0,0,1,52.551-4.5a6.982,6.982,0,0,1-.431,1.375A6.773,6.773,0,0,1,51.4-1.846,5.2,5.2,0,0,1,50.371-.778a4.748,4.748,0,0,1-1.336.729A4.863,4.863,0,0,1,47.383.22a5.437,5.437,0,0,1-1.024-.1,6.294,6.294,0,0,1-.883-.229l-.9,4.28H43.12l2.2-10.406q.062-.281.114-.677t.092-.8q.04-.4.066-.751T45.616-9h1.477q0,.149-.022.4t-.057.532q-.035.277-.07.536t-.062.417h.035A4.748,4.748,0,0,1,48.323-8.7a3.006,3.006,0,0,1,1.705-.523,2.785,2.785,0,0,1,1.107.211,2.192,2.192,0,0,1,.839.633,2.928,2.928,0,0,1,.532,1.055A5.259,5.259,0,0,1,52.692-5.854Zm-1.477.062a4.347,4.347,0,0,0-.083-.879,1.95,1.95,0,0,0-.277-.694,1.4,1.4,0,0,0-.5-.457,1.521,1.521,0,0,0-.743-.167,1.981,1.981,0,0,0-.857.189,2.951,2.951,0,0,0-.743.505,4.143,4.143,0,0,0-.624.734,7.294,7.294,0,0,0-.5.866,7.607,7.607,0,0,0-.374.9,6.791,6.791,0,0,0-.233.848l-.554,2.61a2.466,2.466,0,0,0,.378.127q.22.057.457.1t.483.07a4.309,4.309,0,0,0,.457.026,3.036,3.036,0,0,0,1.121-.2,3.252,3.252,0,0,0,.923-.549,3.877,3.877,0,0,0,.721-.817,5.424,5.424,0,0,0,.523-1,5.9,5.9,0,0,0,.316-1.1A6.071,6.071,0,0,0,51.215-5.792ZM61.8-6.891a2.679,2.679,0,0,1-.316,1.3,2.622,2.622,0,0,1-1.046,1,6.282,6.282,0,0,1-1.925.646,16.513,16.513,0,0,1-2.953.237,1.129,1.129,0,0,0-.018.2v.176a2.989,2.989,0,0,0,.132.9,2.023,2.023,0,0,0,.409.738,1.928,1.928,0,0,0,.712.5,2.633,2.633,0,0,0,1.033.185,4.383,4.383,0,0,0,1.332-.233,5.723,5.723,0,0,0,1.384-.664L60.27-.483a5.713,5.713,0,0,1-1.151.492A4.949,4.949,0,0,1,57.624.22,4.06,4.06,0,0,1,55.95-.088a2.948,2.948,0,0,1-1.1-.822,3.2,3.2,0,0,1-.6-1.187,5.306,5.306,0,0,1-.185-1.411,6.525,6.525,0,0,1,.176-1.525,6.209,6.209,0,0,1,.5-1.367,5.792,5.792,0,0,1,.769-1.156,5,5,0,0,1,.993-.892,4.6,4.6,0,0,1,1.169-.571,4.166,4.166,0,0,1,1.292-.2,3.734,3.734,0,0,1,1.226.185,2.562,2.562,0,0,1,.888.505,2.155,2.155,0,0,1,.541.743A2.212,2.212,0,0,1,61.8-6.891Zm-1.468.07a1.016,1.016,0,0,0-.409-.861,1.761,1.761,0,0,0-1.085-.308,2.434,2.434,0,0,0-1.037.233,3.356,3.356,0,0,0-.923.642,4,4,0,0,0-.729.976A4.543,4.543,0,0,0,55.7-4.913a15.192,15.192,0,0,0,2.136-.127,5.541,5.541,0,0,0,1.433-.374,1.926,1.926,0,0,0,.809-.6A1.348,1.348,0,0,0,60.331-6.82Zm8.545-.65h-.035a2.6,2.6,0,0,0-.461-.207,1.691,1.691,0,0,0-.567-.1,1.664,1.664,0,0,0-.976.33,3.587,3.587,0,0,0-.848.87,6.243,6.243,0,0,0-.668,1.235,8.434,8.434,0,0,0-.444,1.424L64.033,0H62.592l1.266-5.977q.079-.369.158-.773t.145-.809q.066-.4.119-.773T64.358-9h1.424q-.026.264-.062.558t-.07.571q-.035.277-.07.5t-.053.347h.035a9.7,9.7,0,0,1,.571-.905,4.182,4.182,0,0,1,.611-.69,2.589,2.589,0,0,1,.681-.444,1.924,1.924,0,0,1,.782-.158,2.481,2.481,0,0,1,.488.048q.242.048.435.1Zm7.613,4.588q-.07.334-.136.751t-.114.826q-.048.409-.079.76T76.129,0H74.634q.009-.176.026-.422t.048-.51q.031-.264.062-.519t.066-.439H74.8q-.272.431-.554.813a3.913,3.913,0,0,1-.624.672,2.732,2.732,0,0,1-.765.457,2.691,2.691,0,0,1-.993.167A2.684,2.684,0,0,1,70.789.009,2.256,2.256,0,0,1,69.95-.62a2.9,2.9,0,0,1-.541-1.046,5.1,5.1,0,0,1-.189-1.463,7.333,7.333,0,0,1,.105-1.16,7.1,7.1,0,0,1,.356-1.327,6.757,6.757,0,0,1,.668-1.323,5.023,5.023,0,0,1,1.037-1.156,4.947,4.947,0,0,1,1.463-.817A5.683,5.683,0,0,1,74.8-9.22a10.373,10.373,0,0,1,1.45.105q.747.105,1.485.255Zm-.413-4.931q-.308-.07-.721-.123a6.128,6.128,0,0,0-.773-.053,3.508,3.508,0,0,0-1.349.242,3.462,3.462,0,0,0-1.015.633,3.727,3.727,0,0,0-.725.9,5.586,5.586,0,0,0-.47,1.042,6.13,6.13,0,0,0-.25,1.05,6.649,6.649,0,0,0-.075.94,4.212,4.212,0,0,0,.088.9,1.967,1.967,0,0,0,.277.681,1.3,1.3,0,0,0,.483.435,1.49,1.49,0,0,0,.7.154,1.9,1.9,0,0,0,.822-.18,2.849,2.849,0,0,0,.716-.488,4,4,0,0,0,.606-.712,7,7,0,0,0,.492-.857,7.329,7.329,0,0,0,.374-.923q.154-.47.25-.91Zm8.281.035H82.089L81.079-3.006q-.053.272-.105.589a3.254,3.254,0,0,0-.053.51.888.888,0,0,0,.2.646.86.86,0,0,0,.628.2,1.382,1.382,0,0,0,.272-.035q.167-.035.343-.088t.347-.119l.3-.119L82.74-.158a4.261,4.261,0,0,1-.7.224A3.237,3.237,0,0,1,81.3.158a2.513,2.513,0,0,1-.853-.127,1.461,1.461,0,0,1-.576-.365,1.413,1.413,0,0,1-.325-.576,2.653,2.653,0,0,1-.1-.76,4.261,4.261,0,0,1,.048-.593,6.15,6.15,0,0,1,.119-.62l1.037-4.9H79.154L79.426-9H80.9l.466-2.2a2.709,2.709,0,0,1,.268-.083q.233-.066.51-.149l.51-.154.259-.079L82.362-9h2.268ZM87.769-.035a3.368,3.368,0,0,1-.5.114,3.5,3.5,0,0,1-.549.044A1.793,1.793,0,0,1,85.4-.321a1.618,1.618,0,0,1-.439-1.191A3.631,3.631,0,0,1,85-2.03q.044-.3.141-.738L86.451-9H87.91L86.591-2.733q-.079.369-.11.571a2.338,2.338,0,0,0-.031.343.724.724,0,0,0,.2.549.886.886,0,0,0,.628.189,2.662,2.662,0,0,0,.4-.026A1.772,1.772,0,0,0,88-1.187ZM88.8-12.208a.946.946,0,0,1-.268.677.88.88,0,0,1-.664.281.934.934,0,0,1-.672-.277.911.911,0,0,1-.286-.681.843.843,0,0,1,.286-.659.977.977,0,0,1,.672-.255.921.921,0,0,1,.659.259A.865.865,0,0,1,88.8-12.208ZM92.622,0H91.4L89.977-9h1.459l.791,5.669q.026.167.048.378t.044.431q.022.22.031.431t.009.378h.035q.07-.158.163-.36t.207-.417q.114-.215.233-.435t.224-.4L96.437-9H98.08Zm12.623-2.883q-.07.334-.136.751t-.114.826q-.048.409-.079.76T104.885,0h-1.494q.009-.176.026-.422t.048-.51q.031-.264.062-.519t.066-.439h-.035q-.272.431-.554.813a3.913,3.913,0,0,1-.624.672,2.732,2.732,0,0,1-.765.457,2.691,2.691,0,0,1-.993.167A2.684,2.684,0,0,1,99.545.009a2.256,2.256,0,0,1-.839-.628,2.9,2.9,0,0,1-.541-1.046,5.1,5.1,0,0,1-.189-1.463,7.333,7.333,0,0,1,.105-1.16,7.1,7.1,0,0,1,.356-1.327,6.757,6.757,0,0,1,.668-1.323,5.023,5.023,0,0,1,1.037-1.156,4.947,4.947,0,0,1,1.463-.817,5.683,5.683,0,0,1,1.951-.308,10.373,10.373,0,0,1,1.45.105q.747.105,1.485.255Zm-.413-4.931q-.308-.07-.721-.123a6.128,6.128,0,0,0-.773-.053,3.508,3.508,0,0,0-1.349.242,3.462,3.462,0,0,0-1.015.633,3.727,3.727,0,0,0-.725.9,5.586,5.586,0,0,0-.47,1.042,6.13,6.13,0,0,0-.25,1.05,6.649,6.649,0,0,0-.075.94,4.212,4.212,0,0,0,.088.9,1.967,1.967,0,0,0,.277.681,1.3,1.3,0,0,0,.483.435,1.49,1.49,0,0,0,.7.154,1.9,1.9,0,0,0,.822-.18,2.849,2.849,0,0,0,.716-.488,4,4,0,0,0,.606-.712,7,7,0,0,0,.492-.857,7.329,7.329,0,0,0,.374-.923q.154-.47.25-.91ZM122.3-6.539h-8.262V-7.7H122.3Zm0,3.744h-8.262v-1.16H122.3Z" transform="translate(342.5 6053.019)" fill="#212429"/>
    <path id="Trazado_1037802" data-name="Trazado 1037802" d="M-11.455-9.7l-2.408.492,1.67,2.136-.967.668-1.371-2.329L-15.92-6.407l-.967-.668,1.67-2.136L-17.642-9.7l.4-1.1,2.3.87-.2-2.672h1.213l-.2,2.672,2.312-.87ZM-4.439,0H-5.881V-10.89a3.336,3.336,0,0,1-.488.382,7.951,7.951,0,0,1-.721.426q-.4.211-.844.4A6.132,6.132,0,0,1-8.8-9.4v-1.459a8.379,8.379,0,0,0,1.006-.356q.532-.224,1.046-.5t.971-.58a7.71,7.71,0,0,0,.791-.593h.545ZM7.867-6.354a12.381,12.381,0,0,1-.286,2.8A6.533,6.533,0,0,1,6.755-1.49,3.718,3.718,0,0,1,5.428-.215,3.633,3.633,0,0,1,3.64.22,3.393,3.393,0,0,1,1.948-.2,3.546,3.546,0,0,1,.7-1.415,6.17,6.17,0,0,1-.078-3.379,12.146,12.146,0,0,1-.342-6.047,13.749,13.749,0,0,1-.065-8.965a6.674,6.674,0,0,1,.813-2.123A3.619,3.619,0,0,1,2.08-12.379,3.739,3.739,0,0,1,3.9-12.814Q7.867-12.814,7.867-6.354Zm-1.477.141q0-5.379-2.558-5.379-2.7,0-2.7,5.476,0,5.106,2.646,5.106Q6.391-1.011,6.391-6.214Zm11.181-.141a12.381,12.381,0,0,1-.286,2.8A6.533,6.533,0,0,1,16.46-1.49,3.718,3.718,0,0,1,15.133-.215,3.633,3.633,0,0,1,13.344.22,3.393,3.393,0,0,1,11.653-.2,3.546,3.546,0,0,1,10.4-1.415a6.17,6.17,0,0,1-.773-1.964,12.146,12.146,0,0,1-.264-2.667A13.749,13.749,0,0,1,9.64-8.965a6.674,6.674,0,0,1,.813-2.123,3.619,3.619,0,0,1,1.332-1.292,3.739,3.739,0,0,1,1.824-.435Q17.572-12.814,17.572-6.354ZM16.1-6.214q0-5.379-2.558-5.379-2.7,0-2.7,5.476,0,5.106,2.646,5.106Q16.1-1.011,16.1-6.214Z" transform="translate(680 6053.019)" fill="#212429"/>
  </g>
</svg>
