<svg xmlns="http://www.w3.org/2000/svg" xmlns:xlink="http://www.w3.org/1999/xlink" width="113" height="113" viewBox="0 0 113 113">
  <defs>
    <filter id="Trazado_982547" x="0" y="0" width="113" height="113" filterUnits="userSpaceOnUse">
      <feOffset dy="3" input="SourceAlpha"/>
      <feGaussianBlur stdDeviation="3" result="blur"/>
      <feFlood flood-opacity="0.161"/>
      <feComposite operator="in" in2="blur"/>
      <feComposite in="SourceGraphic"/>
    </filter>
  </defs>
  <g id="Grupo_1176658" data-name="Grupo 1176658" transform="translate(-744.381 -4789.98)">
    <g id="Grupo_1176421" data-name="Grupo 1176421" transform="translate(753.381 4795.98)">
      <g id="Grupo_1172014" data-name="Grupo 1172014">
        <g id="Grupo_1167343" data-name="Grupo 1167343" transform="translate(0)">
          <g id="Grupo_1166777" data-name="Grupo 1166777" transform="translate(0)">
            <g id="Grupo_1164305" data-name="Grupo 1164305">
              <g id="Grupo_1163948" data-name="Grupo 1163948">
                <g id="Grupo_1158168" data-name="Grupo 1158168">
                  <g id="Grupo_1152576" data-name="Grupo 1152576">
                    <g id="Grupo_1148633" data-name="Grupo 1148633">
                      <g id="Grupo_1148525" data-name="Grupo 1148525">
                        <g transform="matrix(1, 0, 0, 1, -9, -6)" filter="url(#Trazado_982547)">
                          <g id="Trazado_982547-2" data-name="Trazado 982547" transform="translate(9 6)" fill="#f2f7e5">
                            <path d="M 47.5 93.5 C 41.28937149047852 93.5 35.26533508300781 92.28397369384766 29.59518623352051 89.88570404052734 C 24.11771965026855 87.56893157958984 19.19813346862793 84.25196075439453 14.97309303283691 80.02691650390625 C 10.74804019927979 75.80186462402344 7.431066513061523 70.88229370117188 5.114293098449707 65.40481567382812 C 2.716026782989502 59.73468017578125 1.5 53.71062850952148 1.5 47.5 C 1.5 41.28937149047852 2.716026782989502 35.26533508300781 5.114293098449707 29.59518623352051 C 7.431066513061523 24.11771965026855 10.74804019927979 19.19813346862793 14.97309303283691 14.97309303283691 C 19.19813346862793 10.74804019927979 24.11771965026855 7.431066513061523 29.59518623352051 5.114293098449707 C 35.26533508300781 2.716026782989502 41.28937149047852 1.5 47.5 1.5 C 53.71062850952148 1.5 59.73468017578125 2.716026782989502 65.40481567382812 5.114293098449707 C 70.88229370117188 7.431066513061523 75.80186462402344 10.74804019927979 80.02691650390625 14.97309303283691 C 84.25196075439453 19.19813346862793 87.56893157958984 24.11771965026855 89.88570404052734 29.59518623352051 C 92.28397369384766 35.26533508300781 93.5 41.28937149047852 93.5 47.5 C 93.5 53.71062850952148 92.28397369384766 59.73468017578125 89.88570404052734 65.40481567382812 C 87.56893157958984 70.88229370117188 84.25196075439453 75.80186462402344 80.02691650390625 80.02691650390625 C 75.80186462402344 84.25196075439453 70.88229370117188 87.56893157958984 65.40481567382812 89.88570404052734 C 59.73468017578125 92.28397369384766 53.71062850952148 93.5 47.5 93.5 Z" stroke="none"/>
                            <path d="M 47.5 3 C 41.49121475219727 3 35.66376876831055 4.176155090332031 30.17950439453125 6.495796203613281 C 24.88084411621094 8.736953735351562 20.12152099609375 11.94598388671875 16.03375244140625 16.03375244140625 C 11.94598388671875 20.12152099609375 8.736953735351562 24.88084411621094 6.495796203613281 30.17950439453125 C 4.176155090332031 35.66376876831055 3 41.49121475219727 3 47.5 C 3 53.50878524780273 4.176155090332031 59.33624649047852 6.495796203613281 64.82049560546875 C 8.736953735351562 70.11917114257812 11.94598388671875 74.87849426269531 16.03375244140625 78.96626281738281 C 20.12152099609375 83.05403137207031 24.88084411621094 86.2630615234375 30.17950439453125 88.50419616699219 C 35.66376876831055 90.82384490966797 41.49121475219727 92 47.5 92 C 53.50878524780273 92 59.33624649047852 90.82384490966797 64.82049560546875 88.50419616699219 C 70.11917114257812 86.2630615234375 74.87849426269531 83.05403137207031 78.96626281738281 78.96626281738281 C 83.05403137207031 74.87849426269531 86.2630615234375 70.11917114257812 88.50419616699219 64.82049560546875 C 90.82384490966797 59.33624649047852 92 53.50878524780273 92 47.5 C 92 41.49121475219727 90.82384490966797 35.66376876831055 88.50419616699219 30.17950439453125 C 86.2630615234375 24.88084411621094 83.05403137207031 20.12152099609375 78.96626281738281 16.03375244140625 C 74.87849426269531 11.94598388671875 70.11917114257812 8.736953735351562 64.82049560546875 6.495796203613281 C 59.33624649047852 4.176155090332031 53.50878524780273 3 47.5 3 M 47.5 0 C 73.73353576660156 0 95 21.2664794921875 95 47.5 C 95 73.73353576660156 73.73353576660156 95 47.5 95 C 21.2664794921875 95 0 73.73353576660156 0 47.5 C 0 21.2664794921875 21.2664794921875 0 47.5 0 Z" stroke="none" fill="#86b60c"/>
                          </g>
                        </g>
                      </g>
                    </g>
                  </g>
                </g>
              </g>
            </g>
          </g>
        </g>
      </g>
    </g>
    <g id="_x30_1_x2C__Economic_Crisis_x2C__downtrend_x2C__economic_crisies_x2C__loss_x2C__down_arrow" transform="translate(753.071 4812.388)">
      <g id="Grupo_1176657" data-name="Grupo 1176657" transform="translate(21 1)">
        <g id="XMLID_45_" transform="translate(0 0)">
          <path id="XMLID_83_" d="M386.7,11l5.7,9.7h-3.423V31.535h-4.563V20.7H381Z" transform="translate(-339.929 -9.859)" fill="#00da77"/>
          <path id="XMLID_82_" d="M282.409,91.838l-5.7,9.7-5.7-9.7h3.423V81h4.563V91.838Z" transform="translate(-242.479 -71.873)" fill="#00da77"/>
          <path id="XMLID_81_" d="M292.376,301a11.409,11.409,0,1,1-11.18,9.127A11.408,11.408,0,0,1,292.376,301Z" transform="translate(-251.305 -266.774)" fill="#ffb51e"/>
          <path id="XMLID_80_" d="M201,381h9.355a11.44,11.44,0,0,0,.722,6.845H201Z" transform="translate(-180.465 -337.647)" fill="#ffca47"/>
          <path id="XMLID_79_" d="M31,441H50.395v6.845H31Z" transform="translate(-29.859 -390.802)" fill="#ffca47"/>
          <path id="XMLID_78_" d="M31,321H50.395v6.845H31Z" transform="translate(-29.859 -284.493)" fill="#ffca47"/>
          <path id="XMLID_77_" d="M31,201H50.395v6.845H31Z" transform="translate(-29.859 -178.183)" fill="#ffca47"/>
          <g id="Grupo_1176656" data-name="Grupo 1176656" transform="translate(1.141 15.972)">
            <path id="XMLID_76_" d="M211.077,441a11.408,11.408,0,0,0,10.458,6.845H201V441Z" transform="translate(-181.605 -406.774)" fill="#fade65"/>
            <path id="XMLID_75_" d="M201,321h13.69a11.409,11.409,0,0,0-4.335,6.845H201Z" transform="translate(-181.605 -300.465)" fill="#fade65"/>
            <path id="XMLID_74_" d="M31,381H50.395v6.845H31Z" transform="translate(-31 -353.619)" fill="#fade65"/>
            <path id="XMLID_73_" d="M31,261H50.395v6.845H31Z" transform="translate(-31 -247.31)" fill="#fade65"/>
            <path id="XMLID_72_" d="M31,141H50.395v6.845H31Z" transform="translate(-31 -141)" fill="#fade65"/>
          </g>
          <path id="XMLID_71_" d="M41.535,440.127H22.141A1.141,1.141,0,0,1,21,438.986v-6.845a1.141,1.141,0,1,1,2.282,0v5.7H41.535a1.141,1.141,0,1,1,0,2.282Z" transform="translate(-21 -381.943)"/>
          <path id="XMLID_70_" d="M41.535,380.127H22.141A1.141,1.141,0,0,1,21,378.986v-6.845a1.141,1.141,0,1,1,2.282,0v5.7H41.535a1.141,1.141,0,1,1,0,2.282Z" transform="translate(-21 -328.788)"/>
          <path id="XMLID_69_" d="M41.535,320.127H22.141A1.141,1.141,0,0,1,21,318.986v-6.845a1.141,1.141,0,0,1,2.282,0v5.7H41.535a1.141,1.141,0,1,1,0,2.282Z" transform="translate(-21 -275.633)"/>
          <path id="XMLID_68_" d="M41.535,260.127H22.141A1.141,1.141,0,0,1,21,258.986v-6.845a1.141,1.141,0,1,1,2.282,0v5.7H40.395v-5.7a1.141,1.141,0,1,1,2.282,0v6.845A1.141,1.141,0,0,1,41.535,260.127Z" transform="translate(-21 -222.479)"/>
          <path id="XMLID_67_" d="M41.535,200.127H22.141A1.141,1.141,0,0,1,21,198.986v-6.845a1.141,1.141,0,1,1,2.282,0v5.7H40.395v-5.7a1.141,1.141,0,1,1,2.282,0v6.845A1.141,1.141,0,0,1,41.535,200.127Z" transform="translate(-21 -169.324)"/>
          <path id="XMLID_64_" d="M41.535,140.127H22.141A1.141,1.141,0,0,1,21,138.986v-6.845A1.141,1.141,0,0,1,22.141,131H41.535a1.141,1.141,0,0,1,1.141,1.141v6.845A1.141,1.141,0,0,1,41.535,140.127Zm-18.254-2.282H40.395v-4.563H23.282Z" transform="translate(-21 -116.169)"/>
          <path id="XMLID_61_" d="M267.845,93.817a1.141,1.141,0,0,1-.983-.562l-5.7-9.7a1.141,1.141,0,0,1,.983-1.719h2.282v-9.7A1.141,1.141,0,0,1,265.564,71h4.563a1.141,1.141,0,0,1,1.141,1.141v9.7h2.282a1.141,1.141,0,0,1,.983,1.719l-5.7,9.7A1.141,1.141,0,0,1,267.845,93.817Zm-3.71-9.7,3.71,6.306,3.71-6.306h-1.428a1.141,1.141,0,0,1-1.141-1.141v-9.7H266.7v9.7a1.141,1.141,0,0,1-1.141,1.141Z" transform="translate(-233.62 -63.014)"/>
          <path id="XMLID_58_" d="M380.127,23.817h-4.563a1.141,1.141,0,0,1-1.141-1.141v-9.7h-2.282a1.141,1.141,0,0,1-.983-1.719l5.7-9.7a1.141,1.141,0,0,1,1.967,0l5.7,9.7a1.141,1.141,0,0,1-.983,1.719h-2.282v9.7A1.141,1.141,0,0,1,380.127,23.817ZM376.7,21.535h2.282v-9.7a1.141,1.141,0,0,1,1.141-1.141h1.428l-3.71-6.306-3.71,6.306h1.428a1.141,1.141,0,0,1,1.141,1.141Z" transform="translate(-331.07 -1)"/>
          <path id="XMLID_57_" d="M201.269,320.1a1.141,1.141,0,0,1-.891-1.345,12.5,12.5,0,0,1,2.617-5.477h-9.713v5.7a1.141,1.141,0,1,1-2.282,0V312.14A1.141,1.141,0,0,1,192.141,311h13.69a1.141,1.141,0,0,1,.685,2.053,10.251,10.251,0,0,0-3.9,6.16,1.141,1.141,0,0,1-1.345.891Z" transform="translate(-171.605 -275.633)"/>
          <path id="XMLID_56_" d="M192.141,380.127A1.141,1.141,0,0,1,191,378.986v-6.845A1.141,1.141,0,0,1,192.141,371H201.5a1.141,1.141,0,1,1,0,2.282h-8.214v5.7A1.141,1.141,0,0,1,192.141,380.127Z" transform="translate(-171.605 -328.788)"/>
          <path id="XMLID_55_" d="M212.676,440.127H192.141A1.141,1.141,0,0,1,191,438.986v-6.845A1.141,1.141,0,0,1,192.141,431h10.077a1.141,1.141,0,0,1,0,2.282h-8.936v4.563h19.395a1.141,1.141,0,1,1,0,2.282Z" transform="translate(-171.605 -381.943)"/>
          <path id="XMLID_54_" d="M283.549,316.1a12.559,12.559,0,0,1-12.3-15.058,1.141,1.141,0,1,1,2.236.453,10.272,10.272,0,1,0,3.9-6.16,1.141,1.141,0,1,1-1.371-1.824A12.438,12.438,0,0,1,283.549,291a12.549,12.549,0,1,1,0,25.1Z" transform="translate(-242.479 -257.915)"/>
          <path id="XMLID_53_" d="M354.423,362.409h-2.282a1.141,1.141,0,1,1,0-2.282h2.282a1.141,1.141,0,0,0,0-2.282,3.423,3.423,0,0,1,0-6.845H356.7a1.141,1.141,0,0,1,0,2.282h-2.282a1.141,1.141,0,0,0,0,2.282,3.423,3.423,0,0,1,0,6.845Z" transform="translate(-313.352 -311.07)"/>
          <path id="XMLID_52_" d="M372.141,335.563A1.141,1.141,0,0,1,371,334.423v-2.282a1.141,1.141,0,0,1,2.282,0v2.282A1.141,1.141,0,0,1,372.141,335.563Z" transform="translate(-331.07 -293.352)"/>
          <path id="XMLID_51_" d="M372.141,435.563A1.141,1.141,0,0,1,371,434.423v-2.282a1.141,1.141,0,1,1,2.282,0v2.282A1.141,1.141,0,0,1,372.141,435.563Z" transform="translate(-331.07 -381.943)"/>
        </g>
      </g>
    </g>
  </g>
</svg>
