<svg xmlns="http://www.w3.org/2000/svg" xmlns:xlink="http://www.w3.org/1999/xlink" width="113" height="113" viewBox="0 0 113 113">
  <defs>
    <filter id="Trazado_982547" x="0" y="0" width="113" height="113" filterUnits="userSpaceOnUse">
      <feOffset dy="3" input="SourceAlpha"/>
      <feGaussianBlur stdDeviation="3" result="blur"/>
      <feFlood flood-opacity="0.161"/>
      <feComposite operator="in" in2="blur"/>
      <feComposite in="SourceGraphic"/>
    </filter>
  </defs>
  <g id="Grupo_1176663" data-name="Grupo 1176663" transform="translate(-1164.381 -4789.98)">
    <g id="Grupo_1176422" data-name="Grupo 1176422" transform="translate(1173.381 4795.98)">
      <g id="Grupo_1172014" data-name="Grupo 1172014">
        <g id="Grupo_1167343" data-name="Grupo 1167343" transform="translate(0)">
          <g id="Grupo_1166777" data-name="Grupo 1166777" transform="translate(0)">
            <g id="Grupo_1164305" data-name="Grupo 1164305">
              <g id="Grupo_1163948" data-name="Grupo 1163948">
                <g id="Grupo_1158168" data-name="Grupo 1158168">
                  <g id="Grupo_1152576" data-name="Grupo 1152576">
                    <g id="Grupo_1148633" data-name="Grupo 1148633">
                      <g id="Grupo_1148525" data-name="Grupo 1148525">
                        <g transform="matrix(1, 0, 0, 1, -9, -6)" filter="url(#Trazado_982547)">
                          <g id="Trazado_982547-2" data-name="Trazado 982547" transform="translate(9 6)" fill="#f2f7e5">
                            <path d="M 47.5 93.5 C 41.28937149047852 93.5 35.26533508300781 92.28397369384766 29.59518623352051 89.88570404052734 C 24.11771965026855 87.56893157958984 19.19813346862793 84.25196075439453 14.97309303283691 80.02691650390625 C 10.74804019927979 75.80186462402344 7.431066513061523 70.88229370117188 5.114293098449707 65.40481567382812 C 2.716026782989502 59.73468017578125 1.5 53.71062850952148 1.5 47.5 C 1.5 41.28937149047852 2.716026782989502 35.26533508300781 5.114293098449707 29.59518623352051 C 7.431066513061523 24.11771965026855 10.74804019927979 19.19813346862793 14.97309303283691 14.97309303283691 C 19.19813346862793 10.74804019927979 24.11771965026855 7.431066513061523 29.59518623352051 5.114293098449707 C 35.26533508300781 2.716026782989502 41.28937149047852 1.5 47.5 1.5 C 53.71062850952148 1.5 59.73468017578125 2.716026782989502 65.40481567382812 5.114293098449707 C 70.88229370117188 7.431066513061523 75.80186462402344 10.74804019927979 80.02691650390625 14.97309303283691 C 84.25196075439453 19.19813346862793 87.56893157958984 24.11771965026855 89.88570404052734 29.59518623352051 C 92.28397369384766 35.26533508300781 93.5 41.28937149047852 93.5 47.5 C 93.5 53.71062850952148 92.28397369384766 59.73468017578125 89.88570404052734 65.40481567382812 C 87.56893157958984 70.88229370117188 84.25196075439453 75.80186462402344 80.02691650390625 80.02691650390625 C 75.80186462402344 84.25196075439453 70.88229370117188 87.56893157958984 65.40481567382812 89.88570404052734 C 59.73468017578125 92.28397369384766 53.71062850952148 93.5 47.5 93.5 Z" stroke="none"/>
                            <path d="M 47.5 3 C 41.49121475219727 3 35.66376876831055 4.176155090332031 30.17950439453125 6.495796203613281 C 24.88084411621094 8.736953735351562 20.12152099609375 11.94598388671875 16.03375244140625 16.03375244140625 C 11.94598388671875 20.12152099609375 8.736953735351562 24.88084411621094 6.495796203613281 30.17950439453125 C 4.176155090332031 35.66376876831055 3 41.49121475219727 3 47.5 C 3 53.50878524780273 4.176155090332031 59.33624649047852 6.495796203613281 64.82049560546875 C 8.736953735351562 70.11917114257812 11.94598388671875 74.87849426269531 16.03375244140625 78.96626281738281 C 20.12152099609375 83.05403137207031 24.88084411621094 86.2630615234375 30.17950439453125 88.50419616699219 C 35.66376876831055 90.82384490966797 41.49121475219727 92 47.5 92 C 53.50878524780273 92 59.33624649047852 90.82384490966797 64.82049560546875 88.50419616699219 C 70.11917114257812 86.2630615234375 74.87849426269531 83.05403137207031 78.96626281738281 78.96626281738281 C 83.05403137207031 74.87849426269531 86.2630615234375 70.11917114257812 88.50419616699219 64.82049560546875 C 90.82384490966797 59.33624649047852 92 53.50878524780273 92 47.5 C 92 41.49121475219727 90.82384490966797 35.66376876831055 88.50419616699219 30.17950439453125 C 86.2630615234375 24.88084411621094 83.05403137207031 20.12152099609375 78.96626281738281 16.03375244140625 C 74.87849426269531 11.94598388671875 70.11917114257812 8.736953735351562 64.82049560546875 6.495796203613281 C 59.33624649047852 4.176155090332031 53.50878524780273 3 47.5 3 M 47.5 0 C 73.73353576660156 0 95 21.2664794921875 95 47.5 C 95 73.73353576660156 73.73353576660156 95 47.5 95 C 21.2664794921875 95 0 73.73353576660156 0 47.5 C 0 21.2664794921875 21.2664794921875 0 47.5 0 Z" stroke="none" fill="#86b60c"/>
                          </g>
                        </g>
                      </g>
                    </g>
                  </g>
                </g>
              </g>
            </g>
          </g>
        </g>
      </g>
    </g>
    <g id="improvement_16137112" transform="translate(1186.488 4785.572)">
      <g id="Grupo_1176662" data-name="Grupo 1176662" transform="translate(10.383 30.958)">
        <g id="Grupo_1176659" data-name="Grupo 1176659" transform="translate(2.988 0)">
          <path id="Trazado_1036760" data-name="Trazado 1036760" d="M223.459,401.37v5.26a4.272,4.272,0,0,1-4.263,4.263h-3.024a4.271,4.271,0,0,1-4.263-4.263V402.8Z" transform="translate(-196.662 -353.774)" fill="#9bb9c3" fill-rule="evenodd"/>
          <path id="Trazado_1036761" data-name="Trazado 1036761" d="M257.517,401.37v5.26a4.272,4.272,0,0,1-4.263,4.263H251.1a4.272,4.272,0,0,0,4.263-4.263v-4.993Z" transform="translate(-230.72 -353.774)" fill="#82a3ad" fill-rule="evenodd"/>
          <path id="Trazado_1036762" data-name="Trazado 1036762" d="M116.492,37.91A21.023,21.023,0,0,1,127.237,77a4.162,4.162,0,0,0-2.081,3.661v5.126a2.9,2.9,0,0,1-2.89,2.89H110.717a2.9,2.9,0,0,1-2.89-2.89V80.664A4.159,4.159,0,0,0,105.746,77,21.023,21.023,0,0,1,116.492,37.91Z" transform="translate(-95.47 -37.91)" fill="#e6f8ff" fill-rule="evenodd"/>
          <path id="Trazado_1036763" data-name="Trazado 1036763" d="M244.815,37.91A21.023,21.023,0,0,1,255.56,77a4.162,4.162,0,0,0-2.081,3.661v5.126a2.9,2.9,0,0,1-2.89,2.89h-3.372a2.9,2.9,0,0,0,2.89-2.89V80.662A4.16,4.16,0,0,1,252.188,77a21.023,21.023,0,0,0-9.058-39.023C243.685,37.932,244.248,37.91,244.815,37.91Z" transform="translate(-223.793 -37.91)" fill="#d0f1ff" fill-rule="evenodd"/>
          <path id="Trazado_1036764" data-name="Trazado 1036764" d="M189.84,378.86v3.229a2.9,2.9,0,0,0,2.89,2.89h11.549a2.9,2.9,0,0,0,2.89-2.89V378.86Z" transform="translate(-177.482 -334.211)" fill="#b4d2d7" fill-rule="evenodd"/>
          <path id="Trazado_1036765" data-name="Trazado 1036765" d="M274.34,384.979h3.372a2.9,2.9,0,0,0,2.89-2.89V378.86H277.23v3.229A2.9,2.9,0,0,1,274.34,384.979Z" transform="translate(-250.916 -334.211)" fill="#9bb9c3" fill-rule="evenodd"/>
        </g>
        <g id="Grupo_1176660" data-name="Grupo 1176660" transform="translate(7.952 4.962)">
          <path id="Trazado_1036766" data-name="Trazado 1036766" d="M146.758,75.8h5.36v2.69A13.548,13.548,0,0,1,157,80.512l1.9-1.9,3.79,3.79-1.9,1.9a13.547,13.547,0,0,1,2.022,4.878h2.69v5.36h-2.69a13.547,13.547,0,0,1-2.022,4.878l1.9,1.9-3.79,3.79-1.9-1.9a13.548,13.548,0,0,1-4.878,2.022v2.688h-5.36v-2.688a13.548,13.548,0,0,1-4.878-2.022l-1.9,1.9-3.79-3.79,1.9-1.9a13.548,13.548,0,0,1-2.022-4.878H133.38v-5.36h2.688A13.548,13.548,0,0,1,138.09,84.3l-1.9-1.9,3.79-3.79,1.9,1.9a13.548,13.548,0,0,1,4.878-2.022Z" transform="translate(-133.38 -75.8)" fill="#ffda2d" fill-rule="evenodd"/>
          <path id="Trazado_1036767" data-name="Trazado 1036767" d="M262.56,78.487a13.576,13.576,0,0,1,5.927,2.8l.773-.773a13.548,13.548,0,0,0-4.878-2.022V75.8H262.56Zm8.669,5.812a13.554,13.554,0,0,1,2.022,4.879h1.819a13.548,13.548,0,0,0-2.022-4.878l1.9-1.9-3.79-3.79-.951.951,2.92,2.839Zm2.022,10.239a13.554,13.554,0,0,1-2.022,4.879l1.9,1.9-2.88,2.88.91.91,3.79-3.79-1.9-1.9a13.548,13.548,0,0,0,2.022-4.878Zm-4.764,7.9a13.591,13.591,0,0,1-5.927,2.8v2.687h1.822v-2.688a13.548,13.548,0,0,0,4.878-2.022Zm7.451-7.9h1.822v-5.36h-1.822Z" transform="translate(-245.643 -75.8)" fill="#ffc700" fill-rule="evenodd"/>
          <circle id="Elipse_12323" data-name="Elipse 12323" cx="8.749" cy="8.749" r="8.749" transform="translate(7.308 7.31)" fill="#fdb800"/>
          <path id="Trazado_1036768" data-name="Trazado 1036768" d="M197.939,131.61a8.713,8.713,0,0,1,5.677,2.093,8.749,8.749,0,0,0-9.812,14.368,8.75,8.75,0,0,1,4.136-16.461Z" transform="translate(-181.882 -124.302)" fill="#f4a40e" fill-rule="evenodd"/>
        </g>
        <g id="Grupo_1176661" data-name="Grupo 1176661" transform="translate(0 8.82)">
          <path id="Trazado_1036769" data-name="Trazado 1036769" d="M119.3,107.341a.639.639,0,0,1,.371-1.087l7.724-.99a.638.638,0,0,1,.715.715l-.99,7.724a.639.639,0,0,1-1.087.371l-1.966-1.966L98.88,133.5a2.071,2.071,0,0,1-2.72-.008l-5.56-4.854-14.809,8.9a2.073,2.073,0,1,1-2.128-3.558l16.1-9.675a2.072,2.072,0,0,1,2.474.259l5.294,4.623,23.594-20.016Z" transform="translate(-72.653 -105.259)" fill="#64b5f6" fill-rule="evenodd"/>
          <path id="Trazado_1036770" data-name="Trazado 1036770" d="M127.565,105.344l.622-.08a.638.638,0,0,1,.715.715l-.99,7.724a.639.639,0,0,1-1.087.371l-1.258-1.258a.639.639,0,0,0,1.087-.371Zm-2.706,6.765L99.677,133.5a2.071,2.071,0,0,1-2.72-.008l-5.56-4.854-14.809,8.9a2.073,2.073,0,0,1-2.843-.715,2.015,2.015,0,0,1-.174-.369,2.068,2.068,0,0,0,1.759-.174l14.808-8.9,5.56,4.854a2.072,2.072,0,0,0,2.72.008l25.184-21.39Z" transform="translate(-73.45 -105.259)" fill="#42a5f5" fill-rule="evenodd"/>
        </g>
      </g>
      <path id="Trazado_1036771" data-name="Trazado 1036771" d="M54.209,54.444l-6.531,5.547.706.706a1.048,1.048,0,0,1,0,1.481l-3.79,3.79a1.046,1.046,0,0,1-1.482,0l-1.135-1.135-3.861,3.279a1.045,1.045,0,0,1-1.044.972h-.149a3.132,3.132,0,0,1-3.337,0H31.714a1.047,1.047,0,0,1-1.048-1.048v-1.45l-2.45-2.138-5.821,3.5a20.142,20.142,0,0,0,1.789,1.2,5.2,5.2,0,0,1,2.593,4.561v.849H42.009V73.71A5.2,5.2,0,0,1,44.6,69.149,20.111,20.111,0,0,0,54.209,54.444Zm-12.2,24.391V76.654H26.777v2.182a1.843,1.843,0,0,0,1.841,1.843h11.55a1.844,1.844,0,0,0,1.841-1.843Zm-2.889,4.979V82.773H29.667v1.041a3.218,3.218,0,0,0,3.215,3.215H35.9A3.219,3.219,0,0,0,39.121,83.814Zm6.955-22.462.086.086-2.309,2.307-.274-.274Zm-18.285.906-14.807,8.9a1.025,1.025,0,1,1-1.05-1.761l16.1-9.674a1.03,1.03,0,0,1,1.223.128c.008.007.016.014.025.021l5.293,4.623a1.049,1.049,0,0,0,1.367.009l23.6-20.016a1.05,1.05,0,0,0,.063-1.54l-1.241-1.241,6.375-.817-.817,6.376-1.378-1.379a1.049,1.049,0,0,0-1.42-.058l-25.191,21.4a1.026,1.026,0,0,1-1.344-.005l-5.56-4.854a1.048,1.048,0,0,0-1.228-.109Zm16.4-10.281a9.8,9.8,0,1,0-17.468,6.088l-2.636,1.583a1.045,1.045,0,0,0-.169-.694,12.463,12.463,0,0,1-1.866-4.5,1.047,1.047,0,0,0-1.027-.842H19.382V50.345h1.642a1.047,1.047,0,0,0,1.027-.843A12.466,12.466,0,0,1,23.917,45a1.047,1.047,0,0,0-.131-1.323l-1.162-1.162,2.309-2.307,1.162,1.162a1.051,1.051,0,0,0,1.323.131,12.467,12.467,0,0,1,4.5-1.865,1.049,1.049,0,0,0,.843-1.028V36.966h3.263v1.642a1.049,1.049,0,0,0,.843,1.028,12.454,12.454,0,0,1,4.5,1.865,1.046,1.046,0,0,0,1.323-.131l1.162-1.162,2.309,2.307L45,43.677A1.047,1.047,0,0,0,44.869,45a12.456,12.456,0,0,1,1.866,4.5,1.046,1.046,0,0,0,1.027.843h1.626l-5.755,4.882a9.741,9.741,0,0,0,.557-3.249Zm-9.556,9.791a9.763,9.763,0,0,0,1.46-.145l-.825.7ZM30.665,58.3a3.112,3.112,0,0,0-1.607-.775,7.682,7.682,0,1,1,2.614,1.654ZM17.958,63.331A19.774,19.774,0,0,1,14.42,51.977a19.976,19.976,0,0,1,39.245-5.26l-2.348,1.992a1.046,1.046,0,0,0-.866-.458H48.6a14.494,14.494,0,0,0-1.526-3.678l1.313-1.313a1.048,1.048,0,0,0,0-1.481l-3.79-3.791a1.05,1.05,0,0,0-1.482,0L41.8,39.3a14.471,14.471,0,0,0-3.68-1.524V35.918a1.048,1.048,0,0,0-1.048-1.048H31.714a1.048,1.048,0,0,0-1.048,1.048v1.857a14.432,14.432,0,0,0-3.68,1.524l-1.312-1.313a1.05,1.05,0,0,0-1.482,0l-3.79,3.79a1.05,1.05,0,0,0,0,1.482l1.313,1.312a14.522,14.522,0,0,0-1.526,3.68H18.334A1.047,1.047,0,0,0,17.287,49.3v5.36a1.047,1.047,0,0,0,1.048,1.048H20.19a14.493,14.493,0,0,0,1.526,3.678L20.4,60.7a1.048,1.048,0,0,0-.165,1.265ZM56.452,52.539A22.048,22.048,0,0,1,45.675,70.948,3.11,3.11,0,0,0,44.1,73.71v5.126a3.944,3.944,0,0,1-2.889,3.8v1.184a5.317,5.317,0,0,1-5.311,5.31H32.882a5.316,5.316,0,0,1-5.31-5.31V82.63a3.943,3.943,0,0,1-2.89-3.8V73.71a3.11,3.11,0,0,0-1.57-2.762A22.084,22.084,0,0,1,20.473,69.1l-6.411,3.854a3.114,3.114,0,0,1-1.6.444A3.187,3.187,0,0,1,11.7,73.3a3.12,3.12,0,0,1-.841-5.7l5.3-3.187a21.856,21.856,0,0,1-3.834-12.435,22.07,22.07,0,0,1,43.085-6.74l1.9-1.612L56.285,42.6a1.687,1.687,0,0,1,.978-2.867l7.724-.99a1.688,1.688,0,0,1,1.888,1.888l-.99,7.724a1.687,1.687,0,0,1-2.868.977l-1.282-1.282Zm-22.263.486a2.869,2.869,0,0,1-.843-5.611v-.636a1.048,1.048,0,1,1,2.1,0v.592a2.891,2.891,0,0,1,1.649,1.11,1.048,1.048,0,1,1-1.7,1.227.781.781,0,0,0-.629-.325h-.574a.774.774,0,0,0,0,1.548H34.6a2.87,2.87,0,0,1,.845,5.613v.635a1.048,1.048,0,0,1-2.1,0v-.591a2.891,2.891,0,0,1-1.649-1.11,1.048,1.048,0,0,1,1.7-1.227.779.779,0,0,0,.629.325H34.6a.775.775,0,1,0,0-1.549Zm32.55-2.1H62.687a1.048,1.048,0,1,0,0,2.1h4.052a1.048,1.048,0,1,0,0-2.1ZM62.929,67.243l-3.51-2.027a1.048,1.048,0,1,0-1.048,1.815l3.51,2.026a1.037,1.037,0,0,0,.523.14,1.047,1.047,0,0,0,.525-1.954ZM10.8,65.6a1.048,1.048,0,0,0-1.431-.382l-3.51,2.026A1.047,1.047,0,1,0,6.9,69.057l3.51-2.026A1.047,1.047,0,0,0,10.8,65.6ZM5.857,36.712l3.51,2.027a1.048,1.048,0,0,0,1.048-1.815L6.9,34.9a1.047,1.047,0,1,0-1.048,1.814ZM58.9,38.879a1.042,1.042,0,0,0,.523-.141l3.51-2.026A1.047,1.047,0,1,0,61.881,34.9l-3.51,2.026a1.048,1.048,0,0,0,.525,1.955ZM6.1,53.026H2.048a1.048,1.048,0,0,1,0-2.1H6.1a1.048,1.048,0,0,1,0,2.1Z" transform="translate(0 0)" fill-rule="evenodd"/>
    </g>
  </g>
</svg>
