<svg xmlns="http://www.w3.org/2000/svg" width="521.295" height="42.333" viewBox="0 0 521.295 42.333">
  <g id="Grupo_1177215" data-name="Grupo 1177215" transform="translate(-667.277 -6753.052)">
    <path id="Trazado_1037805" data-name="Trazado 1037805" d="M-56.264-10.512q-.255-.167-.584-.343a5.345,5.345,0,0,0-.725-.316,5.725,5.725,0,0,0-.866-.229,5.476,5.476,0,0,0-1.006-.088,5.845,5.845,0,0,0-2.377.466,5.219,5.219,0,0,0-1.8,1.283,5.758,5.758,0,0,0-1.138,1.92,6.95,6.95,0,0,0-.4,2.386,5.439,5.439,0,0,0,.29,1.85,3.707,3.707,0,0,0,.826,1.354A3.482,3.482,0,0,0-62.76-1.4a4.657,4.657,0,0,0,1.652.281,7.707,7.707,0,0,0,1.055-.066,6.107,6.107,0,0,0,.879-.185,5.671,5.671,0,0,0,.76-.281q.356-.163.69-.347l-.343,1.547a7.264,7.264,0,0,1-1.525.5A8.872,8.872,0,0,1-61.415.22a5.763,5.763,0,0,1-2.175-.4A4.7,4.7,0,0,1-65.26-1.3a5.033,5.033,0,0,1-1.068-1.745,6.483,6.483,0,0,1-.378-2.268,8.492,8.492,0,0,1,.523-3.032A6.854,6.854,0,0,1-64.7-10.714a6.737,6.737,0,0,1,2.312-1.547,7.812,7.812,0,0,1,2.993-.554,7.425,7.425,0,0,1,1.991.242,7.813,7.813,0,0,1,1.463.549Zm8.808,4.843A7.491,7.491,0,0,1-47.794-3.4a5.8,5.8,0,0,1-.976,1.876A4.714,4.714,0,0,1-50.317-.25a4.4,4.4,0,0,1-2.052.47,3.747,3.747,0,0,1-1.393-.246,2.9,2.9,0,0,1-1.055-.708,3.134,3.134,0,0,1-.668-1.116,4.4,4.4,0,0,1-.233-1.481,7.334,7.334,0,0,1,.356-2.316,5.848,5.848,0,0,1,1-1.872,4.681,4.681,0,0,1,1.547-1.248,4.371,4.371,0,0,1,1.991-.453,3.721,3.721,0,0,1,1.384.246,2.94,2.94,0,0,1,1.059.708A3.2,3.2,0,0,1-47.7-7.15,4.255,4.255,0,0,1-47.456-5.669Zm-1.477.07a3.36,3.36,0,0,0-.141-1.015,2.159,2.159,0,0,0-.4-.747,1.716,1.716,0,0,0-.615-.466,1.945,1.945,0,0,0-.809-.163,2.556,2.556,0,0,0-1.4.4,3.536,3.536,0,0,0-1.055,1.042,5.164,5.164,0,0,0-.664,1.468A6.143,6.143,0,0,0-54.241-3.4a3.362,3.362,0,0,0,.136.989,2.245,2.245,0,0,0,.387.756,1.67,1.67,0,0,0,.615.479,1.952,1.952,0,0,0,.822.167A2.593,2.593,0,0,0-50.875-1.4,3.487,3.487,0,0,0-49.82-2.439a5.069,5.069,0,0,0,.659-1.472A6.3,6.3,0,0,0-48.933-5.6ZM-40.4-7.418a3.746,3.746,0,0,0-.888-.413,3.2,3.2,0,0,0-.984-.158,1.941,1.941,0,0,0-1.279.378,1.24,1.24,0,0,0-.453,1,1.255,1.255,0,0,0,.083.466,1.407,1.407,0,0,0,.246.4,2.234,2.234,0,0,0,.413.365q.25.176.576.378a4.531,4.531,0,0,1,1.419,1.173,2.262,2.262,0,0,1,.435,1.358,2.74,2.74,0,0,1-.189,1,2.247,2.247,0,0,1-.6.861,3.088,3.088,0,0,1-1.068.6,4.873,4.873,0,0,1-1.6.229,5.285,5.285,0,0,1-.58-.035A6.145,6.145,0,0,1-45.5.079a5.559,5.559,0,0,1-.615-.171,2.708,2.708,0,0,1-.514-.233l.29-1.371a3.028,3.028,0,0,0,.435.246,4.5,4.5,0,0,0,.563.22,5.257,5.257,0,0,0,.633.158,3.562,3.562,0,0,0,.655.062,2.063,2.063,0,0,0,1.314-.352,1.185,1.185,0,0,0,.435-.976,1.3,1.3,0,0,0-.066-.422,1.184,1.184,0,0,0-.233-.387,2.585,2.585,0,0,0-.439-.391q-.272-.2-.686-.444A4.44,4.44,0,0,1-45.05-5.12a2.241,2.241,0,0,1-.426-1.34,2.736,2.736,0,0,1,.2-1.042,2.52,2.52,0,0,1,.6-.879,2.929,2.929,0,0,1,1.006-.611,4,4,0,0,1,1.415-.229,5.645,5.645,0,0,1,1.2.123,4.26,4.26,0,0,1,.962.316Zm6.8-.36H-35.86L-36.87-3.006q-.053.272-.105.589a3.254,3.254,0,0,0-.053.51.888.888,0,0,0,.2.646.86.86,0,0,0,.628.2A1.382,1.382,0,0,0-35.93-1.1q.167-.035.343-.088t.347-.119l.3-.119-.272,1.266a4.261,4.261,0,0,1-.7.224,3.237,3.237,0,0,1-.743.092A2.513,2.513,0,0,1-37.5.031a1.461,1.461,0,0,1-.576-.365A1.413,1.413,0,0,1-38.4-.91a2.653,2.653,0,0,1-.1-.76,4.261,4.261,0,0,1,.048-.593,6.15,6.15,0,0,1,.119-.62l1.037-4.9H-38.8L-38.523-9h1.477l.466-2.2a2.709,2.709,0,0,1,.268-.083q.233-.066.51-.149l.51-.154.259-.079L-35.587-9h2.268Zm8.7,2.109A7.491,7.491,0,0,1-25.227-3.4,5.8,5.8,0,0,1-26.2-1.525,4.714,4.714,0,0,1-27.75-.25,4.4,4.4,0,0,1-29.8.22,3.747,3.747,0,0,1-31.2-.026,2.9,2.9,0,0,1-32.25-.734a3.134,3.134,0,0,1-.668-1.116,4.4,4.4,0,0,1-.233-1.481,7.334,7.334,0,0,1,.356-2.316,5.848,5.848,0,0,1,1-1.872,4.681,4.681,0,0,1,1.547-1.248,4.371,4.371,0,0,1,1.991-.453,3.721,3.721,0,0,1,1.384.246,2.94,2.94,0,0,1,1.059.708,3.2,3.2,0,0,1,.681,1.116A4.255,4.255,0,0,1-24.889-5.669Zm-1.477.07a3.36,3.36,0,0,0-.141-1.015,2.159,2.159,0,0,0-.4-.747,1.716,1.716,0,0,0-.615-.466,1.945,1.945,0,0,0-.809-.163,2.556,2.556,0,0,0-1.4.4,3.536,3.536,0,0,0-1.055,1.042,5.164,5.164,0,0,0-.664,1.468A6.143,6.143,0,0,0-31.674-3.4a3.362,3.362,0,0,0,.136.989,2.245,2.245,0,0,0,.387.756,1.67,1.67,0,0,0,.615.479,1.952,1.952,0,0,0,.822.167A2.593,2.593,0,0,0-28.308-1.4a3.487,3.487,0,0,0,1.055-1.037,5.069,5.069,0,0,0,.659-1.472A6.3,6.3,0,0,0-26.366-5.6Zm8.536-1.819a3.746,3.746,0,0,0-.888-.413,3.2,3.2,0,0,0-.984-.158,1.941,1.941,0,0,0-1.279.378,1.24,1.24,0,0,0-.453,1,1.255,1.255,0,0,0,.083.466,1.407,1.407,0,0,0,.246.4,2.234,2.234,0,0,0,.413.365q.25.176.576.378A4.531,4.531,0,0,1-18.7-3.828,2.262,2.262,0,0,1-18.26-2.47a2.74,2.74,0,0,1-.189,1,2.247,2.247,0,0,1-.6.861,3.088,3.088,0,0,1-1.068.6,4.873,4.873,0,0,1-1.6.229,5.285,5.285,0,0,1-.58-.035,6.145,6.145,0,0,1-.637-.105,5.559,5.559,0,0,1-.615-.171,2.708,2.708,0,0,1-.514-.233l.29-1.371a3.028,3.028,0,0,0,.435.246,4.5,4.5,0,0,0,.563.22,5.257,5.257,0,0,0,.633.158,3.562,3.562,0,0,0,.655.062,2.063,2.063,0,0,0,1.314-.352,1.185,1.185,0,0,0,.435-.976A1.3,1.3,0,0,0-19.8-2.76a1.184,1.184,0,0,0-.233-.387,2.585,2.585,0,0,0-.439-.391q-.272-.2-.686-.444A4.44,4.44,0,0,1-22.483-5.12a2.241,2.241,0,0,1-.426-1.34,2.736,2.736,0,0,1,.2-1.042,2.52,2.52,0,0,1,.6-.879A2.929,2.929,0,0,1-21.1-8.991a4,4,0,0,1,1.415-.229,5.645,5.645,0,0,1,1.2.123,4.26,4.26,0,0,1,.962.316ZM-3.192-5.669A7.491,7.491,0,0,1-3.531-3.4a5.8,5.8,0,0,1-.976,1.876A4.714,4.714,0,0,1-6.053-.25,4.4,4.4,0,0,1-8.105.22,3.747,3.747,0,0,1-9.5-.026a2.9,2.9,0,0,1-1.055-.708,3.134,3.134,0,0,1-.668-1.116,4.4,4.4,0,0,1-.233-1.481A7.334,7.334,0,0,1-11.1-5.647a5.848,5.848,0,0,1,1-1.872A4.681,4.681,0,0,1-8.549-8.767,4.371,4.371,0,0,1-6.558-9.22a3.721,3.721,0,0,1,1.384.246,2.94,2.94,0,0,1,1.059.708A3.2,3.2,0,0,1-3.434-7.15,4.255,4.255,0,0,1-3.192-5.669Zm-1.477.07a3.36,3.36,0,0,0-.141-1.015,2.159,2.159,0,0,0-.4-.747,1.716,1.716,0,0,0-.615-.466,1.945,1.945,0,0,0-.809-.163,2.556,2.556,0,0,0-1.4.4A3.536,3.536,0,0,0-9.081-6.552a5.164,5.164,0,0,0-.664,1.468A6.143,6.143,0,0,0-9.977-3.4a3.362,3.362,0,0,0,.136.989,2.245,2.245,0,0,0,.387.756,1.67,1.67,0,0,0,.615.479,1.952,1.952,0,0,0,.822.167A2.593,2.593,0,0,0-6.611-1.4,3.487,3.487,0,0,0-5.556-2.439,5.069,5.069,0,0,0-4.9-3.911,6.3,6.3,0,0,0-4.669-5.6ZM6.565-5.854A6.835,6.835,0,0,1,6.425-4.5a6.982,6.982,0,0,1-.431,1.375,6.773,6.773,0,0,1-.725,1.283A5.2,5.2,0,0,1,4.245-.778a4.748,4.748,0,0,1-1.336.729A4.863,4.863,0,0,1,1.257.22,5.437,5.437,0,0,1,.233.123,6.294,6.294,0,0,1-.65-.105l-.9,4.28H-3.006l2.2-10.406q.062-.281.114-.677T-.6-7.7q.04-.4.066-.751T-.51-9H.967q0,.149-.022.4t-.057.532q-.035.277-.07.536T.756-7.11H.791A4.748,4.748,0,0,1,2.2-8.7,3.006,3.006,0,0,1,3.9-9.22a2.785,2.785,0,0,1,1.107.211,2.192,2.192,0,0,1,.839.633,2.928,2.928,0,0,1,.532,1.055A5.259,5.259,0,0,1,6.565-5.854Zm-1.477.062a4.347,4.347,0,0,0-.083-.879,1.95,1.95,0,0,0-.277-.694,1.4,1.4,0,0,0-.5-.457,1.521,1.521,0,0,0-.743-.167,1.981,1.981,0,0,0-.857.189,2.951,2.951,0,0,0-.743.505,4.143,4.143,0,0,0-.624.734,7.294,7.294,0,0,0-.5.866,7.607,7.607,0,0,0-.374.9,6.791,6.791,0,0,0-.233.848L-.4-1.336a2.466,2.466,0,0,0,.378.127q.22.057.457.1t.483.07a4.309,4.309,0,0,0,.457.026,3.036,3.036,0,0,0,1.121-.2,3.252,3.252,0,0,0,.923-.549,3.877,3.877,0,0,0,.721-.817,5.424,5.424,0,0,0,.523-1,5.9,5.9,0,0,0,.316-1.1A6.071,6.071,0,0,0,5.089-5.792Zm10.584-1.1a2.679,2.679,0,0,1-.316,1.3,2.622,2.622,0,0,1-1.046,1,6.282,6.282,0,0,1-1.925.646,16.513,16.513,0,0,1-2.953.237,1.129,1.129,0,0,0-.018.2v.176a2.989,2.989,0,0,0,.132.9,2.023,2.023,0,0,0,.409.738,1.928,1.928,0,0,0,.712.5,2.633,2.633,0,0,0,1.033.185,4.383,4.383,0,0,0,1.332-.233,5.723,5.723,0,0,0,1.384-.664L14.143-.483a5.713,5.713,0,0,1-1.151.492A4.949,4.949,0,0,1,11.5.22,4.06,4.06,0,0,1,9.824-.088a2.948,2.948,0,0,1-1.1-.822,3.2,3.2,0,0,1-.6-1.187,5.306,5.306,0,0,1-.185-1.411,6.525,6.525,0,0,1,.176-1.525,6.209,6.209,0,0,1,.5-1.367A5.792,5.792,0,0,1,9.38-7.554a5,5,0,0,1,.993-.892,4.6,4.6,0,0,1,1.169-.571,4.166,4.166,0,0,1,1.292-.2,3.734,3.734,0,0,1,1.226.185,2.562,2.562,0,0,1,.888.505,2.155,2.155,0,0,1,.541.743A2.212,2.212,0,0,1,15.673-6.891ZM14.2-6.82a1.016,1.016,0,0,0-.409-.861,1.761,1.761,0,0,0-1.085-.308,2.434,2.434,0,0,0-1.037.233,3.356,3.356,0,0,0-.923.642,4,4,0,0,0-.729.976,4.543,4.543,0,0,0-.448,1.226,15.192,15.192,0,0,0,2.136-.127,5.541,5.541,0,0,0,1.433-.374,1.926,1.926,0,0,0,.809-.6A1.348,1.348,0,0,0,14.2-6.82Zm8.545-.65h-.035a2.6,2.6,0,0,0-.461-.207,1.691,1.691,0,0,0-.567-.1,1.664,1.664,0,0,0-.976.33,3.587,3.587,0,0,0-.848.87,6.243,6.243,0,0,0-.668,1.235,8.434,8.434,0,0,0-.444,1.424L17.907,0H16.466l1.266-5.977q.079-.369.158-.773t.145-.809q.066-.4.119-.773T18.232-9h1.424q-.026.264-.062.558t-.07.571q-.035.277-.07.5t-.053.347h.035a9.7,9.7,0,0,1,.571-.905,4.182,4.182,0,0,1,.611-.69,2.589,2.589,0,0,1,.681-.444,1.924,1.924,0,0,1,.782-.158,2.481,2.481,0,0,1,.488.048q.242.048.435.1Zm7.613,4.588q-.07.334-.136.751t-.114.826q-.048.409-.079.76T30,0H28.508q.009-.176.026-.422t.048-.51q.031-.264.062-.519t.066-.439h-.035q-.272.431-.554.813A3.913,3.913,0,0,1,27.5-.4a2.732,2.732,0,0,1-.765.457A2.691,2.691,0,0,1,25.74.22,2.684,2.684,0,0,1,24.663.009a2.256,2.256,0,0,1-.839-.628,2.9,2.9,0,0,1-.541-1.046,5.1,5.1,0,0,1-.189-1.463,7.333,7.333,0,0,1,.105-1.16,7.1,7.1,0,0,1,.356-1.327,6.757,6.757,0,0,1,.668-1.323,5.023,5.023,0,0,1,1.037-1.156,4.947,4.947,0,0,1,1.463-.817,5.683,5.683,0,0,1,1.951-.308,10.373,10.373,0,0,1,1.45.105q.747.105,1.485.255ZM29.95-7.813q-.308-.07-.721-.123a6.128,6.128,0,0,0-.773-.053,3.508,3.508,0,0,0-1.349.242,3.462,3.462,0,0,0-1.015.633,3.727,3.727,0,0,0-.725.9,5.586,5.586,0,0,0-.47,1.042,6.13,6.13,0,0,0-.25,1.05,6.649,6.649,0,0,0-.075.94,4.212,4.212,0,0,0,.088.9,1.967,1.967,0,0,0,.277.681,1.3,1.3,0,0,0,.483.435,1.49,1.49,0,0,0,.7.154,1.9,1.9,0,0,0,.822-.18,2.849,2.849,0,0,0,.716-.488,4,4,0,0,0,.606-.712,7,7,0,0,0,.492-.857,7.329,7.329,0,0,0,.374-.923q.154-.47.25-.91Zm8.281.035H35.963L34.953-3.006q-.053.272-.105.589a3.254,3.254,0,0,0-.053.51.888.888,0,0,0,.2.646.86.86,0,0,0,.628.2,1.382,1.382,0,0,0,.272-.035q.167-.035.343-.088t.347-.119l.3-.119L36.614-.158a4.261,4.261,0,0,1-.7.224,3.237,3.237,0,0,1-.743.092A2.513,2.513,0,0,1,34.32.031a1.461,1.461,0,0,1-.576-.365,1.413,1.413,0,0,1-.325-.576,2.653,2.653,0,0,1-.1-.76,4.261,4.261,0,0,1,.048-.593,6.15,6.15,0,0,1,.119-.62l1.037-4.9H33.028L33.3-9h1.477l.466-2.2a2.709,2.709,0,0,1,.268-.083q.233-.066.51-.149l.51-.154.259-.079L36.236-9H38.5ZM41.643-.035a3.368,3.368,0,0,1-.5.114A3.5,3.5,0,0,1,40.6.123,1.793,1.793,0,0,1,39.27-.321a1.618,1.618,0,0,1-.439-1.191,3.631,3.631,0,0,1,.044-.519q.044-.3.141-.738L40.324-9h1.459L40.465-2.733q-.079.369-.11.571a2.338,2.338,0,0,0-.031.343.724.724,0,0,0,.2.549.886.886,0,0,0,.628.189,2.662,2.662,0,0,0,.4-.026,1.772,1.772,0,0,0,.321-.079Zm1.028-12.173a.946.946,0,0,1-.268.677.88.88,0,0,1-.664.281.934.934,0,0,1-.672-.277.911.911,0,0,1-.286-.681.843.843,0,0,1,.286-.659.977.977,0,0,1,.672-.255.921.921,0,0,1,.659.259A.865.865,0,0,1,42.671-12.208ZM46.5,0H45.274L43.851-9H45.31L46.1-3.331q.026.167.048.378t.044.431q.022.22.031.431t.009.378h.035q.07-.158.163-.36t.207-.417q.114-.215.233-.435t.224-.4L50.311-9h1.644ZM60.112-5.669A7.491,7.491,0,0,1,59.774-3.4,5.8,5.8,0,0,1,58.8-1.525,4.714,4.714,0,0,1,57.251-.25,4.4,4.4,0,0,1,55.2.22a3.747,3.747,0,0,1-1.393-.246,2.9,2.9,0,0,1-1.055-.708,3.134,3.134,0,0,1-.668-1.116,4.4,4.4,0,0,1-.233-1.481,7.334,7.334,0,0,1,.356-2.316,5.848,5.848,0,0,1,1-1.872,4.681,4.681,0,0,1,1.547-1.248,4.371,4.371,0,0,1,1.991-.453,3.721,3.721,0,0,1,1.384.246,2.94,2.94,0,0,1,1.059.708,3.2,3.2,0,0,1,.681,1.116A4.255,4.255,0,0,1,60.112-5.669Zm-1.477.07A3.36,3.36,0,0,0,58.5-6.614a2.159,2.159,0,0,0-.4-.747,1.716,1.716,0,0,0-.615-.466,1.945,1.945,0,0,0-.809-.163,2.556,2.556,0,0,0-1.4.4,3.536,3.536,0,0,0-1.055,1.042,5.164,5.164,0,0,0-.664,1.468A6.143,6.143,0,0,0,53.327-3.4a3.362,3.362,0,0,0,.136.989,2.245,2.245,0,0,0,.387.756,1.67,1.67,0,0,0,.615.479,1.952,1.952,0,0,0,.822.167A2.593,2.593,0,0,0,56.693-1.4a3.487,3.487,0,0,0,1.055-1.037,5.069,5.069,0,0,0,.659-1.472A6.3,6.3,0,0,0,58.636-5.6Zm8.536-1.819a3.746,3.746,0,0,0-.888-.413,3.2,3.2,0,0,0-.984-.158,1.941,1.941,0,0,0-1.279.378,1.24,1.24,0,0,0-.453,1,1.255,1.255,0,0,0,.083.466,1.407,1.407,0,0,0,.246.4,2.234,2.234,0,0,0,.413.365q.25.176.576.378a4.531,4.531,0,0,1,1.419,1.173,2.262,2.262,0,0,1,.435,1.358,2.74,2.74,0,0,1-.189,1,2.247,2.247,0,0,1-.6.861,3.088,3.088,0,0,1-1.068.6,4.873,4.873,0,0,1-1.6.229,5.285,5.285,0,0,1-.58-.035A6.145,6.145,0,0,1,62.07.079a5.559,5.559,0,0,1-.615-.171,2.708,2.708,0,0,1-.514-.233L61.23-1.7a3.028,3.028,0,0,0,.435.246,4.5,4.5,0,0,0,.563.22,5.257,5.257,0,0,0,.633.158,3.562,3.562,0,0,0,.655.062,2.063,2.063,0,0,0,1.314-.352,1.185,1.185,0,0,0,.435-.976A1.3,1.3,0,0,0,65.2-2.76a1.184,1.184,0,0,0-.233-.387,2.585,2.585,0,0,0-.439-.391q-.272-.2-.686-.444A4.44,4.44,0,0,1,62.518-5.12a2.241,2.241,0,0,1-.426-1.34,2.736,2.736,0,0,1,.2-1.042,2.52,2.52,0,0,1,.6-.879A2.929,2.929,0,0,1,63.9-8.991a4,4,0,0,1,1.415-.229,5.645,5.645,0,0,1,1.2.123,4.26,4.26,0,0,1,.962.316Z" transform="translate(1051 6766.174)" fill="#212429"/>
    <path id="Trazado_1037803" data-name="Trazado 1037803" d="M-38.967-12.6-43.634,0H-45.26l-4.57-12.6h1.644L-44.7-2.61a5.933,5.933,0,0,1,.255,1.116h.035a5.475,5.475,0,0,1,.29-1.134l3.56-9.976Zm7.71,8.464h-6.354a3.366,3.366,0,0,0,.809,2.32A2.788,2.788,0,0,0-34.677-1a4.422,4.422,0,0,0,2.795-1V-.65a5.224,5.224,0,0,1-3.138.861,3.8,3.8,0,0,1-3-1.226,5.018,5.018,0,0,1-1.09-3.45,4.921,4.921,0,0,1,1.191-3.423,3.819,3.819,0,0,1,2.958-1.323,3.384,3.384,0,0,1,2.733,1.143A4.764,4.764,0,0,1-31.258-4.9Zm-1.477-1.222a2.933,2.933,0,0,0-.6-1.942A2.051,2.051,0,0,0-34.984-8a2.328,2.328,0,0,0-1.731.729,3.311,3.311,0,0,0-.879,1.907ZM-21.605,0h-1.441V-5.133Q-23.047-8-25.139-8a2.269,2.269,0,0,0-1.789.813,3.013,3.013,0,0,0-.708,2.052V0h-1.441V-9h1.441v1.494h.035a3.248,3.248,0,0,1,2.953-1.705,2.753,2.753,0,0,1,2.259.954A4.248,4.248,0,0,1-21.605-5.5Zm6.892-.088a2.779,2.779,0,0,1-1.345.281q-2.364,0-2.364-2.637V-7.77h-1.547V-9h1.547v-2.2l1.441-.466V-9h2.268v1.23h-2.268V-2.7a2.1,2.1,0,0,0,.308,1.292,1.228,1.228,0,0,0,1.02.387,1.515,1.515,0,0,0,.94-.3ZM-6.344,0H-7.785V-1.406h-.035A3.018,3.018,0,0,1-10.589.211a2.959,2.959,0,0,1-2.1-.712,2.466,2.466,0,0,1-.76-1.89q0-2.522,2.971-2.936l2.7-.378Q-7.785-8-9.64-8a4.431,4.431,0,0,0-2.936,1.107V-8.367a5.577,5.577,0,0,1,3.059-.844q3.173,0,3.173,3.357ZM-7.785-4.553l-2.171.3a3.525,3.525,0,0,0-1.512.5,1.432,1.432,0,0,0-.51,1.261,1.374,1.374,0,0,0,.47,1.077A1.817,1.817,0,0,0-10.255-1a2.314,2.314,0,0,0,1.771-.751,2.685,2.685,0,0,0,.7-1.9ZM-4.171-.325V-1.872A4.266,4.266,0,0,0-1.579-1Q.32-1,.32-2.268a1.1,1.1,0,0,0-.163-.611,1.62,1.62,0,0,0-.439-.444,3.383,3.383,0,0,0-.65-.347q-.374-.154-.8-.321a10.357,10.357,0,0,1-1.05-.479,3.173,3.173,0,0,1-.756-.545A2.028,2.028,0,0,1-4-5.7a2.441,2.441,0,0,1-.154-.905,2.15,2.15,0,0,1,.29-1.121,2.572,2.572,0,0,1,.773-.817,3.607,3.607,0,0,1,1.1-.5A4.893,4.893,0,0,1-.708-9.211a5.164,5.164,0,0,1,2.092.4v1.459A4.077,4.077,0,0,0-.9-8a2.671,2.671,0,0,0-.729.092,1.786,1.786,0,0,0-.558.259,1.2,1.2,0,0,0-.36.4,1.053,1.053,0,0,0-.127.514,1.233,1.233,0,0,0,.127.589,1.3,1.3,0,0,0,.374.422,2.855,2.855,0,0,0,.6.334q.352.149.8.325a11.131,11.131,0,0,1,1.072.47,3.678,3.678,0,0,1,.809.545,2.129,2.129,0,0,1,.514.7,2.254,2.254,0,0,1,.18.94A2.217,2.217,0,0,1,1.5-1.248a2.523,2.523,0,0,1-.787.817A3.6,3.6,0,0,1-.418.053,5.6,5.6,0,0,1-1.763.211,5.106,5.106,0,0,1-4.171-.325ZM16.416,0H14.975V-5.133Q14.975-8,12.883-8a2.269,2.269,0,0,0-1.789.813,3.013,3.013,0,0,0-.708,2.052V0H8.946V-9h1.441v1.494h.035a3.248,3.248,0,0,1,2.953-1.705,2.753,2.753,0,0,1,2.259.954A4.248,4.248,0,0,1,16.416-5.5Zm9.951-4.14H20.013a3.366,3.366,0,0,0,.809,2.32A2.788,2.788,0,0,0,22.948-1a4.422,4.422,0,0,0,2.795-1V-.65a5.224,5.224,0,0,1-3.138.861,3.8,3.8,0,0,1-3-1.226,5.018,5.018,0,0,1-1.09-3.45A4.921,4.921,0,0,1,19.71-7.888a3.819,3.819,0,0,1,2.958-1.323A3.384,3.384,0,0,1,25.4-8.068,4.764,4.764,0,0,1,26.367-4.9ZM24.891-5.361a2.933,2.933,0,0,0-.6-1.942A2.051,2.051,0,0,0,22.641-8a2.328,2.328,0,0,0-1.731.729,3.311,3.311,0,0,0-.879,1.907ZM32.724-.088a2.779,2.779,0,0,1-1.345.281q-2.364,0-2.364-2.637V-7.77H27.468V-9h1.547v-2.2l1.441-.466V-9h2.268v1.23H30.456V-2.7a2.1,2.1,0,0,0,.308,1.292,1.228,1.228,0,0,0,1.02.387,1.515,1.515,0,0,0,.94-.3ZM41.093,0H39.651V-1.406h-.035A3.018,3.018,0,0,1,36.847.211a2.959,2.959,0,0,1-2.1-.712,2.466,2.466,0,0,1-.76-1.89q0-2.522,2.971-2.936l2.7-.378Q39.651-8,37.8-8a4.431,4.431,0,0,0-2.936,1.107V-8.367a5.577,5.577,0,0,1,3.059-.844q3.173,0,3.173,3.357ZM39.651-4.553l-2.171.3a3.525,3.525,0,0,0-1.512.5,1.432,1.432,0,0,0-.51,1.261,1.374,1.374,0,0,0,.47,1.077A1.817,1.817,0,0,0,37.181-1a2.314,2.314,0,0,0,1.771-.751,2.685,2.685,0,0,0,.7-1.9ZM43.265-.325V-1.872A4.266,4.266,0,0,0,45.858-1q1.9,0,1.9-1.266a1.1,1.1,0,0,0-.163-.611,1.62,1.62,0,0,0-.439-.444,3.383,3.383,0,0,0-.65-.347q-.374-.154-.8-.321a10.357,10.357,0,0,1-1.05-.479,3.173,3.173,0,0,1-.756-.545,2.028,2.028,0,0,1-.457-.69,2.441,2.441,0,0,1-.154-.905,2.15,2.15,0,0,1,.29-1.121,2.572,2.572,0,0,1,.773-.817,3.607,3.607,0,0,1,1.1-.5,4.893,4.893,0,0,1,1.279-.167,5.164,5.164,0,0,1,2.092.4v1.459A4.077,4.077,0,0,0,46.535-8a2.671,2.671,0,0,0-.729.092,1.786,1.786,0,0,0-.558.259,1.2,1.2,0,0,0-.36.4,1.053,1.053,0,0,0-.127.514,1.233,1.233,0,0,0,.127.589,1.3,1.3,0,0,0,.374.422,2.855,2.855,0,0,0,.6.334q.352.149.8.325a11.131,11.131,0,0,1,1.072.47,3.678,3.678,0,0,1,.809.545,2.129,2.129,0,0,1,.514.7,2.254,2.254,0,0,1,.18.94,2.217,2.217,0,0,1-.294,1.16,2.523,2.523,0,0,1-.787.817,3.6,3.6,0,0,1-1.134.483,5.6,5.6,0,0,1-1.345.158A5.106,5.106,0,0,1,43.265-.325Z" transform="translate(1051 6795.174)" fill="#212429"/>
    <path id="Trazado_1037804" data-name="Trazado 1037804" d="M-123.037-9.29a4.837,4.837,0,0,1-.316,1.753,3.9,3.9,0,0,1-.962,1.437,4.579,4.579,0,0,1-1.639.971,6.932,6.932,0,0,1-2.338.356h-1.916l-1,4.772h-1.512l2.663-12.6h3.261a4.8,4.8,0,0,1,1.727.277,3.25,3.25,0,0,1,1.169.738,2.8,2.8,0,0,1,.659,1.059A3.767,3.767,0,0,1-123.037-9.29Zm-1.556.132a2.234,2.234,0,0,0-.163-.866,1.787,1.787,0,0,0-.479-.668,2.179,2.179,0,0,0-.787-.426,3.587,3.587,0,0,0-1.085-.149h-1.714l-1.1,5.168h1.767a4.916,4.916,0,0,0,1.6-.233,3.049,3.049,0,0,0,1.107-.642,2.5,2.5,0,0,0,.642-.967A3.481,3.481,0,0,0-124.593-9.158Zm10.522,3.489a7.491,7.491,0,0,1-.338,2.268,5.8,5.8,0,0,1-.976,1.876A4.714,4.714,0,0,1-116.931-.25a4.4,4.4,0,0,1-2.052.47,3.747,3.747,0,0,1-1.393-.246,2.9,2.9,0,0,1-1.055-.708A3.134,3.134,0,0,1-122.1-1.85a4.4,4.4,0,0,1-.233-1.481,7.334,7.334,0,0,1,.356-2.316,5.848,5.848,0,0,1,1-1.872,4.681,4.681,0,0,1,1.547-1.248,4.371,4.371,0,0,1,1.991-.453,3.721,3.721,0,0,1,1.384.246,2.94,2.94,0,0,1,1.059.708,3.2,3.2,0,0,1,.681,1.116A4.255,4.255,0,0,1-114.07-5.669Zm-1.477.07a3.36,3.36,0,0,0-.141-1.015,2.159,2.159,0,0,0-.4-.747,1.716,1.716,0,0,0-.615-.466,1.945,1.945,0,0,0-.809-.163,2.556,2.556,0,0,0-1.4.4,3.536,3.536,0,0,0-1.055,1.042,5.164,5.164,0,0,0-.664,1.468,6.143,6.143,0,0,0-.233,1.683,3.362,3.362,0,0,0,.136.989,2.245,2.245,0,0,0,.387.756,1.67,1.67,0,0,0,.615.479,1.952,1.952,0,0,0,.822.167,2.593,2.593,0,0,0,1.406-.391,3.487,3.487,0,0,0,1.055-1.037,5.069,5.069,0,0,0,.659-1.472A6.3,6.3,0,0,0-115.547-5.6Zm8.9-1.872h-.035a2.6,2.6,0,0,0-.461-.207,1.691,1.691,0,0,0-.567-.1,1.664,1.664,0,0,0-.976.33,3.587,3.587,0,0,0-.848.87,6.243,6.243,0,0,0-.668,1.235,8.434,8.434,0,0,0-.444,1.424L-111.493,0h-1.441l1.266-5.977q.079-.369.158-.773t.145-.809q.066-.4.119-.773t.079-.668h1.424q-.026.264-.062.558t-.07.571q-.035.277-.07.5t-.053.347h.035a9.7,9.7,0,0,1,.571-.905,4.182,4.182,0,0,1,.611-.69,2.589,2.589,0,0,1,.681-.444,1.924,1.924,0,0,1,.782-.158,2.481,2.481,0,0,1,.488.048q.242.048.435.1Zm7.253.255a3.308,3.308,0,0,0-.892-.549,2.9,2.9,0,0,0-1.156-.224,2.73,2.73,0,0,0-1.094.211,3.02,3.02,0,0,0-.866.563,3.649,3.649,0,0,0-.65.809,5.391,5.391,0,0,0-.448.949,5.842,5.842,0,0,0-.259.98,5.411,5.411,0,0,0-.083.91,2.871,2.871,0,0,0,.554,1.907,1.881,1.881,0,0,0,1.512.65,3.327,3.327,0,0,0,1.2-.242,5.8,5.8,0,0,0,1.178-.62l-.308,1.441a6.168,6.168,0,0,1-1.138.479,4.124,4.124,0,0,1-1.2.171,3.408,3.408,0,0,1-1.437-.281A2.816,2.816,0,0,1-105.5-.835,3.314,3.314,0,0,1-106.1-2a5.031,5.031,0,0,1-.2-1.455,7.1,7.1,0,0,1,.149-1.455,6.265,6.265,0,0,1,.444-1.354,5.87,5.87,0,0,1,.725-1.182A4.675,4.675,0,0,1-104-8.38,4.693,4.693,0,0,1-102.755-9a4.754,4.754,0,0,1,1.485-.224,4.738,4.738,0,0,1,.721.053,4.277,4.277,0,0,1,.624.141,4.2,4.2,0,0,1,.5.189,2.057,2.057,0,0,1,.352.2Zm8.677.325a2.679,2.679,0,0,1-.316,1.3,2.622,2.622,0,0,1-1.046,1,6.282,6.282,0,0,1-1.925.646,16.513,16.513,0,0,1-2.953.237,1.129,1.129,0,0,0-.018.2v.176a2.989,2.989,0,0,0,.132.9,2.023,2.023,0,0,0,.409.738,1.928,1.928,0,0,0,.712.5,2.633,2.633,0,0,0,1.033.185,4.383,4.383,0,0,0,1.332-.233,5.723,5.723,0,0,0,1.384-.664l-.272,1.424A5.713,5.713,0,0,1-93.4.009,4.949,4.949,0,0,1-94.9.22,4.06,4.06,0,0,1-96.57-.088a2.948,2.948,0,0,1-1.1-.822,3.2,3.2,0,0,1-.6-1.187,5.306,5.306,0,0,1-.185-1.411,6.525,6.525,0,0,1,.176-1.525,6.209,6.209,0,0,1,.5-1.367,5.792,5.792,0,0,1,.769-1.156,5,5,0,0,1,.993-.892,4.6,4.6,0,0,1,1.169-.571,4.166,4.166,0,0,1,1.292-.2,3.734,3.734,0,0,1,1.226.185,2.562,2.562,0,0,1,.888.505,2.155,2.155,0,0,1,.541.743A2.212,2.212,0,0,1-90.721-6.891Zm-1.468.07a1.016,1.016,0,0,0-.409-.861,1.761,1.761,0,0,0-1.085-.308,2.434,2.434,0,0,0-1.037.233,3.356,3.356,0,0,0-.923.642,4,4,0,0,0-.729.976,4.543,4.543,0,0,0-.448,1.226,15.192,15.192,0,0,0,2.136-.127,5.541,5.541,0,0,0,1.433-.374,1.926,1.926,0,0,0,.809-.6A1.348,1.348,0,0,0-92.189-6.82Zm11.006.07a2.864,2.864,0,0,1-.031.36q-.031.229-.079.492t-.1.523q-.048.259-.092.444L-82.528,0h-1.459l1.1-5.273q.035-.141.07-.325t.062-.369q.026-.185.044-.338a2.261,2.261,0,0,0,.018-.242A1.6,1.6,0,0,0-83.016-7.6a1.168,1.168,0,0,0-.954-.387,2.218,2.218,0,0,0-1.151.343,4.737,4.737,0,0,0-1.055.87,5.934,5.934,0,0,0-.831,1.16,4.445,4.445,0,0,0-.47,1.222L-88.417,0h-1.459l1.389-6.425q.07-.343.141-.716t.132-.721q.062-.347.105-.646t.07-.492h1.406q-.044.343-.105.716t-.105.69q-.053.369-.114.721h.035a7.433,7.433,0,0,1,.681-.91,5.1,5.1,0,0,1,.809-.747,3.84,3.84,0,0,1,.923-.505,2.869,2.869,0,0,1,1.024-.185,2.657,2.657,0,0,1,1.028.18,1.926,1.926,0,0,1,.716.505,2.058,2.058,0,0,1,.422.782A3.5,3.5,0,0,1-81.183-6.75Zm6.989-1.028h-2.268l-1.011,4.772q-.053.272-.105.589a3.254,3.254,0,0,0-.053.51.888.888,0,0,0,.2.646.86.86,0,0,0,.628.2,1.382,1.382,0,0,0,.272-.035q.167-.035.343-.088t.347-.119l.3-.119-.272,1.266a4.261,4.261,0,0,1-.7.224,3.237,3.237,0,0,1-.743.092,2.513,2.513,0,0,1-.853-.127,1.461,1.461,0,0,1-.576-.365,1.413,1.413,0,0,1-.325-.576,2.653,2.653,0,0,1-.1-.76,4.261,4.261,0,0,1,.048-.593,6.15,6.15,0,0,1,.119-.62l1.037-4.9H-79.4L-79.125-9h1.477l.466-2.2a2.709,2.709,0,0,1,.268-.083q.233-.066.51-.149l.51-.154.259-.079L-76.189-9h2.268Zm7.71,4.9q-.07.334-.136.751t-.114.826q-.048.409-.079.76T-66.845,0h-1.494q.009-.176.026-.422t.048-.51q.031-.264.062-.519t.066-.439h-.035q-.272.431-.554.813A3.913,3.913,0,0,1-69.35-.4a2.732,2.732,0,0,1-.765.457,2.691,2.691,0,0,1-.993.167A2.684,2.684,0,0,1-72.184.009a2.256,2.256,0,0,1-.839-.628,2.9,2.9,0,0,1-.541-1.046,5.1,5.1,0,0,1-.189-1.463,7.333,7.333,0,0,1,.105-1.16,7.1,7.1,0,0,1,.356-1.327,6.757,6.757,0,0,1,.668-1.323,5.023,5.023,0,0,1,1.037-1.156,4.947,4.947,0,0,1,1.463-.817,5.683,5.683,0,0,1,1.951-.308,10.373,10.373,0,0,1,1.45.105q.747.105,1.485.255ZM-66.9-7.813q-.308-.07-.721-.123a6.128,6.128,0,0,0-.773-.053,3.508,3.508,0,0,0-1.349.242,3.462,3.462,0,0,0-1.015.633,3.727,3.727,0,0,0-.725.9,5.586,5.586,0,0,0-.47,1.042,6.13,6.13,0,0,0-.25,1.05,6.649,6.649,0,0,0-.075.94,4.212,4.212,0,0,0,.088.9,1.967,1.967,0,0,0,.277.681,1.3,1.3,0,0,0,.483.435,1.49,1.49,0,0,0,.7.154,1.9,1.9,0,0,0,.822-.18,2.849,2.849,0,0,0,.716-.488,4,4,0,0,0,.606-.712,7,7,0,0,0,.492-.857,7.329,7.329,0,0,0,.374-.923q.154-.47.25-.91Zm4.194,7.4a7.6,7.6,0,0,1-1.5,3.48,3.325,3.325,0,0,1-2.624,1.16,3.155,3.155,0,0,1-.321-.018,3.464,3.464,0,0,1-.343-.053q-.171-.035-.334-.083a2.137,2.137,0,0,1-.294-.11l.255-1.354a2.3,2.3,0,0,0,.246.141,2.776,2.776,0,0,0,.3.127A2.5,2.5,0,0,0-67,2.971a1.44,1.44,0,0,0,.3.035,1.891,1.891,0,0,0,1.529-.782,5.629,5.629,0,0,0,.949-2.364L-62.325-9h1.441ZM-60-12.208a.946.946,0,0,1-.268.677.88.88,0,0,1-.664.281.934.934,0,0,1-.672-.277.911.911,0,0,1-.286-.681.843.843,0,0,1,.286-.659.977.977,0,0,1,.672-.255.921.921,0,0,1,.659.259A.865.865,0,0,1-60-12.208Zm8.061,5.317a2.679,2.679,0,0,1-.316,1.3,2.622,2.622,0,0,1-1.046,1,6.282,6.282,0,0,1-1.925.646,16.513,16.513,0,0,1-2.953.237,1.129,1.129,0,0,0-.018.2v.176a2.989,2.989,0,0,0,.132.9,2.023,2.023,0,0,0,.409.738,1.928,1.928,0,0,0,.712.5,2.633,2.633,0,0,0,1.033.185,4.383,4.383,0,0,0,1.332-.233,5.723,5.723,0,0,0,1.384-.664l-.272,1.424a5.713,5.713,0,0,1-1.151.492A4.949,4.949,0,0,1-56.11.22a4.06,4.06,0,0,1-1.674-.308,2.948,2.948,0,0,1-1.1-.822,3.2,3.2,0,0,1-.6-1.187,5.306,5.306,0,0,1-.185-1.411,6.525,6.525,0,0,1,.176-1.525A6.209,6.209,0,0,1-59-6.4a5.792,5.792,0,0,1,.769-1.156,5,5,0,0,1,.993-.892,4.6,4.6,0,0,1,1.169-.571,4.166,4.166,0,0,1,1.292-.2,3.734,3.734,0,0,1,1.226.185,2.562,2.562,0,0,1,.888.505,2.155,2.155,0,0,1,.541.743A2.212,2.212,0,0,1-51.935-6.891Zm-1.468.07a1.016,1.016,0,0,0-.409-.861A1.761,1.761,0,0,0-54.9-7.989a2.434,2.434,0,0,0-1.037.233,3.356,3.356,0,0,0-.923.642,4,4,0,0,0-.729.976,4.543,4.543,0,0,0-.448,1.226A15.192,15.192,0,0,0-55.9-5.041a5.541,5.541,0,0,0,1.433-.374,1.926,1.926,0,0,0,.809-.6A1.348,1.348,0,0,0-53.4-6.82Zm8.184-.6a3.746,3.746,0,0,0-.888-.413,3.2,3.2,0,0,0-.984-.158,1.941,1.941,0,0,0-1.279.378,1.24,1.24,0,0,0-.453,1,1.255,1.255,0,0,0,.083.466,1.407,1.407,0,0,0,.246.4,2.234,2.234,0,0,0,.413.365q.25.176.576.378a4.531,4.531,0,0,1,1.419,1.173,2.262,2.262,0,0,1,.435,1.358,2.74,2.74,0,0,1-.189,1,2.247,2.247,0,0,1-.6.861,3.088,3.088,0,0,1-1.068.6A4.873,4.873,0,0,1-49.1.22a5.285,5.285,0,0,1-.58-.035A6.145,6.145,0,0,1-50.32.079a5.559,5.559,0,0,1-.615-.171,2.708,2.708,0,0,1-.514-.233l.29-1.371a3.028,3.028,0,0,0,.435.246,4.5,4.5,0,0,0,.563.22,5.257,5.257,0,0,0,.633.158,3.562,3.562,0,0,0,.655.062,2.063,2.063,0,0,0,1.314-.352,1.185,1.185,0,0,0,.435-.976,1.3,1.3,0,0,0-.066-.422,1.184,1.184,0,0,0-.233-.387,2.585,2.585,0,0,0-.439-.391q-.272-.2-.686-.444A4.44,4.44,0,0,1-49.872-5.12,2.241,2.241,0,0,1-50.3-6.46,2.736,2.736,0,0,1-50.1-7.5a2.52,2.52,0,0,1,.6-.879,2.929,2.929,0,0,1,1.006-.611,4,4,0,0,1,1.415-.229,5.645,5.645,0,0,1,1.2.123,4.26,4.26,0,0,1,.962.316Zm13.609,4.649q-.062.281-.119.677t-.1.8q-.044.4-.075.751T-31.934,0h-1.494q0-.149.022-.4t.053-.523q.031-.272.066-.523t.062-.409h-.035a8.877,8.877,0,0,1-.633.9,3.663,3.663,0,0,1-.668.65,2.684,2.684,0,0,1-.747.391,2.738,2.738,0,0,1-.87.132A2.688,2.688,0,0,1-37.287,0a2.256,2.256,0,0,1-.839-.646A2.977,2.977,0,0,1-38.658-1.7a5.141,5.141,0,0,1-.185-1.446A7.115,7.115,0,0,1-38.706-4.5a6.931,6.931,0,0,1,.422-1.38,6.467,6.467,0,0,1,.725-1.283,5,5,0,0,1,1.046-1.063,4.96,4.96,0,0,1,1.389-.725,5.372,5.372,0,0,1,1.749-.268,5.932,5.932,0,0,1,.914.066q.422.066.729.136l.914-4.307h1.424Zm-.378-5.01a5.662,5.662,0,0,0-.7-.154,5.029,5.029,0,0,0-.778-.057,3.566,3.566,0,0,0-1.349.237,3.4,3.4,0,0,0-1.02.633,3.788,3.788,0,0,0-.729.9,5.676,5.676,0,0,0-.475,1.037,5.9,5.9,0,0,0-.255,1.046,6.508,6.508,0,0,0-.075.927,4.443,4.443,0,0,0,.083.9,2,2,0,0,0,.272.694,1.3,1.3,0,0,0,.488.448,1.522,1.522,0,0,0,.721.158A1.865,1.865,0,0,0-34.98-1.2a2.83,2.83,0,0,0,.716-.5,4.136,4.136,0,0,0,.606-.729,7.077,7.077,0,0,0,.492-.879,7.81,7.81,0,0,0,.374-.945q.154-.479.25-.918Zm10.637.888a2.679,2.679,0,0,1-.316,1.3,2.622,2.622,0,0,1-1.046,1,6.282,6.282,0,0,1-1.925.646,16.513,16.513,0,0,1-2.953.237,1.129,1.129,0,0,0-.018.2v.176a2.989,2.989,0,0,0,.132.9,2.023,2.023,0,0,0,.409.738,1.928,1.928,0,0,0,.712.5,2.633,2.633,0,0,0,1.033.185,4.383,4.383,0,0,0,1.332-.233,5.723,5.723,0,0,0,1.384-.664L-22.88-.483a5.713,5.713,0,0,1-1.151.492A4.949,4.949,0,0,1-25.525.22,4.06,4.06,0,0,1-27.2-.088,2.948,2.948,0,0,1-28.3-.91,3.2,3.2,0,0,1-28.9-2.1a5.306,5.306,0,0,1-.185-1.411,6.525,6.525,0,0,1,.176-1.525,6.209,6.209,0,0,1,.5-1.367,5.792,5.792,0,0,1,.769-1.156,5,5,0,0,1,.993-.892,4.6,4.6,0,0,1,1.169-.571,4.166,4.166,0,0,1,1.292-.2,3.734,3.734,0,0,1,1.226.185,2.562,2.562,0,0,1,.888.505,2.155,2.155,0,0,1,.541.743A2.212,2.212,0,0,1-21.351-6.891Zm-1.468.07a1.016,1.016,0,0,0-.409-.861,1.761,1.761,0,0,0-1.085-.308,2.434,2.434,0,0,0-1.037.233,3.356,3.356,0,0,0-.923.642A4,4,0,0,0-27-6.139a4.543,4.543,0,0,0-.448,1.226,15.192,15.192,0,0,0,2.136-.127,5.541,5.541,0,0,0,1.433-.374,1.926,1.926,0,0,0,.809-.6A1.348,1.348,0,0,0-22.818-6.82Zm14.356-.4a3.308,3.308,0,0,0-.892-.549,2.9,2.9,0,0,0-1.156-.224,2.73,2.73,0,0,0-1.094.211,3.02,3.02,0,0,0-.866.563,3.649,3.649,0,0,0-.65.809,5.391,5.391,0,0,0-.448.949,5.842,5.842,0,0,0-.259.98,5.411,5.411,0,0,0-.083.91,2.871,2.871,0,0,0,.554,1.907,1.881,1.881,0,0,0,1.512.65,3.327,3.327,0,0,0,1.2-.242,5.8,5.8,0,0,0,1.178-.62L-9.772-.431A6.168,6.168,0,0,1-10.91.048a4.124,4.124,0,0,1-1.2.171,3.408,3.408,0,0,1-1.437-.281,2.816,2.816,0,0,1-1.015-.773A3.314,3.314,0,0,1-15.168-2a5.031,5.031,0,0,1-.2-1.455,7.1,7.1,0,0,1,.149-1.455,6.265,6.265,0,0,1,.444-1.354,5.87,5.87,0,0,1,.725-1.182,4.675,4.675,0,0,1,.989-.936A4.693,4.693,0,0,1-11.82-9a4.754,4.754,0,0,1,1.485-.224,4.738,4.738,0,0,1,.721.053,4.277,4.277,0,0,1,.624.141,4.2,4.2,0,0,1,.5.189,2.057,2.057,0,0,1,.352.2Zm9.2,1.547A7.491,7.491,0,0,1,.4-3.4,5.8,5.8,0,0,1-.572-1.525,4.714,4.714,0,0,1-2.119-.25,4.4,4.4,0,0,1-4.171.22,3.747,3.747,0,0,1-5.564-.026,2.9,2.9,0,0,1-6.619-.734,3.134,3.134,0,0,1-7.287-1.85,4.4,4.4,0,0,1-7.52-3.331a7.334,7.334,0,0,1,.356-2.316,5.848,5.848,0,0,1,1-1.872A4.681,4.681,0,0,1-4.615-8.767,4.371,4.371,0,0,1-2.624-9.22a3.721,3.721,0,0,1,1.384.246,2.94,2.94,0,0,1,1.059.708A3.2,3.2,0,0,1,.5-7.15,4.255,4.255,0,0,1,.742-5.669ZM-.735-5.6A3.36,3.36,0,0,0-.875-6.614a2.159,2.159,0,0,0-.4-.747,1.716,1.716,0,0,0-.615-.466,1.945,1.945,0,0,0-.809-.163,2.556,2.556,0,0,0-1.4.4A3.536,3.536,0,0,0-5.147-6.552,5.164,5.164,0,0,0-5.81-5.084,6.143,6.143,0,0,0-6.043-3.4a3.362,3.362,0,0,0,.136.989,2.245,2.245,0,0,0,.387.756,1.67,1.67,0,0,0,.615.479,1.952,1.952,0,0,0,.822.167A2.593,2.593,0,0,0-2.677-1.4,3.487,3.487,0,0,0-1.622-2.439,5.069,5.069,0,0,0-.963-3.911,6.3,6.3,0,0,0-.735-5.6ZM7.8-7.418a3.746,3.746,0,0,0-.888-.413,3.2,3.2,0,0,0-.984-.158,1.941,1.941,0,0,0-1.279.378,1.24,1.24,0,0,0-.453,1,1.255,1.255,0,0,0,.083.466,1.407,1.407,0,0,0,.246.4,2.234,2.234,0,0,0,.413.365q.25.176.576.378A4.531,4.531,0,0,1,6.935-3.828,2.262,2.262,0,0,1,7.371-2.47a2.74,2.74,0,0,1-.189,1,2.247,2.247,0,0,1-.6.861,3.088,3.088,0,0,1-1.068.6,4.873,4.873,0,0,1-1.6.229,5.285,5.285,0,0,1-.58-.035A6.145,6.145,0,0,1,2.7.079a5.559,5.559,0,0,1-.615-.171A2.708,2.708,0,0,1,1.57-.325L1.86-1.7a3.028,3.028,0,0,0,.435.246,4.5,4.5,0,0,0,.563.22,5.257,5.257,0,0,0,.633.158,3.562,3.562,0,0,0,.655.062,2.063,2.063,0,0,0,1.314-.352,1.185,1.185,0,0,0,.435-.976,1.3,1.3,0,0,0-.066-.422A1.184,1.184,0,0,0,5.6-3.146a2.585,2.585,0,0,0-.439-.391q-.272-.2-.686-.444A4.44,4.44,0,0,1,3.147-5.12a2.241,2.241,0,0,1-.426-1.34,2.736,2.736,0,0,1,.2-1.042,2.52,2.52,0,0,1,.6-.879,2.929,2.929,0,0,1,1.006-.611A4,4,0,0,1,5.947-9.22a5.645,5.645,0,0,1,1.2.123,4.26,4.26,0,0,1,.962.316Zm6.8-.36H12.338L11.327-3.006q-.053.272-.105.589a3.254,3.254,0,0,0-.053.51.888.888,0,0,0,.2.646.86.86,0,0,0,.628.2,1.382,1.382,0,0,0,.272-.035q.167-.035.343-.088t.347-.119l.3-.119L12.989-.158a4.261,4.261,0,0,1-.7.224,3.237,3.237,0,0,1-.743.092,2.513,2.513,0,0,1-.853-.127,1.461,1.461,0,0,1-.576-.365A1.413,1.413,0,0,1,9.794-.91a2.653,2.653,0,0,1-.1-.76,4.261,4.261,0,0,1,.048-.593,6.15,6.15,0,0,1,.119-.62l1.037-4.9H9.4L9.675-9h1.477l.466-2.2a2.709,2.709,0,0,1,.268-.083q.233-.066.51-.149l.51-.154.259-.079L12.611-9h2.268Zm8.7,2.109A7.491,7.491,0,0,1,22.97-3.4a5.8,5.8,0,0,1-.976,1.876A4.714,4.714,0,0,1,20.448-.25,4.4,4.4,0,0,1,18.4.22,3.747,3.747,0,0,1,17-.026a2.9,2.9,0,0,1-1.055-.708A3.134,3.134,0,0,1,15.28-1.85a4.4,4.4,0,0,1-.233-1.481A7.334,7.334,0,0,1,15.4-5.647a5.848,5.848,0,0,1,1-1.872,4.681,4.681,0,0,1,1.547-1.248,4.371,4.371,0,0,1,1.991-.453,3.721,3.721,0,0,1,1.384.246,2.94,2.94,0,0,1,1.059.708,3.2,3.2,0,0,1,.681,1.116A4.255,4.255,0,0,1,23.309-5.669Zm-1.477.07a3.36,3.36,0,0,0-.141-1.015,2.159,2.159,0,0,0-.4-.747,1.716,1.716,0,0,0-.615-.466,1.945,1.945,0,0,0-.809-.163,2.556,2.556,0,0,0-1.4.4A3.536,3.536,0,0,0,17.42-6.552a5.164,5.164,0,0,0-.664,1.468A6.143,6.143,0,0,0,16.524-3.4a3.362,3.362,0,0,0,.136.989,2.245,2.245,0,0,0,.387.756,1.67,1.67,0,0,0,.615.479,1.952,1.952,0,0,0,.822.167A2.593,2.593,0,0,0,19.89-1.4a3.487,3.487,0,0,0,1.055-1.037A5.069,5.069,0,0,0,21.6-3.911,6.3,6.3,0,0,0,21.832-5.6Zm8.536-1.819a3.746,3.746,0,0,0-.888-.413,3.2,3.2,0,0,0-.984-.158,1.941,1.941,0,0,0-1.279.378,1.24,1.24,0,0,0-.453,1,1.255,1.255,0,0,0,.083.466,1.407,1.407,0,0,0,.246.4,2.234,2.234,0,0,0,.413.365q.25.176.576.378A4.531,4.531,0,0,1,29.5-3.828a2.262,2.262,0,0,1,.435,1.358,2.74,2.74,0,0,1-.189,1,2.247,2.247,0,0,1-.6.861,3.088,3.088,0,0,1-1.068.6,4.873,4.873,0,0,1-1.6.229A5.285,5.285,0,0,1,25.9.185a6.145,6.145,0,0,1-.637-.105,5.559,5.559,0,0,1-.615-.171,2.708,2.708,0,0,1-.514-.233l.29-1.371a3.028,3.028,0,0,0,.435.246,4.5,4.5,0,0,0,.563.22,5.257,5.257,0,0,0,.633.158,3.562,3.562,0,0,0,.655.062,2.063,2.063,0,0,0,1.314-.352,1.185,1.185,0,0,0,.435-.976,1.3,1.3,0,0,0-.066-.422,1.184,1.184,0,0,0-.233-.387,2.585,2.585,0,0,0-.439-.391q-.272-.2-.686-.444A4.44,4.44,0,0,1,25.714-5.12a2.241,2.241,0,0,1-.426-1.34,2.736,2.736,0,0,1,.2-1.042,2.52,2.52,0,0,1,.6-.879A2.929,2.929,0,0,1,27.1-8.991a4,4,0,0,1,1.415-.229,5.645,5.645,0,0,1,1.2.123,4.26,4.26,0,0,1,.962.316ZM45.006-5.669A7.491,7.491,0,0,1,44.667-3.4a5.8,5.8,0,0,1-.976,1.876A4.714,4.714,0,0,1,42.145-.25a4.4,4.4,0,0,1-2.052.47A3.747,3.747,0,0,1,38.7-.026a2.9,2.9,0,0,1-1.055-.708,3.134,3.134,0,0,1-.668-1.116,4.4,4.4,0,0,1-.233-1.481A7.334,7.334,0,0,1,37.1-5.647a5.848,5.848,0,0,1,1-1.872,4.681,4.681,0,0,1,1.547-1.248,4.371,4.371,0,0,1,1.991-.453,3.721,3.721,0,0,1,1.384.246,2.94,2.94,0,0,1,1.059.708,3.2,3.2,0,0,1,.681,1.116A4.255,4.255,0,0,1,45.006-5.669Zm-1.477.07a3.36,3.36,0,0,0-.141-1.015,2.159,2.159,0,0,0-.4-.747,1.716,1.716,0,0,0-.615-.466,1.945,1.945,0,0,0-.809-.163,2.556,2.556,0,0,0-1.4.4,3.536,3.536,0,0,0-1.055,1.042,5.164,5.164,0,0,0-.664,1.468A6.143,6.143,0,0,0,38.22-3.4a3.362,3.362,0,0,0,.136.989,2.245,2.245,0,0,0,.387.756,1.67,1.67,0,0,0,.615.479,1.952,1.952,0,0,0,.822.167A2.593,2.593,0,0,0,41.587-1.4a3.487,3.487,0,0,0,1.055-1.037A5.069,5.069,0,0,0,43.3-3.911,6.3,6.3,0,0,0,43.529-5.6Zm11.234-.255A6.835,6.835,0,0,1,54.623-4.5a6.982,6.982,0,0,1-.431,1.375,6.773,6.773,0,0,1-.725,1.283A5.2,5.2,0,0,1,52.443-.778a4.748,4.748,0,0,1-1.336.729A4.863,4.863,0,0,1,49.455.22a5.437,5.437,0,0,1-1.024-.1,6.294,6.294,0,0,1-.883-.229l-.9,4.28H45.192l2.2-10.406q.062-.281.114-.677t.092-.8q.04-.4.066-.751T47.688-9h1.477q0,.149-.022.4t-.057.532q-.035.277-.07.536t-.062.417h.035A4.748,4.748,0,0,1,50.4-8.7,3.006,3.006,0,0,1,52.1-9.22a2.785,2.785,0,0,1,1.107.211,2.192,2.192,0,0,1,.839.633,2.928,2.928,0,0,1,.532,1.055A5.259,5.259,0,0,1,54.763-5.854Zm-1.477.062a4.347,4.347,0,0,0-.083-.879,1.95,1.95,0,0,0-.277-.694,1.4,1.4,0,0,0-.5-.457,1.521,1.521,0,0,0-.743-.167,1.981,1.981,0,0,0-.857.189,2.951,2.951,0,0,0-.743.505,4.143,4.143,0,0,0-.624.734,7.294,7.294,0,0,0-.5.866,7.607,7.607,0,0,0-.374.9,6.791,6.791,0,0,0-.233.848L47.8-1.336a2.466,2.466,0,0,0,.378.127q.22.057.457.1t.483.07a4.309,4.309,0,0,0,.457.026,3.036,3.036,0,0,0,1.121-.2,3.252,3.252,0,0,0,.923-.549,3.877,3.877,0,0,0,.721-.817,5.424,5.424,0,0,0,.523-1,5.9,5.9,0,0,0,.316-1.1A6.071,6.071,0,0,0,53.287-5.792Zm10.584-1.1a2.679,2.679,0,0,1-.316,1.3,2.622,2.622,0,0,1-1.046,1,6.282,6.282,0,0,1-1.925.646,16.513,16.513,0,0,1-2.953.237,1.129,1.129,0,0,0-.018.2v.176a2.989,2.989,0,0,0,.132.9,2.023,2.023,0,0,0,.409.738,1.928,1.928,0,0,0,.712.5,2.633,2.633,0,0,0,1.033.185,4.383,4.383,0,0,0,1.332-.233,5.723,5.723,0,0,0,1.384-.664L62.341-.483A5.713,5.713,0,0,1,61.19.009,4.949,4.949,0,0,1,59.7.22a4.06,4.06,0,0,1-1.674-.308,2.948,2.948,0,0,1-1.1-.822,3.2,3.2,0,0,1-.6-1.187,5.306,5.306,0,0,1-.185-1.411,6.525,6.525,0,0,1,.176-1.525,6.209,6.209,0,0,1,.5-1.367,5.792,5.792,0,0,1,.769-1.156,5,5,0,0,1,.993-.892,4.6,4.6,0,0,1,1.169-.571,4.166,4.166,0,0,1,1.292-.2,3.734,3.734,0,0,1,1.226.185,2.562,2.562,0,0,1,.888.505,2.155,2.155,0,0,1,.541.743A2.212,2.212,0,0,1,63.87-6.891ZM62.4-6.82a1.016,1.016,0,0,0-.409-.861,1.761,1.761,0,0,0-1.085-.308,2.434,2.434,0,0,0-1.037.233,3.356,3.356,0,0,0-.923.642,4,4,0,0,0-.729.976,4.543,4.543,0,0,0-.448,1.226,15.192,15.192,0,0,0,2.136-.127,5.541,5.541,0,0,0,1.433-.374,1.926,1.926,0,0,0,.809-.6A1.348,1.348,0,0,0,62.4-6.82Zm8.545-.65h-.035a2.6,2.6,0,0,0-.461-.207,1.691,1.691,0,0,0-.567-.1,1.664,1.664,0,0,0-.976.33,3.587,3.587,0,0,0-.848.87,6.243,6.243,0,0,0-.668,1.235,8.434,8.434,0,0,0-.444,1.424L66.1,0H64.663l1.266-5.977q.079-.369.158-.773t.145-.809q.066-.4.119-.773T66.43-9h1.424q-.026.264-.062.558t-.07.571q-.035.277-.07.5t-.053.347h.035a9.7,9.7,0,0,1,.571-.905,4.182,4.182,0,0,1,.611-.69,2.589,2.589,0,0,1,.681-.444,1.924,1.924,0,0,1,.782-.158,2.481,2.481,0,0,1,.488.048q.242.048.435.1Zm7.613,4.588q-.07.334-.136.751t-.114.826q-.048.409-.079.76T78.2,0H76.706q.009-.176.026-.422t.048-.51q.031-.264.062-.519t.066-.439h-.035q-.272.431-.554.813A3.913,3.913,0,0,1,75.7-.4a2.732,2.732,0,0,1-.765.457,2.691,2.691,0,0,1-.993.167A2.684,2.684,0,0,1,72.861.009a2.256,2.256,0,0,1-.839-.628,2.9,2.9,0,0,1-.541-1.046,5.1,5.1,0,0,1-.189-1.463,7.333,7.333,0,0,1,.105-1.16,7.1,7.1,0,0,1,.356-1.327,6.757,6.757,0,0,1,.668-1.323,5.023,5.023,0,0,1,1.037-1.156,4.947,4.947,0,0,1,1.463-.817,5.683,5.683,0,0,1,1.951-.308,10.373,10.373,0,0,1,1.45.105q.747.105,1.485.255Zm-.413-4.931q-.308-.07-.721-.123a6.128,6.128,0,0,0-.773-.053,3.508,3.508,0,0,0-1.349.242,3.462,3.462,0,0,0-1.015.633,3.727,3.727,0,0,0-.725.9,5.586,5.586,0,0,0-.47,1.042,6.13,6.13,0,0,0-.25,1.05,6.649,6.649,0,0,0-.075.94,4.212,4.212,0,0,0,.088.9,1.967,1.967,0,0,0,.277.681,1.3,1.3,0,0,0,.483.435,1.49,1.49,0,0,0,.7.154,1.9,1.9,0,0,0,.822-.18,2.849,2.849,0,0,0,.716-.488,4,4,0,0,0,.606-.712,7,7,0,0,0,.492-.857,7.329,7.329,0,0,0,.374-.923q.154-.47.25-.91Zm8.281.035H84.161L83.15-3.006q-.053.272-.105.589a3.254,3.254,0,0,0-.053.51.888.888,0,0,0,.2.646.86.86,0,0,0,.628.2,1.382,1.382,0,0,0,.272-.035q.167-.035.343-.088t.347-.119l.3-.119L84.811-.158a4.261,4.261,0,0,1-.7.224,3.237,3.237,0,0,1-.743.092,2.513,2.513,0,0,1-.853-.127,1.461,1.461,0,0,1-.576-.365,1.413,1.413,0,0,1-.325-.576,2.653,2.653,0,0,1-.1-.76,4.261,4.261,0,0,1,.048-.593,6.15,6.15,0,0,1,.119-.62l1.037-4.9H81.225L81.5-9h1.477l.466-2.2a2.709,2.709,0,0,1,.268-.083q.233-.066.51-.149l.51-.154.259-.079L84.433-9H86.7ZM89.841-.035a3.368,3.368,0,0,1-.5.114,3.5,3.5,0,0,1-.549.044,1.793,1.793,0,0,1-1.327-.444,1.618,1.618,0,0,1-.439-1.191,3.631,3.631,0,0,1,.044-.519q.044-.3.141-.738L88.522-9h1.459L88.663-2.733q-.079.369-.11.571a2.338,2.338,0,0,0-.031.343.724.724,0,0,0,.2.549.886.886,0,0,0,.628.189,2.662,2.662,0,0,0,.4-.026,1.772,1.772,0,0,0,.321-.079Zm1.028-12.173a.946.946,0,0,1-.268.677.88.88,0,0,1-.664.281.934.934,0,0,1-.672-.277.911.911,0,0,1-.286-.681.843.843,0,0,1,.286-.659.977.977,0,0,1,.672-.255.921.921,0,0,1,.659.259A.865.865,0,0,1,90.869-12.208ZM94.694,0H93.472L92.048-9h1.459L94.3-3.331q.026.167.048.378t.044.431q.022.22.031.431t.009.378h.035q.07-.158.163-.36t.207-.417q.114-.215.233-.435t.224-.4L98.508-9h1.644ZM108.31-5.669a7.491,7.491,0,0,1-.338,2.268A5.8,5.8,0,0,1,107-1.525,4.714,4.714,0,0,1,105.449-.25,4.4,4.4,0,0,1,103.4.22,3.747,3.747,0,0,1,102-.026a2.9,2.9,0,0,1-1.055-.708,3.134,3.134,0,0,1-.668-1.116,4.4,4.4,0,0,1-.233-1.481,7.334,7.334,0,0,1,.356-2.316,5.848,5.848,0,0,1,1-1.872,4.681,4.681,0,0,1,1.547-1.248,4.371,4.371,0,0,1,1.991-.453,3.721,3.721,0,0,1,1.384.246,2.94,2.94,0,0,1,1.059.708,3.2,3.2,0,0,1,.681,1.116A4.255,4.255,0,0,1,108.31-5.669Zm-1.477.07a3.36,3.36,0,0,0-.141-1.015,2.159,2.159,0,0,0-.4-.747,1.716,1.716,0,0,0-.615-.466,1.945,1.945,0,0,0-.809-.163,2.556,2.556,0,0,0-1.4.4,3.536,3.536,0,0,0-1.055,1.042,5.164,5.164,0,0,0-.664,1.468,6.143,6.143,0,0,0-.233,1.683,3.362,3.362,0,0,0,.136.989,2.245,2.245,0,0,0,.387.756,1.67,1.67,0,0,0,.615.479,1.952,1.952,0,0,0,.822.167,2.593,2.593,0,0,0,1.406-.391,3.487,3.487,0,0,0,1.055-1.037,5.069,5.069,0,0,0,.659-1.472A6.3,6.3,0,0,0,106.833-5.6Zm8.536-1.819a3.746,3.746,0,0,0-.888-.413,3.2,3.2,0,0,0-.984-.158,1.941,1.941,0,0,0-1.279.378,1.24,1.24,0,0,0-.453,1,1.255,1.255,0,0,0,.083.466,1.407,1.407,0,0,0,.246.4,2.234,2.234,0,0,0,.413.365q.25.176.576.378A4.531,4.531,0,0,1,114.5-3.828a2.262,2.262,0,0,1,.435,1.358,2.74,2.74,0,0,1-.189,1,2.247,2.247,0,0,1-.6.861,3.088,3.088,0,0,1-1.068.6,4.873,4.873,0,0,1-1.6.229,5.285,5.285,0,0,1-.58-.035,6.145,6.145,0,0,1-.637-.105,5.559,5.559,0,0,1-.615-.171,2.708,2.708,0,0,1-.514-.233l.29-1.371a3.028,3.028,0,0,0,.435.246,4.5,4.5,0,0,0,.563.22,5.257,5.257,0,0,0,.633.158,3.562,3.562,0,0,0,.655.062,2.063,2.063,0,0,0,1.314-.352,1.185,1.185,0,0,0,.435-.976,1.3,1.3,0,0,0-.066-.422,1.184,1.184,0,0,0-.233-.387,2.585,2.585,0,0,0-.439-.391q-.272-.2-.686-.444a4.44,4.44,0,0,1-1.323-1.138,2.241,2.241,0,0,1-.426-1.34,2.736,2.736,0,0,1,.2-1.042,2.52,2.52,0,0,1,.6-.879,2.929,2.929,0,0,1,1.006-.611,4,4,0,0,1,1.415-.229,5.645,5.645,0,0,1,1.2.123,4.26,4.26,0,0,1,.962.316Zm15.991.879H123.1V-7.7h8.262Zm0,3.744H123.1v-1.16h8.262Z" transform="translate(800 6779.674)" fill="#212429"/>
    <path id="Trazado_1037806" data-name="Trazado 1037806" d="M-11.455-9.7l-2.408.492,1.67,2.136-.967.668-1.371-2.329L-15.92-6.407l-.967-.668,1.67-2.136L-17.642-9.7l.4-1.1,2.3.87-.2-2.672h1.213l-.2,2.672,2.312-.87ZM-4.439,0H-5.881V-10.89a3.336,3.336,0,0,1-.488.382,7.951,7.951,0,0,1-.721.426q-.4.211-.844.4A6.132,6.132,0,0,1-8.8-9.4v-1.459a8.379,8.379,0,0,0,1.006-.356q.532-.224,1.046-.5t.971-.58a7.71,7.71,0,0,0,.791-.593h.545ZM7.867-6.354a12.381,12.381,0,0,1-.286,2.8A6.533,6.533,0,0,1,6.755-1.49,3.718,3.718,0,0,1,5.428-.215,3.633,3.633,0,0,1,3.64.22,3.393,3.393,0,0,1,1.948-.2,3.546,3.546,0,0,1,.7-1.415,6.17,6.17,0,0,1-.078-3.379,12.146,12.146,0,0,1-.342-6.047,13.749,13.749,0,0,1-.065-8.965a6.674,6.674,0,0,1,.813-2.123A3.619,3.619,0,0,1,2.08-12.379,3.739,3.739,0,0,1,3.9-12.814Q7.867-12.814,7.867-6.354Zm-1.477.141q0-5.379-2.558-5.379-2.7,0-2.7,5.476,0,5.106,2.646,5.106Q6.391-1.011,6.391-6.214Zm11.181-.141a12.381,12.381,0,0,1-.286,2.8A6.533,6.533,0,0,1,16.46-1.49,3.718,3.718,0,0,1,15.133-.215,3.633,3.633,0,0,1,13.344.22,3.393,3.393,0,0,1,11.653-.2,3.546,3.546,0,0,1,10.4-1.415a6.17,6.17,0,0,1-.773-1.964,12.146,12.146,0,0,1-.264-2.667A13.749,13.749,0,0,1,9.64-8.965a6.674,6.674,0,0,1,.813-2.123,3.619,3.619,0,0,1,1.332-1.292,3.739,3.739,0,0,1,1.824-.435Q17.572-12.814,17.572-6.354ZM16.1-6.214q0-5.379-2.558-5.379-2.7,0-2.7,5.476,0,5.106,2.646,5.106Q16.1-1.011,16.1-6.214Z" transform="translate(1171 6779.674)" fill="#212429"/>
  </g>
</svg>
