<svg xmlns="http://www.w3.org/2000/svg" xmlns:xlink="http://www.w3.org/1999/xlink" width="113" height="113" viewBox="0 0 113 113">
  <defs>
    <filter id="Trazado_982547" x="0" y="0" width="113" height="113" filterUnits="userSpaceOnUse">
      <feOffset dy="3" input="SourceAlpha"/>
      <feGaussianBlur stdDeviation="3" result="blur"/>
      <feFlood flood-opacity="0.161"/>
      <feComposite operator="in" in2="blur"/>
      <feComposite in="SourceGraphic"/>
    </filter>
  </defs>
  <g id="Grupo_1176483" data-name="Grupo 1176483" transform="translate(-744.381 -635.98)">
    <g id="Grupo_1176395" data-name="Grupo 1176395" transform="translate(753.381 641.98)">
      <g id="Grupo_1172014" data-name="Grupo 1172014">
        <g id="Grupo_1167343" data-name="Grupo 1167343" transform="translate(0)">
          <g id="Grupo_1166777" data-name="Grupo 1166777" transform="translate(0)">
            <g id="Grupo_1164305" data-name="Grupo 1164305">
              <g id="Grupo_1163948" data-name="Grupo 1163948">
                <g id="Grupo_1158168" data-name="Grupo 1158168">
                  <g id="Grupo_1152576" data-name="Grupo 1152576">
                    <g id="Grupo_1148633" data-name="Grupo 1148633">
                      <g id="Grupo_1148525" data-name="Grupo 1148525">
                        <g transform="matrix(1, 0, 0, 1, -9, -6)" filter="url(#Trazado_982547)">
                          <g id="Trazado_982547-2" data-name="Trazado 982547" transform="translate(9 6)" fill="#f2f7e5">
                            <path d="M 47.5 93.5 C 41.28937149047852 93.5 35.26533508300781 92.28397369384766 29.59518623352051 89.88570404052734 C 24.11771965026855 87.56893157958984 19.19813346862793 84.25196075439453 14.97309303283691 80.02691650390625 C 10.74804019927979 75.80186462402344 7.431066513061523 70.88229370117188 5.114293098449707 65.40481567382812 C 2.716026782989502 59.73468017578125 1.5 53.71062850952148 1.5 47.5 C 1.5 41.28937149047852 2.716026782989502 35.26533508300781 5.114293098449707 29.59518623352051 C 7.431066513061523 24.11771965026855 10.74804019927979 19.19813346862793 14.97309303283691 14.97309303283691 C 19.19813346862793 10.74804019927979 24.11771965026855 7.431066513061523 29.59518623352051 5.114293098449707 C 35.26533508300781 2.716026782989502 41.28937149047852 1.5 47.5 1.5 C 53.71062850952148 1.5 59.73468017578125 2.716026782989502 65.40481567382812 5.114293098449707 C 70.88229370117188 7.431066513061523 75.80186462402344 10.74804019927979 80.02691650390625 14.97309303283691 C 84.25196075439453 19.19813346862793 87.56893157958984 24.11771965026855 89.88570404052734 29.59518623352051 C 92.28397369384766 35.26533508300781 93.5 41.28937149047852 93.5 47.5 C 93.5 53.71062850952148 92.28397369384766 59.73468017578125 89.88570404052734 65.40481567382812 C 87.56893157958984 70.88229370117188 84.25196075439453 75.80186462402344 80.02691650390625 80.02691650390625 C 75.80186462402344 84.25196075439453 70.88229370117188 87.56893157958984 65.40481567382812 89.88570404052734 C 59.73468017578125 92.28397369384766 53.71062850952148 93.5 47.5 93.5 Z" stroke="none"/>
                            <path d="M 47.5 3 C 41.49121475219727 3 35.66376876831055 4.176155090332031 30.17950439453125 6.495796203613281 C 24.88084411621094 8.736953735351562 20.12152099609375 11.94598388671875 16.03375244140625 16.03375244140625 C 11.94598388671875 20.12152099609375 8.736953735351562 24.88084411621094 6.495796203613281 30.17950439453125 C 4.176155090332031 35.66376876831055 3 41.49121475219727 3 47.5 C 3 53.50878524780273 4.176155090332031 59.33624649047852 6.495796203613281 64.82049560546875 C 8.736953735351562 70.11917114257812 11.94598388671875 74.87849426269531 16.03375244140625 78.96626281738281 C 20.12152099609375 83.05403137207031 24.88084411621094 86.2630615234375 30.17950439453125 88.50419616699219 C 35.66376876831055 90.82384490966797 41.49121475219727 92 47.5 92 C 53.50878524780273 92 59.33624649047852 90.82384490966797 64.82049560546875 88.50419616699219 C 70.11917114257812 86.2630615234375 74.87849426269531 83.05403137207031 78.96626281738281 78.96626281738281 C 83.05403137207031 74.87849426269531 86.2630615234375 70.11917114257812 88.50419616699219 64.82049560546875 C 90.82384490966797 59.33624649047852 92 53.50878524780273 92 47.5 C 92 41.49121475219727 90.82384490966797 35.66376876831055 88.50419616699219 30.17950439453125 C 86.2630615234375 24.88084411621094 83.05403137207031 20.12152099609375 78.96626281738281 16.03375244140625 C 74.87849426269531 11.94598388671875 70.11917114257812 8.736953735351562 64.82049560546875 6.495796203613281 C 59.33624649047852 4.176155090332031 53.50878524780273 3 47.5 3 M 47.5 0 C 73.73353576660156 0 95 21.2664794921875 95 47.5 C 95 73.73353576660156 73.73353576660156 95 47.5 95 C 21.2664794921875 95 0 73.73353576660156 0 47.5 C 0 21.2664794921875 21.2664794921875 0 47.5 0 Z" stroke="none" fill="#86b60c"/>
                          </g>
                        </g>
                      </g>
                    </g>
                  </g>
                </g>
              </g>
            </g>
          </g>
        </g>
      </g>
    </g>
    <g id="Layer_1" data-name="Layer 1" transform="translate(764.272 642.427)">
      <path id="Trazado_1036278" data-name="Trazado 1036278" d="M45.727,42.1A15.438,15.438,0,1,1,30.289,26.661,15.438,15.438,0,0,1,45.727,42.1Z" transform="translate(-6.19 -6.188)" fill="#f8ec7d"/>
      <path id="Trazado_1036279" data-name="Trazado 1036279" d="M31.452,57.493q-.574.043-1.159.043a15.438,15.438,0,1,1,0-30.875q.585,0,1.159.044a15.438,15.438,0,0,0,0,30.789Z" transform="translate(-6.194 -6.187)" fill="#d7be69"/>
      <path id="Trazado_1036280" data-name="Trazado 1036280" d="M74.138,74.793A11.152,11.152,0,1,1,62.986,63.641,11.152,11.152,0,0,1,74.138,74.793Z" transform="translate(-38.887 -38.882)" fill="#fdbf00"/>
      <path id="Trazado_1036281" data-name="Trazado 1036281" d="M44.175,286.648a1.558,1.558,0,0,1,1.558,1.558v2.244a1.558,1.558,0,0,1-1.558,1.558,1.558,1.558,0,0,1,1.558,1.558v2.244a1.558,1.558,0,0,1-1.558,1.558,1.558,1.558,0,0,1,1.558,1.558v2.244a1.558,1.558,0,0,1-1.558,1.558H16.416a1.558,1.558,0,0,1-1.558-1.558v-2.244a1.558,1.558,0,0,1,1.558-1.558,1.558,1.558,0,0,1-1.558-1.558v-2.244a1.558,1.558,0,0,1,1.558-1.558,1.558,1.558,0,0,1-1.558-1.558v-2.244a1.558,1.558,0,0,1,1.558-1.558,1.558,1.558,0,0,1-1.558-1.558v-2.244a1.558,1.558,0,0,1,1.558-1.558H44.175a1.558,1.558,0,0,1,1.558,1.558v2.244a1.558,1.558,0,0,1-1.558,1.558Z" transform="translate(-6.197 -231.304)" fill="#ffdf40"/>
      <path id="Trazado_1036282" data-name="Trazado 1036282" d="M45.732,301.946v1.408a1.558,1.558,0,0,1-1.558,1.558H16.415a1.558,1.558,0,0,1-1.558-1.558v-1.408a1.177,1.177,0,0,0,1.177,1.177h28.52A1.177,1.177,0,0,0,45.732,301.946Zm-1.177,6.537H16.034a1.177,1.177,0,0,1-1.177-1.177v1.408a1.558,1.558,0,0,0,1.558,1.558H44.174a1.558,1.558,0,0,0,1.558-1.558v-1.408A1.177,1.177,0,0,1,44.555,308.483Zm0,5.36H16.034a1.178,1.178,0,0,1-1.177-1.177v1.408a1.558,1.558,0,0,0,1.558,1.558H44.174a1.558,1.558,0,0,0,1.558-1.558v-1.408a1.177,1.177,0,0,1-1.178,1.178Zm0,5.36H16.034a1.177,1.177,0,0,1-1.177-1.177v1.408a1.558,1.558,0,0,0,1.558,1.558H44.174a1.558,1.558,0,0,0,1.558-1.558v-1.408A1.177,1.177,0,0,1,44.555,319.2Z" transform="translate(-6.196 -249.567)" fill="#ffbe40"/>
      <path id="Trazado_1036283" data-name="Trazado 1036283" d="M242.085,164.342H239.5a.456.456,0,0,1-.366-.728l7.358-9.9a.456.456,0,0,1,.732,0l7.358,9.9a.456.456,0,0,1-.366.728H251.63a.456.456,0,0,0-.456.456v19.151a1.356,1.356,0,0,1-1.356,1.356H243.9a1.356,1.356,0,0,1-1.356-1.356V164.8a.456.456,0,0,0-.457-.456Zm14.741-7.095v26.7a1.356,1.356,0,0,0,1.356,1.356H264.1a1.356,1.356,0,0,0,1.356-1.356v-26.7a.456.456,0,0,1,.456-.456H268.5a.456.456,0,0,0,.366-.728l-7.358-9.9a.456.456,0,0,0-.732,0l-7.358,9.9a.456.456,0,0,0,.366.728h2.586A.456.456,0,0,1,256.826,157.247Z" transform="translate(-204.399 -111.672)" fill="#94e671"/>
      <path id="Trazado_1036284" data-name="Trazado 1036284" d="M246.857,185.306H243.9a1.356,1.356,0,0,1-1.356-1.356V164.8a.456.456,0,0,0-.456-.456H239.5a.456.456,0,0,1-.366-.728l7.358-9.9a.454.454,0,0,1,.366-.184Zm14.284-39.332a.454.454,0,0,0-.366.184l-7.358,9.9a.456.456,0,0,0,.366.728h2.586a.456.456,0,0,1,.456.456v26.7a1.356,1.356,0,0,0,1.356,1.356h2.959Z" transform="translate(-204.399 -111.672)" fill="#52cc7b"/>
      <path id="Trazado_1036285" data-name="Trazado 1036285" d="M43.476,41.553a1.267,1.267,0,0,0-2.035,0l-5.661,7.62H33.485a16.249,16.249,0,1,0-18.775,0H10.219A2.372,2.372,0,0,0,7.85,51.542v2.244a2.357,2.357,0,0,0,.588,1.558A2.357,2.357,0,0,0,7.85,56.9v2.244A2.357,2.357,0,0,0,8.438,60.7a2.357,2.357,0,0,0-.588,1.558v2.244a2.356,2.356,0,0,0,.588,1.558,2.357,2.357,0,0,0-.588,1.558v2.244a2.372,2.372,0,0,0,2.369,2.369H37.332v.041A2.17,2.17,0,0,0,39.5,74.444h5.919a2.17,2.17,0,0,0,2.167-2.167v-18.8h2.231a1.267,1.267,0,0,0,1.018-2.023Zm-34-5.642a14.627,14.627,0,1,1,20.8,13.262H17.928A14.643,14.643,0,0,1,9.473,35.911Zm0,15.631a.747.747,0,0,1,.747-.747H34.575l-.492.662A1.268,1.268,0,0,0,35.1,53.481h2.231v1.052H10.219a.747.747,0,0,1-.747-.747Zm0,12.964V62.262a.747.747,0,0,1,.747-.747H37.332v3.737H10.219A.747.747,0,0,1,9.473,64.506Zm.747-4.613a.747.747,0,0,1-.747-.747V56.9a.747.747,0,0,1,.747-.747H37.332v3.737Zm0,10.72a.747.747,0,0,1-.747-.747V67.622a.747.747,0,0,1,.747-.747H37.332v3.737ZM47.231,51.858a1.269,1.269,0,0,0-1.268,1.267V72.277a.546.546,0,0,1-.545.545H39.5a.546.546,0,0,1-.545-.545V53.126a1.269,1.269,0,0,0-1.268-1.267h-1.88L42.459,42.9l6.652,8.954Zm17.888-7.952L57.761,34a1.268,1.268,0,0,0-2.035,0l-7.358,9.9a1.267,1.267,0,0,0,1.018,2.023h2.231V72.277a2.17,2.17,0,0,0,2.167,2.167H59.7a2.17,2.17,0,0,0,2.167-2.167V45.929H64.1a1.267,1.267,0,0,0,1.018-2.023Zm-3.6.4a1.269,1.269,0,0,0-1.268,1.268v26.7a.546.546,0,0,1-.545.545H53.784a.546.546,0,0,1-.545-.545v-26.7a1.269,1.269,0,0,0-1.268-1.268h-1.88l6.653-8.954,6.651,8.954Zm-25.453-8.4A11.963,11.963,0,1,0,24.1,47.874,11.963,11.963,0,0,0,36.062,35.911Zm-22.3,0A10.34,10.34,0,1,1,24.1,46.252,10.34,10.34,0,0,1,13.758,35.911ZM24.1,44.028a.811.811,0,0,1-.811-.811V41.891a4.416,4.416,0,0,1-1.045-.3,3.3,3.3,0,0,1-1.954-2.076.811.811,0,0,1,1.56-.446A1.674,1.674,0,0,0,22.874,40.1a2.954,2.954,0,0,0,2.491-.122,1.759,1.759,0,0,0,.929-1.821c-.171-.95-1.16-1.616-2.712-1.828a3.419,3.419,0,0,1-2.946-2.193,3.081,3.081,0,0,1,.7-3.124,3.816,3.816,0,0,1,1.953-1.043V28.6a.811.811,0,0,1,1.623,0v1.343a4.089,4.089,0,0,1,2.461,1.467.811.811,0,0,1-1.26,1.023,2.486,2.486,0,0,0-1.84-.934,2.382,2.382,0,0,0-1.773.637,1.445,1.445,0,0,0-.33,1.465A1.84,1.84,0,0,0,23.8,34.721c2.261.309,3.789,1.486,4.089,3.148a3.354,3.354,0,0,1-1.757,3.539,4.494,4.494,0,0,1-1.222.44v1.369a.811.811,0,0,1-.811.811Z"/>
    </g>
  </g>
</svg>
