<svg xmlns="http://www.w3.org/2000/svg" xmlns:xlink="http://www.w3.org/1999/xlink" width="113" height="113" viewBox="0 0 113 113">
  <defs>
    <filter id="Trazado_982547" x="0" y="0" width="113" height="113" filterUnits="userSpaceOnUse">
      <feOffset dy="3" input="SourceAlpha"/>
      <feGaussianBlur stdDeviation="3" result="blur"/>
      <feFlood flood-opacity="0.161"/>
      <feComposite operator="in" in2="blur"/>
      <feComposite in="SourceGraphic"/>
    </filter>
  </defs>
  <g id="Grupo_1177196" data-name="Grupo 1177196" transform="translate(-901.5 -452.171)">
    <g id="Grupo_1176433" data-name="Grupo 1176433" transform="translate(629.5 -4770.382)">
      <g id="Grupo_1172014" data-name="Grupo 1172014" transform="translate(281 5228.553)">
        <g id="Grupo_1167343" data-name="Grupo 1167343" transform="translate(0)">
          <g id="Grupo_1166777" data-name="Grupo 1166777" transform="translate(0)">
            <g id="Grupo_1164305" data-name="Grupo 1164305">
              <g id="Grupo_1163948" data-name="Grupo 1163948">
                <g id="Grupo_1158168" data-name="Grupo 1158168">
                  <g id="Grupo_1152576" data-name="Grupo 1152576">
                    <g id="Grupo_1148633" data-name="Grupo 1148633">
                      <g id="Grupo_1148525" data-name="Grupo 1148525">
                        <g transform="matrix(1, 0, 0, 1, -9, -6)" filter="url(#Trazado_982547)">
                          <g id="Trazado_982547-2" data-name="Trazado 982547" transform="translate(9 6)" fill="#f2f7e5">
                            <path d="M 47.5 93.5 C 41.28937149047852 93.5 35.26533508300781 92.28397369384766 29.59518623352051 89.88570404052734 C 24.11771965026855 87.56893157958984 19.19813346862793 84.25196075439453 14.97309303283691 80.02691650390625 C 10.74804019927979 75.80186462402344 7.431066513061523 70.88229370117188 5.114293098449707 65.40481567382812 C 2.716026782989502 59.73468017578125 1.5 53.71062850952148 1.5 47.5 C 1.5 41.28937149047852 2.716026782989502 35.26533508300781 5.114293098449707 29.59518623352051 C 7.431066513061523 24.11771965026855 10.74804019927979 19.19813346862793 14.97309303283691 14.97309303283691 C 19.19813346862793 10.74804019927979 24.11771965026855 7.431066513061523 29.59518623352051 5.114293098449707 C 35.26533508300781 2.716026782989502 41.28937149047852 1.5 47.5 1.5 C 53.71062850952148 1.5 59.73468017578125 2.716026782989502 65.40481567382812 5.114293098449707 C 70.88229370117188 7.431066513061523 75.80186462402344 10.74804019927979 80.02691650390625 14.97309303283691 C 84.25196075439453 19.19813346862793 87.56893157958984 24.11771965026855 89.88570404052734 29.59518623352051 C 92.28397369384766 35.26533508300781 93.5 41.28937149047852 93.5 47.5 C 93.5 53.71062850952148 92.28397369384766 59.73468017578125 89.88570404052734 65.40481567382812 C 87.56893157958984 70.88229370117188 84.25196075439453 75.80186462402344 80.02691650390625 80.02691650390625 C 75.80186462402344 84.25196075439453 70.88229370117188 87.56893157958984 65.40481567382812 89.88570404052734 C 59.73468017578125 92.28397369384766 53.71062850952148 93.5 47.5 93.5 Z" stroke="none"/>
                            <path d="M 47.5 3 C 41.49121475219727 3 35.66376876831055 4.176155090332031 30.17950439453125 6.495796203613281 C 24.88084411621094 8.736953735351562 20.12152099609375 11.94598388671875 16.03375244140625 16.03375244140625 C 11.94598388671875 20.12152099609375 8.736953735351562 24.88084411621094 6.495796203613281 30.17950439453125 C 4.176155090332031 35.66376876831055 3 41.49121475219727 3 47.5 C 3 53.50878524780273 4.176155090332031 59.33624649047852 6.495796203613281 64.82049560546875 C 8.736953735351562 70.11917114257812 11.94598388671875 74.87849426269531 16.03375244140625 78.96626281738281 C 20.12152099609375 83.05403137207031 24.88084411621094 86.2630615234375 30.17950439453125 88.50419616699219 C 35.66376876831055 90.82384490966797 41.49121475219727 92 47.5 92 C 53.50878524780273 92 59.33624649047852 90.82384490966797 64.82049560546875 88.50419616699219 C 70.11917114257812 86.2630615234375 74.87849426269531 83.05403137207031 78.96626281738281 78.96626281738281 C 83.05403137207031 74.87849426269531 86.2630615234375 70.11917114257812 88.50419616699219 64.82049560546875 C 90.82384490966797 59.33624649047852 92 53.50878524780273 92 47.5 C 92 41.49121475219727 90.82384490966797 35.66376876831055 88.50419616699219 30.17950439453125 C 86.2630615234375 24.88084411621094 83.05403137207031 20.12152099609375 78.96626281738281 16.03375244140625 C 74.87849426269531 11.94598388671875 70.11917114257812 8.736953735351562 64.82049560546875 6.495796203613281 C 59.33624649047852 4.176155090332031 53.50878524780273 3 47.5 3 M 47.5 0 C 73.73353576660156 0 95 21.2664794921875 95 47.5 C 95 73.73353576660156 73.73353576660156 95 47.5 95 C 21.2664794921875 95 0 73.73353576660156 0 47.5 C 0 21.2664794921875 21.2664794921875 0 47.5 0 Z" stroke="none" fill="#86b60c"/>
                          </g>
                        </g>
                      </g>
                    </g>
                  </g>
                </g>
              </g>
            </g>
          </g>
        </g>
      </g>
    </g>
    <g id="improvement_16136960" transform="translate(910.242 473.214)">
      <g id="Grupo_1177195" data-name="Grupo 1177195" transform="translate(21.857 1.987)">
        <g id="Grupo_1177191" data-name="Grupo 1177191" transform="translate(0)">
          <path id="Trazado_1037735" data-name="Trazado 1037735" d="M70.5,50.121a2.343,2.343,0,0,1,2.339,2.339V99.409a2.343,2.343,0,0,1-2.339,2.339H31.209a2.343,2.343,0,0,1-2.339-2.339V52.459a2.343,2.343,0,0,1,2.339-2.339H70.5Z" transform="translate(-28.87 -45.062)" fill="#b4d2d7" fill-rule="evenodd"/>
          <path id="Trazado_1037736" data-name="Trazado 1037736" d="M349.875,50.121a2.343,2.343,0,0,1,2.339,2.339V99.409a2.344,2.344,0,0,1-2.339,2.339H347.58a2.343,2.343,0,0,0,2.339-2.339V52.459a2.343,2.343,0,0,0-2.339-2.339h2.295Z" transform="translate(-308.242 -45.062)" fill="#9bb9c3" fill-rule="evenodd"/>
          <path id="Trazado_1037737" data-name="Trazado 1037737" d="M96.1,81.459v43.087a.46.46,0,0,1-.459.459H65.346l-5.6-5.6V81.459A.46.46,0,0,1,60.209,81H95.641A.46.46,0,0,1,96.1,81.459Z" transform="translate(-55.939 -72.13)" fill="#eff4f7" fill-rule="evenodd"/>
          <path id="Trazado_1037738" data-name="Trazado 1037738" d="M61.741,121.4l-1.991-1.991V81.459A.46.46,0,0,1,60.209,81H62.2a.46.46,0,0,0-.459.459Z" transform="translate(-55.939 -72.13)" fill="#e2e3e3" fill-rule="evenodd"/>
          <path id="Trazado_1037739" data-name="Trazado 1037739" d="M65.346,392.17v5.6l-5.6-5.6Z" transform="translate(-55.939 -344.893)" fill="#e2e3e3" fill-rule="evenodd"/>
          <path id="Trazado_1037740" data-name="Trazado 1037740" d="M61.741,394.162,59.75,392.17h1.991Z" transform="translate(-55.939 -344.893)" fill="#d8d8d8" fill-rule="evenodd"/>
          <path id="Trazado_1037741" data-name="Trazado 1037741" d="M138.169,14.2h5.863L141.7,10.9a1.115,1.115,0,0,1,.912-1.761h7.3a1.116,1.116,0,0,1,.912,1.761l-2.333,3.3h5.863a.456.456,0,0,1,.448.555l-.792,3.668a1.365,1.365,0,0,1-1.345,1.086H139.86a1.365,1.365,0,0,1-1.345-1.086l-.792-3.668A.456.456,0,0,1,138.169,14.2Z" transform="translate(-124.277 -9.14)" fill="#da8c36" fill-rule="evenodd"/>
          <path id="Trazado_1037742" data-name="Trazado 1037742" d="M213.991,9.14h1.543a1.116,1.116,0,0,1,.912,1.761l-2.333,3.3H212.57l2.333-3.3a1.116,1.116,0,0,0-.912-1.761Zm4.442,5.059a.456.456,0,0,1,.448.555l-.792,3.668a1.365,1.365,0,0,1-1.345,1.086h1.543a1.365,1.365,0,0,0,1.345-1.086l.792-3.668a.457.457,0,0,0-.448-.555Z" transform="translate(-189.896 -9.14)" fill="#c97629" fill-rule="evenodd"/>
        </g>
        <g id="Grupo_1177192" data-name="Grupo 1177192" transform="translate(10.212 39.869)">
          <circle id="Elipse_12386" data-name="Elipse 12386" cx="2.587" cy="2.587" r="2.587" fill="#64b5f6"/>
          <path id="Trazado_1037743" data-name="Trazado 1037743" d="M120.645,334.67a2.587,2.587,0,1,1-3.084,4.081,2.587,2.587,0,0,0,3.084-4.081Z" transform="translate(-116.826 -334.359)" fill="#42a5f5" fill-rule="evenodd"/>
        </g>
        <g id="Grupo_1177193" data-name="Grupo 1177193" transform="translate(47.212 26.919)">
          <path id="Trazado_1037744" data-name="Trazado 1037744" d="M417.776,233.326H419.7a.523.523,0,0,0,.415-.844l-3.9-5.048a.524.524,0,0,0-.829,0l-3.9,5.048a.523.523,0,0,0,.415.844h1.928v15.928a.688.688,0,0,0,.686.686h2.572a.688.688,0,0,0,.686-.686Z" transform="translate(-411.374 -227.23)" fill="#64b5f6" fill-rule="evenodd"/>
          <path id="Trazado_1037745" data-name="Trazado 1037745" d="M445.534,233.326h1.234a.523.523,0,0,0,.415-.844l-3.9-5.048a.524.524,0,0,0-.829,0l-.2.262,3.7,4.787A.523.523,0,0,1,445.534,233.326Zm-2.613,16.616a.689.689,0,0,0,.685-.686V233.327h1.234v15.928a.688.688,0,0,1-.686.686Z" transform="translate(-438.439 -227.23)" fill="#42a5f5" fill-rule="evenodd"/>
        </g>
        <g id="Grupo_1177194" data-name="Grupo 1177194" transform="translate(29.248 36.586)">
          <circle id="Elipse_12387" data-name="Elipse 12387" cx="12.029" cy="12.029" r="12.029" transform="translate(0 0.674) rotate(-1.604)" fill="#fdb800"/>
          <path id="Trazado_1037746" data-name="Trazado 1037746" d="M308.527,331.47a12.029,12.029,0,1,1-16.957,16.957,12.029,12.029,0,0,0,16.957-16.957Z" transform="translate(-288.394 -328.271)" fill="#f4a40e" fill-rule="evenodd"/>
          <circle id="Elipse_12388" data-name="Elipse 12388" cx="8.396" cy="8.396" r="8.396" transform="translate(3.94 3.963)" fill="#ffda2d"/>
          <path id="Trazado_1037747" data-name="Trazado 1037747" d="M306.147,337.65a8.373,8.373,0,0,1,6.148,2.678,8.4,8.4,0,0,0-11.123,12.482,8.4,8.4,0,0,1,4.975-15.161Z" transform="translate(-293.811 -333.688)" fill="#ffc700" fill-rule="evenodd"/>
        </g>
      </g>
      <path id="Trazado_1037748" data-name="Trazado 1037748" d="M66.374,52.662a2.744,2.744,0,0,1-1.942,2.62v.623a.989.989,0,0,1-1.977,0v-.58a2.754,2.754,0,0,1-1.586-1.063.988.988,0,1,1,1.6-1.158.764.764,0,0,0,.616.318h.549a.762.762,0,0,0,0-1.523h-.389a2.735,2.735,0,0,1-.792-5.354v-.623a.989.989,0,0,1,1.977,0V46.5a2.745,2.745,0,0,1,1.582,1.063.988.988,0,1,1-1.6,1.157.763.763,0,0,0-.616-.317h-.549a.759.759,0,1,0,0,1.518h.389a2.741,2.741,0,0,1,2.738,2.738Zm-2.93,5.659a7.407,7.407,0,1,0-7.408-7.408A7.415,7.415,0,0,0,63.444,58.321Zm0-16.79a9.384,9.384,0,1,0,9.382,9.382A9.394,9.394,0,0,0,63.444,41.531ZM36.075,44.426a1.417,1.417,0,1,1-1.416-1.414A1.417,1.417,0,0,1,36.075,44.426ZM54.457,28.818,54,28.295v4.8a5.577,5.577,0,1,1-11.154,0V28.528a3.6,3.6,0,1,0-7.2,0V41.181a3.4,3.4,0,1,1-1.977,0V28.528a5.576,5.576,0,0,1,11.152,0v4.566a3.6,3.6,0,1,0,7.2,0V28.3l-.454.52a.988.988,0,0,1-1.489-1.3l2.187-2.5a.987.987,0,0,1,1.487,0l2.191,2.5a.988.988,0,1,1-1.487,1.3ZM47.1,43.648a.988.988,0,0,0-1.4-1.4l-.858.858-.858-.858a.988.988,0,0,0-1.4,1.4l.858.858-.858.859a.988.988,0,0,0,1.4,1.4l.858-.858.858.858a.988.988,0,0,0,1.4-1.4l-.858-.859ZM31.751,22.375a.988.988,0,0,1-1.4-1.4l.859-.86-.859-.86a.988.988,0,0,1,1.4-1.4l.858.859.858-.859a.988.988,0,1,1,1.4,1.4l-.859.86.859.86a.988.988,0,1,1-1.4,1.4l-.858-.859Zm18.18-3.217a.988.988,0,1,1,1.38-1.416l1.453,1.414,3.17-3.2a.988.988,0,1,1,1.4,1.391l-3.86,3.9a.988.988,0,0,1-1.392.014ZM72.514,41.586v-6.6A.989.989,0,0,0,71.525,34h-.986L73.5,30.17,76.454,34h-.982a.987.987,0,0,0-.987.989v9.039A13.08,13.08,0,0,0,72.514,41.586Zm-9.07,20.371A11.042,11.042,0,1,0,52.4,50.913,11.055,11.055,0,0,0,63.444,61.956ZM24.2,57.667H52.316a13.141,13.141,0,0,1-.926-1.833H31.265a.992.992,0,0,1-.7-.29l-5.6-5.6a.992.992,0,0,1-.29-.7V10.838a.989.989,0,0,1,.989-.989H34.78l-.395-1.833H24.2a1.354,1.354,0,0,0-1.353,1.352V56.314A1.354,1.354,0,0,0,24.2,57.667ZM41.612,8.015a.988.988,0,0,0,.807-1.558l-2.33-3.3a.127.127,0,0,1,.1-.2H47.5a.115.115,0,0,1,.112.069.12.12,0,0,1-.01.136l-2.33,3.3a.988.988,0,0,0,.807,1.558h5.2l-.652,3.028a.38.38,0,0,1-.381.307H37.441a.379.379,0,0,1-.381-.3l-.653-3.03h5.2ZM30.278,52.46l-2.223-2.224h2.223Zm20.482,1.4A13.024,13.024,0,0,1,61.031,38.121v-26.3H52.449a2.348,2.348,0,0,1-2.2,1.5H37.441a2.35,2.35,0,0,1-2.2-1.5H26.655V48.259h4.61a.987.987,0,0,1,.987.987v4.61ZM64.841,9.368A1.353,1.353,0,0,0,63.49,8.017H53.3L52.907,9.85H62.02a.988.988,0,0,1,.989.989V37.9c.144,0,.29-.009.436-.009a13.053,13.053,0,0,1,1.4.075ZM78.6,33.536l-3.9-5.052a1.514,1.514,0,0,0-2.391,0l-3.9,5.048a1.515,1.515,0,0,0,1.2,2.44h.939V40a12.945,12.945,0,0,0-3.719-1.664V9.368A3.333,3.333,0,0,0,63.49,6.039H47.985L49.213,4.3A2.1,2.1,0,0,0,47.5.98H40.191A2.105,2.105,0,0,0,38.475,4.3L39.7,6.039H24.2A3.332,3.332,0,0,0,20.87,9.368V56.314a3.332,3.332,0,0,0,3.329,3.33H53.793a13.012,13.012,0,0,0,22.668-8.731V35.975H77.4A1.512,1.512,0,0,0,78.6,33.536Z" fill-rule="evenodd"/>
    </g>
  </g>
</svg>
