<svg xmlns="http://www.w3.org/2000/svg" xmlns:xlink="http://www.w3.org/1999/xlink" width="113" height="113" viewBox="0 0 113 113">
  <defs>
    <filter id="Trazado_982547" x="0" y="0" width="113" height="113" filterUnits="userSpaceOnUse">
      <feOffset dy="3" input="SourceAlpha"/>
      <feGaussianBlur stdDeviation="3" result="blur"/>
      <feFlood flood-opacity="0.161"/>
      <feComposite operator="in" in2="blur"/>
      <feComposite in="SourceGraphic"/>
    </filter>
  </defs>
  <g id="Grupo_1177199" data-name="Grupo 1177199" transform="translate(-1216.5 -452.171)">
    <g id="Grupo_1176434" data-name="Grupo 1176434" transform="translate(944.5 -4770.382)">
      <g id="Grupo_1172014" data-name="Grupo 1172014" transform="translate(281 5228.553)">
        <g id="Grupo_1167343" data-name="Grupo 1167343" transform="translate(0)">
          <g id="Grupo_1166777" data-name="Grupo 1166777" transform="translate(0)">
            <g id="Grupo_1164305" data-name="Grupo 1164305">
              <g id="Grupo_1163948" data-name="Grupo 1163948">
                <g id="Grupo_1158168" data-name="Grupo 1158168">
                  <g id="Grupo_1152576" data-name="Grupo 1152576">
                    <g id="Grupo_1148633" data-name="Grupo 1148633">
                      <g id="Grupo_1148525" data-name="Grupo 1148525">
                        <g transform="matrix(1, 0, 0, 1, -9, -6)" filter="url(#Trazado_982547)">
                          <g id="Trazado_982547-2" data-name="Trazado 982547" transform="translate(9 6)" fill="#f2f7e5">
                            <path d="M 47.5 93.5 C 41.28937149047852 93.5 35.26533508300781 92.28397369384766 29.59518623352051 89.88570404052734 C 24.11771965026855 87.56893157958984 19.19813346862793 84.25196075439453 14.97309303283691 80.02691650390625 C 10.74804019927979 75.80186462402344 7.431066513061523 70.88229370117188 5.114293098449707 65.40481567382812 C 2.716026782989502 59.73468017578125 1.5 53.71062850952148 1.5 47.5 C 1.5 41.28937149047852 2.716026782989502 35.26533508300781 5.114293098449707 29.59518623352051 C 7.431066513061523 24.11771965026855 10.74804019927979 19.19813346862793 14.97309303283691 14.97309303283691 C 19.19813346862793 10.74804019927979 24.11771965026855 7.431066513061523 29.59518623352051 5.114293098449707 C 35.26533508300781 2.716026782989502 41.28937149047852 1.5 47.5 1.5 C 53.71062850952148 1.5 59.73468017578125 2.716026782989502 65.40481567382812 5.114293098449707 C 70.88229370117188 7.431066513061523 75.80186462402344 10.74804019927979 80.02691650390625 14.97309303283691 C 84.25196075439453 19.19813346862793 87.56893157958984 24.11771965026855 89.88570404052734 29.59518623352051 C 92.28397369384766 35.26533508300781 93.5 41.28937149047852 93.5 47.5 C 93.5 53.71062850952148 92.28397369384766 59.73468017578125 89.88570404052734 65.40481567382812 C 87.56893157958984 70.88229370117188 84.25196075439453 75.80186462402344 80.02691650390625 80.02691650390625 C 75.80186462402344 84.25196075439453 70.88229370117188 87.56893157958984 65.40481567382812 89.88570404052734 C 59.73468017578125 92.28397369384766 53.71062850952148 93.5 47.5 93.5 Z" stroke="none"/>
                            <path d="M 47.5 3 C 41.49121475219727 3 35.66376876831055 4.176155090332031 30.17950439453125 6.495796203613281 C 24.88084411621094 8.736953735351562 20.12152099609375 11.94598388671875 16.03375244140625 16.03375244140625 C 11.94598388671875 20.12152099609375 8.736953735351562 24.88084411621094 6.495796203613281 30.17950439453125 C 4.176155090332031 35.66376876831055 3 41.49121475219727 3 47.5 C 3 53.50878524780273 4.176155090332031 59.33624649047852 6.495796203613281 64.82049560546875 C 8.736953735351562 70.11917114257812 11.94598388671875 74.87849426269531 16.03375244140625 78.96626281738281 C 20.12152099609375 83.05403137207031 24.88084411621094 86.2630615234375 30.17950439453125 88.50419616699219 C 35.66376876831055 90.82384490966797 41.49121475219727 92 47.5 92 C 53.50878524780273 92 59.33624649047852 90.82384490966797 64.82049560546875 88.50419616699219 C 70.11917114257812 86.2630615234375 74.87849426269531 83.05403137207031 78.96626281738281 78.96626281738281 C 83.05403137207031 74.87849426269531 86.2630615234375 70.11917114257812 88.50419616699219 64.82049560546875 C 90.82384490966797 59.33624649047852 92 53.50878524780273 92 47.5 C 92 41.49121475219727 90.82384490966797 35.66376876831055 88.50419616699219 30.17950439453125 C 86.2630615234375 24.88084411621094 83.05403137207031 20.12152099609375 78.96626281738281 16.03375244140625 C 74.87849426269531 11.94598388671875 70.11917114257812 8.736953735351562 64.82049560546875 6.495796203613281 C 59.33624649047852 4.176155090332031 53.50878524780273 3 47.5 3 M 47.5 0 C 73.73353576660156 0 95 21.2664794921875 95 47.5 C 95 73.73353576660156 73.73353576660156 95 47.5 95 C 21.2664794921875 95 0 73.73353576660156 0 47.5 C 0 21.2664794921875 21.2664794921875 0 47.5 0 Z" stroke="none" fill="#86b60c"/>
                          </g>
                        </g>
                      </g>
                    </g>
                  </g>
                </g>
              </g>
            </g>
          </g>
        </g>
      </g>
    </g>
    <g id="pie-chart_975137" transform="translate(1241.547 473.637)">
      <g id="Grupo_1177197" data-name="Grupo 1177197" transform="translate(38.013 14.801)">
        <path id="Trazado_1037749" data-name="Trazado 1037749" d="M368.833,310.267l-3.676,5.669,3.676,5.669H352.9v-3.068h5.514v-8.27h10.419Z" transform="translate(-345.238 -284.33)" fill="#fdc75b"/>
        <path id="Trazado_1037750" data-name="Trazado 1037750" d="M351.063,120.48H337.9l10.6-10.6.013-.013A23.184,23.184,0,0,1,351.063,120.48Z" transform="translate(-332.179 -109.867)" fill="#fdc75b"/>
        <path id="Trazado_1037751" data-name="Trazado 1037751" d="M306.876,287.632v8.27H293.7V284.267h13.176Z" transform="translate(-293.7 -261.695)" fill="#fdc75b"/>
      </g>
      <path id="Trazado_1037752" data-name="Trazado 1037752" d="M275.167,63.406a23.836,23.836,0,0,1,4.323,5.98l-.013.013L268.877,80H258.6v-.078l16.528-16.554h0C275.154,63.38,275.154,63.393,275.167,63.406Z" transform="translate(-225.13 -54.585)" fill="#ed664c"/>
      <path id="Trazado_1037753" data-name="Trazado 1037753" d="M274.967,34.29h0L258.4,50.844V40.489l10.523-10.522A24.178,24.178,0,0,1,274.967,34.29Z" transform="translate(-224.956 -25.508)" fill="#fdc75b"/>
      <g id="Grupo_1177198" data-name="Grupo 1177198" transform="translate(1.294 1.961)">
        <path id="Trazado_1037754" data-name="Trazado 1037754" d="M33.452,100.219H56.9a22.787,22.787,0,0,1-.246,3.4h-9.94v15.958A23.478,23.478,0,0,1,10,100.219a23.585,23.585,0,0,1,6.86-16.593,23.283,23.283,0,0,1,16.593-6.86Z" transform="translate(-10 -68.212)" fill="#ed664c"/>
        <path id="Trazado_1037755" data-name="Trazado 1037755" d="M269.023,13.165,258.5,23.687V10.667A23.348,23.348,0,0,1,269.023,13.165Z" transform="translate(-226.337 -10.667)" fill="#ed664c"/>
      </g>
      <path id="Trazado_1037756" data-name="Trazado 1037756" d="M249.346,26.747H272.8a1.312,1.312,0,0,0,1.294-1.32A24.424,24.424,0,0,0,271.4,14.218a25.293,25.293,0,0,0-4.543-6.3l-.039-.039-.026-.026a25.638,25.638,0,0,0-6.342-4.543A24.669,24.669,0,0,0,249.32.667,1.32,1.32,0,0,0,248,1.961V25.414A1.377,1.377,0,0,0,249.346,26.747Zm10.742-20.7A22.758,22.758,0,0,1,264,8.821l-13.409,13.4V15.525Zm11.39,18.107h-8.723l7.093-7.093A21.541,21.541,0,0,1,271.478,24.158Zm-2.822-9.578-9.565,9.578H252.4l13.473-13.486A22.141,22.141,0,0,1,268.657,14.581ZM257.578,4.86l-6.989,6.989V3.294A21.3,21.3,0,0,1,257.578,4.86Z" transform="translate(-215.902)"/>
      <path id="Trazado_1037757" data-name="Trazado 1037757" d="M62.747,97.661a1.314,1.314,0,0,0-1.139-.686h-9.06V94.918a1.366,1.366,0,0,0-1.359-1.307H49.4c.065-.647.091-1.385.091-2.084A1.287,1.287,0,0,0,48.2,90.245H26.015V68.061a1.287,1.287,0,0,0-1.281-1.294,24.747,24.747,0,1,0,12.024,46.426v6.458a1.294,1.294,0,1,0,2.589,0v-8.115a25.85,25.85,0,0,0,2.938-2.524c.362-.375.712-.777,1.061-1.165h1.061v1.773a1.321,1.321,0,0,0,1.281,1.333h15.92a1.321,1.321,0,0,0,1.087-2.032l-3.223-4.957,3.223-4.97A1.328,1.328,0,0,0,62.747,97.661Zm-23.4,7.6V96.2H49.959v9.06ZM24.76,113.672a22.158,22.158,0,0,1-1.346-44.277V91.514a1.343,1.343,0,0,0,1.32,1.32H46.853c-.013.259-.039.518-.065.777H38a1.277,1.277,0,0,0-1.255,1.307V110.19A22.272,22.272,0,0,1,24.76,113.672Zm14.587-5.436v-.388h.388C39.592,107.977,39.475,108.106,39.346,108.236Zm17.5-3.559,2.381,3.689H46.982v-.518h4.206a1.346,1.346,0,0,0,1.359-1.294V99.564h6.678l-2.381,3.689A1.345,1.345,0,0,0,56.845,104.676Z" transform="translate(0 -57.545)"/>
    </g>
  </g>
</svg>
