<svg xmlns="http://www.w3.org/2000/svg" xmlns:xlink="http://www.w3.org/1999/xlink" width="113" height="113" viewBox="0 0 113 113">
  <defs>
    <filter id="Trazado_982547" x="0" y="0" width="113" height="113" filterUnits="userSpaceOnUse">
      <feOffset dy="3" input="SourceAlpha"/>
      <feGaussianBlur stdDeviation="3" result="blur"/>
      <feFlood flood-opacity="0.161"/>
      <feComposite operator="in" in2="blur"/>
      <feComposite in="SourceGraphic"/>
    </filter>
  </defs>
  <g id="Grupo_1176484" data-name="Grupo 1176484" transform="translate(-1164.381 -635.98)">
    <g id="Grupo_1176396" data-name="Grupo 1176396" transform="translate(1173.381 641.98)">
      <g id="Grupo_1172014" data-name="Grupo 1172014">
        <g id="Grupo_1167343" data-name="Grupo 1167343" transform="translate(0)">
          <g id="Grupo_1166777" data-name="Grupo 1166777" transform="translate(0)">
            <g id="Grupo_1164305" data-name="Grupo 1164305">
              <g id="Grupo_1163948" data-name="Grupo 1163948">
                <g id="Grupo_1158168" data-name="Grupo 1158168">
                  <g id="Grupo_1152576" data-name="Grupo 1152576">
                    <g id="Grupo_1148633" data-name="Grupo 1148633">
                      <g id="Grupo_1148525" data-name="Grupo 1148525">
                        <g transform="matrix(1, 0, 0, 1, -9, -6)" filter="url(#Trazado_982547)">
                          <g id="Trazado_982547-2" data-name="Trazado 982547" transform="translate(9 6)" fill="#f2f7e5">
                            <path d="M 47.5 93.5 C 41.28937149047852 93.5 35.26533508300781 92.28397369384766 29.59518623352051 89.88570404052734 C 24.11771965026855 87.56893157958984 19.19813346862793 84.25196075439453 14.97309303283691 80.02691650390625 C 10.74804019927979 75.80186462402344 7.431066513061523 70.88229370117188 5.114293098449707 65.40481567382812 C 2.716026782989502 59.73468017578125 1.5 53.71062850952148 1.5 47.5 C 1.5 41.28937149047852 2.716026782989502 35.26533508300781 5.114293098449707 29.59518623352051 C 7.431066513061523 24.11771965026855 10.74804019927979 19.19813346862793 14.97309303283691 14.97309303283691 C 19.19813346862793 10.74804019927979 24.11771965026855 7.431066513061523 29.59518623352051 5.114293098449707 C 35.26533508300781 2.716026782989502 41.28937149047852 1.5 47.5 1.5 C 53.71062850952148 1.5 59.73468017578125 2.716026782989502 65.40481567382812 5.114293098449707 C 70.88229370117188 7.431066513061523 75.80186462402344 10.74804019927979 80.02691650390625 14.97309303283691 C 84.25196075439453 19.19813346862793 87.56893157958984 24.11771965026855 89.88570404052734 29.59518623352051 C 92.28397369384766 35.26533508300781 93.5 41.28937149047852 93.5 47.5 C 93.5 53.71062850952148 92.28397369384766 59.73468017578125 89.88570404052734 65.40481567382812 C 87.56893157958984 70.88229370117188 84.25196075439453 75.80186462402344 80.02691650390625 80.02691650390625 C 75.80186462402344 84.25196075439453 70.88229370117188 87.56893157958984 65.40481567382812 89.88570404052734 C 59.73468017578125 92.28397369384766 53.71062850952148 93.5 47.5 93.5 Z" stroke="none"/>
                            <path d="M 47.5 3 C 41.49121475219727 3 35.66376876831055 4.176155090332031 30.17950439453125 6.495796203613281 C 24.88084411621094 8.736953735351562 20.12152099609375 11.94598388671875 16.03375244140625 16.03375244140625 C 11.94598388671875 20.12152099609375 8.736953735351562 24.88084411621094 6.495796203613281 30.17950439453125 C 4.176155090332031 35.66376876831055 3 41.49121475219727 3 47.5 C 3 53.50878524780273 4.176155090332031 59.33624649047852 6.495796203613281 64.82049560546875 C 8.736953735351562 70.11917114257812 11.94598388671875 74.87849426269531 16.03375244140625 78.96626281738281 C 20.12152099609375 83.05403137207031 24.88084411621094 86.2630615234375 30.17950439453125 88.50419616699219 C 35.66376876831055 90.82384490966797 41.49121475219727 92 47.5 92 C 53.50878524780273 92 59.33624649047852 90.82384490966797 64.82049560546875 88.50419616699219 C 70.11917114257812 86.2630615234375 74.87849426269531 83.05403137207031 78.96626281738281 78.96626281738281 C 83.05403137207031 74.87849426269531 86.2630615234375 70.11917114257812 88.50419616699219 64.82049560546875 C 90.82384490966797 59.33624649047852 92 53.50878524780273 92 47.5 C 92 41.49121475219727 90.82384490966797 35.66376876831055 88.50419616699219 30.17950439453125 C 86.2630615234375 24.88084411621094 83.05403137207031 20.12152099609375 78.96626281738281 16.03375244140625 C 74.87849426269531 11.94598388671875 70.11917114257812 8.736953735351562 64.82049560546875 6.495796203613281 C 59.33624649047852 4.176155090332031 53.50878524780273 3 47.5 3 M 47.5 0 C 73.73353576660156 0 95 21.2664794921875 95 47.5 C 95 73.73353576660156 73.73353576660156 95 47.5 95 C 21.2664794921875 95 0 73.73353576660156 0 47.5 C 0 21.2664794921875 21.2664794921875 0 47.5 0 Z" stroke="none" fill="#86b60c"/>
                          </g>
                        </g>
                      </g>
                    </g>
                  </g>
                </g>
              </g>
            </g>
          </g>
        </g>
      </g>
    </g>
    <g id="profit_5071176" transform="translate(1191.544 660.012)">
      <g id="Layer_29" data-name="Layer 29" transform="translate(0.994 1.918)">
        <path id="Trazado_1036286" data-name="Trazado 1036286" d="M56.692,40.567V11.183h3.673L51.183,2,42,11.183h3.673V40.567" transform="translate(-4.346 -2)" fill="#4d8c28"/>
        <path id="Trazado_1036287" data-name="Trazado 1036287" d="M45.673,11.183V26.793h5.51V2L42,11.183Z" transform="translate(-4.346 -2)" fill="#559b2d"/>
        <path id="Trazado_1036288" data-name="Trazado 1036288" d="M24.532,32.875h8.324V18.183h5.51L29.183,9,20,18.183h5.51V32.875" transform="translate(-2.548 -2.572)" fill="#b52f28"/>
        <path id="Trazado_1036289" data-name="Trazado 1036289" d="M20,18.183h5.51V32.875h3.673V9Z" transform="translate(-2.548 -2.572)" fill="#d23f34"/>
        <path id="Trazado_1036290" data-name="Trazado 1036290" d="M48.692,58.486v-30.3h3.673L43.183,19,34,28.183h3.673v30.3Z" transform="translate(-3.693 -3.389)" fill="#6bc13b"/>
        <circle id="Elipse_12320" data-name="Elipse 12320" cx="16.529" cy="16.529" r="16.529" transform="translate(0.923 22.038)" fill="#f4a93c"/>
        <circle id="Elipse_12321" data-name="Elipse 12321" cx="12.856" cy="12.856" r="12.856" transform="translate(4.596 25.712)" fill="#f9d266"/>
        <path id="Trazado_1036291" data-name="Trazado 1036291" d="M28.956,41.019a12.818,12.818,0,0,0-4.416-9.682,12.842,12.842,0,0,0-14.127,21.2A12.835,12.835,0,0,0,28.956,41.019Z" transform="translate(-1.404 -4.289)" fill="#fce797"/>
        <path id="Trazado_1036292" data-name="Trazado 1036292" d="M6.509,10.356V4.924A2.755,2.755,0,0,1,8.346,7.51h1.837a4.6,4.6,0,0,0-3.673-4.5V2H4.673V3.01a4.591,4.591,0,0,0,0,9v5.433a2.755,2.755,0,0,1-1.837-2.587H1a4.6,4.6,0,0,0,3.673,4.5v1.01H6.509v-1.01a4.591,4.591,0,0,0,0-9ZM2.836,7.51A2.755,2.755,0,0,1,4.673,4.924V10.1A2.755,2.755,0,0,1,2.836,7.51Zm3.673,9.932V12.27a2.738,2.738,0,0,1,0,5.172Z" transform="translate(-0.995 -2)" fill="#f6b940"/>
        <path id="Trazado_1036293" data-name="Trazado 1036293" d="M19.673,42.346A1.837,1.837,0,1,1,21.51,40.51h1.837a3.673,3.673,0,0,0-2.755-3.543V35H18.755v1.967a3.666,3.666,0,0,0,.918,7.216,1.837,1.837,0,1,1-1.837,1.837H16a3.673,3.673,0,0,0,2.755,3.543v1.967h1.837V49.562a3.666,3.666,0,0,0-.918-7.216Z" transform="translate(-2.221 -4.697)" fill="#f0ae42"/>
        <path id="Trazado_1036294" data-name="Trazado 1036294" d="M17.755,6.591a.918.918,0,1,1,.918-.918H20.51a2.755,2.755,0,0,0-1.837-2.586V2H16.837V3.087a2.748,2.748,0,0,0,.918,5.341.918.918,0,1,1-.918.918H15a2.755,2.755,0,0,0,1.837,2.586v1.087h1.837V11.932a2.748,2.748,0,0,0-.918-5.341Z" transform="translate(-2.14 -2)" fill="#f6b940"/>
        <path id="Trazado_1036295" data-name="Trazado 1036295" d="M43.188,54.812V19.006L43.183,19,34,28.183h3.673v26.63Z" transform="translate(-3.693 -3.389)" fill="#7bdf45"/>
        <path id="Trazado_1036296" data-name="Trazado 1036296" d="M46.532,59.875h8.324V45.183h5.51L51.183,36,42,45.183h5.51V59.875" transform="translate(-4.346 -4.779)" fill="#f0ae42"/>
        <path id="Trazado_1036297" data-name="Trazado 1036297" d="M47.51,45.183V56.2h3.673V36L42,45.183Z" transform="translate(-4.346 -4.779)" fill="#f9d266"/>
      </g>
      <g id="Layer_32" data-name="Layer 32" transform="translate(0.982 1)">
        <path id="Trazado_1036298" data-name="Trazado 1036298" d="M57.013,12.019a.918.918,0,0,0,.649-1.567L48.479,1.269a.918.918,0,0,0-1.3,0L38,10.452a.918.918,0,0,0,.649,1.567H41.4v5.129l-.269-.269a.918.918,0,0,0-1.3,0L32.22,24.495V18.447h4.591a.918.918,0,0,0,.649-1.567L28.277,7.7a.918.918,0,0,0-1.3,0L17.8,16.88a.918.918,0,0,0,.649,1.567h4.591v5.225A17.441,17.441,0,1,0,34.056,48.23v8.784a.918.918,0,0,0,.918.918H51.5a.918.918,0,0,0,.918-.918V43.24h4.591a.918.918,0,0,0,.649-1.567l-3.4-3.4V12.019ZM34.056,32.741a17.421,17.421,0,0,0-1.837-2.925V27.63h1.837Zm-10.1-16.13H20.662l6.966-6.966,6.966,6.966H31.3a.918.918,0,0,0-.918.918V27.8a17.479,17.479,0,0,0-5.51-3.516V17.529A.918.918,0,0,0,23.955,16.611ZM18.446,56.1A15.611,15.611,0,1,1,34.056,40.486,15.611,15.611,0,0,1,18.446,56.1Zm24.793,0H35.893V26.712a.918.918,0,0,0-.918-.918H33.518l6.966-6.966,6.966,6.966H45.994a.918.918,0,0,0-.918.918V34.6L38,41.673a.918.918,0,0,0,.649,1.567h4.591ZM51.5,41.4a.918.918,0,0,0-.918.918V56.1h-5.51V42.322a.918.918,0,0,0-.918-.918H40.864l6.966-6.966L54.8,41.4ZM48.479,32.49a.918.918,0,0,0-1.3,0l-.269.269V27.63h2.755a.918.918,0,0,0,.649-1.567l-7.077-7.077V11.1a.918.918,0,0,0-.918-.918H40.864L47.83,3.217,54.8,10.183H53.34a.918.918,0,0,0-.918.918V36.432Z" transform="translate(-0.982 -1)"/>
        <path id="Trazado_1036299" data-name="Trazado 1036299" d="M2.836,14.856H1a4.6,4.6,0,0,0,3.673,4.5v1.01H6.509v-1.01a4.591,4.591,0,0,0,0-9V4.924A2.755,2.755,0,0,1,8.346,7.51h1.837a4.6,4.6,0,0,0-3.673-4.5V2H4.673V3.01a4.591,4.591,0,0,0,0,9v5.433a2.755,2.755,0,0,1-1.837-2.587Zm5.51,0a2.755,2.755,0,0,1-1.837,2.586V12.27A2.755,2.755,0,0,1,8.346,14.856ZM2.836,7.51A2.755,2.755,0,0,1,4.673,4.924V10.1A2.755,2.755,0,0,1,2.836,7.51Z" transform="translate(-0.983 -1.082)"/>
        <path id="Trazado_1036300" data-name="Trazado 1036300" d="M19.673,38.673A1.837,1.837,0,0,1,21.51,40.51h1.837a3.673,3.673,0,0,0-2.755-3.543V35H18.755v1.967a3.666,3.666,0,0,0,.918,7.216,1.837,1.837,0,1,1-1.837,1.837H16a3.673,3.673,0,0,0,2.755,3.543v1.967h1.837V49.562a3.666,3.666,0,0,0-.918-7.216,1.837,1.837,0,1,1,0-3.673Z" transform="translate(-2.209 -3.779)"/>
        <path id="Trazado_1036301" data-name="Trazado 1036301" d="M17.755,10.264a.918.918,0,0,1-.918-.918H15a2.755,2.755,0,0,0,1.837,2.586v1.087h1.837V11.932a2.748,2.748,0,0,0-.918-5.341.918.918,0,1,1,.918-.918H20.51a2.755,2.755,0,0,0-1.837-2.586V2H16.837V3.087a2.748,2.748,0,0,0,.918,5.341.918.918,0,1,1,0,1.837Z" transform="translate(-2.127 -1.082)"/>
        <path id="Trazado_1036302" data-name="Trazado 1036302" d="M18.774,29A13.774,13.774,0,1,0,32.548,42.774,13.774,13.774,0,0,0,18.774,29Zm0,25.712A11.937,11.937,0,1,1,30.712,42.774,11.937,11.937,0,0,1,18.774,54.712Z" transform="translate(-1.31 -3.289)"/>
      </g>
    </g>
  </g>
</svg>
