<svg xmlns="http://www.w3.org/2000/svg" xmlns:xlink="http://www.w3.org/1999/xlink" width="400" height="379" viewBox="0 0 400 379">
  <defs>
    <clipPath id="clip-path">
      <rect id="Rectángulo_416037" data-name="Rectángulo 416037" width="400" height="379" transform="translate(179 1562)" fill="#103d47"/>
    </clipPath>
    <clipPath id="clip-path-2">
      <rect id="Rectángulo_415996" data-name="Rectángulo 415996" width="72.709" height="69.633" transform="translate(0 0)" fill="none"/>
    </clipPath>
    <clipPath id="clip-path-3">
      <rect id="Rectángulo_416045" data-name="Rectángulo 416045" width="161.886" height="132.553" fill="none"/>
    </clipPath>
    <clipPath id="clip-path-4">
      <rect id="Rectángulo_416038" data-name="Rectángulo 416038" width="230.464" height="617.182" fill="none"/>
    </clipPath>
    <clipPath id="clip-path-5">
      <path id="Trazado_1036634" data-name="Trazado 1036634" d="M33.468,597.261l-18.017,9.918a5.2,5.2,0,0,0-2.474,5.74c.468,1.8,2.006,3.18,6.015,3.26,8.907.177,48.323-6.391,48.323-6.391v5.293l18.158-.229s1.634-26.094-3.937-29.508Z" fill="none"/>
    </clipPath>
    <clipPath id="clip-path-7">
      <path id="Trazado_1036639" data-name="Trazado 1036639" d="M110.691,614.852l18.159.229v-5.293s39.415,6.568,48.322,6.391c4.009-.08,5.547-1.458,6.015-3.26a5.2,5.2,0,0,0-2.474-5.74L162.7,597.261l-48.068-11.917c-5.571,3.414-3.937,29.508-3.937,29.508" fill="none"/>
    </clipPath>
    <clipPath id="clip-path-9">
      <path id="Trazado_1036656" data-name="Trazado 1036656" d="M71.689,38.686c0,21.706,12.338,39.524,29.911,39.524,17.685,0,29.911-17.818,29.911-39.524S124.027,7.742,101.6,7.742,71.689,16.98,71.689,38.686" fill="none"/>
    </clipPath>
    <clipPath id="clip-path-11">
      <path id="Trazado_1036688" data-name="Trazado 1036688" d="M98.56,58.442a.743.743,0,0,0-.743.743,4.257,4.257,0,1,0,8.514,0,.743.743,0,0,0-.743-.743Z" fill="none"/>
    </clipPath>
    <clipPath id="clip-path-13">
      <rect id="Rectángulo_416057" data-name="Rectángulo 416057" width="24.83" height="22.174" transform="translate(0 0)" fill="none"/>
    </clipPath>
    <clipPath id="clip-path-14">
      <path id="Trazado_1036718" data-name="Trazado 1036718" d="M9.186,19.473A15.419,15.419,0,1,0,24.6,4.054,15.419,15.419,0,0,0,9.186,19.473" fill="none"/>
    </clipPath>
    <clipPath id="clip-path-15">
      <rect id="Rectángulo_416047" data-name="Rectángulo 416047" width="138.088" height="81.952" transform="translate(0 0)" fill="none"/>
    </clipPath>
    <clipPath id="clip-path-16">
      <rect id="Rectángulo_416053" data-name="Rectángulo 416053" width="104.241" height="31.515" transform="translate(2.49 38.476)" fill="none"/>
    </clipPath>
    <clipPath id="clip-path-18">
      <path id="Trazado_1036724" data-name="Trazado 1036724" d="M103.2,61.279A15.418,15.418,0,1,0,118.616,45.86,15.419,15.419,0,0,0,103.2,61.279" fill="none"/>
    </clipPath>
    <clipPath id="clip-path-21">
      <rect id="Rectángulo_416033" data-name="Rectángulo 416033" width="82.47" height="94.16" transform="translate(0 0)" fill="none"/>
    </clipPath>
    <clipPath id="clip-path-22">
      <path id="Trazado_1036599" data-name="Trazado 1036599" d="M33.882,62.215,29.22,87.942a6.218,6.218,0,0,0,6.218,6.218H54.947a6.218,6.218,0,0,0,6.218-6.218L56.259,62.215Z" fill="none"/>
    </clipPath>
  </defs>
  <g id="Enmascarar_grupo_1098803" data-name="Enmascarar grupo 1098803" transform="translate(-179 -1562)" clip-path="url(#clip-path)">
    <g id="Grupo_1176563" data-name="Grupo 1176563" transform="translate(438.88 1575.5)">
      <g id="Grupo_1176562" data-name="Grupo 1176562" clip-path="url(#clip-path-2)">
        <path id="Trazado_1036540" data-name="Trazado 1036540" d="M69.633,34.817A34.817,34.817,0,1,1,34.817,0,34.816,34.816,0,0,1,69.633,34.817" fill="#1c1588"/>
        <path id="Trazado_1036541" data-name="Trazado 1036541" d="M61.422,34.817A26.606,26.606,0,1,1,34.816,8.211,26.606,26.606,0,0,1,61.422,34.817" fill="#fff"/>
        <path id="Trazado_1036542" data-name="Trazado 1036542" d="M53.854,34.817A19.037,19.037,0,1,1,34.816,15.779,19.037,19.037,0,0,1,53.854,34.817" fill="#1c1588"/>
        <path id="Trazado_1036543" data-name="Trazado 1036543" d="M45.449,34.817A10.632,10.632,0,1,1,34.817,24.185,10.633,10.633,0,0,1,45.449,34.817" fill="#fff"/>
        <path id="Trazado_1036544" data-name="Trazado 1036544" d="M45.308,22V12.829a1.3,1.3,0,0,1,.4-.937L57.786.362a1.3,1.3,0,0,1,2.191.937v9.727a1.3,1.3,0,0,1-.425.96L47.476,22.96A1.3,1.3,0,0,1,45.308,22" fill="#e278b7"/>
        <path id="Trazado_1036545" data-name="Trazado 1036545" d="M49.25,26.748l9.1,1.1a1.3,1.3,0,0,0,.979-.286l12.9-10.6a1.3,1.3,0,0,0-.667-2.288L61.91,13.506a1.3,1.3,0,0,0-1,.306L48.559,24.48a1.3,1.3,0,0,0,.691,2.268" fill="#e278b7"/>
        <path id="Trazado_1036546" data-name="Trazado 1036546" d="M35.428,32.222,60.733,9.729a1.276,1.276,0,0,1,1.855.17l1.4,1.8a1.276,1.276,0,0,1-.225,1.793l-26.7,20.7a1.276,1.276,0,0,1-1.63-1.963" fill="#0a0a44"/>
      </g>
    </g>
    <g id="Grupo_1176621" data-name="Grupo 1176621" transform="translate(406.101 1654)">
      <g id="Grupo_1176620" data-name="Grupo 1176620" clip-path="url(#clip-path-3)">
        <path id="Trazado_1036707" data-name="Trazado 1036707" d="M51.4,171.049H28.161V134.142a5.5,5.5,0,0,1,5.5-5.5h12.25a5.5,5.5,0,0,1,5.5,5.5Z" transform="translate(-9.733 -44.464)" fill="#acaceb"/>
        <path id="Trazado_1036708" data-name="Trazado 1036708" d="M105.428,150.145H82.184V73.659a5.5,5.5,0,0,1,5.5-5.5h12.25a5.5,5.5,0,0,1,5.5,5.5Z" transform="translate(-28.405 -23.559)" fill="#1c1588"/>
        <path id="Trazado_1036709" data-name="Trazado 1036709" d="M161.346,137.338H138.1V37.049a5.941,5.941,0,0,1,5.941-5.941H155.4a5.941,5.941,0,0,1,5.941,5.941Z" transform="translate(-47.732 -10.752)" fill="#acaceb"/>
        <path id="Trazado_1036710" data-name="Trazado 1036710" d="M215.091,126.586H191.847V5.5a5.5,5.5,0,0,1,5.5-5.5h12.25a5.5,5.5,0,0,1,5.5,5.5Z" transform="translate(-66.308)" fill="#1c1588"/>
        <path id="Trazado_1036711" data-name="Trazado 1036711" d="M159.221,199.415H2.665a3,3,0,0,1,0-5.968H159.221a3,3,0,0,1,0,5.968" transform="translate(0 -66.861)" fill="#0a0a44"/>
        <path id="Trazado_1036712" data-name="Trazado 1036712" d="M41.919,130.138c4.74-8.633,11.762-16.2,20.618-20.5,10.8-5.252,23.429-5.359,34.59-9.792,12.806-5.086,22.717-15.446,31.546-26.023,6.677-8,13.771-16.818,23.908-19.229" transform="translate(-14.489 -18.868)" fill="none" stroke="#e278b7" stroke-linecap="round" stroke-linejoin="round" stroke-width="4.149"/>
        <path id="Trazado_1036713" data-name="Trazado 1036713" d="M42.89,169.585a3.312,3.312,0,1,1-3.312-3.312,3.312,3.312,0,0,1,3.312,3.312" transform="translate(-12.535 -57.469)" fill="#e278b7"/>
        <path id="Trazado_1036714" data-name="Trazado 1036714" d="M213.865,51.472a3.312,3.312,0,1,1-3.312-3.312,3.312,3.312,0,0,1,3.312,3.312" transform="translate(-71.629 -16.646)" fill="#e278b7"/>
      </g>
    </g>
    <g id="Grupo_1176602" data-name="Grupo 1176602" transform="translate(195.235 1575.5)">
      <path id="Trazado_1036631" data-name="Trazado 1036631" d="M96.782,279.536,80.032,605.022l-25.963,1.914L57.5,280.371Z" fill="#ef9eae"/>
      <g id="Grupo_1176603" data-name="Grupo 1176603">
        <g id="Grupo_1176602-2" data-name="Grupo 1176602" clip-path="url(#clip-path-4)">
          <path id="Trazado_1036632" data-name="Trazado 1036632" d="M33.468,597.26l-18.017,9.919a5.2,5.2,0,0,0-2.474,5.739c.468,1.8,2.006,3.181,6.015,3.26,8.907.178,48.322-6.391,48.322-6.391v5.294l18.159-.229s1.634-26.094-3.936-29.509Z" fill="#0a0a44"/>
        </g>
      </g>
      <g id="Grupo_1176605" data-name="Grupo 1176605">
        <g id="Grupo_1176604" data-name="Grupo 1176604" clip-path="url(#clip-path-5)">
          <path id="Trazado_1036633" data-name="Trazado 1036633" d="M86.009,617.182H67.314v-7.4l19.252-3.609Z" fill="#fff"/>
        </g>
      </g>
      <g id="Grupo_1176607" data-name="Grupo 1176607">
        <g id="Grupo_1176606" data-name="Grupo 1176606" clip-path="url(#clip-path-4)">
          <path id="Trazado_1036635" data-name="Trazado 1036635" d="M53.819,583.847,33.468,597.26s3.107,8.91,16.861,2.97,31.207-14.886,31.207-14.886l-1.645-5.769Z" fill="#ef9eae"/>
          <path id="Trazado_1036636" data-name="Trazado 1036636" d="M103.137,279.616l13,325.406,25.962,1.915-3.433-326.566Z" fill="#ef9eae"/>
          <path id="Trazado_1036637" data-name="Trazado 1036637" d="M162.7,597.26l18.017,9.919a5.2,5.2,0,0,1,2.474,5.739c-.468,1.8-2.006,3.181-6.015,3.26-8.907.178-48.322-6.391-48.322-6.391v5.294l-18.159-.229s-1.634-26.094,3.936-29.509Z" fill="#0a0a44"/>
        </g>
      </g>
      <g id="Grupo_1176609" data-name="Grupo 1176609">
        <g id="Grupo_1176608" data-name="Grupo 1176608" clip-path="url(#clip-path-7)">
          <path id="Trazado_1036638" data-name="Trazado 1036638" d="M110.155,617.182H128.85v-7.4L109.6,606.178Z" fill="#fff"/>
        </g>
      </g>
      <g id="Grupo_1176611" data-name="Grupo 1176611">
        <g id="Grupo_1176610" data-name="Grupo 1176610" clip-path="url(#clip-path-4)">
          <path id="Trazado_1036640" data-name="Trazado 1036640" d="M141.467,583.7,162.7,597.261s-3.105,8.909-16.86,2.969-31.207-14.886-31.207-14.886l1.645-5.769Z" fill="#ef9eae"/>
          <path id="Trazado_1036641" data-name="Trazado 1036641" d="M165.681,117.6l26.537,62.139a7.665,7.665,0,0,1-6.325,9.2s-13.167,1.388-14.605-.771c-4.811-7.22-38.072-59.586-38.072-59.586l10.276-35.32c9.992,2.98,18.483,14.816,22.189,24.342" fill="#ef9eae"/>
          <path id="Trazado_1036642" data-name="Trazado 1036642" d="M143.521,93.259s11.992,2.562,21.867,21.184l-22.111,31.088-10.062-16.957Z" fill="#c5c5ef"/>
          <path id="Trazado_1036643" data-name="Trazado 1036643" d="M169.292,116.073a4.3,4.3,0,0,1,1.381,3.943,3.085,3.085,0,0,1-3.165,2.429,3.946,3.946,0,0,1-4.717,5.061,4.081,4.081,0,0,1-4.455,5.906,5.788,5.788,0,0,1,.033,4.817,3.558,3.558,0,0,1-4.158,1.851c.788.711.518,2.029-.059,2.92a6.087,6.087,0,0,1-6.1,2.6,2.689,2.689,0,0,1-4.941,1.426,4.364,4.364,0,0,1-.564-2.406,18.121,18.121,0,0,1,1.442-6.436,47.153,47.153,0,0,1,15.03-20.247c3.013-2.338,6.419-5.485,10.273-1.868" fill="#c5c5ef"/>
          <path id="Trazado_1036644" data-name="Trazado 1036644" d="M33.2,115.574,1.552,176.458a7.665,7.665,0,0,0,5.836,9.514s13.207,2.3,14.756.225c5.181-6.959,41-57.751,41-57.751L54.726,92.639C43.944,95.947,37.14,107.59,33.2,115.574" fill="#ef9eae"/>
          <path id="Trazado_1036645" data-name="Trazado 1036645" d="M54.726,92.639s-12.108,2.854-22.513,20.779l21.334,31.626,5.8-8.849Z" fill="#c5c5ef"/>
          <path id="Trazado_1036646" data-name="Trazado 1036646" d="M28.27,114.95a4.3,4.3,0,0,0-1.478,3.907,3.084,3.084,0,0,0,3.1,2.507,3.946,3.946,0,0,0,4.59,5.176,4.082,4.082,0,0,0,4.308,6.015,5.789,5.789,0,0,0-.152,4.815,3.557,3.557,0,0,0,4.111,1.953c-.805.692-.569,2.016-.014,2.92A6.086,6.086,0,0,0,48.772,145a2.69,2.69,0,0,0,4.9,1.548,4.369,4.369,0,0,0,.623-2.391,18.139,18.139,0,0,0-1.283-6.471,47.15,47.15,0,0,0-14.523-20.612c-2.955-2.412-6.281-5.642-10.224-2.122" fill="#c5c5ef"/>
          <path id="Trazado_1036647" data-name="Trazado 1036647" d="M212.492,118.807l-14.379-11.065-26.685,62.379c-5.136,9.907-3.608,17.364,4.409,21.428,6.666,3.378,14.634,2.9,18.487-5.589Z" fill="#ef9eae"/>
          <path id="Trazado_1036648" data-name="Trazado 1036648" d="M228.664,108.425s-14.984,14.631-20.1,9.82c-6.959-6.542-9.895-14.83-8.017-16.784s14.008-9.353,14.008-9.353,15.361,6.21,14.109,16.317" fill="#ef9eae"/>
          <path id="Trazado_1036649" data-name="Trazado 1036649" d="M220.557,111.8s-6.037-4.081-9.747-3.435l-.042-10.538,4.018-5.068,9.9,15.878Z" fill="#e37481"/>
          <path id="Trazado_1036650" data-name="Trazado 1036650" d="M137.235,36.9c-4.261-5.749-3.135-33.868-30.9-36.6C77.8-2.519,71.449,15.528,65.933,27.15,61.307,36.9,52.7,40.4,55.093,47.839S53.6,57.754,53.6,57.754c-6.264,3.583-7.457,8.6-7.295,12.326a5.269,5.269,0,0,0,5.276,5.03l89.95-.093a7.444,7.444,0,0,0,7.357-6.294C151.467,51.9,142.6,44.137,137.235,36.9" fill="#0a0a44"/>
          <path id="Trazado_1036651" data-name="Trazado 1036651" d="M88.429,66.594l-2.285,40.681,29.232-.468-2.082-33.561Z" fill="#ef9eae"/>
          <path id="Trazado_1036652" data-name="Trazado 1036652" d="M87.512,83.105c15.2,3.986,25.782-9.859,25.782-9.859L88.429,66.594Z" fill="#e37481"/>
          <path id="Trazado_1036653" data-name="Trazado 1036653" d="M131.511,38.686c0,21.706-12.226,39.524-29.911,39.524-17.573,0-29.911-17.818-29.911-39.524S79.173,7.742,101.6,7.742s29.911,9.238,29.911,30.944" fill="#ef9eae"/>
        </g>
      </g>
      <g id="Grupo_1176613" data-name="Grupo 1176613">
        <g id="Grupo_1176612" data-name="Grupo 1176612" clip-path="url(#clip-path-9)">
          <path id="Trazado_1036654" data-name="Trazado 1036654" d="M84.686,58.18c0,3.934-3.534,7.123-7.893,7.123S68.9,62.114,68.9,58.18s3.533-7.123,7.892-7.123,7.893,3.189,7.893,7.123" fill="#e37481"/>
          <path id="Trazado_1036655" data-name="Trazado 1036655" d="M134.007,57.825c0,3.934-3.533,7.123-7.892,7.123s-7.892-3.189-7.892-7.123,3.533-7.123,7.892-7.123,7.892,3.189,7.892,7.123" fill="#e37481"/>
        </g>
      </g>
      <g id="Grupo_1176615" data-name="Grupo 1176615">
        <g id="Grupo_1176614" data-name="Grupo 1176614" clip-path="url(#clip-path-4)">
          <path id="Trazado_1036657" data-name="Trazado 1036657" d="M131.381,42.5S124.832,29.567,123.4,16.63c0,0-1.365-5.979-.168-5.37,5.624,2.86,13.444,17.655,8.151,31.238" fill="#0a0a44"/>
          <path id="Trazado_1036658" data-name="Trazado 1036658" d="M66.026,178.965h0a23.391,23.391,0,0,1-2.874,10.813c-7.362,13.547-18.587,42.6-20.1,81.131,0,0,6.508,263.536,7.27,274.651H85.946L101.6,295.4l8.191,250.16h36.37s10.141-206.687,9.525-220.637c-.765-17.3-.8-94.259-24.819-134.78a15.45,15.45,0,0,1-1.909-11.178Z" fill="#0a0a44"/>
          <path id="Trazado_1036659" data-name="Trazado 1036659" d="M112.265,87.745c-6.706,0-13.141.388-23.624-.3L54.726,92.639c0,9.06,9.211,86.46,9.211,86.46h66.226l13.358-85.84Z" fill="#ef9eae"/>
          <path id="Trazado_1036660" data-name="Trazado 1036660" d="M126.3,90.222c-.851,11.92-5.2,34.558-27.376,33C76.719,121.659,73.37,100.91,72.884,89.86L54.726,92.639c0,9.061,9.211,86.46,9.211,86.46h66.226L143.521,93.26Z" fill="#e5e5fd"/>
          <path id="Trazado_1036661" data-name="Trazado 1036661" d="M95.355,101.179l4.482,10.18a1.247,1.247,0,0,0,2.257.056l4.783-9.558,9.959-13.305,9.467,1.669-.482,17.5-15.333,20.432-27.93-.888-12.4-25.8V90.276L84.8,88.036Z" fill="#e5e5fd"/>
          <path id="Trazado_1036662" data-name="Trazado 1036662" d="M97.4,100.092l2.438,11.268-5.958-9.889Z" fill="#a8a8dd"/>
          <path id="Trazado_1036663" data-name="Trazado 1036663" d="M104.437,100.311,102,111.579l5.958-9.889Z" fill="#a8a8dd"/>
          <path id="Trazado_1036664" data-name="Trazado 1036664" d="M87.246,87.662,97.671,98.349a1.1,1.1,0,0,1-.272,1.742l-6.065,3.227a1.1,1.1,0,0,1-1.532-.54L83.588,88.222Z" fill="#c5c5ef"/>
          <path id="Trazado_1036665" data-name="Trazado 1036665" d="M113.782,88.535l-9.844,9.918a1.2,1.2,0,0,0,.257,1.88l5.838,3.319a1.2,1.2,0,0,0,1.688-.567l5.564-12.963a1.2,1.2,0,0,0-.89-1.648l-1.558-.274a1.192,1.192,0,0,0-1.055.335" fill="#c5c5ef"/>
          <path id="Trazado_1036666" data-name="Trazado 1036666" d="M104.007,104.63,68.234,159.7a4.125,4.125,0,0,0,3.326,6.37l53.96,1.772a4.125,4.125,0,0,0,3.787-2.2l29.756-56.656a4.127,4.127,0,0,0-3.638-6.044l-47.943-.187a4.123,4.123,0,0,0-3.475,1.878" fill="#f3f3ff"/>
          <path id="Trazado_1036667" data-name="Trazado 1036667" d="M124,126.473c-.868,1.5-.957,3.079-.2,3.518s2.08-.426,2.948-1.93.957-3.079.2-3.518-2.08.426-2.948,1.93" fill="#7b97fb"/>
          <path id="Trazado_1036668" data-name="Trazado 1036668" d="M106.606,103.349,70.834,158.422a4.126,4.126,0,0,0,3.325,6.371l53.96,1.771a4.126,4.126,0,0,0,3.788-2.206L161.662,107.7a4.126,4.126,0,0,0-3.637-6.044l-47.943-.188a4.129,4.129,0,0,0-3.476,1.878" fill="#1c1588"/>
          <path id="Trazado_1036669" data-name="Trazado 1036669" d="M123.583,125.627c-.925,1.47-1.073,3.041-.33,3.508s2.094-.346,3.019-1.816,1.073-3.041.33-3.508-2.094.346-3.019,1.816" fill="#f3f3ff"/>
          <path id="Trazado_1036670" data-name="Trazado 1036670" d="M70.434,146.392l12.621,13.034L24.095,193c-9.026,5.936-16.844,5.55-21.789-1.956a13.977,13.977,0,0,1,3.462-19Z" fill="#ef9eae"/>
          <path id="Trazado_1036671" data-name="Trazado 1036671" d="M97.273,154.687s-14.7,6.475-20.912,5.138c-9.1-1.956-2.176-16.167-.032-17.707s13.663-7.644,13.663-7.644,10.266,10.752,7.281,20.213" fill="#ef9eae"/>
          <path id="Trazado_1036672" data-name="Trazado 1036672" d="M87.894,135.711l19.043-10.962a2.382,2.382,0,0,1,3.363,1.091,2.135,2.135,0,0,1-.992,2.739L91.792,140.205Z" fill="#ef9eae"/>
          <path id="Trazado_1036673" data-name="Trazado 1036673" d="M109.23,131.444,90.316,140.7l2.6,5.812,18.455-11.135a2.139,2.139,0,0,0,.921-3.043,2.371,2.371,0,0,0-3.066-.894" fill="#ef9eae"/>
          <path id="Trazado_1036674" data-name="Trazado 1036674" d="M94.289,145.488l16.63-7.261a1.881,1.881,0,0,1,1.626,3.389L96.4,150.084Z" fill="#ef9eae"/>
          <path id="Trazado_1036675" data-name="Trazado 1036675" d="M96.238,149.956l14.033-4.808a1.905,1.905,0,0,1,1.35,3.561l-14.347,5.978Z" fill="#ef9eae"/>
          <path id="Trazado_1036676" data-name="Trazado 1036676" d="M80.634,125.785a1.486,1.486,0,0,0-.231.476,26.454,26.454,0,0,1-.635,4.264A35.8,35.8,0,0,1,73.4,143.69l-2.97,2.7c.84,3.872,5.049,5.95,6.648,7.649,0,0,.233-.011.627-.065a14.5,14.5,0,0,0,4.867-1.533,8.483,8.483,0,0,0,4.574-6.124,12.166,12.166,0,0,0-1.987-9.251A10.987,10.987,0,0,0,84,135.692a10.912,10.912,0,0,0-1.16-9.82,1.354,1.354,0,0,0-2.211-.087" fill="#ef9eae"/>
          <path id="Trazado_1036677" data-name="Trazado 1036677" d="M80.634,125.785a1.486,1.486,0,0,0-.231.476,26.454,26.454,0,0,1-.635,4.264,1.782,1.782,0,0,0,.713-.3,2.809,2.809,0,0,0,1.1-2.388,3.13,3.13,0,0,0-.544-1.739.956.956,0,0,0-.407-.31" fill="#fcc3d1"/>
          <path id="Trazado_1036678" data-name="Trazado 1036678" d="M75.077,47.056c.641,4.266.523,10.294-5.185,10.7-3.982.283-6.913-5.733-7.554-10s1.314-7.275,5.29-7.627,6.808,2.66,7.449,6.926" fill="#ef9eae"/>
          <path id="Trazado_1036679" data-name="Trazado 1036679" d="M66.5,45.859s3.676.635,3.454,5.826" fill="none" stroke="#0a0a44" stroke-linecap="round" stroke-linejoin="round" stroke-width="0.827"/>
          <path id="Trazado_1036680" data-name="Trazado 1036680" d="M127.623,45.855c-.641,4.266-.523,10.294,5.185,10.7,3.982.283,6.913-5.733,7.554-10s-1.314-7.275-5.291-7.627-6.807,2.66-7.448,6.926" fill="#ef9eae"/>
          <path id="Trazado_1036681" data-name="Trazado 1036681" d="M136.2,44.658s-3.676.634-3.453,5.826" fill="none" stroke="#0a0a44" stroke-linecap="round" stroke-linejoin="round" stroke-width="0.827"/>
          <line id="Línea_841" data-name="Línea 841" x1="4.949" transform="translate(98.245 44.014)" fill="none" stroke="#fff" stroke-linecap="round" stroke-miterlimit="10" stroke-width="1.115"/>
          <line id="Línea_842" data-name="Línea 842" x2="6.183" y2="1.041" transform="translate(71.689 41.287)" fill="none" stroke="#fff" stroke-linecap="round" stroke-miterlimit="10" stroke-width="1.115"/>
          <line id="Línea_843" data-name="Línea 843" y1="1.705" x2="7.382" transform="translate(123.386 40.103)" fill="none" stroke="#fff" stroke-linecap="round" stroke-miterlimit="10" stroke-width="1.115"/>
          <circle id="Elipse_12322" data-name="Elipse 12322" cx="9.499" cy="9.499" r="9.499" transform="translate(74.874 47.662) rotate(-58.282)" fill="none" stroke="#fff" stroke-linecap="round" stroke-miterlimit="10" stroke-width="1.115"/>
          <path id="Trazado_1036682" data-name="Trazado 1036682" d="M122.785,44.014a9.5,9.5,0,1,1-9.5-9.5A9.5,9.5,0,0,1,122.785,44.014Z" fill="none" stroke="#fff" stroke-linecap="round" stroke-miterlimit="10" stroke-width="1.115"/>
          <path id="Trazado_1036683" data-name="Trazado 1036683" d="M99.79,52.9s2.42.62,2.279-.726a19.265,19.265,0,0,0-.636-3.309" fill="none" stroke="#0a0a44" stroke-linecap="round" stroke-miterlimit="10" stroke-width="0.989"/>
          <path id="Trazado_1036684" data-name="Trazado 1036684" d="M90.963,44.808c0,1.5-.921,2.71-2.058,2.71s-2.057-1.213-2.057-2.71.921-2.71,2.057-2.71,2.058,1.213,2.058,2.71" fill="#0a0a44"/>
          <path id="Trazado_1036685" data-name="Trazado 1036685" d="M115.343,44.808c0,1.5-.921,2.71-2.058,2.71s-2.057-1.213-2.057-2.71.921-2.71,2.057-2.71,2.058,1.213,2.058,2.71" fill="#0a0a44"/>
          <path id="Trazado_1036686" data-name="Trazado 1036686" d="M102.074,63.442h0a4.257,4.257,0,0,1-4.257-4.257.743.743,0,0,1,.743-.743h7.028a.743.743,0,0,1,.743.743,4.257,4.257,0,0,1-4.257,4.257" fill="#fff"/>
        </g>
      </g>
      <g id="Grupo_1176617" data-name="Grupo 1176617">
        <g id="Grupo_1176616" data-name="Grupo 1176616" clip-path="url(#clip-path-11)">
          <path id="Trazado_1036687" data-name="Trazado 1036687" d="M105.546,63.78a3.472,3.472,0,1,1-3.472-3.472,3.472,3.472,0,0,1,3.472,3.472" fill="#df4d5d"/>
        </g>
      </g>
      <g id="Grupo_1176619" data-name="Grupo 1176619">
        <g id="Grupo_1176618" data-name="Grupo 1176618" clip-path="url(#clip-path-4)">
          <path id="Trazado_1036689" data-name="Trazado 1036689" d="M88.556,31.285a16.055,16.055,0,0,0-8.232,2.857.2.2,0,0,0,.162.367,31.965,31.965,0,0,1,7-.788,25.24,25.24,0,0,1,5.633.613.2.2,0,0,0,.24-.269c-.876-2.231-2.448-2.778-4.808-2.78" fill="#0a0a44"/>
          <path id="Trazado_1036690" data-name="Trazado 1036690" d="M112.459,30.943a16.048,16.048,0,0,1,8.232,2.858.2.2,0,0,1-.162.366,32.079,32.079,0,0,0-7-.789,25.294,25.294,0,0,0-5.633.613.2.2,0,0,1-.241-.268c.877-2.231,2.449-2.778,4.809-2.78" fill="#0a0a44"/>
          <path id="Trazado_1036691" data-name="Trazado 1036691" d="M215.554,69.606a13.737,13.737,0,1,1-4.976-18.779,13.737,13.737,0,0,1,4.976,18.779" fill="#fff"/>
          <rect id="Rectángulo_416042" data-name="Rectángulo 416042" width="8.952" height="4.475" transform="translate(219.187 111.205) rotate(-22.767)" fill="#acaceb"/>
          <path id="Trazado_1036692" data-name="Trazado 1036692" d="M220.914,115.344l.437,1.042a4.476,4.476,0,1,0,8.255-3.465l-.437-1.042Z" fill="#acaceb"/>
          <path id="Trazado_1036693" data-name="Trazado 1036693" d="M207.723,79.094l3.053,8.239h0a2.07,2.07,0,0,1,.531-.322l4.364-1.832a2.093,2.093,0,0,1,.6-.153h0l-3.741-7.951a16.937,16.937,0,0,1-4.816,2.021" fill="#1c1588"/>
          <path id="Trazado_1036694" data-name="Trazado 1036694" d="M210.182,89.772a2.109,2.109,0,0,1,.6-2.44,2.076,2.076,0,0,1,.532-.322l4.363-1.832a2.112,2.112,0,0,1,2.762,1.129l.916,2.182L211.1,91.954Z" fill="#acaceb"/>
          <rect id="Rectángulo_416043" data-name="Rectángulo 416043" width="8.952" height="20.887" transform="translate(211.103 91.946) rotate(-22.767)" fill="#1c1588"/>
          <path id="Trazado_1036695" data-name="Trazado 1036695" d="M203.6,45.823a16.881,16.881,0,1,0,15.645,10.348A16.881,16.881,0,0,0,203.6,45.823m4.869,5.161a12.661,12.661,0,1,1-16.51,6.929,12.66,12.66,0,0,1,16.51-6.929" fill="#1c1588"/>
          <path id="Trazado_1036696" data-name="Trazado 1036696" d="M71.689,24.313S85.329,26.5,105.7,25.9c1.485-.044,1.312-5.525,2.764-5.525.91,0,1.988,5.256,3.386,5.274,1.663.021,3.359-.069,5.089-.182.533-.035.394-2.62.913-2.637.623-.021.968,2.49,1.694,2.4,2.537-.3,5.148-.6,7.811-.917l-1.773-11.278-8.2-6.057L90.963,6.24,75.341,13.8Z" fill="#0a0a44"/>
          <path id="Trazado_1036697" data-name="Trazado 1036697" d="M229.287,108.77a2.13,2.13,0,0,0,1.177-1.926c-.027-1.1-.25-2.626-1.2-3.38-1.583-1.253-10.545,4.835-10.415,5.767.174,1.241,1.071,2.653,2.035,2.527a50.049,50.049,0,0,0,8.407-2.988" fill="#ef9eae"/>
          <path id="Trazado_1036698" data-name="Trazado 1036698" d="M229.26,103.463c.02.016.039.034.058.051-2.919.581-9.354,5.082-9.243,5.873a3.624,3.624,0,0,0,1.22,2.281c-.185.046-.329.078-.415.089-.964.127-1.86-1.286-2.035-2.527-.13-.932,8.832-7.019,10.415-5.767" fill="#e37481"/>
          <path id="Trazado_1036699" data-name="Trazado 1036699" d="M228.348,102.872a1.514,1.514,0,0,0,.613-1.723c-.406-1.223-1.208-3.175-2.212-3.248-1.467-.107-11.211,5.342-10.511,7.513s1.379,2.652,2.057,2.657c.567,0,7.51-3.492,10.053-5.2" fill="#ef9eae"/>
          <path id="Trazado_1036700" data-name="Trazado 1036700" d="M226.749,97.9a1.024,1.024,0,0,1,.511.2c-3.282,1.5-9.058,5.17-8.514,6.859a4.844,4.844,0,0,0,1.307,2.4,9.138,9.138,0,0,1-1.758.713c-.677,0-1.357-.486-2.057-2.657s9.044-7.62,10.511-7.513" fill="#e37481"/>
          <path id="Trazado_1036701" data-name="Trazado 1036701" d="M224.96,98.387a2.051,2.051,0,0,0,.881-1.962c-.178-1.243-.659-3.131-1.961-3.884-2.016-1.166-11.436,6.812-11.132,7.842s1.268,4.085,2.354,3.791a88.907,88.907,0,0,0,9.858-5.787" fill="#ef9eae"/>
          <path id="Trazado_1036702" data-name="Trazado 1036702" d="M223.628,92.452c-3.418,2.047-7.809,6.041-7.6,6.75.244.825.911,2.946,1.725,3.607a21.024,21.024,0,0,1-2.652,1.365c-1.086.294-2.049-2.761-2.354-3.791-.293-.993,8.439-8.432,10.88-7.931" fill="#e37481"/>
          <path id="Trazado_1036703" data-name="Trazado 1036703" d="M221.7,92.407a1.664,1.664,0,0,0,.392-2c-.649-1.241-1.83-3.152-2.921-3.068-1.61.125-11.277,7.522-10.157,9.723s1.937,2.605,2.673,2.5c.614-.088,7.51-4.9,10.013-7.151" fill="#ef9eae"/>
          <path id="Trazado_1036704" data-name="Trazado 1036704" d="M219.173,87.336a1.078,1.078,0,0,1,.127,0c-3.248,2.394-7.246,6.135-6.5,7.6.922,1.813,1.639,2.4,2.274,2.5a23.29,23.29,0,0,1-3.382,2.125c-.735.105-1.553-.3-2.673-2.5s8.547-9.6,10.157-9.723" fill="#e37481"/>
          <path id="Trazado_1036705" data-name="Trazado 1036705" d="M213.413,102.275c.06,8.148-8.556,10.928-8.556,10.928-1.785-1.308-7.332-4.6-6.864-5.673A54.673,54.673,0,0,0,202.941,87a31.993,31.993,0,0,0-.14-4.58c-.013-.141-.029-.283-.046-.421.123-1.316,2.565-1.668,3.509-.744,4.515,4.416,7.112,16.362,7.149,21.023" fill="#ef9eae"/>
          <path id="Trazado_1036706" data-name="Trazado 1036706" d="M204.087,83.544a2.539,2.539,0,0,1-.018,2.421A2.5,2.5,0,0,1,202.94,87a32.278,32.278,0,0,0-.138-4.579,2.536,2.536,0,0,1,1.285,1.126" fill="#fcc3d1"/>
        </g>
      </g>
    </g>
    <g id="Grupo_1176638" data-name="Grupo 1176638" transform="translate(434 1665)">
      <g id="Grupo_1176637" data-name="Grupo 1176637" clip-path="url(#clip-path-13)">
        <path id="Trazado_1036726" data-name="Trazado 1036726" d="M22.17,10.765,11.61.278A.959.959,0,0,0,10.239.3L.266,10.785a.958.958,0,0,0,.7,1.619H4.69a.959.959,0,0,1,.959.959v7.851a.959.959,0,0,0,.959.959h8.434A.959.959,0,0,0,16,21.214V13.363a.959.959,0,0,1,.959-.959h4.534a.959.959,0,0,0,.676-1.639" fill="#1c1588"/>
        <path id="Trazado_1036727" data-name="Trazado 1036727" d="M24.545,10.765,13.985.278A.959.959,0,0,0,12.614.3L2.641,10.785A.958.958,0,0,0,3.336,12.4H7.065a.959.959,0,0,1,.959.959v7.851a.959.959,0,0,0,.959.959h8.434a.959.959,0,0,0,.959-.959V13.363a.959.959,0,0,1,.959-.959h4.534a.959.959,0,0,0,.676-1.639" fill="#8ac6dd"/>
      </g>
    </g>
    <rect id="Rectángulo_415997" data-name="Rectángulo 415997" width="400" height="65" transform="translate(179 1876)" fill="#c5c5ef"/>
    <g id="Grupo_1176636" data-name="Grupo 1176636" transform="translate(418 1826.548)">
      <g id="Grupo_1176625" data-name="Grupo 1176625">
        <g id="Grupo_1176624" data-name="Grupo 1176624" clip-path="url(#clip-path-14)">
          <path id="Trazado_1036717" data-name="Trazado 1036717" d="M24.065,30.37a19.254,19.254,0,0,0,12.293-8.584c1.911-3.211,2.683-6.952,3.426-10.613a29.5,29.5,0,0,1,2.313,16.3A14.224,14.224,0,0,1,40.739,32.1a12.457,12.457,0,0,1-2.9,3.516,18.748,18.748,0,0,1-15.669,4.2,18.389,18.389,0,0,1-6.628-2.75c-1.638-1.09-4.449-3.079-5.022-5.076-.9-3.145,3.1-1.544,4.61-1.328a24.6,24.6,0,0,0,8.937-.291" fill="#f2ae40"/>
        </g>
      </g>
      <g id="Grupo_1176627" data-name="Grupo 1176627">
        <g id="Grupo_1176626" data-name="Grupo 1176626" clip-path="url(#clip-path-15)">
          <path id="Trazado_1036719" data-name="Trazado 1036719" d="M39.8,10.582H38.639a3.913,3.913,0,0,1-3.913-3.913V5.506a.867.867,0,0,0-.79-.881.835.835,0,0,0-.88.834v1.21a3.913,3.913,0,0,1-3.913,3.913H27.98a.867.867,0,0,0-.881.79.835.835,0,0,0,.834.88h1.21a3.913,3.913,0,0,1,3.913,3.913v1.163a.867.867,0,0,0,.79.881.835.835,0,0,0,.88-.834v-1.21a3.913,3.913,0,0,1,3.913-3.913h1.21a.835.835,0,0,0,.834-.88.867.867,0,0,0-.881-.79" fill="#fff"/>
          <path id="Trazado_1036720" data-name="Trazado 1036720" d="M104.9,69.99H4.321a1.83,1.83,0,0,1-1.83-1.83V40.306a1.83,1.83,0,0,1,1.83-1.831H104.9a1.83,1.83,0,0,1,1.83,1.831V68.16a1.83,1.83,0,0,1-1.83,1.83" fill="#70b54a"/>
        </g>
      </g>
      <g id="Grupo_1176629" data-name="Grupo 1176629">
        <g id="Grupo_1176628" data-name="Grupo 1176628" clip-path="url(#clip-path-16)">
          <rect id="Rectángulo_416048" data-name="Rectángulo 416048" width="109.222" height="2.424" transform="translate(0 41.052)" fill="#519327"/>
          <rect id="Rectángulo_416049" data-name="Rectángulo 416049" width="109.222" height="2.424" transform="translate(0 46.847)" fill="#519327"/>
          <rect id="Rectángulo_416050" data-name="Rectángulo 416050" width="109.222" height="2.424" transform="translate(0 52.643)" fill="#519327"/>
          <rect id="Rectángulo_416051" data-name="Rectángulo 416051" width="109.222" height="2.424" transform="translate(0 58.438)" fill="#519327"/>
          <rect id="Rectángulo_416052" data-name="Rectángulo 416052" width="109.222" height="2.424" transform="translate(0 65.029)" fill="#519327"/>
        </g>
      </g>
      <g id="Grupo_1176631" data-name="Grupo 1176631">
        <g id="Grupo_1176630" data-name="Grupo 1176630" clip-path="url(#clip-path-15)">
          <rect id="Rectángulo_416054" data-name="Rectángulo 416054" width="15.606" height="33.333" transform="translate(46.808 37.567)" fill="#e5e5fd"/>
          <path id="Trazado_1036721" data-name="Trazado 1036721" d="M138.088,61.278a19.472,19.472,0,1,1-19.472-19.472,19.472,19.472,0,0,1,19.472,19.472" fill="#f4d739"/>
          <path id="Trazado_1036722" data-name="Trazado 1036722" d="M134.034,61.278a15.419,15.419,0,1,1-15.419-15.419,15.419,15.419,0,0,1,15.419,15.419" fill="#ffbe4a"/>
        </g>
      </g>
      <g id="Grupo_1176633" data-name="Grupo 1176633">
        <g id="Grupo_1176632" data-name="Grupo 1176632" clip-path="url(#clip-path-18)">
          <path id="Trazado_1036723" data-name="Trazado 1036723" d="M118.075,72.176a19.259,19.259,0,0,0,12.294-8.584c1.91-3.211,2.682-6.952,3.425-10.613a29.5,29.5,0,0,1,2.313,16.3,14.224,14.224,0,0,1-1.358,4.635,12.457,12.457,0,0,1-2.9,3.516,18.748,18.748,0,0,1-15.669,4.2,18.389,18.389,0,0,1-6.628-2.75c-1.638-1.09-4.449-3.079-5.022-5.076-.9-3.145,3.1-1.544,4.61-1.328a24.6,24.6,0,0,0,8.937-.291" fill="#f2ae40"/>
        </g>
      </g>
      <g id="Grupo_1176635" data-name="Grupo 1176635">
        <g id="Grupo_1176634" data-name="Grupo 1176634" clip-path="url(#clip-path-15)">
          <path id="Trazado_1036725" data-name="Trazado 1036725" d="M133.812,52.388h-1.163a3.913,3.913,0,0,1-3.913-3.913V47.312a.867.867,0,0,0-.79-.881.835.835,0,0,0-.88.834v1.21a3.913,3.913,0,0,1-3.913,3.913H121.99a.867.867,0,0,0-.881.79.835.835,0,0,0,.834.88h1.21a3.913,3.913,0,0,1,3.913,3.913v1.163a.866.866,0,0,0,.79.881.834.834,0,0,0,.88-.834v-1.21a3.913,3.913,0,0,1,3.913-3.913h1.21a.834.834,0,0,0,.834-.88.867.867,0,0,0-.881-.79" fill="#fff"/>
        </g>
      </g>
      <g id="Grupo_1176623" data-name="Grupo 1176623">
        <g id="Grupo_1176622" data-name="Grupo 1176622" clip-path="url(#clip-path-15)">
          <path id="Trazado_1036715" data-name="Trazado 1036715" d="M44.077,19.472A19.472,19.472,0,1,1,24.6,0,19.472,19.472,0,0,1,44.077,19.472" fill="#f4d739"/>
          <path id="Trazado_1036716" data-name="Trazado 1036716" d="M40.024,19.472A15.419,15.419,0,1,1,24.6,4.053,15.419,15.419,0,0,1,40.024,19.472" fill="#ffbe4a"/>
        </g>
      </g>
    </g>
    <g id="Grupo_1176597" data-name="Grupo 1176597" transform="translate(199 1816.444)">
      <g id="Grupo_1176592" data-name="Grupo 1176592">
        <g id="Grupo_1176591" data-name="Grupo 1176591" clip-path="url(#clip-path-21)">
          <path id="Trazado_1036577" data-name="Trazado 1036577" d="M39.114,56.5c25.311-16.208,5.77-51.831.252-27.99C39.63,21.375,37.71,11.163,33,7.954c-5.469-3.724-8.4,2.563-7.952,7.685C20.358-5.289,4.458-4.3,12.047,13.161-.855-2.373-6.023,14.1,9.936,26.168c-3.8-2.877-10.5-3.084-9.853,3C1.467,35.415,6.732,39.553,12.235,42.95,7.03,39.857-2.7,41.877,1.357,49.4c7.254,11.575,25.109,15.2,37.757,7.1" fill="#86c65d"/>
          <path id="Trazado_1036578" data-name="Trazado 1036578" d="M28.825,57.01c2.189-1.369.317-4.925-2.5-4.775a27.908,27.908,0,0,1-14.618-3.177c-9.094-4.9-2.892,6.245,5.392,8.653,4.65,1.352,9.241.854,11.727-.7" fill="#77bc4a"/>
          <path id="Trazado_1036579" data-name="Trazado 1036579" d="M29.392,16.388c-1.279-1.107-3.145.749-2.509,2.485a18.28,18.28,0,0,1,.824,9.765c-1.319,6.638,4.467.609,4.381-5.042-.049-3.171-1.244-5.951-2.7-7.208" fill="#77bc4a"/>
          <path id="Trazado_1036580" data-name="Trazado 1036580" d="M15.745,25.951c1.567-.1,1.6-2.538.051-3.276a16.963,16.963,0,0,1-6.885-5.94c-3.433-5.258-3.357,2.495.368,6.186,2.091,2.071,4.687,3.139,6.466,3.03" fill="#77bc4a"/>
          <path id="Trazado_1036581" data-name="Trazado 1036581" d="M16.12,18.979s22,25.757,27.174,49.889" fill="none" stroke="#6aa842" stroke-linecap="round" stroke-linejoin="round" stroke-width="1.146"/>
          <path id="Trazado_1036582" data-name="Trazado 1036582" d="M10.434,32.028s8.774,5.041,16.528,1.619" fill="none" stroke="#6aa842" stroke-linecap="round" stroke-linejoin="round" stroke-width="1.146"/>
          <path id="Trazado_1036583" data-name="Trazado 1036583" d="M29.979,37.469a20.349,20.349,0,0,0,3.6-15.229" fill="none" stroke="#6aa842" stroke-linecap="round" stroke-linejoin="round" stroke-width="1.146"/>
          <path id="Trazado_1036584" data-name="Trazado 1036584" d="M16.14,46.061s7.6,5.091,18.125.876" fill="none" stroke="#6aa842" stroke-linecap="round" stroke-linejoin="round" stroke-width="1.146"/>
          <path id="Trazado_1036585" data-name="Trazado 1036585" d="M37.131,51.446s8.527-7.242,8.608-15.719" fill="none" stroke="#6aa842" stroke-linecap="round" stroke-linejoin="round" stroke-width="1.146"/>
          <path id="Trazado_1036586" data-name="Trazado 1036586" d="M21.122,25.342a18.094,18.094,0,0,0-1.627-11.8" fill="none" stroke="#6aa842" stroke-linecap="round" stroke-linejoin="round" stroke-width="1.146"/>
          <path id="Trazado_1036587" data-name="Trazado 1036587" d="M46.014,61.048C18.311,49.39,31.5,10.958,41,33.511c-1.477-6.987-1.325-17.377,2.772-21.342,4.754-4.6,8.717,1.094,9.145,6.217C53.967-3.035,69.8-4.766,65.3,13.73c10.066-17.506,17.964-2.157,4.3,12.457,3.258-3.484,9.821-4.828,10.22,1.281-.3,6.387-4.783,11.362-9.626,15.648,4.6-3.935,14.532-3.6,11.817,4.5C76.833,60.259,59.857,66.873,46.014,61.048" fill="#70b54a"/>
          <path id="Trazado_1036588" data-name="Trazado 1036588" d="M56.239,59.8c-2.39-.976-1.152-4.8,1.651-5.132a27.9,27.9,0,0,0,13.863-5.62c8.126-6.38,3.914,5.661-3.839,9.445C63.562,60.613,58.953,60.9,56.239,59.8" fill="#67a83d"/>
          <path id="Trazado_1036589" data-name="Trazado 1036589" d="M48.759,19.864c1.071-1.309,3.227.2,2.9,2.021a18.272,18.272,0,0,0,.851,9.763c2.432,6.316-4.3,1.361-5.175-4.222-.493-3.133.211-6.076,1.428-7.562" fill="#67a83d"/>
          <path id="Trazado_1036590" data-name="Trazado 1036590" d="M63.836,26.962c-1.56.173-2.008-2.228-.608-3.22A16.952,16.952,0,0,0,69,16.716c2.488-5.766,3.734,1.887.692,6.158-1.707,2.4-4.083,3.892-5.855,4.088" fill="#67a83d"/>
          <path id="Trazado_1036591" data-name="Trazado 1036591" d="M62.278,20.156S44.983,49.285,44,73.944" fill="none" stroke="#56932f" stroke-linecap="round" stroke-linejoin="round" stroke-width="1.146"/>
          <path id="Trazado_1036592" data-name="Trazado 1036592" d="M70.105,32.045s-7.788,6.462-16.012,4.412" fill="none" stroke="#56932f" stroke-linecap="round" stroke-linejoin="round" stroke-width="1.146"/>
          <path id="Trazado_1036593" data-name="Trazado 1036593" d="M51.772,40.737A20.351,20.351,0,0,1,45.63,26.344" fill="none" stroke="#56932f" stroke-linecap="round" stroke-linejoin="round" stroke-width="1.146"/>
          <path id="Trazado_1036594" data-name="Trazado 1036594" d="M66.872,46.846s-6.619,6.311-17.71,3.951" fill="none" stroke="#56932f" stroke-linecap="round" stroke-linejoin="round" stroke-width="1.146"/>
          <path id="Trazado_1036595" data-name="Trazado 1036595" d="M47.107,55.728s-9.636-5.683-11.161-14.023" fill="none" stroke="#56932f" stroke-linecap="round" stroke-linejoin="round" stroke-width="1.146"/>
          <path id="Trazado_1036596" data-name="Trazado 1036596" d="M58.433,27.279a18.086,18.086,0,0,1-.408-11.909" fill="none" stroke="#56932f" stroke-linecap="round" stroke-linejoin="round" stroke-width="1.146"/>
          <path id="Trazado_1036597" data-name="Trazado 1036597" d="M54.947,94.16H35.438a6.218,6.218,0,0,1-6.218-6.218l4.663-25.726H56.259l4.906,25.726a6.218,6.218,0,0,1-6.218,6.218" fill="#1c1588"/>
        </g>
      </g>
      <g id="Grupo_1176594" data-name="Grupo 1176594">
        <g id="Grupo_1176593" data-name="Grupo 1176593" clip-path="url(#clip-path-22)">
          <path id="Trazado_1036598" data-name="Trazado 1036598" d="M67.23,70.605c1.088,2.423,2.2,4.938,2.194,7.595s-1.432,5.505-3.968,6.3a6.885,6.885,0,0,1-4.145-.223,12.519,12.519,0,0,1-7.023-5.846,4.49,4.49,0,0,1-.685-2.773,2.022,2.022,0,0,1,1.951-1.787c1.277.1,1.861,1.609,2.155,2.856.64,2.716,1.091,6.06-1.041,7.861a6.12,6.12,0,0,1-2.652,1.162c-5.535,1.242-11.4-.732-16.017-4.028-3.314-2.366-6.341-5.937-6.022-10a2.585,2.585,0,0,1,.83-1.919,2.338,2.338,0,0,1,1.91-.269c1.959.44,3.4,2.1,4.446,3.816a11.018,11.018,0,0,1,1.731,4.644c.337,3.653-2.153,7.11-5.319,8.962s-6.907,2.407-10.552,2.815" fill="none" stroke="#fff" stroke-linecap="round" stroke-linejoin="round" stroke-width="1.85"/>
        </g>
      </g>
      <g id="Grupo_1176596" data-name="Grupo 1176596">
        <g id="Grupo_1176595" data-name="Grupo 1176595" clip-path="url(#clip-path-21)">
          <path id="Trazado_1036600" data-name="Trazado 1036600" d="M57.182,65.41H33.2a2.272,2.272,0,0,1,0-4.543H57.182a2.272,2.272,0,0,1,0,4.543" fill="#0a0a44"/>
        </g>
      </g>
    </g>
  </g>
</svg>
